<?xml version="1.0" encoding="UTF-8" standalone="no"?>
<!-- Created with Inkscape (http://www.inkscape.org/) -->

<svg
   xmlns:dc="http://purl.org/dc/elements/1.1/"
   xmlns:cc="http://creativecommons.org/ns#"
   xmlns:rdf="http://www.w3.org/1999/02/22-rdf-syntax-ns#"
   xmlns:svg="http://www.w3.org/2000/svg"
   xmlns="http://www.w3.org/2000/svg"
   xmlns:sodipodi="http://sodipodi.sourceforge.net/DTD/sodipodi-0.dtd"
   xmlns:inkscape="http://www.inkscape.org/namespaces/inkscape"
   width="150.01247mm"
   height="141.45984mm"
   viewBox="0 0 531.54024 501.23565"
   id="svg2"
   version="1.1"
   inkscape:version="0.91 r13725"
   sodipodi:docname="drawing.svg">
  <defs
     id="defs4" />
  <sodipodi:namedview
     id="base"
     pagecolor="#ffffff"
     bordercolor="#666666"
     borderopacity="1"
     inkscape:pageopacity="0.0"
     inkscape:pageshadow="2"
     inkscape:zoom="0.49497475"
     inkscape:cx="178.32602"
     inkscape:cy="569.93974"
     inkscape:document-units="px"
     inkscape:current-layer="layer1"
     showgrid="false"
     inkscape:window-width="960"
     inkscape:window-height="1028"
     inkscape:window-x="0"
     inkscape:window-y="24"
     inkscape:window-maximized="0"
     fit-margin-top="0"
     fit-margin-left="0"
     fit-margin-right="0"
     fit-margin-bottom="0" />
  <metadata
     id="metadata7">
    <rdf:RDF>
      <cc:Work
         rdf:about="">
        <dc:format>image/svg+xml</dc:format>
        <dc:type
           rdf:resource="http://purl.org/dc/dcmitype/StillImage" />
        <dc:title></dc:title>
      </cc:Work>
    </rdf:RDF>
  </metadata>
  <g
     inkscape:label="Layer 1"
     inkscape:groupmode="layer"
     id="layer1"
     transform="translate(-100.91525,-213.83559)">
    <g
       id="g4194">
      <path
         inkscape:connector-curvature="0"
         d="m 229.26586,623.69118 c 2.90878,-0.11851 5.68276,-0.99718 8.52357,-1.54013 2.10185,-0.29204 4.11253,-0.93423 6.07404,-1.70755 1.8234,-0.49189 3.57611,-1.13638 5.44251,-1.4711 1.2325,-0.15976 2.51195,-0.20307 3.66568,-0.72614 0.46647,-0.21149 0.86936,-0.54371 1.32341,-0.78069 0.73384,-0.42744 1.616,-0.37534 2.39814,-0.61188 0.76016,-0.2299 1.45197,-0.60091 2.23554,-0.80511 1.53354,-0.7428 3.21938,-1.31129 4.62173,-2.28756 1.92127,-0.99229 -0.53099,0.23365 1.48478,-0.64206 0.26317,-0.11433 1.01413,-0.53689 0.76539,-0.39386 -4.04041,2.32327 -8.08349,4.64204 -12.14115,6.93503 -0.24977,0.14115 0.46762,-0.33388 0.71548,-0.47836 4.52011,-2.63491 9.05795,-5.23929 13.58693,-7.85894 1.0449,-0.82955 2.35857,-0.96648 3.56694,-1.38064 0.55489,-0.19019 1.06993,-0.4828 1.61766,-0.69273 -0.54383,0.15928 1.77873,-1.12001 1.3235,-0.85724 -40.80691,23.55463 30.59744,-17.87092 -10.40473,5.79862 1.23051,-0.73367 2.28642,-1.68586 3.38521,-2.59256 0.97681,-1.09927 2.29636,-1.77626 3.4191,-2.70297 25.94115,-15.13983 10.3764,-6.02559 1.23435,-0.80275 -0.21504,0.12285 0.40547,-0.28472 0.61355,-0.41903 0.6325,-0.40825 1.21966,-0.84916 1.83208,-1.28905 4.67719,-3.69308 9.79858,-5.76263 15.18846,-9.08079 3.94276,-2.42728 -8.02037,4.62842 -12.03995,6.92624 -0.76071,0.43487 0.85873,-0.53735 1.46469,-0.90217 1.34239,-0.91782 2.54425,-2.00927 3.8903,-2.92319 1.32783,-0.93875 2.556,-1.98022 3.69124,-3.14253 1.46223,-1.32305 3.02125,-2.53272 4.57346,-3.74691 1.24426,-1.20802 2.39672,-2.48838 3.63136,-3.70817 1.00523,-1.33188 2.16708,-2.50702 3.34802,-3.68002 1.18945,-1.37795 2.53197,-2.60697 3.77579,-3.93205 1.19369,-1.22855 2.409,-2.4339 3.62867,-3.63714 1.08606,-1.32692 2.382,-2.45767 3.527,-3.7277 0.78246,-1.28473 2.00367,-2.16691 3.06223,-3.19798 0.96738,-1.10486 1.66924,-2.38177 2.41498,-3.63805 0.94595,-1.30981 1.88179,-2.63137 2.75475,-3.99062 0.74183,-1.34632 1.57827,-2.64589 2.60027,-3.79653 1.00617,-1.04713 1.85335,-2.20271 2.66538,-3.40524 1.01075,-1.24722 1.94378,-2.56309 2.81667,-3.90978 0.74459,-1.34431 1.57921,-2.6443 2.60018,-3.79541 0.92611,-1.1576 1.38509,-2.58805 2.19542,-3.82585 1.13032,-1.55709 2.14533,-3.15615 3.028,-4.86638 0.91082,-1.66 1.79665,-3.32854 2.50822,-5.0856 0.74382,-1.54983 1.22673,-3.19858 1.86202,-4.78991 0.54523,-1.4481 1.13177,-2.8929 1.85523,-4.26228 0.6584,-1.39641 1.0685,-2.87547 1.87038,-4.20528 0.75751,-1.30449 1.48885,-2.59336 2.00558,-4.01324 0.56738,-1.43672 1.23389,-2.82681 1.83801,-4.24757 0.73076,-1.49433 1.63139,-2.89043 2.48016,-4.31635 0.67455,-1.49187 1.01813,-3.08731 1.80472,-4.5339 0.68766,-1.40216 1.27802,-2.85855 1.84773,-4.3147 0.64418,-1.62725 1.17863,-3.28347 2.0902,-4.78703 0.7768,-1.32359 1.5319,-2.62832 2.06164,-4.07141 0.59713,-1.40459 1.42588,-2.65964 1.97795,-4.08506 0.63247,-1.35257 1.36765,-2.66442 2.15673,-3.93244 0.93366,-1.17577 1.53447,-2.50137 2.19325,-3.83612 0.60597,-1.44349 0.9882,-2.94907 1.77986,-4.31164 0.74316,-1.28901 1.38718,-2.63306 2.13223,-3.92002 0.68218,-1.41349 1.23269,-2.89671 1.78652,-4.3677 0.64274,-1.61815 1.4689,-3.13492 2.07128,-4.76997 0.6116,-1.40131 1.35643,-2.7526 2.16013,-4.05334 0.74328,-1.3211 1.43857,-2.64259 1.94017,-4.07479 0.55153,-1.44701 1.21763,-2.84075 1.82175,-4.26523 0.66567,-1.35619 1.37955,-2.68912 2.00128,-4.06644 0.69151,-1.3366 1.40213,-2.66661 2.0222,-4.0387 0.72078,-1.31769 1.28656,-2.70305 2.16026,-3.93194 0.92569,-1.26095 1.08147,-2.83175 1.91896,-4.1403 0.82482,-1.23959 1.61491,-2.45938 2.1571,-3.84985 0.48206,-1.65374 1.726,-2.58364 2.88362,-3.73368 1.06754,-1.24929 2.24518,-2.33469 3.24996,-3.64117 0.97921,-1.30885 2.20394,-2.33702 3.53055,-3.27316 1.01867,-1.02362 1.99696,-2.06446 3.14274,-2.96007 0.86898,-0.80449 1.5652,-1.7802 2.12884,-2.81772 0,0 13.75854,-6.05843 13.75854,-6.05843 l 0,0 c -0.74025,0.99947 -1.16739,2.2047 -1.97812,3.16504 -0.98211,1.09441 -2.41561,1.69367 -3.119,3.03383 -1.1349,1.13691 -2.72532,1.71079 -3.62646,3.08583 -0.64404,0.618 -0.97624,1.28691 -1.51813,1.97562 -0.68709,0.87325 -0.38441,0.30772 -1.20421,1.00171 -0.20604,0.17443 -0.37118,0.39211 -0.55677,0.58817 -0.39766,0.61763 -0.50757,0.88799 -1.0659,1.37084 -0.77283,0.66834 -1.71068,0.88656 -1.94853,2.03415 -0.40253,0.71368 -0.52369,1.46216 -0.88613,2.19273 -0.70073,1.41246 -0.037,-0.0741 -0.83633,1.1607 -0.14101,0.21782 -0.22505,0.46762 -0.33757,0.70143 -0.26322,0.37626 -0.61835,0.68339 -0.87384,1.06495 -0.61392,0.91681 -0.3975,2.16466 -1.04235,3.08142 -0.8015,1.2484 -1.75176,2.36589 -2.21458,3.81506 -0.85004,1.23378 -1.29502,2.72911 -2.02215,4.03883 -0.85041,1.23232 -1.29773,2.7264 -2.01378,4.0402 -0.84056,1.25601 -1.26734,2.7788 -1.87563,4.1549 -0.38722,0.73083 -0.49566,1.48144 -0.82287,2.23654 -0.81462,1.87992 0.13288,-0.45405 -0.75355,1.24059 -0.12515,0.23928 -0.19107,0.50513 -0.2866,0.7577 -0.72124,1.324 -1.57134,2.5655 -2.23822,3.91085 -0.41785,0.78387 -0.57531,1.5993 -0.93909,2.40687 -1.50944,3.35092 0.70135,-1.71275 -0.84153,1.46308 -0.13432,0.27648 -0.20968,0.57789 -0.31452,0.86684 -0.66349,1.46773 -1.17272,2.99244 -1.70073,4.50854 -0.68804,1.33394 -1.47137,2.60447 -2.11663,3.95296 -0.77742,1.35065 -1.58446,2.60501 -1.83658,4.19381 -0.20051,0.4528 -0.48371,0.86632 -0.6789,1.32144 -0.40607,0.94683 -0.55586,1.97432 -1.45598,2.636 -0.70611,1.29787 -1.53428,2.513 -2.21281,3.81554 -0.40565,0.70745 -0.52972,1.4465 -0.88717,2.17495 -0.91815,1.87114 0.17634,-0.50715 -0.80538,1.1667 -0.13095,0.22327 -0.19941,0.47772 -0.29912,0.71657 -0.39559,0.72777 -0.51247,1.48303 -0.85809,2.2317 -0.75015,1.62496 0.0325,-0.22592 -0.806,1.24417 -0.13704,0.24027 -0.21704,0.50886 -0.32556,0.76329 -0.8838,1.47737 -1.80082,2.87921 -2.18798,4.60009 -0.67099,1.45198 -1.2003,2.95382 -1.77003,4.44311 -0.81193,1.47201 -1.54911,2.79342 -1.83618,4.49966 -0.67204,1.53523 -1.76263,2.80414 -2.45481,4.3346 -0.84086,1.2562 -1.26739,2.77867 -1.88486,4.15153 -0.39309,0.72472 -0.50652,1.47421 -0.84611,2.22103 -0.77925,1.71368 0.0777,-0.31822 -0.78099,1.21308 -0.13004,0.23189 -0.20107,0.49224 -0.30161,0.73837 -0.77891,1.32986 -1.61345,2.55998 -1.9106,4.12036 -0.67775,1.36241 -1.44514,2.68931 -1.92144,4.13748 -0.63523,1.59097 -1.07199,3.24645 -1.9101,4.75345 -0.58132,1.83439 -1.39408,3.62221 -2.45536,5.22841 -0.78515,1.77605 -1.65858,3.50548 -2.91141,5.00166 -0.78169,1.3036 -1.66658,2.50733 -2.12366,3.98907 -0.88487,1.20541 -2.00279,2.21681 -2.72611,3.55206 -0.6898,1.52028 -1.78851,2.76588 -2.68193,4.16966 -1.05051,1.02517 -1.50001,2.48698 -2.67382,3.38955 -0.88532,1.2047 -2.00433,2.21465 -2.72797,3.54946 -0.68853,1.51925 -1.78789,2.76113 -2.64875,4.18471 -1.02971,1.08464 -1.38313,2.56288 -2.41473,3.64026 -0.75707,1.35415 -2.0592,2.05464 -3.08934,3.16846 -0.87856,1.55123 -2.34893,2.52511 -3.46425,3.89071 -1.09068,1.35511 -2.46566,2.41972 -3.59699,3.73245 -1.35385,1.19496 -2.51751,2.59396 -3.82776,3.83522 -1.02522,1.29817 -2.37401,2.27163 -3.35333,3.60188 -0.52847,0.81183 -1.02983,1.17388 -1.74102,1.7943 -0.78724,0.68676 -0.49132,0.62336 -1.1588,1.45901 -0.19778,0.24762 -0.43384,0.46207 -0.65076,0.6931 -1.39655,1.39443 -3.11165,2.4008 -4.5704,3.73314 -1.2829,1.00959 -2.20016,2.4293 -3.65029,3.2405 -0.82294,0.73149 -1.80556,1.21485 -2.63511,1.94408 -0.20214,0.1777 -0.34913,0.41348 -0.55657,0.58497 -0.20779,0.17178 -0.45351,0.29167 -0.68027,0.43751 -1.01566,0.88388 -0.26035,0.31026 -1.44329,0.99663 -4.54073,2.63464 -9.05498,5.31497 -13.60884,7.92685 -4.00247,2.29564 7.96451,-4.66113 11.95468,-6.9781 0.5396,-0.31333 -2.12073,1.25076 -1.5146,1.10008 -0.5972,0.45749 -1.1771,0.96563 -1.77199,1.40951 -7.19188,5.36632 -28.16462,15.68114 -1.89499,1.09594 -1.19802,0.7938 -2.22722,1.80731 -3.50503,2.4876 -0.9081,1.1141 -2.10005,2.0541 -3.28514,2.84668 -44.06841,25.92148 29.81395,-17.49661 -15.27346,9.14998 -0.75013,0.44333 -0.62033,0.35428 -1.44331,0.68392 -1.72306,0.67248 -3.51141,1.17094 -5.06028,2.23224 25.74328,-14.97916 4.38462,-2.34649 -4.40894,2.4537 -1.59552,0.7102 -3.1188,1.58843 -4.82337,2.03324 -1.50304,0.53012 -3.07377,0.86236 -4.4935,1.6057 -1.64587,0.74465 -3.42549,0.86436 -5.18182,1.20328 -1.79734,0.46381 -3.56619,1.04808 -5.32152,1.64833 -1.99831,0.70442 -4.09528,1.0994 -6.17495,1.48288 -2.8876,0.60279 -5.76819,1.29447 -8.73724,1.33098 0,0 12.1313,-8.81391 12.1313,-8.81391 z"
         id="path4136"
         style="opacity:0.98000004;fill:#000000;fill-opacity:1;stroke:#dbd4eb;stroke-width:0.2;stroke-miterlimit:4;stroke-dasharray:none;stroke-opacity:1" />
      <path
         inkscape:connector-curvature="0"
         d="m 316.56844,566.89569 c 0.004,-3.01762 0.19784,-6.05563 -0.0663,-9.06572 -0.2562,-1.6965 -0.87287,-3.36891 -1.55043,-4.94554 -0.59441,-1.37584 -1.1499,-2.78056 -1.87166,-4.09627 -0.56919,-1.361 -1.32674,-2.5879 -2.14701,-3.80475 -1.01816,-1.01273 -1.61865,-2.33652 -2.54569,-3.42253 -1.1972,-0.78703 -1.94568,-2.04398 -2.93892,-3.04703 -0.85409,-1.20965 -1.70886,-2.41672 -2.57388,-3.6208 -0.829,-1.18831 -2.10429,-1.82904 -3.03881,-2.90426 -1.16242,-0.89369 -2.15911,-1.92461 -3.04845,-3.09803 -0.53192,-0.79624 -1.49664,-0.88943 -2.20766,-1.44253 -0.40708,-0.31667 -0.76032,-0.69788 -1.15953,-1.02443 -0.5209,-0.85581 -1.48646,-1.17909 -2.16532,-1.85464 -0.35942,-0.35766 -0.66868,-0.76337 -1.02703,-1.1221 -0.89241,-1.22571 -2.0606,-2.19608 -3.05409,-3.33116 -1.29487,-1.20344 -2.32615,-2.6639 -3.34557,-4.10003 -1.06204,-1.20358 -1.98131,-2.5659 -2.68923,-4.00791 -0.66714,-1.45993 -1.10702,-2.99931 -1.66225,-4.49889 -0.75006,-1.55896 -0.86718,-3.28446 -1.23662,-4.94365 -0.54168,-1.71885 -0.79367,-3.49361 -0.9419,-5.28321 -0.12853,-1.99757 -0.12684,-4.00043 -0.13113,-6.00122 -2.1e-4,-2.02316 0.004,-4.04632 0.006,-6.06947 0.002,-2.02082 0.002,-4.04163 0.002,-6.06244 0.0447,-1.9737 -0.17127,-3.96192 0.26728,-5.89984 0.61204,-1.39912 1.246,-2.78611 1.89032,-4.1705 0.53677,-1.49484 1.11533,-2.96373 1.56971,-4.4867 0.57584,-1.47855 1.01112,-2.99896 1.5563,-4.48867 0.42126,-1.58514 0.71475,-3.17586 1.47434,-4.64443 0.85095,-1.393 0.98875,-3.02948 1.43009,-4.56552 0.44207,-1.61033 0.73413,-3.24332 1.20676,-4.84652 0.36936,-1.59284 0.94722,-3.11949 1.40086,-4.68914 0.6082,-1.62919 1.21733,-3.25696 1.80484,-4.89363 0.64443,-1.54547 1.53547,-2.96234 2.29602,-4.4526 0.13707,-0.27163 0.27414,-0.54326 0.41122,-0.81489 0,0 13.72123,-6.08738 13.72123,-6.08738 l 0,0 c -0.1593,0.22638 -0.31859,0.45276 -0.47788,0.67914 -0.65739,1.54598 -1.49908,2.96657 -2.30994,4.41509 -0.7932,1.51718 -1.14197,3.24536 -1.8221,4.8182 -0.36525,0.75764 -0.45923,1.51148 -0.72192,2.30613 -0.15825,0.47876 -0.43455,0.9141 -0.5817,1.39639 -0.0855,0.28021 -0.10789,0.57591 -0.16183,0.86387 -0.41331,1.63363 -0.96356,3.19868 -1.18912,4.87943 -0.51757,1.65062 -0.68939,3.22692 -1.2969,4.82931 -0.81353,1.49165 -1.44772,2.64363 -1.59081,4.41225 -0.4479,1.5437 -1.09472,3.00313 -1.52199,4.55488 -0.36666,0.7561 -0.46058,1.51274 -0.736,2.3022 -0.0853,0.24452 -0.19449,0.48004 -0.29174,0.72006 -0.11086,0.21462 -0.25092,0.41652 -0.33258,0.64385 -0.0972,0.27055 -0.13337,0.55928 -0.20006,0.83891 -0.49124,1.44784 -1.24095,2.7928 -1.89023,4.17066 -1.04279,1.56029 -0.39202,3.62716 -0.54969,5.40514 -1.3e-4,2.02124 -2.9e-4,4.04249 -0.002,6.06373 -0.002,2.02207 -0.006,4.04414 -0.008,6.06622 9.3e-4,1.96647 -0.005,3.93428 0.0906,5.89896 0.11231,1.71104 0.29998,3.41715 0.84076,5.05475 0.41761,1.58431 0.41806,3.27202 1.15405,4.77477 0.56819,1.44714 0.94332,2.96956 1.60071,4.38627 0.65527,1.37785 1.5748,2.62911 2.54919,3.79706 0.99383,1.38945 2.00751,2.77559 3.26051,3.94703 1.02025,1.08444 2.12629,2.08797 3.04039,3.27145 0.98126,1.02317 2.11351,1.83447 3.10931,2.84343 1.15552,0.96998 2.58637,1.54622 3.53881,2.74888 0.89041,1.11928 1.92152,2.04345 2.98479,2.99055 1.02419,1.03606 2.30826,1.80279 3.12613,3.05263 0.83884,1.14318 1.6238,2.32327 2.47459,3.45261 0.97576,1.07149 1.85833,2.22664 2.99508,3.14107 0.91013,1.15449 1.61252,2.45458 2.61312,3.5391 0.85239,1.2527 1.62254,2.53194 2.21687,3.92973 0.73917,1.35748 1.33201,2.79364 1.93163,4.2165 0.75396,1.713 1.38802,3.55919 1.70665,5.39818 0.31324,3.04356 10e-4,6.116 0.17531,9.17036 0,0 -13.36074,6.80764 -13.36074,6.80764 z"
         id="path4138"
         style="opacity:0.98000004;fill:#000000;fill-opacity:1;stroke:#dbd4eb;stroke-width:0.2;stroke-miterlimit:4;stroke-dasharray:none;stroke-opacity:1" />
      <path
         inkscape:connector-curvature="0"
         d="m 311.14245,453.27382 c -1.80471,-2.74795 -3.37905,-5.64451 -5.18202,-8.3913 -1.05022,-1.77044 -2.21168,-3.48323 -2.90956,-5.42967 -0.78979,-1.53142 -1.19429,-3.16836 -1.42897,-4.86325 -0.44411,-1.66152 -0.81233,-3.32546 -1.01294,-5.03491 -0.18737,-1.97827 -0.19478,-3.96747 -0.20629,-5.95278 -0.0881,-1.87824 0.009,-3.70916 0.74077,-5.45541 0.77167,-1.57397 1.404,-3.18639 1.931,-4.85583 0.54963,-1.48863 1.29026,-2.91461 2.10569,-4.27506 0.73343,-1.33114 1.43394,-2.65423 1.93749,-4.09024 0.73006,-1.43419 1.77589,-2.71996 2.77875,-3.97943 0.98895,-1.34716 2.15679,-2.54476 3.24623,-3.80642 0.99389,-1.20961 1.76004,-2.56497 2.56427,-3.90177 0.97509,-1.33065 2.40879,-2.20713 3.67348,-3.23445 1.27123,-1.12292 2.4042,-2.38672 3.62476,-3.56062 0.69302,-0.70118 1.36315,-1.37542 1.91724,-2.19334 0,0 13.81109,-5.93953 13.81109,-5.93953 l 0,0 c -0.65785,0.76549 -0.96246,1.77153 -1.8732,2.31562 -1.06741,1.33609 -2.40689,2.45681 -3.61265,3.66587 -1.07114,1.20545 -2.43116,2.08669 -3.73565,2.99631 -1.08936,1.1545 -1.49405,2.72728 -2.59618,3.87391 -0.85397,1.44879 -2.16471,2.54269 -3.23386,3.82814 -0.87248,1.28292 -1.83211,2.54672 -2.90757,3.66514 -0.38765,0.73035 -0.49644,1.48065 -0.82411,2.23531 -0.82144,1.89185 0.13797,-0.4662 -0.75497,1.24313 -0.12553,0.24031 -0.19183,0.50717 -0.28774,0.76075 -0.73727,1.36236 -1.60777,2.6526 -2.2205,4.07371 -0.72837,1.59505 -0.97807,3.39956 -1.87178,4.93963 -0.92284,1.82722 -1.21737,2.74172 -1.06049,4.88392 0.006,1.93699 0.005,3.8767 0.14872,5.80948 0.165,1.70654 0.4916,3.37161 1.00371,5.01043 0.17703,1.60847 0.51994,3.14826 1.28926,4.59039 0.593,1.85451 1.72973,3.46198 2.65358,5.16212 1.72253,2.76947 3.24663,5.66673 5.19533,8.29345 0,0 -12.90289,7.6167 -12.90289,7.6167 z"
         id="path4140"
         style="opacity:0.98000004;fill:#000000;fill-opacity:1;stroke:#dbd4eb;stroke-width:0.2;stroke-miterlimit:4;stroke-dasharray:none;stroke-opacity:1" />
      <path
         inkscape:connector-curvature="0"
         d="m 337.94412,400.05482 c 0.8387,-2.99302 1.31159,-6.06854 1.62758,-9.15551 0.20745,-2.23518 0.23467,-4.4808 0.24693,-6.72379 0.20408,-1.69294 -0.44784,-3.09239 -1.07679,-4.59532 -0.67699,-1.75362 -0.81226,-3.63281 -0.90945,-5.49084 -0.0738,-2.01484 -0.0619,-4.03155 -0.0589,-6.04737 0.005,-2.02328 0.008,-4.04657 0.01,-6.06985 -0.15184,-1.89575 0.0713,-3.58337 0.90715,-5.28139 0.59053,-1.37437 1.64168,-2.45286 2.40608,-3.71971 0.99323,-1.4605 2.22764,-2.71685 3.39063,-4.03644 1.12324,-1.15137 2.10453,-2.44603 3.4266,-3.37821 1.20624,-0.82849 2.29672,-1.79533 3.42864,-2.71772 1.21009,-0.76167 2.3986,-1.57162 3.4523,-2.54148 5.06433,-3.87223 11.0648,-6.85946 16.42595,-9.98559 -40.62857,23.37216 31.92385,-18.66993 -9.21286,5.03814 4.78195,-3.23581 3.42582,-2.34149 14.19076,-8.13115 4.14514,-2.22937 -16.27016,9.46854 -12.25876,7.00665 4.43036,-2.71902 8.98646,-5.22834 13.5162,-7.77837 2.47629,-1.39404 -0.86747,0.89698 1.34511,-0.6767 0.70894,-0.348 1.3749,-0.55009 2.02195,-1.00769 0,0 -11.69697,9.44071 -11.69697,9.44071 l 0,0 c -0.69467,0.29569 -1.37331,0.61566 -2.01653,1.01473 -0.46103,0.20109 -1.7902,0.91607 -1.35513,0.66368 4.06747,-2.35967 16.36401,-9.27004 12.21228,-7.06198 -45.76941,24.34199 9.00662,-3.32328 -1.96239,1.04205 -32.08076,18.77854 -4.73316,2.76626 -1.25905,0.7487 0.20643,-0.11988 -0.41385,0.24181 -0.59907,0.3924 -1.40866,1.14528 0.36781,-0.0238 -1.17337,0.87669 -4.48486,2.6204 -8.96228,5.25351 -13.44342,7.88027 4.06256,-2.37707 8.11819,-4.76603 12.18769,-7.13122 0.20569,-0.11955 -0.4118,0.24233 -0.59532,0.39373 -0.56178,0.46348 -1.09872,0.9725 -1.72082,1.36535 -0.20327,0.12836 -0.43952,0.19494 -0.65927,0.2924 -1.17414,0.85296 -2.13256,1.96431 -3.38035,2.73054 -1.36959,0.60286 -2.19943,1.83712 -3.49313,2.55999 -1.38555,1.20565 0.26832,-0.1495 -1.24564,0.83507 -0.90716,0.58996 -1.52375,1.61905 -2.27836,2.37115 -1.26468,1.16066 -2.34252,2.51146 -3.4569,3.80682 -0.91665,1.09608 -1.5088,2.43614 -2.52178,3.47399 -0.28576,0.64924 -0.794,1.24615 -1.05201,1.88654 -0.36206,0.89861 -0.0969,1.89397 -0.17535,2.82474 -10e-4,2.02377 -0.004,4.04754 -0.009,6.07131 -0.004,1.99371 -0.0167,3.98791 0.0332,5.98119 0.0641,1.68803 0.12332,3.40683 0.6905,5.01623 0.68472,1.67034 1.51471,3.26261 1.32021,5.14178 -0.01,2.29385 -0.0314,4.5904 -0.2345,6.877 -0.30898,3.1348 -0.80544,6.24341 -1.47511,9.32225 0,0 -13.51912,6.47623 -13.51912,6.47623 z"
         id="path4142"
         style="opacity:0.98000004;fill:#000000;fill-opacity:1;stroke:#dbd4eb;stroke-width:0.2;stroke-miterlimit:4;stroke-dasharray:none;stroke-opacity:1" />
      <path
         inkscape:connector-curvature="0"
         d="m 382.39083,356.61826 c 0.75312,-3.06239 1.36165,-6.15766 2.04778,-9.23662 0.58886,-1.95506 1.16612,-3.90062 1.6411,-5.88688 0.52676,-1.67903 0.99315,-3.37571 1.47328,-5.06866 0.59822,-1.61638 1.06616,-3.28589 1.69315,-4.89158 0.59262,-1.66391 1.01658,-3.37127 1.75745,-4.98068 0.54963,-1.51034 1.40326,-2.84424 2.27298,-4.1796 0.57976,-1.39421 1.3017,-2.69792 2.07612,-3.98982 0.66801,-1.31803 1.49262,-2.55813 2.48291,-3.65504 0.89965,-1.12144 2.02327,-2.02401 2.83242,-3.21655 0.96169,-1.32294 1.94201,-2.63286 3.00756,-3.87584 0.70635,-0.56639 1.1882,-1.46273 1.98129,-1.92913 4.51587,-2.65568 9.0927,-5.20635 13.63181,-7.82211 0.23883,-0.13763 0.94071,-0.57485 0.70154,-0.4378 -4.07474,2.33494 -8.13918,4.68783 -12.20877,7.03175 5.14006,-3.84232 10.45126,-8.22581 16.72391,-9.76579 1.39389,-0.93066 3.06949,-1.31909 4.48606,-2.17715 1.59292,-0.82667 3.19145,-1.59812 4.80704,-2.3718 0,0 -11.72576,9.37428 -11.72576,9.37428 l 0,0 c -1.58735,0.81715 -3.23303,1.52042 -4.80368,2.37501 -1.55893,0.6323 -3.02196,1.47 -4.60106,2.05196 -4.87122,2.46939 -1.02527,0.53637 11.50945,-6.75319 0.20918,-0.12165 -0.42894,0.22788 -0.62363,0.37158 -0.20255,0.1495 -0.37502,0.33596 -0.56253,0.50393 -0.22247,0.11011 -0.45701,0.19864 -0.66743,0.33033 -0.21356,0.13365 -0.39887,0.30788 -0.59831,0.46182 -4.47274,2.66773 -8.93555,5.35216 -13.41821,8.00318 -0.23872,0.14118 -0.98297,0.51321 -0.74407,0.37234 4.01023,-2.36479 8.04523,-4.68735 12.05965,-7.04502 0.24944,-0.14649 -0.52354,0.25073 -0.76421,0.41121 -0.65441,0.43638 -0.80465,0.68591 -1.32686,1.27631 -1.22169,1.03241 -2.14277,2.38781 -3.0497,3.67896 -0.94606,1.08626 -1.56741,2.42785 -2.81457,3.25712 -0.84516,1.1449 -1.92664,2.08661 -2.62228,3.35189 -0.58521,1.41398 -1.69859,2.51649 -2.05746,4.03422 -0.65071,1.45705 -1.86788,2.55182 -2.32407,4.11101 -0.75597,1.58375 -1.45264,3.14767 -1.78624,4.89059 -0.62841,1.576 -1.05887,3.20083 -1.79363,4.73881 -0.41327,1.72596 -0.9526,3.41479 -1.42929,5.1215 -0.73386,1.87539 -0.80714,4.0005 -1.7748,5.81809 -0.68809,3.07599 -1.45803,6.12729 -1.96981,9.24114 0,0 -13.51913,6.47623 -13.51913,6.47623 z"
         id="path4144"
         style="opacity:0.98000004;fill:#000000;fill-opacity:1;stroke:#dbd4eb;stroke-width:0.2;stroke-miterlimit:4;stroke-dasharray:none;stroke-opacity:1" />
      <path
         inkscape:connector-curvature="0"
         d="m 336.99402,562.29027 c 5.10735,-2.4737 2.7705,-1.37838 -10.13526,5.92396 -0.4676,0.26458 0.91204,-0.56817 1.36482,-0.85737 1.16972,-0.74711 2.30696,-1.52888 3.43179,-2.34126 5.76779,-3.59164 11.13481,-8.69101 17.92952,-9.83563 1.79916,-0.4065 3.45695,-1.16888 5.21833,-1.68231 0.85842,-0.75756 1.98692,-0.82183 2.99887,-1.19317 0.48243,-0.17703 0.91755,-0.46552 1.39316,-0.66013 -4.09361,2.32568 -8.18397,4.65708 -12.28081,6.97705 -0.21401,0.12118 0.41843,-0.25875 0.63205,-0.3806 4.51958,-2.578 8.98372,-5.25656 13.56736,-7.71885 4.14824,-2.22839 -8.16893,4.68649 -12.2607,7.01693 -0.21521,0.12256 0.41515,-0.27073 0.6305,-0.39305 4.52573,-2.5707 9.06145,-5.12379 13.59218,-7.68568 0.77308,-0.12758 1.47758,-0.50275 2.1724,-0.85216 0.24579,-0.1236 0.94892,-0.55731 0.71007,-0.42077 -12.31043,7.03714 -15.92858,9.73499 -11.47713,6.46451 4.98839,-3.5376 0.0905,-0.10003 14.36403,-8.2213 0.4681,-0.26633 1.87967,-1.05232 1.41377,-0.78214 -13.28831,7.70573 -16.08019,9.60774 -11.65673,6.62593 4.05073,-4.32552 7.88348,-4.5533 14.53579,-8.92561 3.93363,-2.58542 -16.26194,9.48895 -12.23757,7.04717 1.14712,-0.69602 32.90235,-19.00422 1.24653,-0.74538 1.23064,-0.77158 2.26208,-1.78409 3.35968,-2.72185 1.42998,-0.59707 2.41456,-1.92189 3.71795,-2.68421 4.53041,-2.64971 9.10387,-5.22512 13.65581,-7.83768 -40.88887,23.35552 31.98327,-18.13797 -8.6151,5.15017 1.37238,-1.11372 2.86029,-2.08948 4.23057,-3.20501 1.12456,-1.08341 2.2618,-2.10098 3.31051,-3.25776 0.81293,-1.22165 2.09196,-1.96349 3.17373,-2.91024 0.91345,-1.2627 1.92388,-2.32803 3.17852,-3.24683 1.18722,-1.09442 2.46118,-2.05386 3.75343,-3.01326 1.29655,-0.72587 2.22515,-1.79098 3.16364,-2.90377 1.10154,-0.94235 2.14255,-1.81813 2.81456,-3.11721 0.74819,-1.2708 1.46832,-2.55869 2.24995,-3.80901 0.74938,-1.24953 1.67589,-2.39901 2.70542,-3.42886 0.98484,-1.06879 1.63734,-2.36738 2.38333,-3.59864 0.6052,-1.36144 1.39834,-2.60184 2.20828,-3.8448 0.66217,-1.3259 1.64583,-2.44029 2.38089,-3.71923 0.95193,-1.34149 1.51937,-2.89748 2.32019,-4.32615 0.75372,-1.40257 1.41272,-2.85688 2.18825,-4.24683 0.65943,-1.40156 1.19958,-2.8635 1.75176,-4.31306 0.64555,-1.37389 1.2054,-2.77684 2.08066,-4.02531 0.82849,-1.21819 1.47482,-2.54219 2.22017,-3.8086 0.91529,-1.24881 1.5651,-2.51842 2.01087,-3.99966 0.59531,-1.37757 1.4942,-2.61063 2.32499,-3.8577 1.02934,-1.08605 1.53995,-2.49799 2.20409,-3.81212 0.99216,-1.47067 1.82164,-3.04327 2.98273,-4.38962 1.27866,-1.15829 2.61094,-2.21761 3.70979,-3.55553 1.07428,-1.14368 1.95919,-2.4159 2.85631,-3.69393 0.89626,-1.31166 1.93234,-2.46288 2.65691,-3.88454 0.81753,-1.61155 2.4151,-2.51411 3.61507,-3.79324 0.98229,-1.17209 2.1072,-2.15984 3.35288,-3.04197 4.31255,-3.72956 10.12933,-6.08147 14.73699,-8.77258 4.03334,-2.35568 -8.07696,4.69413 -12.14195,6.99477 -0.32196,0.18222 0.523,-0.39875 1.39014,-0.9999 4.56253,-2.56237 9.12507,-5.12474 13.6876,-7.68712 0.23081,-0.14185 0.92761,-0.55999 0.69242,-0.42554 -4.07987,2.33223 -8.13243,4.71238 -12.22678,7.0191 -0.21852,0.12312 0.39438,-0.31003 0.59217,-0.46427 0.777,-0.60591 0.41357,-0.34874 1.21642,-0.85761 0.80571,-0.55978 1.55117,-1.18805 2.32906,-1.78429 0,0 14.02984,-5.39734 14.02984,-5.39734 l 0,0 c -0.94661,0.40293 -1.56218,1.0465 -2.39562,1.61271 -1.17856,1.07 0.0919,0.008 -1.22525,0.84379 -7.1929,4.56622 -28.72564,16.83935 -2.68309,1.7592 -1.61596,0.76051 0.073,-0.083 -1.45476,0.83042 -4.48611,2.6821 -9.28316,4.89341 -13.48357,8.00395 -3.75354,2.77962 8.10699,-4.6413 12.13518,-7.00542 0.41312,-0.24246 -1.74975,0.74225 -1.26733,0.67745 -1.0593,1.09802 -2.56942,1.63306 -3.40855,2.94903 -1.88629,1.75872 0.75147,-0.76299 -1.14411,1.27359 -0.77924,0.83721 -1.93044,1.21656 -2.6392,2.14553 -0.85396,1.36792 -1.30399,2.89099 -2.60978,3.94624 -0.80234,1.40675 -1.73876,2.68918 -2.7764,3.92572 -1.47179,1.52808 0.29254,-0.37471 -1.11107,1.38581 -0.56042,0.70292 -1.21583,1.15127 -1.89937,1.70093 -0.23251,0.18697 -0.43145,0.41222 -0.64718,0.61833 -1.46438,1.01953 -2.18209,2.53889 -3.10299,4.02546 -1.00384,1.18332 -1.23744,2.72404 -2.13216,3.97347 -1.05431,0.99477 -1.5281,2.36953 -2.54219,3.39697 -0.64297,1.41025 -0.6171,3.12493 -1.91233,4.19905 -0.68977,1.33492 -1.47077,2.6023 -2.16508,3.92677 -0.8018,1.25011 -1.74641,2.36797 -2.16971,3.83639 -0.81846,1.32612 -1.17041,2.92012 -1.72925,4.36541 -0.72743,1.42899 -1.54259,2.80443 -2.19569,4.26764 -0.78397,1.47072 -1.56883,2.92138 -2.24272,4.44971 -0.90376,1.12158 -1.46605,2.49369 -2.44954,3.57218 -0.60218,1.38654 -1.74198,2.41367 -2.19398,3.87477 -0.69347,1.33934 -1.47116,2.60584 -2.25384,3.88606 -0.86726,1.12008 -1.98163,2.01639 -2.82488,3.16266 -0.70475,1.30608 -1.52033,2.52897 -2.24897,3.81092 -0.56666,0.86258 -0.73953,1.92411 -1.54607,2.63238 -0.17528,0.15392 -0.40553,0.23576 -0.58285,0.38734 -0.18468,0.15788 -0.33037,0.35636 -0.49555,0.53454 -0.75996,0.48378 -0.93503,0.87632 -1.43671,1.59543 -0.55238,0.79179 -0.39687,0.38647 -1.10774,0.97072 -0.19829,0.16298 -0.36374,0.36223 -0.54562,0.54335 -1.39529,0.80285 -2.63675,1.76793 -3.83899,2.82898 -0.60668,0.61946 -1.19593,0.88242 -1.87804,1.37205 -0.67562,0.48496 -0.39103,0.45169 -0.90122,1.11426 -0.14247,0.18504 -0.32318,0.33721 -0.48477,0.50581 -0.77134,1.32016 -2.04375,1.94112 -3.18912,2.88321 -0.89067,1.35361 -1.97354,2.45835 -3.26609,3.42472 -1.13969,1.45727 -2.82687,2.1446 -4.09748,3.46984 -4.48888,2.62235 -8.97326,5.25244 -13.46666,7.86706 -0.91151,0.53038 -0.44466,0.22083 -1.41122,0.67733 -0.24623,0.11629 -0.96101,0.51219 -0.72564,0.37523 7.99673,-4.65315 25.86439,-14.90046 -1.48285,0.80833 19.26265,-11.23269 14.22496,-9.08763 9.80114,-5.27107 -0.42208,0.36414 -0.97708,0.67344 -1.4541,0.96057 -1.35604,0.61823 -2.1387,1.86736 -3.39125,2.63787 -4.47268,2.63968 -8.94536,5.27936 -13.41804,7.91904 4.06828,-2.3613 16.25271,-9.47999 12.20484,-7.08389 -4.47111,2.64663 -8.88189,5.40593 -13.47457,7.83549 -4.15963,2.20049 8.11566,-4.76603 12.17431,-7.14764 0.20365,-0.1195 -0.4222,0.21727 -0.6093,0.36131 -0.19164,0.14754 -0.34589,0.33815 -0.51884,0.50722 -0.15283,0.22384 -0.22729,0.53007 -0.45849,0.67152 -4.43995,2.71644 -8.99021,5.24835 -13.4909,7.86294 -0.46671,0.27113 -1.91257,0.99979 -1.44718,0.72641 4.02095,-2.36196 8.07799,-4.66205 12.10349,-7.01624 0.24093,-0.14091 -0.49893,0.25036 -0.74839,0.37555 -5.33658,3.84314 -11.00935,7.31036 -17.13313,9.68438 4.06945,-2.35045 8.14294,-4.6939 12.20834,-7.05135 0.21178,-0.1228 -0.43494,0.22517 -0.64715,0.34723 -4.50481,2.59106 -8.97929,5.23514 -13.50363,7.79196 -4.09245,2.31274 8.13783,-4.7078 12.20789,-7.05971 0.21252,-0.1228 -0.4235,0.24827 -0.63525,0.3724 -4.51465,2.5792 -9.0293,5.15841 -13.54395,7.73761 -1.46998,0.61415 -2.99127,1.11183 -4.44976,1.75508 -1.73109,0.6338 -3.4996,1.12678 -5.28214,1.59805 -4.70849,1.62195 -12.01752,6.70906 10.515,-6.37217 0.26523,-0.15398 -0.53914,0.29412 -0.79468,0.4637 -1.80462,1.19756 0.23252,0.0445 -1.81983,1.1433 -6.49803,4.44853 -13.02408,8.82871 -20.22574,12.18698 0,0 11.65664,-9.43077 11.65664,-9.43077 z"
         id="path4146"
         style="opacity:0.98000004;fill:#000000;fill-opacity:1;stroke:#dbd4eb;stroke-width:0.2;stroke-miterlimit:4;stroke-dasharray:none;stroke-opacity:1" />
      <path
         inkscape:connector-curvature="0"
         d="m 436.21751,433.3212 c 2.0751,-1.79112 3.98463,-3.75421 6.14209,-5.44825 1.40377,-0.95313 2.56355,-2.12431 3.59539,-3.46058 1.01169,-1.04278 1.82474,-2.22487 2.6905,-3.38119 1.04492,-0.99846 2.0379,-2.06879 3.27781,-2.8262 1.13419,-0.83465 2.08126,-1.92826 2.99071,-3.00115 1.05991,-0.97004 2.23405,-1.82528 3.38651,-2.68787 0.20839,-0.19399 0.87954,-0.83995 1.1242,-0.98063 4.5153,-2.59638 9.07722,-5.11088 13.6074,-7.68121 0.43458,-0.24657 1.75633,-0.95325 1.32414,-0.70252 -4.07504,2.36406 -8.178,4.67965 -12.267,7.01948 5.53578,-3.60737 11.27823,-6.97623 17.1834,-9.90081 0.27089,-0.0942 0.55539,-0.15577 0.81266,-0.28248 0.47124,-0.23212 1.81832,-1.05306 1.36372,-0.78982 -3.85637,2.23312 -15.47864,8.8397 -11.62696,6.59849 4.49809,-2.61734 9.01688,-5.19894 13.52531,-7.7984 -4.08197,2.34619 -8.15621,4.70589 -12.24592,7.03858 -0.21554,0.12294 0.40675,-0.28554 0.62219,-0.40864 4.51925,-2.58217 9.04935,-5.14532 13.58057,-7.70642 0.77571,-0.43844 1.54439,-0.69082 2.28044,-1.20164 1.69927,-0.77477 3.37136,-1.61987 5.09412,-2.34875 1.85654,-0.47894 3.54753,-1.32756 5.43314,-1.70638 5.54891,-0.83658 15.68455,-7.89429 -7.85833,5.49687 4.92893,-3.04197 4.15407,-2.57399 14.25572,-8.19695 0.44997,-0.25047 1.20214,-0.24166 1.67246,-0.39206 0.50064,-0.1601 0.95866,-0.43345 1.45164,-0.61579 1.03941,-0.27287 0.56256,-0.0662 1.43877,-0.60065 0,0 -11.77015,9.34369 -11.77015,9.34369 l 0,0 c -1.00333,0.32256 -0.50346,0.15069 -1.49948,0.51603 -0.75911,0.2861 -1.55548,0.46569 -2.30019,0.78797 -0.24413,0.10564 -0.94299,0.49197 -0.71335,0.35772 14.1176,-8.25354 16.03419,-9.45009 11.46994,-6.62251 -7.20689,4.13469 -11.01285,7.65233 -18.06459,9.04806 -1.7751,0.55714 -3.52352,1.22261 -5.25521,1.89715 -1.68459,0.80654 -3.41587,1.52479 -5.02751,2.47444 -1.35451,0.61842 -0.24601,0.10383 -1.59637,0.75458 -0.25626,0.1235 -1.01639,0.50975 -0.77092,0.36599 4.05571,-2.37509 8.13955,-4.70184 12.20424,-7.06152 0.21137,-0.12271 -0.42934,0.23364 -0.64401,0.35046 -4.49077,2.61484 -8.98154,5.22968 -13.47232,7.84452 25.90045,-15.06949 4.7404,-2.49996 -4.06577,2.26174 -8.03445,4.49247 17.83542,-10.63383 8.52672,-4.97161 -4.4955,2.60677 -8.98609,5.22201 -13.48649,7.8203 -0.43581,0.25162 -1.79505,0.90784 -1.36136,0.65259 4.05018,-2.38365 8.14539,-4.69018 12.19713,-7.07116 0.40763,-0.23953 -1.71845,0.76192 -1.23074,0.70508 -0.94036,1.07252 -2.18162,1.9344 -3.40494,2.64296 -1.11094,0.92198 -1.95425,2.14699 -2.90076,3.22743 -1.09436,0.90598 -2.46676,1.44647 -3.35669,2.62466 -1.22444,0.80191 -1.67537,2.28515 -2.73782,3.27951 -1.24521,1.18701 -1.96253,2.88507 -3.56525,3.70171 -2.08366,1.75768 -4.29994,3.36034 -6.1202,5.42124 0,0 -13.90859,5.61394 -13.90859,5.61394 z"
         id="path4148"
         style="opacity:0.98000004;fill:#000000;fill-opacity:1;stroke:#dbd4eb;stroke-width:0.2;stroke-miterlimit:4;stroke-dasharray:none;stroke-opacity:1" />
      <path
         inkscape:connector-curvature="0"
         d="m 442.20963,405.04173 c 1.71368,-2.15203 3.4162,-4.31156 5.18837,-6.41603 1.13303,-1.24987 2.14161,-2.62467 2.93126,-4.11622 0.77672,-1.23677 1.53138,-2.48485 2.32931,-3.70755 0.78488,-1.35293 1.47064,-2.75157 2.12299,-4.17274 0.63361,-1.58845 1.23058,-3.20091 1.99327,-4.73313 0.63469,-1.55061 1.49945,-2.98429 2.30303,-4.44985 0.9151,-1.6333 1.85374,-3.24196 2.68597,-4.91992 0.69326,-1.59355 1.30706,-3.22806 2.0867,-4.78204 0.56343,-1.46179 1.37569,-2.76788 2.25799,-4.05074 1.08072,-1.47887 1.70721,-3.21774 2.57958,-4.81744 1.05165,-1.54602 1.62808,-3.30444 2.34273,-5.01035 0.59841,-1.42394 1.48538,-2.70452 2.53822,-3.82774 0.82329,-1.20983 1.75277,-2.27625 2.88825,-3.20512 1.00649,-1.23418 2.13014,-2.3313 3.30378,-3.40992 1.12478,-1.05752 2.36296,-1.94893 3.66232,-2.77789 1.18997,-0.83671 2.21196,-1.86603 3.30607,-2.81597 4.70196,-3.29987 9.17737,-5.40672 14.73093,-8.59265 4.08342,-2.34255 -16.25698,9.49864 -12.25371,7.0216 0.27765,-0.1718 33.71073,-19.44629 1.25127,-0.73046 1.38437,-0.85161 2.50728,-2.03052 3.83324,-2.95498 8.15301,-5.19594 27.49519,-15.89103 1.97231,-1.30825 -0.22236,0.12705 0.4292,-0.27969 0.64807,-0.41266 1.01233,-0.615 0.24273,-0.075 1.21191,-0.8016 1.21239,-0.78772 2.13178,-1.92127 3.34409,-2.70484 8.32337,-5.08229 27.35237,-15.74552 1.8825,-1.18718 -0.19542,0.1117 0.39854,-0.2132 0.57834,-0.34862 0.39167,-0.29499 0.72612,-0.65917 1.09377,-0.98361 4.56987,-3.49411 9.1167,-5.25045 14.65084,-8.69381 3.99851,-2.48788 -8.1568,4.70933 -12.24592,7.04528 -0.41819,0.2389 0.81354,-0.5162 1.23,-0.7581 8.14217,-5.20617 27.39284,-15.80862 1.83681,-1.22075 -0.21511,0.12279 0.40881,-0.27996 0.61805,-0.41251 0.99884,-0.63278 0.21547,-0.0586 1.1757,-0.80951 25.97676,-15.10592 10.37384,-6.009 1.24447,-0.78771 -0.19422,0.11108 0.38547,-0.23054 0.55823,-0.37272 0.54124,-0.44542 1.03296,-1.00827 1.48652,-1.53913 1.0472,-0.9808 2.20108,-1.85905 3.34212,-2.73304 4.13948,-3.95162 9.80055,-5.87982 14.72227,-8.67483 0.21466,-0.1219 0.84061,-0.51777 0.62634,-0.39518 -12.32056,7.04885 -15.96167,10.02221 -11.71253,6.60783 1.14677,-0.87473 1.99151,-2.05861 3.17823,-2.88277 0,0 13.95643,-5.59287 13.95643,-5.59287 l 0,0 c -1.24195,1.11207 0.17399,-0.0644 -1.18501,0.79673 -0.80236,0.50842 -1.32797,1.43044 -1.99333,2.08576 -4.63343,3.61934 -0.90204,0.74305 -13.95991,8.40106 -0.2181,0.12792 -0.91298,0.43196 -0.69508,0.3037 4.05021,-2.38408 8.14478,-4.69223 12.19648,-7.07378 0.40698,-0.23922 -1.71536,0.76233 -1.22726,0.70682 -0.93339,1.07636 -2.16081,1.94256 -3.36213,2.68454 -0.43279,0.37957 -1.68993,2.03988 -1.93488,2.18974 -0.66733,0.40825 -33.19413,19.40868 -1.25885,0.74961 -2.63574,1.7273 1.48689,-1.03099 -1.13412,0.92128 -4.36129,3.24853 -9.41321,5.44874 -14.09985,8.20722 -4.05518,2.38681 8.12284,-4.75236 12.19247,-7.11445 0.20716,-0.12023 -0.40297,0.25904 -0.60446,0.38855 -0.84798,0.81731 -0.19223,0.28312 -1.19074,0.86176 -4.49509,2.60493 -8.94405,5.29009 -13.46942,7.84205 -4.09885,2.31142 8.12346,-4.75212 12.18972,-7.1204 0.41588,-0.24222 -1.71135,0.9823 -1.14093,0.88482 -0.56288,0.29615 -0.72462,0.3215 -1.16792,0.79403 -0.17765,0.18937 -0.25214,0.48381 -0.47464,0.61763 -4.45329,2.67848 -8.92023,5.34237 -13.50436,7.79019 -4.14874,2.21534 8.13297,-4.72585 12.19741,-7.0923 0.20728,-0.12069 -0.41728,0.23664 -0.62591,0.35497 -1.19942,1.04252 0.1164,-0.009 -1.20671,0.7814 -0.82325,0.49198 -1.38054,1.38008 -2.11774,1.97916 -0.8286,0.53082 -0.43672,0.22637 -1.17127,0.91898 -4.4442,3.16774 -9.4109,5.53132 -14.17441,8.19487 -4.08885,2.2863 8.08966,-4.72662 12.13917,-7.08191 0.22653,-0.13176 -0.44672,0.27413 -0.67008,0.41119 -1.41087,1.24385 0.20686,-0.1017 -1.33847,0.93918 -0.89556,0.60322 -1.42545,1.62805 -2.4645,2.05433 -4.47203,2.64093 -9.17212,4.92911 -13.4161,7.92281 -3.84337,2.71111 16.32484,-9.34991 12.20991,-7.07197 -3.92638,2.17357 -30.3537,17.60959 -1.30769,0.69709 0.41749,-0.24309 -1.73295,0.93298 -1.18295,0.83733 -1.35735,0.61996 -2.13298,1.87001 -3.36236,2.67518 -1.11705,1.10174 -2.65054,1.57868 -3.6776,2.78037 -1.25979,0.88531 -2.5756,1.92125 -3.33636,3.28139 -0.95627,1.07213 -2.38289,1.67604 -2.94839,3.06388 -0.89041,1.16206 -2.04165,2.09535 -2.74816,3.411 -0.70991,1.74055 -1.2381,3.57096 -2.28735,5.14976 -0.86751,1.64845 -1.7118,3.29183 -2.48624,4.98926 -0.89949,1.2042 -1.87632,2.38438 -2.3551,3.82445 -0.75639,1.56395 -1.56245,3.10812 -2.12945,4.75553 -0.74558,1.76041 -1.68259,3.39394 -2.63023,5.03966 -0.83607,1.41104 -1.67663,2.85646 -2.31718,4.35378 -0.73763,1.52893 -1.52938,3.04083 -2.04371,4.6643 -0.58457,1.50319 -1.29686,2.92724 -2.01196,4.35292 -0.71157,1.2927 -1.54017,2.48989 -2.32543,3.72673 -1.01676,1.41332 -1.63016,3.12323 -2.87354,4.40192 -1.92881,1.92601 -3.56807,4.15569 -5.18899,6.3384 0,0 -13.80451,5.8652 -13.80451,5.8652 z"
         id="path4150"
         style="opacity:0.98000004;fill:#000000;fill-opacity:1;stroke:#dbd4eb;stroke-width:0.2;stroke-miterlimit:4;stroke-dasharray:none;stroke-opacity:1" />
      <path
         inkscape:connector-curvature="0"
         d="m 423.01673,309.07724 c 1.83129,-2.05261 3.95379,-3.81922 5.98158,-5.67159 1.59178,-1.36854 3.2291,-2.68547 4.90773,-3.94557 1.55292,-1.08917 3.08206,-2.21302 4.70513,-3.19737 5.93,-5.31028 13.12321,-7.2555 19.78737,-10.84561 2.07934,-1.03891 4.21271,-1.9454 6.2936,-2.97457 5.35601,-2.29279 14.9282,-8.2672 -7.73676,4.76411 4.83123,-3.47281 1.87416,-1.38003 14.20886,-8.34362 0.24672,-0.13928 0.55542,-0.1278 0.81496,-0.24141 0.7498,-0.32822 1.34406,-0.71168 2.1471,-0.95436 0.56738,-0.57409 1.3805,-0.645 2.06104,-0.97654 0.7151,-0.34838 1.2483,-0.74088 2.02706,-0.99853 11.79327,-6.45889 -42.10028,23.70199 2.74137,-1.58146 4.06235,-2.29051 -8.07965,4.66015 -12.1338,6.96514 -0.24491,0.13924 0.46964,-0.31132 0.70446,-0.46698 35.80855,-20.524 1.9016,-1.07989 1.42676,-0.80894 -0.22979,0.13111 0.44377,-0.28875 0.67382,-0.4194 4.53441,-2.57535 8.98529,-5.30613 13.61896,-7.69828 4.17313,-2.15439 -16.25341,9.41733 -12.23625,6.98445 4.44976,-2.69488 9.02297,-5.18045 13.53445,-7.77067 0.25126,-0.0852 0.51681,-0.13619 0.75379,-0.25546 1.78265,-0.89726 -0.60753,0.0118 1.27807,-0.76329 0.76808,-0.3157 1.48891,-0.38981 2.22415,-0.79288 1.50361,-0.52717 2.80799,-1.31287 4.38272,-1.65317 0.2895,-0.0419 0.58664,-0.0474 0.86851,-0.12565 0.50629,-0.1405 0.96409,-0.42505 1.46768,-0.57495 0.82538,-0.24568 1.5642,-0.30888 2.34481,-0.68844 1.61256,-0.69586 3.37723,-0.80388 5.10763,-0.90004 1.30464,-0.16811 2.65372,0.0847 3.95527,-0.0659 0.56423,-0.0653 1.10214,-0.27527 1.65348,-0.41181 1.7194,-0.12832 3.27455,-0.73857 4.92556,-1.14954 1.83104,-0.36946 3.70572,-0.40436 5.56666,-0.44135 2.01313,-0.0249 4.02649,-0.0156 6.03971,-0.0118 2.02256,0.004 4.04512,0.006 6.06768,0.007 2.02056,6.7e-4 4.04113,6.2e-4 6.06169,6.1e-4 2.02028,-2e-5 4.04057,-5e-5 6.06086,-6e-5 0.65157,0.24254 2.70644,-0.28135 3.26151,-0.0275 0.45723,0.2091 0.64794,0.8507 0.82861,1.22932 0.34343,1.5563 -1.02108,2.22093 -2.01123,3.14212 -1.42998,1.13246 -2.87922,2.2388 -4.32836,3.34609 -1.14755,1.0778 -2.38321,2.01695 -3.64035,2.9547 -1.18098,0.79034 -2.29275,1.70086 -3.29587,2.70849 -1.21202,1.11212 -2.60898,1.98721 -3.85485,3.05742 -1.2662,0.79587 -2.36987,1.70422 -3.34191,2.8442 -1.01704,1.0127 -1.7912,2.25821 -2.43095,3.53693 -0.7461,1.54163 -1.80801,2.70956 -3.266,3.593 -1.24904,0.85427 -2.12857,2.11982 -3.17782,3.20604 -1.13688,0.87881 -1.84624,2.14828 -2.76421,3.22959 -0.85854,1.15827 -1.96249,2.0923 -2.75915,3.29573 -0.78155,1.20673 -1.74537,2.2675 -2.64213,3.38397 -0.84284,1.19854 -1.56371,2.46751 -2.2503,3.7608 -0.35232,1.51706 -1.33282,2.66925 -2.07765,3.98427 -0.59871,1.54093 -0.79019,3.19726 -1.20947,4.79565 -0.6322,1.77725 -1.06846,3.59446 -1.47462,5.43289 -0.32551,1.11621 -0.14618,0.56477 -0.53757,1.65445 0,0 -13.6831,6.2035 -13.6831,6.2035 l 0,0 c 0.56163,-0.84188 0.32917,-0.37421 0.66575,-1.41829 0.6271,-1.7467 0.61106,-3.69658 1.48987,-5.37862 0.38434,-1.68278 0.86304,-3.31155 1.08752,-5.0292 0.21386,-0.62413 0.27439,-0.91753 0.61887,-1.47808 0.53612,-0.8724 1.44723,-1.33417 1.46074,-2.50223 0.47075,-1.30723 1.32863,-2.84563 2.15794,-3.95288 0.6526,-1.35364 1.83293,-2.22522 2.58521,-3.50931 0.93817,-1.08855 1.54886,-2.43239 2.75713,-3.30009 0.8262,-1.21441 1.84574,-2.28406 2.64386,-3.52188 1.30118,-0.91824 2.22488,-2.0966 3.12289,-3.3913 1.27083,-0.90963 2.8964,-1.34841 3.51057,-2.96325 0.8663,-1.21396 1.32774,-2.6962 2.28707,-3.86487 1.1265,-0.98905 1.7991,-2.49091 3.27752,-3.03166 1.33037,-0.94049 2.49195,-2.1001 3.87606,-2.97311 1.1524,-0.8758 2.06749,-2.02594 3.22193,-2.90686 1.36712,-0.7769 2.57285,-1.71832 3.73997,-2.76407 1.29124,-1.29735 2.87928,-2.22147 4.27313,-3.40534 0.8592,-0.57497 1.61326,-1.81264 2.70488,-1.5158 0.11066,0.11304 0.38005,0.34983 0.23478,0.41242 -0.71665,0.30873 -2.40667,-0.31369 -3.18584,-0.0275 -2.0203,2e-5 -4.04059,6e-5 -6.06088,4e-5 -2.0207,-7e-5 -4.04141,-1.3e-4 -6.06211,-0.001 -2.02275,-10e-4 -4.04549,-0.004 -6.06824,-0.008 -2.00461,-0.002 -4.00992,-0.01 -6.01371,0.0566 -1.81022,0.0841 -3.63216,0.20477 -5.37638,0.73743 -1.63705,0.48922 -3.30915,0.73607 -4.98508,1.06165 -1.88718,0.28851 -3.80216,0.13145 -5.69969,0.33566 -1.68818,0.19319 -3.3228,0.55196 -4.89303,1.2212 -1.59466,0.38355 -3.13138,0.94879 -4.72816,1.32243 -1.44606,0.55229 -2.8249,1.26196 -4.28063,1.79558 -1.4704,0.47004 -2.79553,1.23196 -4.16943,1.92255 31.04607,-17.9326 0.38076,-0.19637 -1.35549,0.70464 -4.15816,2.15787 8.11698,-4.67994 12.16862,-7.03172 0.22702,-0.13178 -0.46696,0.24036 -0.69437,0.37147 -4.51799,2.60474 -8.99655,5.2784 -13.54147,7.83587 -4.06683,2.28843 8.07138,-4.68581 12.10706,-7.02872 -4.73089,2.82277 -9.60204,5.41182 -14.2688,8.33938 -3.94346,2.47382 16.15278,-9.263 12.08826,-6.99356 -4.56066,2.54647 -9.04901,5.22035 -13.57686,7.82473 -0.74183,0.42669 -0.55703,0.3199 -1.35161,0.65208 -1.35056,0.68905 -2.71215,1.35946 -4.11332,1.93766 -0.70439,0.3299 -1.41911,0.64632 -2.11928,0.98186 -0.24093,0.11546 -0.93456,0.51809 -0.70402,0.38308 12.73483,-7.45785 15.9964,-9.64657 11.43764,-6.61449 -5.987,3.53234 -11.60142,7.39487 -17.95707,10.09008 -2.09452,0.9183 -4.12216,1.98645 -6.19183,2.95886 -5.48806,2.62864 -17.4762,8.89856 5.82189,-3.88413 -1.60146,1.00612 -3.2043,1.99315 -4.75259,3.069 -1.68025,1.26327 -3.35994,2.50377 -4.96511,3.86443 -2.10843,1.69604 -4.05023,3.60835 -6.04993,5.42868 0,0 -13.80452,5.8652 -13.80452,5.8652 z"
         id="path4152"
         style="opacity:0.98000004;fill:#000000;fill-opacity:1;stroke:#dbd4eb;stroke-width:0.2;stroke-miterlimit:4;stroke-dasharray:none;stroke-opacity:1" />
      <path
         inkscape:connector-curvature="0"
         d="m 337.62813,550.12909 c -1.74497,2.15306 -3.24982,4.49504 -4.66115,6.87722 -0.97777,1.37836 -2.08883,2.65378 -3.04289,4.05094 -0.71092,1.2837 -1.50917,2.52473 -2.48793,3.62064 -0.89067,1.12447 -2.01,2.0273 -2.81556,3.21803 -0.90302,1.11807 -2.00706,2.08273 -3.11363,2.99912 -0.96196,1.05823 -1.80657,2.23089 -2.67701,3.36959 -1.01778,1.01026 -1.86724,2.13144 -2.7182,3.27707 -0.81697,1.19413 -1.73801,2.32889 -2.76403,3.35041 -0.91146,1.16828 -2.2462,1.85024 -3.37182,2.77795 -1.12426,0.86469 -2.19314,1.81849 -3.17349,2.84531 -1.07889,0.96116 -1.96936,2.11066 -3.17601,2.91896 -1.2107,0.80753 -2.29227,1.771 -3.41711,2.6882 -1.21087,0.76404 -2.4004,1.5759 -3.45531,2.54729 -4.63023,3.5747 -10.83286,6.49593 -15.34555,9.03873 -4.101,2.31083 8.1652,-4.68638 12.25476,-7.01739 0.23134,-0.13186 -0.45313,0.27982 -0.67969,0.41973 -1.30303,1.00512 -2.65894,1.92049 -4.00674,2.85997 -4.64997,3.33485 -9.6357,5.47558 -14.70126,8.71949 -3.96421,2.53863 8.14651,-4.71953 12.23419,-7.05417 1.11016,-0.63405 -0.66673,0.44958 -1.31864,0.84902 -30.19531,17.47939 -6.92581,3.99451 -1.46194,0.88553 0.24461,-0.13918 -0.46298,0.32013 -0.69671,0.47689 -0.66315,0.44478 -1.28025,0.93128 -1.92449,1.40314 -8.30365,5.38417 -30.11597,17.68198 -3.69552,2.448 -1.26404,0.72856 -2.34659,1.68914 -3.47282,2.60301 -4.53561,2.56023 -9.07123,5.12045 -13.60684,7.68068 -0.27854,0.0509 -0.56608,0.0659 -0.83562,0.15261 -1.05597,0.3397 -1.94643,0.76519 -3.06553,0.96425 -1.46938,0.81518 -2.91435,1.64392 -4.40116,2.42647 4.06277,-2.33754 8.11161,-4.69943 12.1883,-7.0126 0.22611,-0.1283 -0.40846,0.32451 -0.63281,0.45585 -4.4968,2.63255 -9.0832,5.11369 -13.52747,7.83398 -4.00965,2.45427 8.14005,-4.70569 12.2232,-7.03565 0.21886,-0.12489 -0.41018,0.29434 -0.62883,0.41958 -4.51819,2.588 -9.0534,5.14615 -13.5801,7.71922 32.29936,-18.53432 -0.83104,0.53474 -1.26129,0.77713 -0.22851,0.12874 -0.51139,0.1334 -0.74554,0.25158 -0.71399,0.36037 -1.23383,0.74864 -2.01699,1.00905 -1.70451,0.16424 -3.27763,0.71776 -4.9334,1.09655 -1.41889,0.93425 -3.08018,1.14864 -4.73136,1.30599 -1.59675,0.68922 -3.31282,0.89172 -5.02868,1.02515 -1.97164,0.11576 -3.94775,0.11016 -5.92201,0.11194 -2.02266,-0.002 -4.04532,-0.006 -6.06798,-0.009 -2.00176,-0.0904 -4.03954,0.2076 -6.00919,-0.20021 -8.09076,-4.07282 3.97686,-6.18927 10.92283,-9.86043 1.2738,0.71398 2.50278,1.49189 3.55801,2.51595 1.17403,1.08625 2.62198,1.76561 3.92929,2.6502 1.30635,0.75137 2.74201,1.2734 4.02484,2.06012 1.36402,0.61905 2.60533,1.40201 4.07245,1.76681 1.78319,0.32797 3.60498,0.32947 5.41186,0.34934 2.01425,0.01 4.02854,-9.6e-4 6.0428,-0.006 1.83708,0.0123 3.72526,0.19869 5.33273,-0.82592 -4.10484,2.33106 -8.19293,4.69185 -12.31452,6.99316 -0.42235,0.23582 0.71552,-0.66228 1.13264,-0.90725 4.48722,-2.63536 8.97786,-5.26654 13.52284,-7.80098 0.21948,-0.12238 1.44434,-0.28416 1.66239,-0.31709 5.18267,-2.3216 13.47656,-7.36076 -8.82546,5.35204 4.50362,-2.59428 9.00724,-5.18856 13.51085,-7.78284 0.24621,-0.0862 0.96385,-0.39016 0.73861,-0.25858 -4.06343,2.37372 -16.27669,9.4519 -12.26492,6.99186 4.50718,-2.76382 9.49729,-6.94266 15.07972,-8.19887 4.68618,-2.26259 10.02435,-5.53239 -10.90288,6.32354 -0.21414,0.12131 0.42029,-0.2562 0.63166,-0.38227 0.84328,-0.50294 0.37935,-0.1757 1.16585,-0.807 7.26874,-4.51732 29.07574,-16.41319 2.584,-1.44303 -0.39643,0.22401 0.6753,-0.61733 0.95553,-0.97623 0.89086,-1.1356 2.0875,-1.95672 2.9358,-3.12602 0.84081,-1.18236 1.8048,-2.25997 2.73535,-3.36957 0.94671,-1.12107 2.07872,-1.99645 3.29757,-2.80048 1.02016,-0.99686 1.98652,-2.02873 3.11935,-2.91452 0.95037,-1.07868 1.90056,-2.12391 3.03193,-3.02671 1.03978,-0.97293 2.17724,-1.82914 3.00053,-3.00215 0.88206,-1.1686 1.66534,-2.41174 2.84668,-3.30106 1.15547,-0.85946 1.90071,-2.06725 2.69291,-3.23648 0.73965,-1.29276 1.96463,-2.07179 2.70808,-3.3634 0.91422,-1.11894 1.71156,-2.38932 2.80182,-3.35045 1.14093,-0.89036 2.057,-1.9521 2.90804,-3.11686 4.39697,-5.48576 7.77238,-5.78694 15.98289,-10.48717 4.50803,-2.51777 10.19234,-5.6911 -10.9472,6.32028 -0.21366,0.1214 0.40731,-0.27512 0.61398,-0.40807 0.8933,-0.57468 0.3067,-0.13347 1.15197,-0.82955 4.70028,-4.06115 8.04996,-5.00593 15.25175,-9.11012 1.31252,-0.74799 -0.0928,-0.0797 1.31738,-0.70862 -23.26128,12.50685 -13.441,8.70932 -9.42685,4.86373 1.14379,-0.87262 2.31368,-1.71363 3.47268,-2.57034 0.20419,-0.1893 0.88576,-0.84159 1.12454,-0.97895 4.51481,-2.59705 9.07635,-5.11205 13.60587,-7.68337 0.43435,-0.24657 1.75478,-0.95452 1.32276,-0.70388 -4.07508,2.36414 -8.17783,4.68025 -12.26675,7.02037 1.02488,-0.61677 1.9788,-1.32803 2.84265,-2.15477 0,0 13.93666,-5.64305 13.93666,-5.64305 l 0,0 c -0.96961,0.73045 -1.69843,1.7383 -2.77589,2.32822 -4.49505,2.60743 -8.98533,5.22308 -13.48514,7.82228 -0.43557,0.25159 -1.79344,0.90917 -1.35993,0.65405 4.05031,-2.38362 8.14508,-4.6911 12.19706,-7.07188 0.40768,-0.23954 -1.7183,0.76495 -1.22937,0.70776 -0.94381,1.07894 -2.19709,1.95602 -3.4486,2.6302 -1.71518,1.29188 0.6062,-0.52241 -1.04544,0.99816 -4.18365,3.85162 -13.10356,5.51665 -15.20795,9.16086 -4.66764,2.50946 -8.85112,5.15735 10.84394,-6.41722 0.33943,-0.19947 -0.64888,0.1806 -1.21651,0.72029 -0.18142,0.17248 -0.32314,0.38241 -0.48471,0.57361 -2.34289,1.62603 1.21735,-0.90381 -1.10511,0.95399 -4.58831,3.67033 -10.1624,6.20034 -15.43838,8.88826 4.06212,-2.37086 8.13538,-4.72273 12.18635,-7.11259 0.20284,-0.11967 -0.43962,0.17587 -0.63945,0.30052 -0.7883,0.49171 -1.32519,1.40691 -1.92076,2.08998 -1.06105,1.00318 -1.56914,2.48452 -2.85613,3.2408 -1.45025,1.50043 0.44486,-0.37074 -1.09178,0.87616 -0.75287,0.6109 -0.89723,1.72954 -1.85024,2.15138 -0.59673,0.8213 -0.81049,1.8541 -1.65433,2.49624 -0.1815,0.13811 -0.41487,0.19773 -0.59538,0.33712 -0.18047,0.13937 -0.31772,0.32714 -0.47658,0.49071 -0.71807,1.32312 -1.52862,2.5509 -2.49465,3.69778 -1.3201,1.19926 0.26079,-0.14689 -1.16583,0.80031 -0.77336,0.51347 -1.27425,1.47529 -1.80512,2.20283 -0.95769,1.09391 -1.58989,2.44545 -2.91468,3.20448 -0.96488,1.08088 -2.38887,1.68028 -3.0288,3.03439 -0.97141,1.08464 -2.39355,1.67611 -3.0831,3.00486 -1.02921,1.03951 -2.47754,1.48348 -3.34786,2.67593 -1.09868,0.8866 -1.98703,2.07707 -2.80029,3.21661 -0.96528,1.06437 -1.59627,2.35512 -2.9372,3.12282 -4.80176,5.77235 9.93215,-4.90176 -14.22945,9.23139 -0.21916,0.1282 -0.92104,0.42397 -0.70213,0.29533 11.61959,-6.82783 16.54754,-8.95244 11.53433,-6.76094 -2.54992,1.78131 1.43991,-1.06363 -1.10926,0.9585 -4.6149,3.66078 -10.02295,6.69415 -15.63109,8.66263 -0.47198,0.19961 -1.83005,0.92079 -1.38668,0.6638 4.06774,-2.3578 16.40161,-9.19269 12.21486,-7.05331 -4.62939,2.36557 -9.02813,5.15769 -13.54439,7.73269 -0.21792,0.12424 -0.87515,0.49075 -0.6581,0.36501 4.06893,-2.35726 8.14255,-4.7064 12.21383,-7.0596 -4.57521,2.61652 -11.08588,7.48164 -17.13929,9.15972 -0.49644,0.17013 -1.90388,0.87561 -1.45152,0.6096 4.0554,-2.38477 8.12772,-4.74066 12.19048,-7.11288 0.20518,-0.1198 -0.42591,0.21539 -0.61771,0.35561 -0.1959,0.14323 -0.33029,0.36535 -0.53863,0.4898 -4.46157,2.66508 -8.97208,5.24736 -13.45812,7.87104 -1.86561,0.40756 -3.74449,0.37496 -5.64779,0.34585 -2.02184,0.005 -4.04397,0.0175 -6.0656,-0.0193 -1.90721,-0.0555 -3.8406,-0.114 -5.67926,-0.67802 -1.47598,-0.54209 -2.84781,-1.31842 -4.25277,-2.01899 -1.375,-0.67608 -2.75304,-1.35458 -4.07016,-2.13833 -1.42584,-0.84913 -2.81572,-1.76266 -4.05793,-2.87055 -0.96906,-0.81042 -2.05771,-1.53945 -3.26078,-1.94954 4.23182,-2.48665 8.58064,-4.78413 12.69545,-7.45995 0.19082,-0.12409 -0.32396,-0.31983 -0.48594,-0.47975 -0.007,0.004 -0.0269,0.009 -0.0202,0.0133 0.48463,0.33761 1.0305,0.57034 1.61674,0.65704 1.95653,0.10472 3.91868,0.0143 5.87722,0.0477 2.02125,0.003 4.04253,0.009 6.06378,10e-4 1.94843,-0.0152 3.90242,-0.0249 5.84073,-0.24717 1.69919,-0.24223 3.32256,-0.74813 5.00402,-1.06406 1.61705,-0.3049 3.08586,-0.93967 4.64037,-1.44342 1.5996,-0.44979 3.26926,-0.6212 4.80103,-1.28299 15.01559,-7.9131 -39.48333,22.4582 3.98522,-2.0871 -4.06474,2.35386 -8.13232,4.70283 -12.19421,7.0616 -0.21473,0.1247 0.43801,-0.23428 0.65255,-0.35928 4.49383,-2.61837 9.00653,-5.20493 13.47238,-7.87073 4.02783,-2.40434 -8.09886,4.7356 -12.15824,7.08628 -0.22322,0.12926 0.43263,-0.28104 0.64895,-0.42155 4.4906,-2.6465 8.98121,-5.293 13.47181,-7.9395 1.46844,-0.8421 3.00391,-1.6933 4.65004,-2.10811 5.57389,-1.68402 13.85208,-6.41604 -8.44939,5.73859 1.36432,-0.60619 2.18794,-1.84679 3.49641,-2.54045 4.48206,-2.62618 8.98647,-5.21457 13.44617,-7.87854 4.0391,-2.41272 -8.1158,4.76199 -12.18432,7.12478 -0.20865,0.12118 0.41686,-0.24674 0.60375,-0.39936 0.59752,-0.48794 1.1664,-0.94402 1.80173,-1.39424 1.03083,-0.46401 1.71275,-1.21471 2.6711,-1.77835 15.92681,-9.36736 19.47992,-11.40659 1.44189,-0.92412 4.55776,-3.12928 11.5918,-6.79694 14.7683,-8.69519 4.0351,-2.41135 -8.10852,4.75805 -12.17378,7.11819 -0.4371,0.25377 1.78676,-1.09114 1.17812,-0.95452 1.43415,-0.80999 2.74015,-1.77123 4.05301,-2.75346 4.42496,-3.89914 2.12819,-1.9479 14.12868,-8.32632 4.15215,-2.20693 -8.1344,4.71965 -12.19871,7.08443 -1.14004,0.66333 2.81722,-1.91331 1.85381,-1.12626 1.17547,-0.8543 2.13533,-1.96694 3.38384,-2.73539 1.36138,-0.60177 2.1845,-1.82813 3.47074,-2.54579 1.22679,-1.06934 -0.14568,0.0357 1.20071,-0.78162 0.80465,-0.48846 1.35469,-1.38259 2.01986,-2.02467 1.13797,-0.87975 2.04046,-2.03505 3.11883,-2.98419 1.19675,-0.7863 2.23018,-1.78793 3.49302,-2.47904 0.86722,-1.12461 1.97832,-2.03231 2.84911,-3.15828 0.74405,-1.28157 1.6061,-2.43919 2.61519,-3.51143 1.08576,-0.93882 1.90669,-2.20968 2.65614,-3.41955 0.91293,-1.08179 2.09595,-1.93657 3.19231,-2.81497 0.94267,-1.08308 1.55963,-2.42201 2.79991,-3.25187 0.83995,-1.1516 1.91356,-2.105 2.60494,-3.3755 0.6871,-1.58091 1.86293,-2.94459 3.05764,-4.17147 1.57554,-2.30283 2.90075,-4.78045 4.55418,-7.03923 0,0 13.80451,-5.86519 13.80451,-5.86519 z"
         id="path4154"
         style="opacity:0.98000004;fill:#000000;fill-opacity:1;stroke:#dbd4eb;stroke-width:0.2;stroke-miterlimit:4;stroke-dasharray:none;stroke-opacity:1" />
      <path
         inkscape:connector-curvature="0"
         d="m 215.20126,649.67768 c -3.07013,-0.0557 -6.14109,-0.0315 -9.21153,-0.0199 -1.4519,0.0205 -2.98006,-0.11975 -4.37141,0.41668 -0.49039,0.18907 -0.91399,0.51998 -1.38268,0.75782 -1.01368,0.56075 -2.19945,0.45994 -3.28098,0.72105 -0.5161,0.1246 -0.99372,0.37537 -1.49877,0.5391 -0.26912,0.0643 -0.54986,0.0916 -0.80738,0.19286 -0.47034,0.18487 -1.78713,0.94379 -1.34935,0.69128 20.93918,-12.07771 15.46898,-8.96178 11.07904,-6.23587 -0.77658,0.56813 -1.30532,1.17516 -0.24945,1.72002 1.42082,0.87704 3.07727,1.23135 4.6376,1.8009 1.63657,0.33822 3.12351,1.06924 4.76215,1.40642 1.62801,0.36153 3.17558,0.91497 4.84773,1.13227 1.89273,0.1888 3.79755,0.18874 5.69768,0.19779 1.73931,0.43668 3.49311,0.73341 5.2794,0.87897 1.82298,-0.0742 3.52999,0.54677 5.3079,0.83788 1.83762,0.15649 3.61531,0.24716 5.40495,0.69803 1.63,0.40229 3.15434,1.18108 4.71968,1.79508 1.44514,1.04883 3.20638,1.26524 4.59049,2.3816 1.28033,1.43555 1.72073,3.28249 1.46499,5.15611 -0.19761,0.52778 -0.31966,0.93976 -0.63044,1.41871 -0.3702,0.57051 -1.04866,1.19099 -1.63785,1.53424 -4.49956,2.62139 -9.03808,5.17531 -13.55712,7.76297 -0.27278,0.0605 -0.55587,0.0857 -0.81833,0.18149 -0.23878,0.0872 -0.44737,0.24153 -0.67105,0.3623 -0.24213,0.096 -0.47931,0.20562 -0.7264,0.28804 -0.81881,0.27312 -1.66368,0.37939 -2.51538,0.48692 -1.5608,0.74666 -3.2686,0.94368 -4.97053,1.07934 -1.97104,0.11771 -3.94672,0.11081 -5.92045,0.112 -2.02295,-0.002 -4.04589,-0.007 -6.06883,-0.01 -2.02124,-0.002 -4.04247,-0.002 -6.0637,-0.002 -1.24771,0.15539 -2.67457,-0.32209 -3.86716,0.20775 -0.23111,0.10268 -0.83931,0.56281 -0.61888,0.43885 4.16896,-2.34459 8.31194,-4.73509 12.46791,-7.10263 -1.01434,-0.19128 0.62315,0.96855 0.8818,1.1021 1.45982,0.666 2.92353,1.48419 4.28953,2.35024 1.34087,0.82174 2.63265,1.70553 3.99847,2.49296 0.21733,0.088 0.4446,0.15469 0.652,0.26409 1.23569,0.65186 0.12385,0.23766 1.31856,0.77642 0.71043,0.32037 1.42709,0.45109 2.13424,0.79423 1.59723,0.55742 3.21704,1.08865 4.86527,1.49173 1.59389,0.83001 3.29977,1.19786 5.06951,1.38286 1.99678,0.009 3.91556,0.56225 5.88415,0.83895 1.79882,0.2399 3.71158,0.62992 5.13805,1.79891 1.13535,0.95573 2.18525,2.04654 3.14053,3.18614 0.14861,0.23835 0.29723,0.4767 0.44584,0.71505 0,0 -12.98974,7.56758 -12.98974,7.56758 l 0,0 c -0.11155,-0.17411 -0.22311,-0.34822 -0.33467,-0.52233 -0.91065,-1.0254 -1.84373,-2.06401 -2.94831,-2.88255 -1.41473,-0.8064 -3.12711,-0.98646 -4.70983,-1.24045 -1.9562,-0.32839 -3.89978,-0.69084 -5.88368,-0.81186 -1.79163,-0.30764 -3.47845,-0.87982 -5.16931,-1.53751 -1.6901,-0.48733 -3.40081,-0.94676 -5.01415,-1.65497 -1.47297,-0.54266 -2.86331,-1.21022 -4.21933,-2.00443 -1.32711,-0.83383 -2.64546,-1.67756 -3.98032,-2.49621 -1.44714,-0.80369 -2.86625,-1.65053 -4.34806,-2.38853 -1.18775,-0.90286 -2.22434,-2.04851 -2.20719,-3.62998 11.87213,-6.92461 9.61648,-8.08982 18.13045,-7.94596 2.02153,4.3e-4 4.04307,0.001 6.0646,0.004 2.02158,0.003 4.04318,0.01 6.06477,0.002 1.94671,-0.0148 3.89957,-0.0226 5.83539,-0.25326 1.6796,-0.25177 3.26997,-0.77432 4.91649,-1.16274 1.55823,-0.37537 3.03114,-1.00823 4.49168,-1.65588 -4.06191,2.36417 -8.12383,4.72834 -12.18575,7.0925 0.44715,-0.23862 2.01917,-1.14788 2.31079,-1.48702 0.14274,-0.16601 0.22616,-0.37496 0.33925,-0.56243 0.78303,-1.06905 0.34328,-2.57355 -0.53309,-3.47881 -1.37913,-0.83129 -3.0028,-1.22026 -4.37273,-2.09138 -1.49687,-0.61557 -2.99688,-1.27949 -4.59194,-1.59038 -1.77323,-0.34936 -3.59481,-0.27882 -5.36779,-0.65107 -1.73497,-0.35219 -3.44936,-0.72653 -5.23147,-0.74465 -1.73959,-0.21159 -3.4424,-0.64484 -5.18853,-0.77443 -1.95273,-0.0281 -3.91501,-0.0561 -5.84692,-0.37287 -1.66534,-0.32604 -3.25508,-0.9048 -4.92109,-1.22713 -1.63252,-0.46593 -3.21856,-1.08268 -4.8524,-1.5461 -1.68277,-0.62544 -3.47695,-1.02519 -4.91906,-2.15875 -1.20627,-1.11142 -1.97762,-2.59293 -0.96045,-4.11555 0.60466,-0.66434 0.36218,-0.50092 1.13158,-0.94512 5.98063,-3.45277 9.8679,-6.87469 15.77144,-8.52427 1.565,-0.44788 3.21818,-0.60151 4.67013,-1.40603 1.94127,-0.74469 4.00392,-0.65635 6.05451,-0.61769 3.08868,0.0118 6.17785,0.0352 9.26623,-0.0199 0,0 -12.1313,8.8139 -12.1313,8.8139 z"
         id="path4156"
         style="opacity:0.98000004;fill:#000000;fill-opacity:1;stroke:#dbd4eb;stroke-width:0.2;stroke-miterlimit:4;stroke-dasharray:none;stroke-opacity:1" />
    </g>
    <g
       id="g4191">
      <rect
         ry="40.406101"
         y="213.93559"
         x="101.01525"
         height="501.03564"
         width="531.34021"
         id="rect4189"
         style="opacity:0.98000004;fill:none;fill-opacity:1;stroke:#dbd4eb;stroke-width:0.2;stroke-miterlimit:4;stroke-dasharray:none;stroke-opacity:1" />
    </g>
  </g>
</svg>
