<?xml version="1.0" encoding="UTF-8" standalone="no"?>
<!-- Created with Inkscape (http://www.inkscape.org/) -->

<svg
   xmlns:dc="http://purl.org/dc/elements/1.1/"
   xmlns:cc="http://creativecommons.org/ns#"
   xmlns:rdf="http://www.w3.org/1999/02/22-rdf-syntax-ns#"
   xmlns:svg="http://www.w3.org/2000/svg"
   xmlns="http://www.w3.org/2000/svg"
   xmlns:sodipodi="http://sodipodi.sourceforge.net/DTD/sodipodi-0.dtd"
   xmlns:inkscape="http://www.inkscape.org/namespaces/inkscape"
   width="210mm"
   height="297mm"
   viewBox="0 0 744.09448819 1052.3622047"
   id="svg2"
   version="1.1"
   inkscape:version="0.91 r13725"
   sodipodi:docname="drawing-1.svg">
  <defs
     id="defs4" />
  <sodipodi:namedview
     id="base"
     pagecolor="#ffffff"
     bordercolor="#666666"
     borderopacity="1.0"
     inkscape:pageopacity="0.0"
     inkscape:pageshadow="2"
     inkscape:zoom="0.98994949"
     inkscape:cx="-192.167"
     inkscape:cy="616.41855"
     inkscape:document-units="px"
     inkscape:current-layer="layer2"
     showgrid="false"
     inkscape:window-width="1920"
     inkscape:window-height="1056"
     inkscape:window-x="0"
     inkscape:window-y="24"
     inkscape:window-maximized="1" />
  <metadata
     id="metadata7">
    <rdf:RDF>
      <cc:Work
         rdf:about="">
        <dc:format>image/svg+xml</dc:format>
        <dc:type
           rdf:resource="http://purl.org/dc/dcmitype/StillImage" />
        <dc:title />
      </cc:Work>
    </rdf:RDF>
  </metadata>
  <g
     inkscape:groupmode="layer"
     id="layer2"
     inkscape:label="background">
    <circle
       style="opacity:1;fill:none;fill-opacity:1;fill-rule:evenodd;stroke:#000000;stroke-width:0.30256772;stroke-linecap:round;stroke-linejoin:miter;stroke-miterlimit:7.9000001;stroke-dasharray:none;stroke-opacity:1"
       id="path4188"
       cx="313.14728"
       cy="152.31628"
       r="18.182745"
       transform="matrix(4.0632933,0,0,2.6882932,-960.77717,-264.98323)" />
    <circle
       style="display:inline;opacity:1;fill:none;fill-opacity:1;fill-rule:evenodd;stroke:#000000;stroke-width:2.22399998;stroke-linecap:round;stroke-linejoin:miter;stroke-miterlimit:7.9000001;stroke-dasharray:none;stroke-opacity:1"
       id="path4136-6"
       cx="314.15744"
       cy="346.26556"
       r="169.28572" />
  </g>
  <g
     inkscape:label="Outline"
     inkscape:groupmode="layer"
     id="layer1"
     style="display:inline"
     sodipodi:insensitive="true">
    <circle
       style="opacity:1;fill:none;fill-opacity:1;fill-rule:evenodd;stroke:#000000;stroke-width:2.22399998;stroke-linecap:round;stroke-linejoin:miter;stroke-miterlimit:7.9000001;stroke-dasharray:none;stroke-opacity:1"
       id="path4136"
       cx="313.57144"
       cy="345.93362"
       r="169.28572" />
    <g
       id="g4171"
       style="stroke-width:2.22399998;stroke-miterlimit:5.94999981;stroke-dasharray:none">
      <path
         inkscape:connector-curvature="0"
         id="path4138"
         d="m 344.66265,180.47836 c -32.79994,-29.44509 30.6267,-44.07871 52.93198,-38.19796 34.98651,-4.74528 39.14033,-48.035599 63.28985,-67.534792 20.49102,-23.006671 51.45835,-27.113552 79.18609,-35.426573 61.26147,-11.054232 129.52986,39.485286 127.08529,104.304395 0.21587,61.91478 -30.79191,117.57927 -45.00525,176.58489 -12.72258,40.81182 -35.53566,78.70548 -68.62855,105.98828 -57.91428,61.55535 -95.82932,145.86701 -91.63906,231.48828 1.41734,15.41436 5.11175,30.8766 12.91979,44.35105"
         style="fill:none;fill-rule:evenodd;stroke:#000000;stroke-width:2.22399998;stroke-linecap:butt;stroke-linejoin:miter;stroke-miterlimit:5.94999981;stroke-dasharray:none;stroke-opacity:1" />
      <path
         inkscape:connector-curvature="0"
         id="path4145"
         d="m 459.91649,253.58372 c 3.49849,40.24615 65.28339,45.48513 73.67499,5.95221 18.57083,-40.11283 -22.9437,-75.34633 -10.97592,-115.9219 8.59423,-41.57115 76.38157,-38.14369 67.46105,9.88142 5.96325,37.13912 -4.0265,72.60895 -11.45969,108.45702 -8.73893,42.17733 -26.93117,81.04569 -49.90483,116.62935 -21.51605,39.12304 -46.62889,75.84543 -74.40676,110.46191 -18.7765,30.78823 -42.95907,57.46833 -67.38496,83.84479 -19.72942,20.60324 -32.47379,49.6705 -59.03907,63.62501 -24.7934,16.85709 -61.09036,24.09102 -73.6629,52.97554 -2.81674,1.11144 -1.38688,5.04677 -2.79862,7.1695"
         style="fill:none;fill-rule:evenodd;stroke:#000000;stroke-width:2.22399998;stroke-linecap:butt;stroke-linejoin:miter;stroke-miterlimit:5.94999981;stroke-dasharray:none;stroke-opacity:1" />
    </g>
    <path
       style="fill:none;fill-rule:evenodd;stroke:#000000;stroke-width:2.22399998;stroke-linecap:butt;stroke-linejoin:miter;stroke-miterlimit:7.9000001;stroke-dasharray:none;stroke-opacity:1"
       d="m 468.71078,690.72759 c 4.21199,-1.12775 -0.19703,-7.66583 4.99288,-9.56166 4.09117,-4.17241 10.29393,-5.98719 15.71525,-8.62108 6.75225,-2.25706 13.73834,-4.57702 19.76974,-7.74022 5.79469,-2.13067 11.25847,-5.30156 15.68597,-9.56609 3.72388,-4.05657 9.53712,-6.63947 11.09477,-12.47285 2.27318,-4.21755 5.26286,-10.95473 -2.45102,-10.93366 -2.49838,-0.5715 -12.13245,-2.68969 -4.97215,-3.45598 5.6013,-3.12096 12.07566,-1.70671 17.94631,-2.80329 7.19661,-0.39036 10.51042,-6.98849 14.49944,-11.53564 4.44278,-4.6225 8.57694,-9.71048 11.19405,-15.67299 2.9328,-6.45856 4.14054,-12.86737 3.59966,-19.98479 0.25595,-6.08045 0.38174,-11.90148 -3.00993,-17.16172 -3.7991,-5.97161 -7.14651,-12.39187 -6.08003,-19.78607 0.36633,-6.71966 -1.21216,-13.74858 1.89775,-19.83112 0.4906,-3.30687 4.48115,-11.08155 4.03345,-11.41717 -4.02485,5.02872 -11.55801,6.02861 -17.57137,6.86092 -7.01383,-0.84635 -13.22459,0.84034 -19.8165,0.83559 -7.40707,1.0413 -14.62471,3.18394 -21.12702,6.83454 -1.18964,4.31593 -1.44495,8.81427 -7.67836,7.70344 -2.92231,2.29156 -0.25158,-5.02427 -1.8469,-0.26161 -0.63588,6.33518 -6.17064,1.86318 -6.30318,1.61574 -5.60978,-0.92011 -7.22284,3.77969 -10.54446,6.53729 -0.63381,1.68536 -4.19834,6.03583 -5.28822,7.96491 -2.22308,2.55201 -1.84266,5.68551 -6.66906,9.11338"
       id="path4157"
       inkscape:connector-curvature="0" />
    <path
       style="fill:none;fill-rule:evenodd;stroke:#000000;stroke-width:2.22399998;stroke-linecap:butt;stroke-linejoin:miter;stroke-miterlimit:7.9000001;stroke-dasharray:none;stroke-opacity:1"
       d="m 250.51783,694.7682 c -7.44759,-1.24096 -20.04748,7.97094 -11.74452,14.79257 17.07776,7.4018 35.66019,11.00638 54.2209,12.31233 16.97638,1.25072 33.93421,2.88235 50.97284,2.16884 23.06178,-0.0938 46.12359,0.13224 69.18534,0.0207 21.29395,-5.41864 43.87292,-5.77553 64.38537,-14.14581 6.80991,-1.26585 6.63587,-8.38004 -0.49611,-7.95188 -2.42363,-0.38018 -4.89223,-0.55969 -7.32072,-0.12567"
       id="path4163"
       inkscape:connector-curvature="0" />
  </g>
</svg>
