<?xml version="1.0" encoding="UTF-8" standalone="no"?>
<!-- Created with Inkscape (http://www.inkscape.org/) -->

<svg
   xmlns:dc="http://purl.org/dc/elements/1.1/"
   xmlns:cc="http://creativecommons.org/ns#"
   xmlns:rdf="http://www.w3.org/1999/02/22-rdf-syntax-ns#"
   xmlns:svg="http://www.w3.org/2000/svg"
   xmlns="http://www.w3.org/2000/svg"
   xmlns:sodipodi="http://sodipodi.sourceforge.net/DTD/sodipodi-0.dtd"
   xmlns:inkscape="http://www.inkscape.org/namespaces/inkscape"
   width="156.56947mm"
   height="148.87212mm"
   viewBox="0 0 554.77372 527.49962"
   id="svg2"
   version="1.1"
   inkscape:version="0.91 r13725"
   sodipodi:docname="drawing2.svg">
  <defs
     id="defs4" />
  <sodipodi:namedview
     id="base"
     pagecolor="#ffffff"
     bordercolor="#666666"
     borderopacity="1.0"
     inkscape:pageopacity="0.0"
     inkscape:pageshadow="2"
     inkscape:zoom="0.98994949"
     inkscape:cx="228.42989"
     inkscape:cy="202.39849"
     inkscape:document-units="px"
     inkscape:current-layer="layer1"
     showgrid="false"
     fit-margin-top="0"
     fit-margin-left="0"
     fit-margin-right="0"
     fit-margin-bottom="0"
     inkscape:window-width="1920"
     inkscape:window-height="1056"
     inkscape:window-x="0"
     inkscape:window-y="24"
     inkscape:window-maximized="1" />
  <metadata
     id="metadata7">
    <rdf:RDF>
      <cc:Work
         rdf:about="">
        <dc:format>image/svg+xml</dc:format>
        <dc:type
           rdf:resource="http://purl.org/dc/dcmitype/StillImage" />
        <dc:title />
      </cc:Work>
    </rdf:RDF>
  </metadata>
  <g
     inkscape:label="Layer 1"
     inkscape:groupmode="layer"
     id="layer1"
     transform="translate(-88.793425,-176.45995)">
    <path
       style="opacity:0.98000004;fill:#000000;fill-opacity:1;stroke:#dbd4eb;stroke-width:0.2;stroke-miterlimit:4;stroke-dasharray:none;stroke-opacity:1"
       id="path4148"
       d="m 190.52813,264.02636 c -0.24854,2.70777 0.37317,5.30058 1.0861,7.88106 0.39891,1.85963 0.78727,3.70386 1.27623,5.5423 0.72526,1.51267 1.17153,3.08999 1.42941,4.74211 0.45666,1.93872 0.83576,3.88341 1.05084,5.86422 0.4035,1.73565 0.79957,3.45967 1.0095,5.23173 0.19095,1.97698 0.19974,3.96524 0.2119,5.94955 -0.16531,1.81902 0.23731,3.56437 0.55566,5.3372 0.32197,1.91013 0.38464,3.84889 0.42957,5.78131 0.0325,2.01885 0.0263,4.03806 0.0244,6.0571 -0.003,2.02175 -0.004,4.04351 -0.005,6.06526 -6.7e-4,2.02042 -6.7e-4,4.04084 -7e-4,6.06125 0,2.02029 3e-5,4.04058 4e-5,6.06087 1e-5,2.02031 1e-5,4.04061 1e-5,6.06091 0,2.0203 0,4.04061 0,6.06092 0,2.0203 0,4.04061 0,6.06091 0,2.02031 0,4.04061 0,6.06092 0,2.0203 0,4.04061 0,6.06091 0,2.02031 0,4.04061 0,6.06092 0,2.0203 0,4.04061 0,6.06091 0,2.02031 0,4.04061 0,6.06092 0,2.0203 0,4.04061 0,6.06091 0,2.02031 0,4.04061 0,6.06092 0,2.0203 0,4.04061 0,6.06091 0,2.02031 0,4.04061 0,6.06092 0,2.0203 0,4.04061 0,6.06091 0,2.02031 0,4.04061 0,6.06092 0.24559,1.84672 -0.4931,3.33466 -1.20666,4.95337 -0.63674,1.65265 -0.71205,3.43485 -0.78525,5.18377 -0.0558,2.00418 -0.0431,4.00948 -0.039,6.01421 0.16043,1.8951 -0.18095,3.72596 -0.53078,5.57392 -0.33482,1.83938 -0.39948,3.71075 -0.447,5.57509 0.0764,1.82828 -0.42304,3.59524 -0.70488,5.385 -0.26117,1.89117 -0.29308,3.80299 -0.32118,5.70877 0.13823,1.88704 -0.20346,3.71053 -0.55086,5.55067 -0.33542,1.79746 -0.29832,3.62919 -0.65343,5.42185 -0.45258,1.72658 -0.63565,3.49648 -0.74199,5.27262 0.0253,1.80737 -0.48132,3.5488 -0.76474,5.31886 -0.26303,1.89104 -0.2931,3.80319 -0.32045,5.70903 0.062,1.93163 -0.0143,3.82388 -0.38945,5.7193 -0.19459,1.69252 -0.70043,3.30691 -1.11664,4.94995 -0.40514,1.80604 -0.45746,3.66259 -0.50413,5.50521 0.078,1.82974 -0.41871,3.59902 -0.69926,5.39058 -0.25997,1.89176 -0.2919,3.80397 -0.31993,5.7102 -0.0189,2.01581 -0.0129,4.03176 -0.0106,6.04764 0.15339,1.77585 -0.34299,3.69635 0.29559,5.3973 0.62812,1.39068 1.31656,2.7567 1.89077,4.17113 0.79761,1.70808 1.43082,3.49177 2.23434,5.19466 0.62456,1.60472 1.4771,3.09366 2.26622,4.61951 0.94398,1.46751 1.89609,2.92362 2.85918,4.37715 0.89783,1.21698 2.00029,2.24656 2.98891,3.38203 0.81202,1.19468 1.81849,2.22861 2.7781,3.31199 0.8644,1.10526 1.75432,2.22101 2.79069,3.17257 0.98716,1.01811 1.92979,2.09791 3.00032,3.03185 1.11088,1.02769 2.00579,2.21205 2.83468,3.47573 0.9622,1.15463 1.91044,2.31602 2.86973,3.4771 1.06976,1.71363 2.6444,2.97123 4.09893,4.32878 0.99699,1.40208 2.4639,2.31138 3.68572,3.48324 1.2477,0.84595 1.92058,2.23446 2.89521,3.34183 1.04718,0.90407 2.21636,1.59659 3.4291,2.25762 1.10605,0.98518 2.36334,1.74275 3.5315,2.63421 1.35371,0.92407 2.8261,1.61604 4.29121,2.34098 1.22849,0.99901 2.72174,1.50983 4.15001,2.14411 0.23628,0.0764 0.48202,0.12812 0.70886,0.22918 2.42658,1.08111 -0.86639,-0.20656 1.39567,0.73163 0.73636,0.3054 1.45961,0.43458 2.18589,0.77893 1.50493,0.45483 2.94479,1.07649 4.45399,1.52117 1.76687,0.41727 3.47574,1.02175 5.15897,1.69695 1.58109,0.4889 3.21814,0.93795 4.67935,1.72931 1.44226,0.66809 2.99353,0.9332 4.49312,1.44905 1.64192,0.257 3.18416,0.79888 4.78821,1.20937 1.84586,0.18862 3.62222,0.64886 5.43936,1.00498 2.04187,0.20208 3.99366,0.82048 6.01693,1.14537 2.01721,0.24349 3.96763,0.83108 5.86269,1.54208 1.60014,0.47356 3.25182,0.9279 4.72406,1.72846 1.4393,0.53462 2.84467,1.17303 4.31699,1.62361 1.32271,0.98272 2.97886,1.01881 4.45286,1.58658 1.53844,0.41163 2.8893,1.21258 4.44381,1.57805 1.71363,0.53943 3.22399,1.48652 4.96166,1.95616 1.63917,0.31829 3.18193,0.98951 4.6973,1.67075 1.42477,0.55203 2.76305,1.30409 4.12365,2.00233 1.38064,0.59845 2.69427,1.3355 4.03548,2.02442 1.17581,0.95785 2.56749,1.53924 3.72831,2.51911 1.09935,0.91735 2.22682,1.7643 3.4539,2.51116 1.1908,0.87084 2.19166,1.95332 3.31708,2.89805 1.21353,1.04498 2.09508,2.36512 3.10056,3.59352 0.9732,1.38631 2.2348,2.53406 3.33102,3.82032 1.12542,1.27141 1.87015,2.87598 3.25398,3.89629 1.08254,1.06416 2.1084,2.20895 3.06279,3.39291 0.78038,1.42729 1.49956,2.89881 2.21193,4.36595 0.77781,1.5507 1.3436,3.18116 1.99675,4.78273 0.5687,1.41731 1.10675,2.8602 1.82645,4.2099 0.11586,0.22592 0.22075,0.45783 0.34759,0.67778 0.0929,0.16116 0.44639,0.56377 0.40687,0.38199 -1.3603,-6.25802 -13.87713,12.17451 -12.67594,5.66947 -0.0698,-1.3716 -0.93003,-2.58072 -1.32995,-3.90767 -0.49057,-1.81736 -0.56823,-3.63622 -0.13614,-5.46312 0.5024,-1.45571 1.30392,-2.76711 1.96434,-4.14907 0.76218,-1.31557 1.33975,-2.71542 2.25689,-3.93596 4.66774,-4.49419 10.78916,-7.28082 16.72099,-9.69834 0.25998,-0.0727 0.53263,-0.10975 0.77992,-0.21798 2.66281,-1.16545 -1.45207,0.34862 1.32014,-0.71684 0.79104,-0.30403 1.61722,-0.41931 2.45011,-0.53796 1.45901,-0.87236 3.22635,-0.71011 4.7483,-1.32769 1.60565,-0.32195 3.06388,-1.00214 4.63299,-1.43287 1.68355,-0.18666 3.18959,-0.89434 4.8567,-1.1873 1.83103,-0.37227 3.747,-0.0208 5.54495,-0.50299 1.7257,-0.51022 3.52182,-0.64064 5.30899,-0.73144 1.69248,-0.2069 3.50365,-0.51295 5.12585,-1.08853 1.22017,-0.52529 2.5809,-0.48318 3.84655,-0.78035 0.56647,-0.133 1.09692,-0.38924 1.65115,-0.56644 1.71691,-0.208 3.29,-0.81797 4.95375,-1.23019 1.39727,-0.96081 3.05486,-1.17249 4.69945,-1.33067 0.98727,-0.54966 2.15527,-0.53229 3.20176,-0.85007 0.49805,-0.15125 0.95072,-0.42562 1.4378,-0.60912 1.77625,-0.33112 3.49622,-0.8438 5.26517,-1.21538 1.77692,-0.42713 3.45691,-1.04854 5.29198,-1.28959 1.72502,-0.16132 3.35508,-0.866 4.98776,-1.41985 1.80116,-0.33509 3.41641,-1.13815 5.21574,-1.49059 0.91933,-0.66124 2.06703,-0.68091 3.09102,-1.0231 0.48944,-0.16356 0.93245,-0.44449 1.41291,-0.63279 1.50134,-1.12946 3.43933,-1.07749 5.10122,-1.76267 0.19993,-0.1714 0.82934,-0.64323 0.59978,-0.51419 -4.09027,2.29907 -16.28922,9.32237 -12.19443,7.03135 5.65796,-3.16562 10.1922,-6.21754 15.63741,-8.75352 -4.0882,2.34218 -8.16677,4.70125 -12.26461,7.02653 -0.21298,0.12085 0.39616,-0.28948 0.6081,-0.41214 4.50262,-2.60592 9.02851,-5.17148 13.5339,-7.77262 4.07881,-2.35486 -8.16271,4.70097 -12.25418,7.03378 -0.215,0.12259 0.40886,-0.28002 0.62387,-0.40258 4.52173,-2.57758 9.05689,-5.13151 13.58533,-7.69726 -41.19746,23.56453 31.66195,-18.10955 -8.9892,5.26539 8.30569,-5.1626 27.33055,-15.71805 1.85947,-1.18749 -0.21506,0.12268 0.41007,-0.27773 0.61962,-0.4096 0.9823,-0.61812 0.23372,-0.0715 1.17572,-0.8084 1.32071,-0.97924 2.72464,-1.8374 3.98461,-2.8961 1.17871,-0.90066 2.53126,-1.52388 3.50614,-2.66253 1.10963,-0.92241 1.93653,-2.13275 3.04363,-3.05119 1.0057,-1.00514 1.9099,-2.12348 2.80666,-3.22994 0.93211,-1.06206 1.97205,-2.023 2.91216,-3.07628 0.81827,-1.18927 1.84112,-2.20265 2.77695,-3.30177 0.84879,-1.35715 1.75802,-2.67155 2.78033,-3.90801 1.03294,-1.14667 1.91783,-2.39448 2.77546,-3.67558 0.94493,-1.11074 1.58241,-2.42866 2.47916,-3.57572 1.04112,-1.18278 1.8977,-2.44384 2.56333,-3.87586 0.5584,-1.55657 1.50725,-2.91097 2.26941,-4.36403 0.76574,-1.28525 1.49213,-2.60231 2.11905,-3.96197 0.67737,-1.32478 1.4316,-2.62439 1.9711,-4.01306 0.64933,-1.54079 1.12083,-3.13696 1.6376,-4.72523 0.46701,-1.74007 0.83719,-3.4863 1.67671,-5.09355 0.65158,-1.39168 1.30198,-2.80499 1.79128,-4.26446 0.59513,-1.52138 1.04649,-3.06166 1.40935,-4.65345 0.47654,-1.70561 1.14292,-3.34764 1.60833,-5.05541 0.30845,-1.75101 0.9158,-3.42067 1.25177,-5.16481 0.40318,-1.64697 0.89519,-3.25001 1.13064,-4.93458 0.24789,-1.77529 0.86982,-3.4633 1.41711,-5.16064 0.45804,-1.78499 0.70274,-3.60207 1.16656,-5.38742 0.35165,-1.6998 0.57248,-3.4052 1.0104,-5.08749 0.46068,-1.75304 0.5601,-3.56583 0.631,-5.36817 0.0559,-2.00152 0.0482,-4.00412 0.0465,-6.00621 -0.003,-2.02261 -0.005,-4.04523 -0.007,-6.06784 -10e-4,-2.02073 -10e-4,-4.04147 -10e-4,-6.0622 -2e-5,-2.02029 10e-6,-4.04059 3e-5,-6.06089 10e-6,-2.02029 2e-5,-4.04059 2e-5,-6.06089 0,-2.0203 0,-4.04061 0,-6.06091 -0.0165,-1.59188 -0.85092,-2.94126 -1.34111,-4.41089 -0.80135,-1.47028 -1.1283,-3.08939 -1.53155,-4.69318 -0.5705,-1.92941 -0.81143,-3.92632 -1.27146,-5.88101 -0.55382,-1.99858 -0.621,-4.07495 -0.91396,-6.11425 -0.43832,-2.02273 -0.71817,-4.06738 -0.87513,-6.12954 -0.37487,-1.64645 -0.5911,-3.33739 -1.00377,-4.97377 -0.36239,-1.55263 -1.10367,-2.95935 -1.56139,-4.48069 -0.40154,-1.64635 -0.97222,-3.22626 -1.27368,-4.89926 -0.14399,-1.78692 -0.34993,-3.53231 -0.73054,-5.28394 -0.33145,-1.63948 -0.94364,-3.18704 -1.26104,-4.83445 -0.23283,-1.70434 -0.77253,-3.33628 -1.05156,-5.03487 -0.2694,-1.94885 -0.29373,-3.91956 -0.31744,-5.88337 -0.0142,-2.02253 -0.007,-4.04514 -0.004,-6.06771 0.003,-2.02143 0.004,-4.04287 0.005,-6.0643 4.1e-4,-2.02034 3.6e-4,-4.04069 3.5e-4,-6.06103 -2e-5,-2.02029 -4e-5,-4.04058 -5e-5,-6.06087 0,-2.0203 0,-4.0406 0,-6.06091 0,-2.0203 0,-4.04061 0,-6.06091 0,-2.02031 0,-4.04061 0,-6.06092 0,-2.0203 0,-4.04061 0,-6.06091 -0.14946,-1.82676 0.31203,-3.48362 1.04497,-5.12533 0.69021,-1.54979 0.73354,-3.26198 1.12906,-4.89017 0.50552,-1.69983 0.67754,-3.46004 0.78223,-5.22194 0.0878,-1.9877 0.082,-3.97798 0.0827,-5.96716 0.11782,-1.83622 0.5132,-3.65693 1.01142,-5.42577 0.60978,-1.84648 0.72772,-3.78594 0.98669,-5.69694 0.46545,-1.73858 0.68709,-3.51847 0.97138,-5.29045 0.36269,-1.86924 0.75694,-3.7166 1.31196,-5.53789 0.53172,-1.747 0.64426,-3.5721 0.72245,-5.38463 0.0601,-1.99948 0.0502,-4.00021 0.0477,-6.00035 -0.0824,-1.93804 -0.006,-3.83645 0.37166,-5.73802 0.39382,-1.78668 0.50887,-3.61272 0.58235,-5.43536 0.17471,-1.76365 0.6254,-3.47802 0.83927,-5.23878 0.32531,-1.68662 0.7229,-3.35773 1.06616,-5.04302 0.44054,-1.56808 0.86412,-3.12975 1.40599,-4.66575 0.38593,-1.60647 0.81737,-3.19077 1.33068,-4.76275 0.70928,-1.53866 1.21241,-3.16212 1.71086,-4.77868 0.62687,-1.60628 1.09418,-3.27423 1.72108,-4.87968 0.57276,-1.53274 0.88237,-3.13848 1.36451,-4.70167 -0.005,-0.71952 1.5708,-2.59357 0.8553,-3.14843 -0.88956,-1.069 -2.35422,-0.97984 -3.56167,-1.43725 -1.55304,-0.39517 -2.92336,-1.18491 -4.48836,-1.54673 -1.69704,-0.12584 -3.26426,-0.76751 -4.93361,-1.06026 -1.51621,-0.73724 -3.13794,-1.02409 -4.79903,-1.18099 -1.62299,-0.60279 -3.31089,-0.87267 -5.02684,-1.0167 -1.82118,0.0729 -3.52853,-0.5424 -5.30565,-0.83065 -1.75032,-0.0485 -3.36706,-0.70289 -5.07778,-1.00346 -1.54248,-0.46847 -2.93749,-1.26301 -4.45086,-1.79213 -0.24722,-0.0599 -0.50241,-0.0934 -0.74167,-0.17983 -0.52189,-0.2489 -0.9315,-0.46138 -1.47378,-0.65587 -0.77464,-0.27782 -1.51281,-0.39671 -2.27019,-0.73488 -1.52919,-0.57466 -3.11323,-0.8249 -4.66261,-1.33867 -1.6512,-0.24928 -3.19953,-0.79402 -4.81032,-1.20709 -1.75189,-0.26936 -3.46239,-0.39476 -5.17703,-0.85174 -1.72059,-0.33159 -3.41033,-0.50419 -5.09484,-0.99024 -1.70739,-0.46099 -3.48011,-0.53668 -5.23761,-0.59892 -1.70051,-0.49574 -3.43207,-0.77966 -5.19397,-0.92332 -1.96315,-0.18064 -3.94454,0.0426 -5.88402,-0.31858 -1.98767,-0.43653 -4.01022,-0.63086 -6.03847,-0.73812 -2.01072,-0.0816 -4.0236,-0.0771 -6.03558,-0.0777 -1.74241,-0.42872 -3.49611,-0.73183 -5.28378,-0.87913 -1.92234,-0.20489 -3.87934,0.0737 -5.77195,-0.32919 -1.71589,-0.47132 -3.48286,-0.63619 -5.25242,-0.73411 -1.96836,-0.0818 -3.93898,-0.0769 -5.90864,-0.0778 -2.02132,0.002 -4.04264,0.005 -6.06396,0.006 -1.82402,-0.0221 -3.58391,-0.59482 -5.39946,-0.80932 -1.90165,-0.18165 -3.81398,-0.19079 -5.72255,-0.20383 -2.01611,-0.007 -4.03225,-10e-4 -6.04837,0.001 -2.02177,0.002 -4.04355,0.003 -6.06532,0.003 -2.02046,2.6e-4 -4.04093,2.1e-4 -6.06139,2e-4 -2.02029,-2e-5 -4.04058,-3e-5 -6.06088,-4e-5 -2.0203,-1e-5 -4.0406,-1e-5 -6.0609,-1e-5 -2.02031,0 -4.04061,0 -6.06092,0 -2.0203,0 -4.04061,0 -6.06091,0 -2.02031,0 -4.04061,0 -6.06092,0 -2.0203,0 -4.04061,0 -6.06091,0 -2.02031,0 -4.04061,0 -6.06092,0 -2.0203,0 -4.04061,0 -6.06091,0 -2.02031,0 -4.04061,0 -6.06092,0 -2.0203,0 -4.04061,0 -6.06091,0 -2.02031,0 -4.04061,0 -6.06092,0 -2.0203,0 -4.04061,0 -6.06091,0 -2.02031,0 -4.04062,0 -6.06092,0 -2.02031,0 -4.04061,0 -6.06092,0 -2.0203,0 -4.04061,0 -6.06091,0 -0.27887,0.0693 -0.57402,0.0911 -0.83662,0.20779 -0.45764,0.2033 -0.80972,0.59644 -1.2545,0.82651 -0.73105,0.37813 -1.50302,0.53733 -2.30198,0.69593 -1.78703,0.0214 -3.43408,0.52323 -5.15916,0.8928 -1.76333,0.0576 -3.37522,0.60431 -5.07188,0.99251 -1.32796,1.02755 -3.06989,0.90122 -4.5301,1.54432 -1.01995,0.53956 -2.20677,0.45354 -3.28643,0.72499 -0.51509,0.1295 -0.99031,0.38538 -1.49399,0.55388 -1.48557,0.40875 -2.82248,1.21092 -4.19814,1.88968 -0.2494,0.0834 -0.51321,0.13226 -0.74821,0.25034 -1.85661,0.93294 0.69286,-0.0507 -1.27083,0.76338 -0.76651,0.31776 -1.48623,0.39395 -2.2197,0.79894 -1.38175,0.61198 -2.92306,1.03751 -4.17114,1.90232 -0.92301,0.66015 -2.0686,0.60025 -3.10225,0.89123 -0.50503,0.14216 -0.96868,0.40507 -1.46411,0.57774 -0.26693,0.0671 -0.54579,0.0978 -0.80078,0.2014 -0.23242,0.0944 -0.43054,0.25765 -0.64581,0.38647 -0.23241,0.10458 -0.45886,0.22352 -0.69721,0.31373 -0.78441,0.29692 -1.50645,0.37281 -2.25188,0.77374 -1.50564,0.52577 -2.80772,1.3175 -4.38322,1.66041 -4.70278,2.23958 -10.00658,5.51522 10.89843,-6.32269 0.21411,-0.12125 -0.41921,0.25797 -0.63297,0.37983 -13.74457,7.8354 -8.5316,6.42808 -14.36035,7.91889 -0.59686,0.54562 -1.4228,0.59755 -2.11678,0.9151 -0.72205,0.33039 -1.28125,0.72488 -2.05918,0.97595 -5.03387,2.61512 -13.26473,7.48828 8.95878,-5.28341 -8.31059,5.16315 -27.32771,15.71476 -1.85945,1.1864 0.21501,-0.12265 -0.40417,0.28727 -0.61904,0.41017 -4.518,2.58412 -8.98693,5.25831 -13.57811,7.71006 -4.15179,2.21711 8.17296,-4.67059 12.25945,-7.00588 -45.01832,25.88921 8.36305,-4.82172 -1.84989,1.15212 -4.49008,2.62638 -9.06487,5.10912 -13.5084,7.8135 -4.02366,2.44884 8.15732,-4.71227 12.24844,-7.04667 0.21507,-0.12272 -0.41261,0.27388 -0.61892,0.41082 -45.0732,25.53847 30.13972,-17.12526 -14.83587,8.4815 -4.09723,2.33275 8.15677,-4.73134 12.25612,-7.06037 0.31759,-0.18043 -0.53057,0.39181 -1.16105,0.82034 -1.05526,1.01667 -2.37271,1.67491 -3.50328,2.59528 -1.09889,0.94001 -2.24922,1.79042 -3.46939,2.57068 -1.16103,0.82903 -2.16194,1.83956 -3.22953,2.77783 -1.02481,0.99283 -1.99047,2.0477 -3.03843,3.01652 -0.98106,1.08588 -1.55885,2.50166 -2.11719,3.84325 -0.37378,0.65594 -0.65662,1.34714 -0.91478,2.05396 0,0 -13.57385,6.43079 -13.57385,6.43079 l 0,0 c 0.18853,-0.79472 0.37275,-1.589 0.78777,-2.30441 0.82601,-1.3002 1.19874,-2.86239 1.95137,-4.21003 0.88227,-1.12232 2.01415,-2.0447 3.02972,-3.03716 0.89317,-1.12244 2.0491,-2.06361 3.15616,-2.95831 1.04391,-1.05485 2.48498,-1.50009 3.44294,-2.63882 1.20617,-0.80037 2.24089,-1.82192 3.55188,-2.47138 0.58781,-0.65535 0.36335,-0.50602 1.11086,-0.94837 4.46998,-2.64512 9.17769,-4.92101 13.4222,-7.9146 3.84274,-2.71023 -16.36749,9.26325 -12.2125,7.06142 1.88999,-1.00155 32.23566,-18.58589 1.32279,-0.69466 5.13158,-2.78932 2.02314,-1.09133 14.10421,-8.20178 4.05468,-2.38642 -8.12984,4.73789 -12.19476,7.10684 0.20263,-0.12941 0.401,-0.26574 0.6079,-0.38821 4.46953,-2.64577 9.17921,-4.91899 13.42102,-7.91631 3.8404,-2.71368 -8.14154,4.70815 -12.21231,7.06222 22.51673,-12.91801 13.58094,-7.81433 1.32155,-0.69621 -0.21057,0.12226 0.43074,-0.22749 0.64124,-0.34986 4.49148,-2.61102 8.98995,-5.21019 13.46447,-7.85017 3.84434,-2.26817 -16.99575,10.11739 -11.58644,6.71313 5.39575,-3.1671 10.95717,-6.95643 16.83587,-9.52814 1.37942,-0.66827 2.77827,-1.29429 4.20789,-1.84693 4.93992,-2.34659 0.9588,-0.47841 -11.51114,6.72748 -0.21258,0.12284 0.42282,-0.2497 0.63597,-0.37154 3.98518,-2.2779 9.63469,-6.60067 15.01854,-8.26349 1.44831,-0.55574 2.82686,-1.27286 4.29636,-1.78184 1.51959,-0.44829 2.9216,-1.17468 4.44819,-1.60262 1.50082,-0.4985 3.08174,-0.75478 4.42177,-1.66473 1.43024,-0.56751 2.80255,-1.26442 4.24699,-1.80137 1.46881,-0.47278 2.78658,-1.2432 4.18225,-1.88818 1.37933,-0.71618 2.85226,-1.26038 4.34444,-1.68958 1.58109,-0.46303 3.23801,-0.65159 4.77267,-1.28987 1.5873,-0.3489 3.05103,-0.96871 4.59132,-1.4561 1.67943,-0.44291 3.391,-0.60255 5.08647,-0.97097 1.69757,-0.41014 3.43157,-0.50815 5.1206,-0.94927 1.53524,-0.5553 2.89867,-1.5355 4.61049,-1.388 2.02031,0 4.04062,0 6.06092,0 2.02031,0 4.04061,0 6.06092,0 2.0203,0 4.04061,0 6.06091,0 2.02031,0 4.04061,0 6.06092,0 2.0203,0 4.04061,0 6.06091,0 2.02031,0 4.04061,0 6.06092,0 2.0203,0 4.04061,0 6.06091,0 2.02031,0 4.04061,0 6.06092,0 2.0203,0 4.04061,0 6.06091,0 2.02031,0 4.04061,0 6.06092,0 2.0203,0 4.04061,0 6.06091,0 2.02031,0 4.04061,0 6.06092,0 2.0203,0 4.04061,0 6.06091,0 2.02031,0 4.04061,0 6.06091,1e-5 2.02029,1e-5 4.04059,3e-5 6.06088,4e-5 2.02037,-1e-5 4.04075,1e-5 6.06113,-4.9e-4 2.02146,-6.5e-4 4.04292,-0.002 6.06437,-0.004 2.02044,-0.002 4.04096,-0.008 6.06132,0.0132 1.95231,0.0319 3.91054,0.0724 5.84679,0.34867 1.74813,0.27892 3.47538,0.76849 5.26256,0.65048 2.02241,-0.002 4.04482,-0.006 6.06723,-0.003 1.99342,0.008 3.98915,0.0135 5.97847,0.157 1.7926,0.15997 3.55617,0.46326 5.32021,0.81496 1.90942,0.12077 3.82983,0.0558 5.73359,0.28277 1.73726,0.21297 3.43877,0.6503 5.18419,0.76572 2.03137,0.009 4.06466,0.0177 6.0922,0.15709 2.04418,0.16728 4.06557,0.47461 6.08848,0.80811 1.95799,0.11441 3.92547,0.0588 5.8775,0.28339 1.73036,0.21568 3.4146,0.65066 5.14196,0.86258 1.83621,0.11819 3.66904,0.31426 5.43903,0.84628 1.67369,0.41359 3.41231,0.47791 5.07381,0.96294 1.72202,0.37898 3.50886,0.36575 5.20498,0.88808 1.60624,0.47477 3.24017,0.79001 4.84775,1.25667 1.56695,0.48725 3.21305,0.70511 4.71323,1.40732 1.51661,0.47752 2.99268,1.04142 4.48959,1.57601 1.40342,0.60067 2.79659,1.24476 4.29393,1.58492 1.68,0.38136 3.33631,0.82634 5.05975,0.98084 1.73745,0.34947 3.45497,0.71843 5.23779,0.74772 1.71067,0.22836 3.35981,0.67466 5.04253,1.03555 1.67455,0.26029 3.26289,0.75425 4.87156,1.27072 1.66697,0.38733 3.31312,0.84285 4.99879,1.1449 1.52299,0.49411 2.97024,1.1913 4.52594,1.59392 1.54679,0.40458 3.0661,0.83065 4.07884,2.17206 1.04857,1.5248 0.74586,2.90173 -0.23195,4.41134 -0.41854,1.62498 -0.98261,3.18381 -1.29833,4.83711 -0.62889,1.58132 -1.05783,3.21429 -1.80958,4.75016 -0.42322,1.68022 -0.96825,3.34139 -1.59643,4.95076 -0.7962,1.39856 -1.07137,3.07129 -1.3992,4.6292 -0.44727,1.55753 -1.09161,3.02628 -1.4307,4.61939 -0.57927,1.5454 -0.50245,3.2878 -1.19307,4.81959 -0.14932,1.74277 -0.40974,3.46437 -0.89481,5.14903 -0.0476,1.88918 -0.10982,3.78656 -0.45428,5.6497 -0.37301,1.8294 -0.73042,3.59104 -0.52765,5.48022 0.004,2.0153 0.0143,4.03082 -0.0188,6.04594 -0.0488,1.91138 -0.10805,3.8376 -0.54458,5.7079 -0.49116,1.81308 -1.12837,3.55744 -1.37769,5.43427 -0.43111,1.73679 -0.36753,3.57249 -0.96451,5.28216 -0.51482,1.89032 -0.29786,3.9316 -0.94104,5.81152 -0.48218,1.67103 -0.86698,3.34626 -1.20398,5.05592 0.002,2.00959 0.0102,4.01964 -0.0432,6.02871 -0.0689,1.843 -0.15902,3.69966 -0.62402,5.49366 -0.4764,1.67661 -0.60568,3.37497 -1.03748,5.06512 -0.57714,1.5391 -1.56434,2.86825 -1.33399,4.61754 0,2.02031 0,4.04061 0,6.06092 0,2.0203 0,4.04061 0,6.06091 0,2.02031 0,4.04061 0,6.06092 0,2.0203 0,4.0406 1e-5,6.0609 10e-6,2.02029 2e-5,4.04058 5e-5,6.06087 2e-5,2.02046 7e-5,4.04092 -2.2e-4,6.06138 -4.3e-4,2.022 -10e-4,4.04401 -0.004,6.06601 -0.003,2.01725 -0.009,4.03452 -0.002,6.05176 0.0145,1.89655 0.0225,3.7985 0.23553,5.68549 0.24009,1.69747 0.79199,3.31011 1.0358,4.99961 0.2721,1.64531 0.89326,3.16624 1.23939,4.78701 0.38036,1.77646 0.71763,3.52281 0.75955,5.34772 0.25025,1.63142 0.8121,3.15002 1.20123,4.74337 0.42051,1.5421 1.21253,2.93461 1.56943,4.49819 0.49983,1.71469 0.62674,3.52792 1.11687,5.25243 0.12061,2.01839 0.34306,4.02721 0.80467,5.99983 0.37793,1.99394 0.32227,4.05363 0.86488,6.02548 0.46849,1.93883 0.73209,3.90745 1.26518,5.83077 0.45447,1.56339 0.67115,3.19113 1.5154,4.62338 0.50269,1.62745 1.45215,3.09244 1.53,4.83983 0,2.02031 0,4.04061 0,6.06092 0,2.0203 -1e-5,4.0406 -2e-5,6.0609 -1e-5,2.02028 -4e-5,4.04057 -5e-5,6.06086 10e-6,2.02051 -2e-5,4.04101 7.1e-4,6.06152 9.3e-4,2.02235 0.003,4.0447 0.006,6.06705 0.003,2.01575 0.0114,4.03168 -0.0199,6.04726 -0.0443,1.8868 -0.0964,3.7851 -0.47006,5.64145 -0.3973,1.69828 -0.88787,3.33541 -1.01426,5.08955 -0.42724,1.82004 -0.93546,3.58833 -1.15028,5.45502 -0.44998,1.66285 -1.08534,3.25771 -1.5243,4.92493 -0.15851,1.70885 -0.40529,3.40932 -1.09771,4.9966 -0.24625,1.811 -0.83175,3.4985 -1.21356,5.26824 -0.36799,1.76246 -1.01556,3.41162 -1.54789,5.12417 -0.58788,1.49815 -0.50785,3.22497 -1.42717,4.6205 -0.35966,1.61124 -1.10701,3.01899 -1.64421,4.56691 -0.89029,1.61493 -1.5839,2.95468 -1.8176,4.84839 -0.48342,1.58864 -0.83768,3.23896 -1.61986,4.71243 -0.38425,1.5549 -1.16189,2.86073 -1.82868,4.29783 -0.85832,1.23738 -1.30722,2.73888 -2.09214,4.02856 -0.95511,1.25911 -1.56257,2.77917 -2.40836,4.11748 -0.49945,1.51211 -1.16036,3.14355 -2.38224,4.20554 -0.81365,1.22673 -1.80708,2.31194 -2.44455,3.66006 -1.10445,1.09793 -1.5956,2.63696 -2.80793,3.63943 -0.91956,1.29324 -2.15468,2.39563 -2.77613,3.87431 -0.7856,1.2297 -1.71776,2.28636 -2.80618,3.23701 -0.68133,1.35168 -1.87771,2.16769 -2.80016,3.33288 -1.09683,0.91995 -1.94143,2.1536 -2.77667,3.30256 -1.35079,1.3802 0.34362,-0.25984 -1.10585,0.87053 -0.77257,0.60248 -0.96636,1.7257 -1.98893,2.05954 -1.4209,1.46911 0.46573,-0.55627 -0.91025,1.19389 -0.6123,0.77881 -1.66774,1.24874 -2.50601,1.71758 -1.34422,0.94762 -2.52151,2.11056 -3.95632,2.93904 -2.63919,1.73663 1.49322,-1.03916 -1.13284,0.92367 -4.35636,3.25611 -9.41911,5.44092 -14.10744,8.19767 -4.05533,2.38456 8.12588,-4.74315 12.19621,-7.102 0.20848,-0.12082 -0.40677,0.25841 -0.61016,0.38762 -4.47887,2.63124 -8.95568,5.26598 -13.4366,7.8937 -1.16503,0.6832 -0.11793,0.0699 -1.3403,0.6678 -0.22585,0.11046 -0.87995,0.48678 -0.66246,0.36065 12.15297,-7.04818 21.3354,-12.28557 -1.31714,0.69182 4.06887,-2.35262 8.14156,-4.69865 12.20662,-7.05785 0.21097,-0.12244 -0.43295,0.22522 -0.64409,0.34739 -4.49719,2.60218 -8.98032,5.22863 -13.48059,7.82548 -4.07361,2.35064 8.13055,-4.73006 12.2006,-7.08687 0.2099,-0.12155 -0.41332,0.25398 -0.61997,0.38098 -4.49059,2.61488 -8.98118,5.22976 -13.47177,7.84464 -1.81051,0.949 0.49747,-0.23467 -1.38131,0.64414 -0.23354,0.10924 -0.9074,0.48974 -0.68463,0.35993 26.77563,-15.60215 5.05166,-2.83656 -1.32084,0.77935 -0.23857,0.13537 -0.51936,0.17671 -0.77905,0.26507 -1.76869,0.41929 -3.42547,1.04789 -5.06087,1.83991 -1.50696,0.56917 -3.08267,0.98129 -4.60765,1.49741 -1.71475,0.51497 -3.40147,1.11249 -5.12766,1.59102 -1.66837,0.57858 -3.37893,1.02471 -5.13498,1.23429 -1.7626,0.38727 -3.44622,1.04953 -5.23088,1.3481 -1.73277,0.44215 -3.50085,0.75979 -5.18398,1.37207 -1.55941,0.53037 -3.20289,0.86552 -4.8105,1.20825 -1.60808,0.30982 -3.0581,0.95321 -4.59254,1.49015 -1.62801,0.49856 -3.30008,0.75768 -4.93096,1.24766 -1.82021,0.49829 -3.71589,0.6947 -5.50635,1.32232 -1.75493,0.36828 -3.4968,0.83663 -5.30295,0.84617 -1.76783,0.16511 -3.50047,0.49206 -5.23957,0.84183 -1.83785,0.11585 -3.69655,0.13157 -5.49443,0.57947 -1.59575,0.43534 -3.17571,0.90329 -4.78185,1.29596 -1.52906,0.55327 -3.09852,0.93285 -4.65602,1.39996 -1.64019,0.30155 -3.20758,0.80053 -4.81282,1.23298 -1.5217,0.42142 -2.90121,1.16222 -4.3701,1.72845 -9.69359,4.53406 15.79164,-10.30776 8.98181,-5.31365 -1.34369,0.76521 -1.7835,2.19363 -2.43971,3.5178 -0.86331,1.19123 -1.36097,2.63859 -2.06806,3.92589 -0.85611,1.4157 -0.64046,3.04102 -0.31022,4.59987 0.4192,1.54953 1.41311,2.85248 1.60918,4.4501 -0.50496,6.47288 -11.95398,14.30291 -14.58731,7.38886 -0.74033,-1.3937 -1.31725,-2.87253 -1.88906,-4.3412 -0.656,-1.56577 -1.15645,-3.19294 -1.94168,-4.7079 -0.66619,-1.3589 -1.36687,-2.70811 -2.05657,-4.04876 -0.92036,-1.09315 -1.84356,-2.20495 -2.90608,-3.16108 -1.32017,-1.21023 -2.22468,-2.74594 -3.37456,-4.10752 -1.12572,-1.28368 -2.37513,-2.46672 -3.35984,-3.86625 -0.93189,-1.1814 -1.83115,-2.37344 -2.98208,-3.36058 -1.03152,-0.94325 -2.04328,-1.9118 -3.19586,-2.71084 -1.21868,-0.82638 -2.3988,-1.68472 -3.52978,-2.62706 -1.15613,-0.82284 -2.41378,-1.48558 -3.57903,-2.29504 -1.32248,-0.71643 -2.68467,-1.35822 -4.03395,-2.022 -1.32116,-0.71008 -2.6853,-1.34656 -4.0685,-1.92518 -1.47598,-0.65743 -3.02955,-1.12076 -4.58797,-1.54039 -1.66421,-0.60317 -3.21572,-1.48395 -4.94483,-1.91344 -1.5083,-0.50058 -2.93513,-1.2133 -4.47714,-1.62226 -1.54657,-0.39999 -3.04026,-0.87448 -4.46744,-1.60592 -1.48258,-0.5621 -2.98656,-1.07877 -4.41693,-1.76466 -1.51954,-0.6105 -3.06509,-1.13169 -4.62668,-1.62174 -1.84244,-0.65798 -3.76531,-1.04974 -5.69806,-1.33944 -2.01367,-0.39834 -4.00766,-0.88315 -6.04198,-1.17323 -1.83651,-0.39343 -3.69381,-0.6397 -5.52044,-1.07127 -1.60489,-0.47451 -3.23953,-0.78861 -4.83931,-1.27708 -1.54144,-0.51134 -3.168,-0.77549 -4.59664,-1.59511 -1.51798,-0.60886 -3.06318,-1.12847 -4.60983,-1.65604 -1.6658,-0.65738 -3.40037,-1.10676 -5.11642,-1.61287 -1.5086,-0.5405 -3.03951,-1.00998 -4.52322,-1.61557 -1.47764,-0.51701 -2.88903,-1.1513 -4.31994,-1.78381 -1.42882,-0.67412 -2.89453,-1.25667 -4.17588,-2.20452 -1.50522,-0.79381 -3.05997,-1.49897 -4.43146,-2.52248 -1.18216,-0.7969 -2.26815,-1.70465 -3.44644,-2.50638 -1.31566,-0.79611 -2.64329,-1.56429 -3.709,-2.69786 -0.89612,-1.09817 -1.61986,-2.34887 -2.79392,-3.18794 -1.26179,-1.12187 -2.60717,-2.15936 -3.64786,-3.50596 -1.51337,-1.38851 -3.06542,-2.75296 -4.2112,-4.48047 -1.01369,-1.18763 -2.02835,-2.37372 -2.9838,-3.60814 -0.77371,-1.15595 -1.60594,-2.23312 -2.64889,-3.16266 -1.03405,-0.99489 -2.03347,-2.02695 -3.02189,-3.06657 -1.01777,-1.03585 -1.97705,-2.13345 -2.85973,-3.28626 -0.92556,-1.09987 -1.97241,-2.08856 -2.76371,-3.29276 -1.0616,-1.16328 -2.15696,-2.29508 -3.07873,-3.57798 -0.99039,-1.49875 -1.97544,-2.99741 -2.93583,-4.5165 -0.80266,-1.54147 -1.68237,-3.03888 -2.28783,-4.67459 -0.81211,-1.73179 -1.45125,-3.54388 -2.30273,-5.26106 -0.55292,-1.42245 -1.26704,-2.77869 -1.8905,-4.17075 -0.78151,-1.89392 -0.4951,-3.90364 -0.52909,-5.91537 -0.002,-2.02109 -0.008,-4.04219 3.6e-4,-6.06327 0.0151,-1.95817 0.0292,-3.92011 0.221,-5.87071 0.20972,-1.76327 0.74364,-3.47277 0.79137,-5.24062 0.0266,-1.92362 0.0523,-3.85614 0.35159,-5.7609 0.31897,-1.67056 1.00301,-3.21911 1.1311,-4.92413 0.37073,-1.8286 0.72635,-3.59071 0.53462,-5.47847 0.0145,-1.95881 0.0273,-3.9215 0.21962,-5.87273 0.21049,-1.7552 0.74247,-3.44804 0.83466,-5.20358 0.071,-1.84384 0.16848,-3.69818 0.60937,-5.49785 0.45468,-1.76906 0.50884,-3.53885 0.69058,-5.35596 0.28592,-1.78642 0.86491,-3.51069 0.67695,-5.34335 0.0152,-1.95798 0.0292,-3.91978 0.22174,-5.87014 0.21048,-1.76179 0.746,-3.46881 0.797,-5.23496 0.0288,-1.92696 0.0624,-3.86004 0.32767,-5.77207 0.28799,-1.78807 0.86969,-3.51358 0.66854,-5.34859 -0.005,-2.01927 -0.0171,-4.03872 0.0107,-6.05789 0.0431,-1.87813 0.0834,-3.77683 0.54393,-5.60887 0.49243,-1.5643 1.67504,-2.76838 1.47436,-4.48745 0,-2.0203 0,-4.04061 0,-6.06091 0,-2.02031 0,-4.04061 0,-6.06092 0,-2.0203 0,-4.04061 0,-6.06091 0,-2.02031 0,-4.04061 0,-6.06092 0,-2.0203 0,-4.04061 0,-6.06091 0,-2.02031 0,-4.04061 0,-6.06092 0,-2.0203 0,-4.04061 0,-6.06091 0,-2.02031 0,-4.04061 0,-6.06092 0,-2.0203 0,-4.04061 0,-6.06091 0,-2.02031 0,-4.04061 0,-6.06092 0,-2.0203 0,-4.04061 0,-6.06091 0,-2.02031 0,-4.04061 0,-6.06092 0,-2.0203 0,-4.04061 0,-6.06091 0,-2.0203 0,-4.0406 -1e-5,-6.0609 -1e-5,-2.0203 -3e-5,-4.04059 -4e-5,-6.06089 10e-6,-2.02059 -2e-5,-4.04118 5e-4,-6.06177 6.8e-4,-2.02209 0.002,-4.04417 0.005,-6.06625 0.002,-2.00913 0.009,-4.01836 -0.013,-6.02742 -0.0311,-1.8599 -0.0667,-3.72645 -0.34076,-5.56984 -0.31205,-1.85279 -0.83586,-3.66969 -0.6529,-5.57012 -0.006,-1.9358 -0.006,-3.87439 -0.15268,-5.80582 -0.1743,-1.78349 -0.53485,-3.52094 -1.00324,-5.25052 -0.17522,-1.96319 -0.49574,-3.90052 -1.03862,-5.79884 -0.20439,-1.61181 -0.61757,-3.13162 -1.35529,-4.58926 -0.46807,-1.84564 -0.92067,-3.67108 -1.22994,-5.55231 -0.70814,-2.69733 -1.38665,-5.39825 -1.29288,-8.21772 0,0 13.36074,-6.80764 13.36074,-6.80764 z"
       inkscape:connector-curvature="0" />
    <path
       style="opacity:0.98000004;fill:#000000;fill-opacity:1;stroke:#dbd4eb;stroke-width:0.2;stroke-miterlimit:4;stroke-dasharray:none;stroke-opacity:1"
       id="path4156"
       d="m 286.57007,221.51743 c 0.2304,2.87244 1.00943,5.66079 1.47649,8.49981 0.40693,2.10929 0.28154,4.27176 0.54475,6.39191 0.40226,1.75719 0.65967,3.53282 0.80192,5.32845 0.12548,1.99117 0.12729,3.98731 0.13322,5.9816 0.002,2.02241 -0.002,4.04483 -0.004,6.06724 -0.002,2.02087 -0.002,4.04174 -0.002,6.06261 -0.17077,1.81798 0.23699,3.56065 0.55808,5.33151 0.3248,1.90917 0.38791,3.84749 0.43318,5.77935 0.0328,2.01883 0.0265,4.03803 0.0246,6.05704 -0.003,2.02177 -0.004,4.04353 -0.005,6.0653 0.0128,1.8893 -0.11488,3.77325 0.23001,5.63815 0.42221,1.80846 0.59643,3.65425 0.70038,5.50395 0.0869,2.00647 0.0842,4.01538 0.0861,6.02331 -7.2e-4,2.02247 -0.004,4.04494 -0.005,6.06742 -10e-4,2.02064 -0.002,4.04129 -0.002,6.06193 -7e-5,2.0203 -4e-5,4.04059 -2e-5,6.06088 2e-5,2.0203 2e-5,4.0406 3e-5,6.0609 0,2.0203 0,4.04061 0,6.06091 0,2.02031 0,4.04061 0,6.06092 0,2.0203 0,4.04061 0,6.06092 0,2.0203 0,4.04061 0,6.06091 0,2.02031 0,4.04061 0,6.06092 0.21944,1.72904 0.60321,3.42651 0.798,5.16151 0.18555,1.97478 0.19995,3.95997 0.21475,5.94174 0.008,2.02232 0.003,4.04466 8.2e-4,6.06698 -0.002,2.02109 -0.003,4.04217 -0.003,6.06326 -2.7e-4,2.02032 -2.2e-4,4.04064 -2.1e-4,6.06097 2e-5,2.02029 3e-5,4.04058 3e-5,6.06088 1e-5,2.0203 1e-5,4.04061 1e-5,6.06091 0,2.0203 0,4.04061 0,6.06092 0.0481,1.93994 0.0642,3.84886 -0.43533,5.73344 -0.73691,1.45819 -1.16969,2.97451 -1.39359,4.58605 -0.20167,1.93634 -0.19658,3.88636 -0.20385,5.83088 -0.018,1.97543 0.11264,3.94989 -0.20288,5.90659 -0.40676,1.74806 -0.60059,3.52631 -0.7091,5.31425 -0.0602,2.02498 -0.44096,4.03319 -0.85018,6.01349 -0.57093,1.68341 -0.92572,3.40301 -1.1084,5.16783 -0.15559,1.95848 -0.15246,3.92494 -0.15775,5.88823 0.15505,1.8925 -0.18479,3.72128 -0.53292,5.56701 -0.33357,1.84005 -0.39794,3.71185 -0.44526,5.57667 0.0766,1.82835 -0.42289,3.59539 -0.70474,5.3852 -0.26117,1.89117 -0.2931,3.80299 -0.32119,5.70877 -0.019,2.01581 -0.0129,4.03176 -0.0106,6.04764 0.0812,1.93756 0.003,3.83547 -0.3755,5.73628 -0.39463,1.78625 -0.50967,3.61207 -0.5832,5.43443 -0.0593,1.99935 -0.0539,3.99989 -0.0536,5.9999 -0.11258,1.78825 -0.56535,3.52721 -0.78007,5.30542 -0.19442,1.93105 -0.20895,3.87387 -0.22501,5.81277 -0.12464,1.78457 -0.57429,3.52033 -0.78758,5.29631 -0.19304,1.93191 -0.20706,3.87546 -0.2228,5.81511 -0.009,2.01925 -0.004,4.03854 -0.002,6.0578 0.15787,1.89336 -0.18593,3.72198 -0.53689,5.56773 -0.33586,1.83887 -0.40045,3.70994 -0.448,5.57391 0.0764,1.82829 -0.42303,3.59527 -0.70485,5.38503 -0.13099,1.72762 -0.69102,3.37063 -0.99754,5.06761 -0.28592,1.88157 -0.31115,3.78878 -0.33774,5.68779 -0.0475,2.00554 0.0607,4.01451 -0.0744,6.01664 -0.33097,1.74356 -0.63962,3.48168 -0.79464,5.25092 -0.13737,1.96198 -0.14093,3.92999 -0.14865,5.89577 -0.003,2.02108 0.001,4.04216 0.003,6.06323 -0.11234,1.78753 -0.56742,3.52522 -0.78317,5.30252 -0.10078,1.85053 -0.21887,3.66937 -0.60528,5.48416 -0.40695,1.78226 -0.51495,3.60815 -0.58614,5.42872 -0.17247,1.76487 -0.62234,3.48065 -0.83583,5.2424 -0.10745,1.23789 -0.0617,0.61438 -0.13647,1.87057 0,0 -13.39416,6.74251 -13.39416,6.74251 l 0,0 c 0.0501,-1.29889 0.0186,-0.6524 0.0941,-1.93948 0.14914,-1.7434 0.40955,-3.46556 0.89215,-5.15145 0.0456,-1.89134 0.10354,-3.79153 0.45042,-5.65655 0.3719,-1.78269 0.76484,-3.50462 0.68404,-5.34836 0.15195,-1.74751 0.42643,-3.4696 0.86667,-5.16946 -0.002,-2.02251 -0.005,-4.04501 -0.006,-6.06752 0.002,-1.9955 -7e-4,-3.99211 0.0915,-5.98596 0.10755,-1.79378 0.27704,-3.58704 0.74817,-5.3281 0.41086,-1.91258 0.0477,-3.91487 0.17155,-5.85924 0.0134,-1.95813 0.0228,-3.92083 0.22576,-5.87055 0.22221,-1.72111 0.76516,-3.34667 1.00941,-5.04727 0.21047,-1.7618 0.74596,-3.46884 0.79695,-5.23501 0.0288,-1.92685 0.0623,-3.85985 0.32821,-5.77169 0.28857,-1.78633 0.87226,-3.50956 0.67415,-5.34307 -0.002,-2.02218 -0.007,-4.04435 -0.004,-6.06653 0.007,-1.97988 0.0102,-3.96191 0.14579,-5.93812 0.1501,-1.74875 0.41941,-3.47339 0.86448,-5.17347 0.007,-1.97935 0.0108,-3.96086 0.14759,-5.93647 0.15129,-1.74858 0.42457,-3.47202 0.86292,-5.17341 -0.002,-2.01402 -0.009,-4.02825 0.0263,-6.04205 0.0476,-1.88909 0.10981,-3.78643 0.4548,-5.6494 0.37363,-1.82869 0.7327,-3.58966 0.5316,-5.47845 -0.002,-2.0211 -0.008,-4.04222 3.3e-4,-6.06331 0.0152,-1.95798 0.0292,-3.91978 0.22176,-5.87013 0.21049,-1.76181 0.74604,-3.46886 0.79692,-5.23504 0.0287,-1.92721 0.0621,-3.86049 0.32633,-5.77289 0.28671,-1.7875 0.86607,-3.51289 0.66714,-5.3469 -4.1e-4,-1.99877 -0.009,-3.99902 0.0921,-5.99587 0.12494,-1.83713 0.3186,-3.68037 0.9843,-5.41393 0.64282,-1.79983 0.80738,-3.83367 1.00047,-5.72175 0.0734,-1.84402 0.17842,-3.6958 0.59898,-5.4995 0.43758,-1.87391 0.40356,-3.73722 0.35218,-5.66019 -4e-5,-1.99039 -0.01,-3.98311 0.11665,-5.97043 0.14661,-1.70085 0.33605,-3.43372 1.19642,-4.94579 0.95295,-1.58455 0.71298,-3.45164 0.72123,-5.23182 0,-2.0203 0,-4.04061 0,-6.06091 0,-2.02031 0,-4.04061 0,-6.06091 -1e-5,-2.02029 -2e-5,-4.04059 -4e-5,-6.06088 -1e-5,-2.0204 -6e-5,-4.0408 1.3e-4,-6.06121 2.8e-4,-2.02152 7e-4,-4.04304 0.003,-6.06456 0.002,-2.019 0.007,-4.03801 0.003,-6.05701 -0.009,-1.9358 -0.013,-3.87416 -0.15981,-5.80554 -0.1701,-1.79048 -0.52696,-3.54029 -0.85615,-5.30615 0,-2.0203 0,-4.04061 0,-6.06091 0,-2.02031 0,-4.04061 0,-6.06092 0,-2.0203 0,-4.04061 0,-6.06091 0,-2.02031 0,-4.04061 0,-6.06092 0,-2.0203 0,-4.04061 0,-6.06091 0,-2.0203 -10e-6,-4.04059 -2e-5,-6.06089 -2e-5,-2.02032 -5e-5,-4.04064 -10e-6,-6.06096 8e-5,-2.02096 1.7e-4,-4.04192 10e-4,-6.06288 0.001,-2.02193 0.004,-4.04385 0.006,-6.06578 1.9e-4,-1.98456 0.006,-3.96973 -0.0589,-5.95349 -0.0784,-1.78032 -0.20213,-3.56347 -0.61407,-5.30344 -0.41014,-1.95873 -0.38997,-3.91206 -0.34403,-5.90964 6.8e-4,-2.0221 0.002,-4.04419 0.005,-6.06629 0.002,-2.00903 0.009,-4.01817 -0.0131,-6.02712 -0.0313,-1.85864 -0.0671,-3.72404 -0.34344,-5.56586 -0.31525,-1.85384 -0.8443,-3.67104 -0.65876,-5.57353 1.5e-4,-2.02125 3.5e-4,-4.0425 0.002,-6.06375 0.002,-2.02097 0.005,-4.04193 0.006,-6.0629 -0.003,-1.9615 5.6e-4,-3.92423 -0.0953,-5.88391 -0.11269,-1.7609 -0.32,-3.5093 -0.7525,-5.2242 -0.3608,-2.11523 -0.12908,-4.29089 -0.49024,-6.4146 -0.40557,-2.86043 -1.12242,-5.65731 -1.53893,-8.51387 0,0 13.27397,-6.97268 13.27397,-6.97268 z"
       inkscape:connector-curvature="0" />
    <path
       style="opacity:0.98000004;fill:#000000;fill-opacity:1;stroke:#dbd4eb;stroke-width:0.2;stroke-miterlimit:4;stroke-dasharray:none;stroke-opacity:1"
       id="path4160"
       d="m 407.63136,225.72417 c -0.46684,3.0479 -0.68231,6.12655 -0.83026,9.20409 -0.0205,2.16416 -0.0783,4.29655 -0.49258,6.42319 -0.38926,1.786 -0.50444,3.61003 -0.57647,5.43123 -0.17345,1.75999 -0.62364,3.47067 -0.83706,5.22771 -0.19332,1.93233 -0.20558,3.87641 -0.22053,5.81648 -0.008,2.01964 -0.003,4.03931 -6.8e-4,6.05896 -0.11191,1.78781 -0.56669,3.52587 -0.78231,5.30343 -0.19526,1.93063 -0.20986,3.87313 -0.22599,5.81167 -0.009,2.01915 -0.004,4.03833 -0.002,6.05749 0.002,2.0215 0.003,4.04299 0.003,6.06449 2.9e-4,2.0204 2.5e-4,4.0408 2.4e-4,6.0612 0.0788,1.93616 -6.7e-4,3.83263 -0.37979,5.73182 -0.3952,1.78598 -0.51015,3.61167 -0.58367,5.43386 -0.0593,1.99937 -0.0539,3.99992 -0.0535,5.99994 0.002,2.02219 0.004,4.04438 0.006,6.06657 0.001,2.02074 0.001,4.04147 0.001,6.06221 3e-5,2.02031 0,4.04061 -1e-5,6.06091 -2e-5,2.0203 -2e-5,4.0406 -2e-5,6.0609 -0.017,1.97283 0.10766,3.94548 -0.21147,5.89896 -0.41014,1.74613 -0.60417,3.52318 -0.71293,5.30988 -0.0928,1.98413 -0.0902,3.97107 -0.0927,5.95687 3.6e-4,2.02196 0.004,4.04391 0.005,6.06587 10e-4,2.02094 0.002,4.04188 0.002,6.06282 9e-5,2.02032 5e-5,4.04064 3e-5,6.06096 -2e-5,2.0203 -2e-5,4.0406 -2e-5,6.06089 -10e-6,2.02031 -10e-6,4.04061 -10e-6,6.06091 -0.20232,1.99307 0.12567,2.97761 0.9291,4.69743 0.74982,1.71058 0.91487,3.57172 1.02956,5.41287 0.0889,2.01242 0.0767,4.02753 0.0741,6.0414 -0.005,2.0236 -0.009,4.04721 -0.0107,6.07082 -0.002,2.02062 -0.002,4.04125 -0.002,6.06187 -2e-5,2.02027 3e-5,4.04055 6e-5,6.06082 2e-5,2.0203 3e-5,4.0406 3e-5,6.0609 0,2.0203 0,4.04061 0,6.06091 0,2.02031 0,4.04061 0,6.06092 -0.017,1.97283 0.10766,3.94549 -0.21147,5.89896 -0.46636,1.5452 -1.16959,2.96337 -1.49595,4.55617 -0.29782,1.88397 -0.30326,3.79748 -0.32159,5.70001 -0.009,2.02081 -5.4e-4,4.04165 0.003,6.06247 -0.11056,1.78844 -0.56504,3.52724 -0.78054,5.30532 -0.22175,1.91964 -0.1433,3.8554 -0.2928,5.77849 -0.34597,1.73814 -0.6488,3.47432 -0.80184,5.24095 -0.1354,1.96313 -0.13834,3.93214 -0.14566,5.89896 -0.003,2.02119 10e-4,4.04238 0.003,6.06356 0.002,2.02119 0.002,4.04237 0.002,6.06356 1.6e-4,2.02035 1.2e-4,4.04069 10e-5,6.06104 -10e-6,2.0203 -2e-5,4.04059 -3e-5,6.06088 0,2.02031 0,4.04061 0,6.06091 0,2.02031 0,4.04062 0,6.06092 -0.12512,1.7232 0.0467,3.30486 0.76112,4.87076 0.78397,1.65234 1.01253,3.45817 1.1604,5.25881 -0.002,1.83932 0.14904,3.62506 0.51089,5.42512 0.38571,1.86555 0.48993,3.76914 0.55814,5.66772 0.053,2.01475 0.0474,4.03045 0.0465,6.04573 -0.002,2.02212 -0.004,4.04424 -0.006,6.06636 -0.15031,2.01691 0.25013,3.9833 0.55537,5.96322 0.29691,1.90578 0.26045,3.83332 0.66271,5.72119 0.45601,1.80844 0.62541,3.66325 0.72792,5.5196 0.0841,2.00638 0.0799,4.01508 0.081,6.02281 -10e-4,2.0224 -0.005,4.04478 -0.006,6.06718 -0.11039,1.85559 0.0326,3.65155 0.39761,5.46617 0.38949,1.86157 0.49812,3.76154 0.56865,5.65689 0.11392,1.9406 -0.0679,3.89567 0.13142,5.82955 0.38111,1.76194 0.6434,3.53711 0.78805,5.33325 0.12894,1.99416 0.13222,3.99352 0.13896,5.99097 -0.0898,1.17243 0.17055,2.31064 0.39795,3.45015 0,0 -13.23905,7.07884 -13.23905,7.07884 l 0,0 c -0.24704,-1.2277 -0.60131,-2.4566 -0.51202,-3.7211 -0.003,-1.96424 -7.6e-4,-3.92979 -0.0998,-5.8921 -0.11584,-1.76855 -0.32899,-3.52369 -0.75212,-5.24842 -0.31736,-1.97125 -0.085,-3.98023 -0.19008,-5.97077 -0.0509,-1.81557 -0.11956,-3.63881 -0.47003,-5.42628 -0.38755,-1.91009 -0.68043,-3.78182 -0.51438,-5.74375 0.001,-2.02201 0.004,-4.04402 0.006,-6.06603 8.4e-4,-1.98471 0.007,-3.97001 -0.0543,-5.95401 -0.0759,-1.77568 -0.1921,-3.55649 -0.62414,-5.28783 -0.44149,-1.92601 -0.47948,-3.8641 -0.68916,-5.82534 -0.29644,-2.04894 -0.81222,-4.07498 -0.65969,-6.16049 9.5e-4,-2.0222 0.003,-4.0444 0.006,-6.06659 0.002,-2.00017 0.009,-4.00058 -0.0291,-6.00049 -0.0491,-1.81865 -0.1143,-3.64508 -0.4594,-5.43657 -0.37471,-1.86132 -0.67229,-3.68808 -0.58666,-5.59916 -0.10132,-1.62617 -0.23097,-3.27358 -0.93053,-4.7721 -0.80989,-1.75439 -1.20851,-3.50698 -1.03108,-5.45886 0,-2.02031 0,-4.04061 0,-6.06092 0,-2.0203 0,-4.04061 0,-6.06091 10e-6,-2.0203 10e-6,-4.0406 3e-5,-6.06089 2e-5,-2.02031 6e-5,-4.04061 -2e-5,-6.06092 -1.4e-4,-2.02084 -3.1e-4,-4.04168 -0.002,-6.06253 -0.002,-2.02254 -0.005,-4.04508 -0.006,-6.06763 0.002,-1.99621 -10e-4,-3.9935 0.0891,-5.98813 0.10593,-1.7949 0.27111,-3.59049 0.74746,-5.33158 0.41734,-1.86855 0.075,-3.82904 0.32306,-5.72748 0.15182,-1.74799 0.42637,-3.47053 0.86465,-5.17132 -0.003,-2.02429 -0.0103,-4.04858 -0.0102,-6.07288 0.006,-1.9683 0.003,-3.94151 0.19796,-5.90227 0.21045,-1.62221 0.51804,-3.2264 1.47258,-4.59713 0.44025,-1.8691 0.41231,-3.72845 0.36378,-5.64762 0,-2.0203 0,-4.04061 0,-6.06091 0,-2.02031 0,-4.04061 0,-6.06092 0,-2.02029 0,-4.04058 -2e-5,-6.06088 -3e-5,-2.02029 -7e-5,-4.04058 -8e-5,-6.06088 4e-5,-2.02104 3e-5,-4.04207 10e-4,-6.06311 0.002,-2.02399 0.005,-4.04797 0.0102,-6.07195 0.004,-1.98765 0.0175,-3.97599 -0.0434,-5.96298 -0.0756,-1.65351 -0.14963,-3.34197 -0.78566,-4.89374 -0.84123,-1.81426 -1.47417,-3.20537 -1.20274,-5.29256 0,-2.0203 0,-4.04061 0,-6.06091 0,-2.0203 0,-4.0406 2e-5,-6.0609 10e-6,-2.0203 5e-5,-4.04059 2e-5,-6.06088 -7e-5,-2.02067 -1.4e-4,-4.04133 -0.001,-6.06199 -10e-4,-2.02245 -0.004,-4.04489 -0.006,-6.06733 -7.8e-4,-2.0067 -0.007,-4.01392 0.0523,-6.01997 0.0736,-1.84347 0.1785,-3.69488 0.60144,-5.49758 0.44024,-1.86909 0.41231,-3.72844 0.36378,-5.64761 0,-2.0203 0,-4.0406 10e-6,-6.0609 2e-5,-2.02029 4e-5,-4.04058 4e-5,-6.06087 -2e-5,-2.02053 -2e-5,-4.04105 -7.6e-4,-6.06157 -9.3e-4,-2.02215 -0.003,-4.0443 -0.006,-6.06645 -0.002,-2.01403 -0.009,-4.02828 0.0263,-6.04209 0.0476,-1.88907 0.10973,-3.7864 0.455,-5.6493 0.37387,-1.82746 0.73422,-3.58728 0.53518,-5.47504 2e-5,-2.02032 6e-5,-4.04065 -10e-5,-6.06098 -2.6e-4,-2.02111 -6.3e-4,-4.04221 -0.003,-6.06332 -0.002,-2.02214 -0.007,-4.04428 -0.004,-6.06643 0.007,-1.97916 0.0109,-3.96052 0.14825,-5.93591 0.15188,-1.74771 0.4263,-3.47001 0.86592,-5.17022 -0.002,-2.02241 -0.007,-4.04483 -0.005,-6.06725 0.006,-1.98068 0.008,-3.9635 0.14271,-5.94059 0.14881,-1.73859 0.40758,-3.45631 0.89257,-5.13668 0.046,-1.88806 0.10637,-3.7845 0.45318,-5.64618 0.42468,-2.08341 0.76218,-4.1163 0.66303,-6.26271 0.16204,-3.09729 0.42595,-6.18637 0.72108,-9.27366 0,0 13.44326,-6.64042 13.44326,-6.64042 z"
       inkscape:connector-curvature="0" />
    <path
       style="opacity:0.98000004;fill:#000000;fill-opacity:1;stroke:#dbd4eb;stroke-width:0.2;stroke-miterlimit:4;stroke-dasharray:none;stroke-opacity:1"
       id="path4162"
       d="m 314.1201,219.89165 c 1.99921,2.20174 4.27469,4.11729 6.38511,6.21172 1.64674,1.54607 3.46384,2.9708 4.85894,4.75641 1.15839,1.31837 2.09197,2.81697 3.05235,4.28125 1.13838,1.17577 1.73605,2.69771 2.42926,4.14951 0.65452,1.51008 1.61089,2.81708 2.56838,4.13843 0.71479,1.36792 1.77128,2.49799 2.52537,3.83751 0.86928,1.16367 1.35685,2.545 2.23685,3.70024 0.91181,1.14706 1.76574,2.32572 2.55571,3.56571 0.96932,1.05991 1.75876,2.23741 2.61457,3.38337 0.35911,0.30453 0.92505,0.87233 1.47438,0.62972 0.14715,-0.065 0.21022,-0.24518 0.3323,-0.34991 0.13646,-0.11706 0.59654,-0.40022 0.4397,-0.31234 -4.1264,2.31203 -8.23398,4.65749 -12.35097,6.98624 35.14919,-20.27434 2.27455,-1.30949 1.3609,-0.79169 -0.23767,0.13471 0.43739,-0.32747 0.65793,-0.48869 0.64295,-0.47002 1.23651,-0.9836 1.86172,-1.47704 1.3051,-0.81142 2.51862,-1.75199 3.73035,-2.6952 1.11993,-1.16007 2.51862,-1.97894 3.74265,-3.01474 1.11991,-0.89742 2.19726,-1.86342 3.18618,-2.90522 1.01738,-0.99806 2.06112,-1.97529 3.02935,-3.02248 1.00999,-1.00874 2.05728,-1.98425 3.02792,-3.03197 1.01126,-1.0078 2.05922,-1.98303 3.03032,-3.03067 0.99143,-0.99586 2.03658,-1.94529 2.97999,-2.98784 0.81292,-1.48865 2.255,-2.30724 3.58315,-3.2619 4.63171,-3.44392 9.69561,-5.51832 14.78641,-8.82009 3.94068,-2.55584 -8.12673,4.71196 -12.20513,7.04175 -1.16197,0.66378 0.90667,-0.59905 1.23858,-0.8026 8.01734,-5.23386 27.45632,-15.88282 1.83055,-1.24954 -0.21508,0.12282 0.40686,-0.28276 0.61537,-0.41642 1.00918,-0.64691 0.20003,-0.0486 1.17175,-0.81281 0,0 13.98138,-5.5285 13.98138,-5.5285 l 0,0 c -2.58981,1.6984 1.44159,-1.0022 -1.13163,0.92097 -4.35585,3.25547 -9.4172,5.44142 -14.09038,8.22224 -4.04284,2.40573 8.1168,-4.75881 12.18523,-7.12099 0.20901,-0.12135 -0.40404,0.26532 -0.60606,0.39798 -0.80581,0.7882 -0.24492,0.33514 -1.20585,0.89747 -4.49086,2.62804 -9.00753,5.2129 -13.46254,7.90127 -4.01288,2.42156 8.08195,-4.74891 12.13606,-7.1008 0.46489,-0.2697 -1.89229,1.17469 -1.25477,1.01255 -0.96405,0.56766 -0.50242,0.2469 -1.38262,0.96558 -0.82961,0.53736 -1.82642,0.88026 -2.41492,1.73062 -0.68469,1.35639 -1.88207,2.17259 -2.83932,3.31473 -1.1264,0.87345 -2.03189,2.02329 -3.0304,3.03042 -1.12598,0.87326 -2.03121,2.02293 -3.02838,3.03064 -1.12519,0.87417 -2.02757,2.02569 -3.02516,3.03314 -1.14902,0.89026 -2.05864,2.06158 -3.14411,3.02649 -1.31217,0.89887 -2.46335,2.01569 -3.81905,2.86168 -1.0295,1.20125 -2.39771,1.9884 -3.60794,2.98024 -1.01873,0.48657 -1.61959,1.28534 -2.56714,1.85021 -14.14517,8.43251 -20.98996,12.32727 -1.28378,0.94171 -4.32945,2.45702 -11.82609,11.47985 -16.87063,6.10322 -0.8521,-1.18604 -1.73196,-2.33251 -2.6601,-3.46347 -0.78065,-1.20837 -1.62406,-2.35428 -2.50982,-3.48472 -0.87523,-1.23189 -1.45745,-2.62096 -2.32415,-3.85748 -0.72277,-1.28536 -1.7593,-2.36957 -2.43168,-3.69125 -1.01442,-1.3942 -1.97245,-2.81146 -2.71026,-4.37704 -0.66032,-1.39928 -1.24061,-2.82908 -2.31528,-3.97727 -0.93682,-1.42828 -1.85591,-2.87683 -2.97199,-4.17472 -1.37576,-1.71637 -3.14551,-3.09408 -4.70008,-4.64279 -2.14445,-2.13158 -4.41185,-4.12845 -6.5237,-6.29223 0,0 12.85913,-7.72061 12.85913,-7.72061 z"
       inkscape:connector-curvature="0" />
    <path
       style="opacity:0.98000004;fill:#000000;fill-opacity:1;stroke:#dbd4eb;stroke-width:0.2;stroke-miterlimit:4;stroke-dasharray:none;stroke-opacity:1"
       id="path4164"
       d="m 398.23729,254.15439 c -1.70569,2.29652 -3.44202,4.59514 -5.01289,6.98967 -1.1109,1.4984 -1.77533,3.28071 -2.99497,4.69309 -0.87582,1.15496 -1.78443,2.28167 -2.6884,3.41523 -0.94554,1.07314 -1.98943,2.05099 -2.95651,3.10319 -0.983,1.07955 -2.11703,1.94968 -3.33405,2.74847 -7.79515,5.22834 -27.56936,15.98755 -1.80281,1.26746 0.21511,-0.12288 -0.4061,0.28404 -0.61446,0.41804 -1.0237,0.65837 -0.18577,0.0383 -1.17353,0.81364 -1.26206,0.78067 -2.1367,1.91308 -3.05072,3.04407 -1.09753,1.19566 -1.99957,2.52608 -2.92035,3.85402 -0.94753,1.39006 -0.94932,1.90658 -0.3601,3.35676 0.62122,1.20421 1.5898,2.13641 2.4483,3.16117 1.10041,1.04001 2.14598,2.13817 3.26733,3.15815 1.16572,1.19152 1.92002,2.67378 2.7901,4.07127 0.93475,1.43172 1.50268,3.04845 2.44434,4.47085 0.84354,1.49466 2.12523,2.65242 3.03356,4.09847 0.94741,1.15177 1.45804,2.57068 2.36366,3.74962 0.73355,1.26967 1.5642,2.46062 2.41281,3.65395 0.899,1.07875 1.94185,2.0187 2.87024,3.06915 1.13611,1.26132 1.98102,2.72499 2.92001,4.12564 0.74497,1.30208 1.7745,2.39798 2.70112,3.57034 1.00248,1.35449 1.90546,2.7638 2.76844,4.21198 0.43475,0.55236 0.82042,1.11659 1.30392,1.62773 0,0 -12.86199,7.78344 -12.86199,7.78344 l 0,0 c -0.5164,-0.60392 -0.98527,-1.23218 -1.44351,-1.88188 -0.82501,-1.38874 -1.67539,-2.7485 -2.65846,-4.03214 -0.97431,-1.19199 -2.01091,-2.34759 -2.77497,-3.69169 -0.87584,-1.35011 -1.69714,-2.74078 -2.8121,-3.91819 -0.99828,-1.06247 -2.04364,-2.08034 -2.95842,-3.21904 -0.85481,-1.18094 -1.65287,-2.38726 -2.40218,-3.63605 -0.88615,-1.23767 -1.48191,-2.64059 -2.40972,-3.84966 -0.90586,-1.42599 -2.18598,-2.58654 -3.0017,-4.08076 -0.95017,-1.43982 -1.54816,-3.05323 -2.49009,-4.50175 -0.7849,-1.29248 -1.47767,-2.66061 -2.57281,-3.73341 -1.13274,-1.08924 -2.29214,-2.14631 -3.37035,-3.29072 -0.98368,-1.12581 -1.99298,-2.23128 -2.69151,-3.5683 -0.72873,-1.73518 -1.2182,-2.81731 -0.266,-4.64797 0.83136,-1.44391 1.79494,-2.7715 2.83186,-4.06695 1.03721,-1.10105 1.70757,-2.41824 2.90733,-3.36147 2.59955,-1.69845 -1.44699,1.00216 1.13411,-0.91945 4.36115,-3.24686 9.40954,-5.45087 14.08484,-8.22637 4.04749,-2.4028 -8.11799,4.7667 -12.18702,7.13285 -0.20541,0.11945 0.39685,-0.26149 0.59527,-0.39223 1.03143,-1.04313 2.47718,-1.48857 3.36507,-2.67049 1.11798,-0.86422 2.02574,-2.00423 2.9868,-3.02768 1.09854,-0.9118 1.95104,-2.1516 2.73218,-3.333 0.16575,-0.19408 0.33151,-0.38816 0.49726,-0.58224 0.193,-0.16121 0.41168,-0.2959 0.57901,-0.48361 0.89318,-1.00202 1.06535,-2.51142 2.09186,-3.43956 1.437,-2.5172 3.42118,-4.65635 4.87568,-7.16844 0,0 13.80452,-5.8652 13.80452,-5.8652 z"
       inkscape:connector-curvature="0" />
    <path
       style="opacity:0.98000004;fill:#000000;fill-opacity:1;stroke:#dbd4eb;stroke-width:0.2;stroke-miterlimit:4;stroke-dasharray:none;stroke-opacity:1"
       id="path4166"
       d="m 291.94653,255.01022 c 2.17135,2.13316 4.01918,4.56536 5.64202,7.13353 1.06115,1.83518 1.95141,3.78496 3.10727,5.56293 0.88661,1.387 1.56473,2.8931 2.39295,4.31106 0.75973,1.25165 1.56499,2.47372 2.32101,3.73267 0.94128,1.07232 1.72826,2.24195 2.57942,3.3814 0.57634,1.39094 1.6629,2.37741 2.49206,3.59301 0.98552,1.07708 1.51949,2.45595 2.42226,3.59359 0.74899,1.26489 1.58248,2.4601 2.43375,3.6568 0.85735,1.14974 1.26935,2.6434 2.28921,3.65655 0.9949,1.20124 1.93918,2.45355 2.74421,3.79408 1.15202,1.38396 1.86644,2.93339 1.9767,4.73066 -0.0122,1.75689 -1.11203,2.92938 -2.17308,4.18782 -1.15356,1.07682 -2.09969,2.31005 -3.0798,3.53422 -1.1018,0.92852 -1.87153,2.15627 -2.82483,3.22171 -0.71073,1.27881 -1.81475,2.23234 -2.67618,3.39243 -1.00271,1.00645 -2.00888,1.97889 -2.85749,3.13033 -0.69341,1.30411 -1.64729,2.43526 -2.36959,3.71908 -0.82517,1.20072 -1.59873,2.42817 -2.40705,3.63899 -0.83146,1.19114 -1.64455,2.38838 -2.37875,3.64482 -0.71705,1.33079 -1.38365,2.68493 -2.11962,4.00617 -0.86608,1.15808 -1.70298,2.32274 -2.54406,3.49796 -0.76441,1.2419 -1.84038,2.23582 -2.61974,3.46399 -0.42186,0.59215 -0.81934,1.18937 -1.27678,1.75479 0,0 -13.80203,5.96234 -13.80203,5.96234 l 0,0 c 0.41529,-0.61853 0.95796,-1.07128 1.27857,-1.75077 0.92744,-1.09382 1.52528,-2.43984 2.6576,-3.3805 0.73556,-1.27472 1.59421,-2.43334 2.51256,-3.56725 1.02684,-1.10008 1.35993,-2.55806 2.23444,-3.76161 0.29633,-0.77481 0.67996,-1.26988 1.0935,-1.96027 0.38325,-0.63983 0.54757,-1.38012 1.21681,-1.82768 0.71885,-1.29147 1.5532,-2.48414 2.3816,-3.69422 0.89823,-1.13304 1.44748,-2.51898 2.41782,-3.61537 0.52601,-1.22107 1.58015,-2.7216 2.7385,-3.3933 1.10152,-1.12987 -0.11831,0.20335 0.87263,-1.17015 0.57587,-0.79819 1.61633,-1.08715 1.82383,-2.17574 0.8426,-1.19722 1.89467,-2.23429 2.74051,-3.43193 0.77019,-0.51407 0.97122,-0.93886 1.47309,-1.69311 0.63281,-0.95102 0.34565,-0.34081 1.11743,-1.12853 0.19666,-0.20072 0.35192,-0.43818 0.52789,-0.65727 1.03572,-0.89542 2.01086,-1.91528 2.64414,-3.12705 0.14479,-1.59542 -0.57719,-2.78807 -1.5634,-4.01494 -0.76966,-1.24971 -1.67869,-2.4164 -2.61972,-3.53907 -0.96759,-1.15308 -1.54098,-2.55103 -2.37439,-3.80168 -0.85318,-1.17814 -1.64965,-2.38277 -2.41208,-3.61924 -0.87469,-1.18483 -1.49033,-2.53191 -2.45523,-3.65093 -0.84207,-1.18411 -1.8807,-2.20793 -2.47399,-3.56132 -0.85532,-1.19091 -1.74031,-2.34232 -2.64566,-3.49819 -0.76409,-1.26421 -1.57331,-2.49458 -2.33169,-3.75868 -0.80493,-1.40749 -1.48126,-2.88842 -2.33685,-4.26946 -1.12546,-1.80462 -2.04797,-3.73454 -3.04857,-5.61001 -1.5165,-2.45182 -3.25017,-4.81325 -5.45824,-6.69017 0,0 12.71704,-7.95249 12.71704,-7.95249 z"
       inkscape:connector-curvature="0" />
    <path
       style="opacity:0.98000004;fill:#000000;fill-opacity:1;stroke:#dbd4eb;stroke-width:0.2;stroke-miterlimit:4;stroke-dasharray:none;stroke-opacity:1"
       id="path4168"
       d="m 310.8898,359.58486 c 1.8453,-2.02084 3.7071,-4.02724 5.60173,-6.002 1.1425,-1.26493 1.95013,-2.79315 3.25538,-3.90319 1.10532,-0.89737 2.16214,-1.85144 3.2577,-2.76076 0.97152,-1.06837 2.08441,-1.93831 3.22837,-2.80332 0.93706,-1.12024 2.18456,-1.89325 3.26217,-2.86032 1.17488,-0.82213 1.8665,-2.10564 2.77094,-3.18569 1.06927,-1.05017 1.69427,-2.31 2.37131,-3.61914 0.78358,-1.4697 0.85623,-3.15169 1.26646,-4.73591 1.25266,-6.28731 11.5603,-12.10227 15.85049,-6.85616 0.86655,1.37913 1.52568,2.85875 2.24936,4.31331 0.82358,1.24824 1.63524,2.52324 2.27331,3.87836 0.60962,1.27597 1.54002,2.31339 2.40564,3.40986 0.76151,1.20339 1.54234,2.42223 2.54288,3.44272 1.07388,0.9417 1.67349,2.31829 2.76389,3.22357 1.11065,1.0462 1.84539,2.37121 2.68085,3.62403 0.78308,1.39265 1.3581,2.91474 1.89195,4.42209 0.64595,1.28447 1.09303,2.66057 1.9468,3.8287 0.89682,1.15233 1.75378,2.32433 2.54358,3.55909 0.78636,1.356 1.50654,2.56655 1.52365,4.16982 -0.33385,1.27428 -1.31976,2.47152 -2.34047,3.30108 -1.11892,0.89308 -2.17629,1.85707 -3.27359,2.77624 -1.24477,1.14753 -2.45053,2.3392 -3.73655,3.44275 -1.35616,0.96453 -2.53207,2.16045 -3.94906,3.03564 -1.29208,0.72681 -2.25167,1.73563 -3.13851,2.90403 -0.9415,1.06585 -1.74773,2.28615 -2.31374,3.5923 -0.66158,1.439 -1.06262,2.97162 -1.62728,4.44565 -0.52666,1.45255 -1.11141,2.89635 -1.83194,4.26467 -0.61489,1.40814 -1.21534,2.84293 -1.67952,4.31069 -0.32152,1.53731 -1.23989,2.81472 -1.8634,4.22383 -2.08407,5.68128 -9.33326,13.03778 -15.38678,10.37347 -1.40555,-0.69581 -2.3527,-1.87648 -2.98586,-3.28259 -0.66267,-1.39235 -1.34522,-2.78284 -1.92074,-4.21491 -0.32769,-1.51135 -1.21292,-2.76545 -1.87476,-4.1301 -0.77996,-1.19266 -1.51753,-2.41063 -2.32786,-3.58257 -0.73221,-1.27505 -1.82576,-2.26051 -2.59267,-3.51046 -0.87819,-1.22844 -1.64177,-2.56586 -2.25805,-3.94658 -0.58259,-1.28949 -1.50604,-2.33063 -2.36794,-3.42867 -0.85902,-1.25085 -1.59945,-2.56374 -2.33899,-3.88844 -0.90636,-1.10496 -1.45936,-2.43478 -2.36233,-3.54089 -0.76329,-1.25614 -1.60292,-2.44868 -2.4569,-3.64377 -0.70527,-1.23193 -1.4685,-2.4589 -2.45914,-3.48288 -0.38194,-0.59865 -0.86922,-0.9857 -1.46674,-1.3381 0,0 12.68153,-8.07538 12.68153,-8.07538 l 0,0 c 0.60799,0.48234 1.18664,0.97656 1.6409,1.61519 0.97469,1.11656 1.82663,2.33714 2.54717,3.63263 0.85344,1.17219 1.65202,2.37108 2.42775,3.59341 0.90551,1.19887 1.56615,2.54652 2.47614,3.74248 0.70038,1.25311 1.39304,2.49963 2.21868,3.67571 0.95855,1.18756 1.90082,2.37769 2.55628,3.76896 0.56905,1.32611 1.33115,2.58055 2.15736,3.75978 0.76263,1.21711 1.87197,2.18366 2.56213,3.45608 0.83193,1.24695 1.65006,2.49944 2.43478,3.7777 0.66527,1.40019 1.60865,2.677 1.92457,4.22766 0.54683,1.4229 1.24572,2.78757 1.89791,4.16318 0.35836,0.8534 1.03098,1.92867 2.09718,1.80181 2.95396,-4.19312 0.28821,-0.32591 -12.1098,7.03981 -0.19257,0.11441 0.40257,-0.20615 0.57202,-0.35265 0.58113,-0.50242 0.66734,-1.24763 1.1034,-1.8493 0.42597,-1.51256 1.28887,-2.69572 1.92288,-4.11172 0.34522,-1.60948 1.06701,-3.03214 1.53116,-4.60051 0.67415,-1.35612 1.43931,-2.67819 1.90228,-4.12302 0.18178,-0.46918 0.44176,-0.90754 0.59949,-1.38534 0.33232,-1.00674 0.39593,-2.11443 1.05708,-3.00332 0.39925,-1.54347 1.18431,-2.82682 2.05487,-4.14165 1.0816,-1.01891 1.62893,-2.54819 3.02067,-3.2154 1.31021,-1.06961 -0.1319,0.0245 1.3233,-0.8289 0.98556,-0.57795 1.72208,-1.545 2.6596,-2.19336 1.43876,-0.90489 2.45959,-2.18602 3.79293,-3.21195 0.9101,-1.10569 2.09233,-2.02108 3.2345,-2.86479 0.48227,-0.47162 1.15093,-0.70544 1.559,-1.23769 0.37384,-0.48759 0.20953,-0.65912 0.71518,-1.00859 0.12774,-0.0883 0.29203,-0.10568 0.43804,-0.15852 0.73604,-1.05498 -0.5837,-2.19583 -0.95253,-3.16271 -0.7863,-1.21185 -1.63962,-2.35926 -2.5134,-3.50576 -0.896,-1.31183 -1.45919,-2.77516 -2.14591,-4.20043 -0.46857,-1.39837 -1.02107,-2.79621 -1.71621,-4.09156 -0.75563,-1.1644 -1.45549,-2.37359 -2.49942,-3.31756 -1.01913,-1.03806 -1.7638,-2.30166 -2.81963,-3.3146 -0.97161,-1.09706 -1.82518,-2.29183 -2.59836,-3.53594 -0.95768,-1.17777 -1.90325,-2.35613 -2.58123,-3.72601 -0.61638,-1.35146 -1.46471,-2.59009 -2.25218,-3.84581 -0.66072,-1.33694 -1.25591,-2.69872 -2.05746,-3.96068 -0.31149,-0.30218 -0.36158,-0.43446 -0.79534,-0.53921 -0.15038,-0.0363 -0.59651,0.0484 -0.46314,-0.03 4.18635,-2.46109 8.53922,-4.63535 12.68911,-7.15744 0.18194,-0.11057 -0.41474,-0.26205 -0.61215,-0.18232 -0.17886,0.0722 -0.16006,0.35103 -0.24008,0.52654 -0.48506,1.64957 -0.6377,3.33025 -1.14304,4.97642 -0.20298,0.4517 -0.48912,0.86296 -0.69084,1.31522 -0.42362,0.94981 -0.59016,1.96505 -1.55739,2.56798 -0.82046,1.22024 -1.82833,2.30206 -2.62143,3.54422 -1.17192,0.81057 -2.16408,1.85388 -3.34728,2.65028 -0.84251,1.22714 -2.23723,1.72279 -3.21123,2.84244 -0.9052,1.10177 -2.08918,2.00404 -3.22973,2.84082 -1.71717,1.64953 0.65961,-0.55437 -1.17337,0.89317 -0.93854,0.74118 -1.43806,2.00343 -2.19451,2.90331 -1.78699,2.045 -3.79238,3.89893 -5.60136,5.92671 0,0 -13.80451,5.86519 -13.80451,5.86519 z"
       inkscape:connector-curvature="0" />
    <path
       style="opacity:0.98000004;fill:#000000;fill-opacity:1;stroke:#dbd4eb;stroke-width:0.2;stroke-miterlimit:4;stroke-dasharray:none;stroke-opacity:1"
       id="path4170"
       d="m 297.95766,393.63789 c 1.76194,2.0705 3.73168,3.94549 5.57097,5.94237 1.33573,1.11664 2.3825,2.45558 3.45002,3.80844 0.78821,1.24953 1.87968,2.24306 2.64935,3.50346 0.89027,1.13527 1.62807,2.36513 2.4485,3.54697 0.83082,1.4556 1.50118,2.98808 2.30642,4.45961 0.56992,1.49041 1.61729,2.7007 2.36924,4.08772 0.81571,1.26916 1.57576,2.59577 2.18854,3.97696 0.58111,1.28806 1.50553,2.32587 2.36701,3.42152 0.91174,1.33728 1.79222,2.55229 1.89975,4.2126 -0.23628,1.35846 -1.16824,2.46107 -1.97679,3.54393 -0.90968,1.15037 -1.71982,2.36209 -2.51631,3.59477 -0.93226,1.12145 -1.57076,2.43772 -2.46797,3.58554 -0.88312,1.16588 -1.86612,2.26993 -2.93546,3.26922 -0.84167,0.45557 -1.50892,1.21596 -2.32423,1.69922 -6.97404,4.13381 -27.56373,15.9814 -1.23755,0.79973 -0.70142,0.2487 -1.01085,1.03488 -1.62105,1.39572 -4.48029,2.64936 -9.08376,5.08993 -13.52283,7.80779 -0.44617,0.27317 35.33093,-20.29391 -1.27713,0.74625 4.08536,-2.35077 8.15866,-4.72264 12.25608,-7.05232 0.21302,-0.12111 -0.38797,0.30184 -0.59984,0.42493 -4.49854,2.61346 -9.03992,5.15298 -13.5287,7.78316 -4.0632,2.38081 8.16127,-4.70165 12.2519,-7.03503 0.41759,-0.2382 -0.81357,0.5128 -1.22884,0.75502 -1.30879,0.98923 -2.42091,2.20437 -3.79253,3.10921 -1.23821,0.80199 -2.33856,1.7724 -3.47519,2.7046 -1.06903,0.97802 -2.04966,2.04716 -3.12086,3.02206 -1.30706,0.82505 -2.48735,1.75569 -3.46864,2.95296 -0.97238,1.22174 -2.02975,2.36829 -3.04797,3.55016 0,0 -13.89432,5.73784 -13.89432,5.73784 l 0,0 c 1.19455,-0.97386 2.14525,-2.26236 3.10369,-3.45832 1.1211,-1.16623 1.35541,-1.82405 2.75444,-2.81757 0.19977,-0.14187 0.36918,-0.32224 0.55376,-0.48336 1.34396,-0.62063 2.0884,-1.85493 3.23046,-2.7463 0.94373,-1.14403 2.18258,-2.08934 3.40274,-2.91386 1.24851,-1.04418 2.74457,-1.77921 3.79053,-3.08372 0.81061,-0.7939 0.22112,-0.31507 1.18441,-0.87234 4.49752,-2.6019 8.96995,-5.24726 13.4802,-7.82704 4.08284,-2.3353 -8.12906,4.73407 -12.19795,7.09361 -0.20877,0.12107 0.41163,-0.25205 0.61745,-0.37808 4.47952,-2.63005 8.95905,-5.2601 13.43857,-7.89015 -32.16418,18.612 0.7972,-0.47039 1.2969,-0.72031 4.20823,-2.10468 -8.12781,4.74278 -12.18548,7.12482 -0.71896,0.42207 2.10886,-1.12758 1.60441,-1.4397 4.48186,-2.62567 8.97578,-5.23087 13.44557,-7.87703 4.05036,-2.39785 -8.11834,4.76585 -12.18724,7.13209 -0.20542,0.11946 0.41229,-0.24041 0.59592,-0.39123 0.57158,-0.46943 1.11427,-0.91169 1.7075,-1.36286 1.33563,-0.61237 2.07612,-1.8187 3.13581,-2.78235 0.81324,-1.22417 1.8073,-2.30548 2.43771,-3.65507 1.04456,-1.04152 1.46989,-2.48999 2.56423,-3.48079 0.64952,-1.06945 1.38581,-2.06451 2.21479,-2.95948 0.80448,-0.91036 -0.90413,-2.28246 -1.26736,-3.10709 -0.95937,-1.18617 -1.90324,-2.37453 -2.55765,-3.76588 -0.5767,-1.35183 -1.34986,-2.62335 -2.12719,-3.86686 -0.74376,-1.38561 -1.80276,-2.59451 -2.35236,-4.08953 -0.77747,-1.42929 -1.45596,-2.90371 -2.25016,-4.3208 -0.81435,-1.21387 -1.61099,-2.43034 -2.483,-3.60688 -0.74843,-1.2006 -1.83515,-2.15097 -2.56749,-3.36872 -1.01136,-1.33803 -2.10919,-2.57506 -3.33181,-3.73267 -1.84159,-2.02781 -3.7422,-4.00402 -5.63211,-5.98633 0,0 12.85914,-7.72061 12.85914,-7.72061 z"
       inkscape:connector-curvature="0" />
    <path
       style="opacity:0.98000004;fill:#000000;fill-opacity:1;stroke:#dbd4eb;stroke-width:0.2;stroke-miterlimit:4;stroke-dasharray:none;stroke-opacity:1"
       id="path4172"
       d="m 395.20683,385.47422 c -1.92436,2.22296 -3.72494,4.5487 -5.62272,6.79442 -1.13283,1.30199 -2.26178,2.61733 -3.50845,3.81235 -0.9405,1.13777 -2.07934,2.01788 -3.24228,2.90296 -1.25519,0.70723 -2.16994,1.72435 -3.06546,2.81883 -1.04353,1.24131 -2.02463,2.50025 -2.96031,3.82751 -0.77956,1.36095 -1.40557,2.84178 -1.88654,4.33713 -0.441,1.2929 -1.01211,2.26726 -0.34288,3.55804 0.91779,1.04857 1.89437,1.96496 2.92243,2.89647 1.42855,1.09011 2.53462,2.47299 3.72558,3.80053 1.31727,1.00526 2.31964,2.34975 3.29824,3.67237 0.86674,1.35386 1.77483,2.71349 2.9044,3.86429 0.9609,1.06163 1.91429,2.15661 2.9947,3.10126 1.01039,1.0031 1.9552,2.0855 3.03019,3.02195 1.07457,1.10814 1.7532,2.49368 2.55587,3.78953 0.78158,1.24272 1.58064,2.47107 2.33593,3.73473 0.69581,1.34233 1.38524,2.68415 2.09392,4.02092 0.73452,1.18416 1.74023,2.13702 2.63696,3.18816 0.94037,1.03027 2.01837,1.84582 3.20407,2.57544 0.57819,0.50649 1.17622,0.93568 1.72764,1.47207 0,0 -12.78849,7.90806 -12.78849,7.90806 l 0,0 c -0.51488,-0.44409 -1.0471,-0.86323 -1.59514,-1.26606 -1.24135,-0.86534 -2.42976,-1.76533 -3.4215,-2.92082 -0.99728,-1.11486 -2.0243,-2.20421 -2.80784,-3.48888 -0.69568,-1.314 -1.37422,-2.63142 -2.05582,-3.95122 -0.75605,-1.25709 -1.55116,-2.48166 -2.32896,-3.72213 -0.71828,-1.18356 -1.33674,-2.44962 -2.34342,-3.4288 -1.03031,-0.98869 -2.02514,-2.01422 -3.03236,-3.02603 -1.05874,-1.02406 -2.08308,-2.08892 -3.04747,-3.2018 -1.10813,-1.24334 -2.08343,-2.59979 -2.97539,-4.0052 -0.97961,-1.28085 -1.9873,-2.53885 -3.22934,-3.57961 -1.1292,-1.30713 -2.28155,-2.5571 -3.65068,-3.62467 -1.18496,-1.01723 -2.20901,-2.15939 -3.205,-3.36182 -0.82518,-1.5487 -1.12982,-2.98824 -0.15757,-4.55851 0.36131,-1.67438 1.10812,-3.16345 1.68899,-4.76232 0.82219,-1.3996 1.67795,-2.80453 2.92386,-3.87207 0.7705,-1.29282 1.65516,-2.42729 2.84671,-3.34838 1.25987,-0.70478 2.37197,-1.53609 3.38629,-2.55532 1.08478,-1.35237 2.47716,-2.44452 3.60696,-3.76974 1.82654,-2.28851 3.82038,-4.44274 5.58037,-6.78844 0,0 13.80451,-5.8652 13.80451,-5.8652 z"
       inkscape:connector-curvature="0" />
    <path
       style="opacity:0.98000004;fill:#000000;fill-opacity:1;stroke:#dbd4eb;stroke-width:0.2;stroke-miterlimit:4;stroke-dasharray:none;stroke-opacity:1"
       id="path4174"
       d="m 308.80348,486.86298 c 1.58892,-2.3198 2.96579,-4.77189 4.48971,-7.13309 1.01507,-1.38506 1.7842,-2.9273 2.83004,-4.28987 0.89817,-1.22401 1.97553,-2.29882 2.98197,-3.43359 1.07763,-1.12641 2.26492,-2.14598 3.32112,-3.29146 0.87459,-1.20268 1.71895,-2.43242 2.74169,-3.51522 1.12228,-0.89094 2.30591,-1.70348 3.35642,-2.68035 1.20944,-0.80028 2.2681,-1.69589 3.20453,-2.8094 0.94982,-1.07457 1.97026,-2.08332 2.92731,-3.15103 5.20726,-5.32573 4.57376,-3.61382 15.92592,-9.6769 1.37941,0.68901 2.2274,2.13075 3.0729,3.37306 0.89708,1.20421 1.97244,2.24737 2.9454,3.38452 0.96212,1.36944 1.90642,2.7273 2.60075,4.25671 0.75999,1.36637 1.52481,2.73758 2.38125,4.04597 0.82194,1.2262 1.64189,2.44804 2.41119,3.71299 0.82778,1.43655 1.51795,2.86449 1.90496,4.4844 0.0958,1.60633 0.84663,2.96743 1.46876,4.40334 0.59375,1.27412 1.54171,2.28445 2.41023,3.36407 1.27629,1.07154 1.98595,2.48579 2.02316,4.14138 -0.27492,1.42866 -1.14843,2.60297 -1.79723,3.87249 -0.79058,1.26805 -1.37592,2.63979 -2.25644,3.85247 -0.7757,1.21149 -1.92085,2.11282 -2.67179,3.33612 -0.57829,1.39459 -1.46951,2.6142 -2.16525,3.94488 -0.75944,1.27431 -1.5465,2.53977 -2.7393,3.44624 -1.15384,0.84478 -2.22506,1.78625 -3.33075,2.69105 -0.84992,1.14725 -1.95786,2.07567 -2.82115,3.21005 -0.85816,1.1351 -1.8403,2.16457 -2.74684,3.25828 -0.71005,1.31579 -1.91807,2.19842 -2.96901,3.21612 -1.04013,1.01651 -2.19152,1.86655 -3.41434,2.65093 -7.8984,5.21988 -27.50086,15.96052 -1.80762,1.26003 0.1943,-0.11116 -0.38507,0.23158 -0.55779,0.37397 -0.37923,0.31262 -0.70318,0.68693 -1.06191,1.02287 -4.61271,3.60462 -7.83904,4.90945 -14.6261,8.72916 -0.70788,0.39839 -1.73143,0.32604 -2.48934,0.23531 -1.42191,-0.67391 -2.4069,-2.03731 -3.31835,-3.28646 -0.79903,-1.46938 -1.76334,-2.83875 -2.65072,-4.25468 -0.884,-1.57147 -1.72626,-3.15971 -2.57978,-4.74812 -0.52263,-1.44047 -1.51872,-2.60917 -2.23215,-3.94433 -0.82525,-1.24485 -1.46895,-2.59091 -2.23569,-3.87393 -0.84105,-1.44198 -1.70934,-2.86506 -2.54636,-4.31206 -0.56308,-1.42675 -1.56649,-2.59173 -2.28564,-3.92917 -0.82713,-1.1703 -1.56379,-2.3941 -2.37829,-3.57131 -0.84125,-1.20735 -1.65512,-2.42567 -2.42173,-3.68648 -0.8503,-1.03188 -1.57291,-2.2018 -2.74485,-2.89299 0,0 12.68154,-8.07537 12.68154,-8.07537 l 0,0 c 1.21122,0.96093 2.15801,2.17352 3.06369,3.42016 0.75829,1.23696 1.55904,2.43388 2.38625,3.62305 0.8243,1.23386 1.63259,2.47182 2.45418,3.70912 0.70553,1.32354 1.71849,2.47261 2.25614,3.89163 0.82767,1.4393 1.67579,2.85999 2.52472,4.28507 0.80031,1.29746 1.4516,2.66947 2.28911,3.94195 0.70656,1.33495 1.72199,2.50009 2.22283,3.94754 0.82696,1.56094 1.63431,3.12529 2.49959,4.66554 0.88112,1.37554 1.85259,2.69539 2.62996,4.13565 0.63209,0.82922 1.35095,2.13169 2.51562,2.07795 0.5956,-0.14237 0.80466,-0.16609 1.39299,-0.42923 0.23156,-0.10358 0.88891,-0.48903 0.67019,-0.36052 -24.25579,14.25194 -14.58935,9.48479 -11.05643,6.23791 0.55404,-0.30032 0.71954,-0.32791 1.14702,-0.80881 0.1727,-0.19429 0.23403,-0.4971 0.45573,-0.63282 4.82299,-2.95249 29.42217,-17.11838 1.25766,-0.74698 -0.20571,0.11957 0.39757,-0.26151 0.59635,-0.39226 1.0416,-1.04705 2.48592,-1.48469 3.42002,-2.63655 1.14267,-0.80456 2.13168,-1.84533 3.15482,-2.78188 0.66027,-1.35554 1.8426,-2.21404 2.65708,-3.45963 1.13642,-1.16521 -0.15484,0.23975 0.87836,-1.1725 0.58224,-0.79585 1.64446,-1.07117 1.89937,-2.14039 0.91291,-1.10327 2.10748,-2.01799 3.27758,-2.82244 1.33907,-1.20747 -0.27673,0.15998 1.16678,-0.79471 0.76714,-0.50735 1.26959,-1.47329 1.75914,-2.21536 0.88388,-1.15492 1.41404,-2.56266 2.25537,-3.75665 0.49126,-1.48358 1.39218,-2.56176 2.55861,-3.57606 0.80698,-1.24826 1.77104,-2.3648 2.28113,-3.7953 0.79934,-1.03679 1.26858,-2.30199 1.99164,-3.38955 0.86719,-1.00115 -0.7329,-2.26775 -1.35998,-2.96353 -0.97562,-1.17437 -1.94676,-2.34551 -2.61458,-3.73299 -0.64138,-1.51957 -1.51025,-2.95752 -1.59273,-4.65508 -0.29741,-1.48092 -0.9287,-2.74063 -1.6789,-4.04239 -0.76723,-1.25196 -1.58088,-2.46342 -2.39107,-3.68472 -0.87625,-1.38565 -1.69922,-2.80683 -2.47366,-4.25251 -0.61702,-1.40011 -1.52488,-2.6102 -2.39828,-3.85875 -1.03467,-1.15733 -2.09745,-2.28767 -3.02375,-3.5373 -0.50316,-0.71836 -1.22453,-2.29754 -2.26424,-2.03188 4.23097,-2.38426 8.48777,-4.72324 12.69289,-7.15279 0.16514,-0.0954 -0.38507,0.0529 -0.5548,0.13988 -0.82082,0.4206 -1.34768,1.42067 -2.01546,2.02078 -1.11633,0.87653 -2.01678,2.0367 -2.95177,3.0917 -1.09041,0.95709 -1.72193,2.43298 -3.1423,2.96267 -1.16809,0.84299 -2.1286,1.93852 -3.33282,2.74132 -1.34714,0.66616 -1.99612,1.96093 -2.93055,3.07758 -0.78465,1.4618 -2.13729,2.34487 -3.21382,3.57334 -1.16544,0.9252 -1.94715,2.21193 -3.07927,3.16943 -0.96491,1.43685 -2.08557,2.7589 -2.88957,4.31346 -1.73006,2.18205 -2.86519,4.74918 -4.52639,6.98259 0,0 -13.69488,6.10466 -13.69488,6.10466 z"
       inkscape:connector-curvature="0" />
    <path
       style="opacity:0.98000004;fill:#000000;fill-opacity:1;stroke:#dbd4eb;stroke-width:0.2;stroke-miterlimit:4;stroke-dasharray:none;stroke-opacity:1"
       id="path4176"
       d="m 286.84598,519.90696 c 1.89276,1.98274 3.66974,4.04676 5.42605,6.14619 1.25881,1.33655 2.08323,2.86561 2.91079,4.47765 0.52316,1.3962 1.223,2.66588 2.02848,3.91197 0.97337,1.10942 1.81836,2.36475 2.47561,3.68778 0.63183,1.26657 1.56224,2.30811 2.42935,3.40762 0.73687,1.31251 1.76887,2.41002 2.50752,3.71786 0.84963,1.16239 1.58543,2.39313 2.402,3.57609 0.97512,1.1935 1.60205,2.54417 2.28319,3.91233 0.64149,1.37205 1.18076,2.79897 1.89769,4.1346 0.88608,1.43892 1.11176,2.79093 0.47984,4.34876 -3.82839,5.29014 -10.17029,7.02605 -15.95502,10.30109 -0.58994,0.56113 -1.41309,0.60933 -2.10988,0.92476 -0.72675,0.329 -1.29218,0.7208 -2.07438,0.96957 -0.7939,0.78391 -1.88016,0.82038 -2.85381,1.17821 -0.4785,0.17585 -0.90959,0.46332 -1.38174,0.65558 4.09382,-2.32625 8.18441,-4.65819 12.28145,-6.97876 0.21414,-0.12129 -0.41873,0.25892 -0.63253,0.38081 -4.52037,2.57721 -8.98246,5.26033 -13.56977,7.71639 -4.15092,2.22242 8.16875,-4.68496 12.26012,-7.0152 0.41776,-0.23793 -0.82113,0.50056 -1.23849,0.7392 -8.08114,5.23788 -27.42187,15.81594 -1.82767,1.22758 0.23011,-0.13116 -0.4422,0.29211 -0.65527,0.44944 -0.88634,0.69975 -0.44273,0.36173 -1.32998,1.01515 -1.39667,0.98343 -2.43498,2.29142 -3.50254,3.59898 -0.99381,1.17476 -1.87683,2.42212 -2.6666,3.74253 -0.7286,1.32667 -1.39117,2.68428 -2.12615,4.00796 0,0 -13.79338,5.98214 -13.79338,5.98214 l 0,0 c 1.02927,-1.10428 1.35872,-2.56989 2.23722,-3.77698 0.56064,-1.43715 1.50627,-2.89155 2.56567,-4.00339 0.94656,-1.41436 1.99492,-2.88538 3.37183,-3.90408 3.94084,-3.96824 13.0548,-8.11959 15.35239,-9.49479 3.83276,-2.29407 -16.95054,10.18775 -11.5912,6.72453 0.80064,-0.78619 0.2316,-0.32655 1.18706,-0.87575 4.50582,-2.58995 8.97684,-5.24087 13.50632,-7.78923 4.09654,-2.30479 -8.13783,4.70643 -12.20744,7.05846 -0.21251,0.12282 0.4241,-0.24724 0.63615,-0.37085 4.51422,-2.57935 9.02843,-5.15869 13.54264,-7.73803 1.42038,-0.60127 2.88245,-1.08842 4.25006,-1.81342 1.37819,-0.66336 2.77442,-1.27458 4.15255,-1.93814 -4.06465,2.36118 -8.14448,4.69642 -12.19396,7.08353 -0.20401,0.12026 0.44653,-0.16397 0.65285,-0.28021 0.74957,-0.42231 1.29934,-1.21238 1.89273,-1.8058 1.28778,-0.86695 1.00487,-1.60116 0.29986,-2.84609 -0.72152,-1.34943 -1.28552,-2.77993 -1.9177,-4.17183 -0.65552,-1.30649 -1.24138,-2.59879 -2.18761,-3.73869 -0.82003,-1.22963 -1.62114,-2.46438 -2.46126,-3.68254 -0.69757,-1.23318 -1.6962,-2.26695 -2.38874,-3.50817 -0.95223,-1.17178 -1.89333,-2.34365 -2.58945,-3.69362 -0.62075,-1.28107 -1.49206,-2.43324 -2.39076,-3.53121 -0.83675,-1.28708 -1.56742,-2.60447 -2.09881,-4.04975 -0.77154,-1.51638 -1.52912,-2.96138 -2.70097,-4.23354 -1.70007,-2.14226 -3.48048,-4.20384 -5.44344,-6.11608 0,0 12.85913,-7.72061 12.85913,-7.72061 z"
       inkscape:connector-curvature="0" />
    <path
       style="opacity:0.98000004;fill:#000000;fill-opacity:1;stroke:#dbd4eb;stroke-width:0.2;stroke-miterlimit:4;stroke-dasharray:none;stroke-opacity:1"
       id="path4178"
       d="m 393.31925,506.70703 c -0.93543,2.80307 -2.23321,5.4475 -3.50598,8.10461 -0.74145,1.58664 -1.62502,3.10711 -2.77172,4.43439 -0.88474,1.12979 -2.01649,2.02036 -2.82546,3.20846 -0.80931,1.20586 -1.76921,2.28688 -2.69678,3.39908 -1.16089,0.8545 -2.09462,1.98027 -3.24622,2.84364 -1.2425,0.76697 -2.01633,2.00534 -3.1025,2.93686 -1.08368,0.95161 -1.78996,2.19818 -2.56202,3.39128 -0.76442,1.32114 -1.81235,2.43755 -2.74156,3.64037 -0.85105,1.42629 -1.96581,2.56595 -3.20073,3.64817 -1.19746,0.8395 -2.17666,1.94126 -3.42136,2.71138 -1.21388,0.75957 -2.27907,1.70238 -3.38296,2.6053 -0.31615,0.11256 -1.16206,1.49398 -1.5457,1.38093 -0.0958,-0.0282 0.12574,-0.17649 0.2227,-0.20036 0.69676,0.59929 1.60079,0.60391 2.42431,0.86434 0.51503,0.16288 0.99623,0.41869 1.50213,0.60803 1.69734,0.54282 3.35065,1.18729 4.98897,1.88752 0.26311,0.0876 0.53566,0.15084 0.78934,0.26289 3.27909,1.44837 -1.52546,-0.49966 1.48258,0.77017 0.74882,0.31611 1.48999,0.4572 2.22863,0.8098 1.53553,0.422 2.80564,1.28217 4.1256,2.12649 1.48786,0.69793 2.75865,1.77593 4.14659,2.64727 1.45074,0.99122 2.69637,2.22344 4.0475,3.3333 1.25792,0.77126 2.48641,1.63704 3.54471,2.6714 1.19931,0.75919 2.30307,1.64878 3.46345,2.46821 1.25392,0.73072 2.50085,1.45319 3.78816,2.13268 1.25493,0.82099 2.2745,1.9127 3.41779,2.86668 1.0313,0.99663 1.97338,2.09249 3.05211,3.03921 1.10747,1.03084 2.00049,2.21669 2.82811,3.48087 0.12665,0.25147 0.25329,0.50294 0.37994,0.75441 0,0 -13.06207,7.43488 -13.06207,7.43488 l 0,0 c -0.0973,-0.19801 -0.1946,-0.39603 -0.29191,-0.59404 -0.77267,-1.15702 -1.60309,-2.23659 -2.64341,-3.16944 -1.02268,-0.98741 -2.00374,-2.01662 -3.02873,-3.00186 -1.02758,-0.92986 -2.03974,-1.88718 -3.24049,-2.59691 -1.31219,-0.74685 -2.65364,-1.43682 -3.89849,-2.29756 -1.17105,-0.8928 -2.423,-1.67272 -3.55512,-2.61252 -1.10511,-0.95912 -2.31905,-1.77158 -3.50503,-2.62557 -1.25825,-1.11719 -2.51433,-2.23625 -3.91247,-3.18089 -1.37171,-0.91124 -2.73527,-1.83634 -4.18164,-2.62829 -1.2422,-0.81847 -2.57633,-1.40039 -3.97323,-1.9088 -1.53237,-0.54977 -2.99418,-1.22763 -4.49365,-1.85796 -1.61877,-0.69622 -3.30042,-1.22892 -4.95987,-1.81906 -1.37298,-0.50844 -2.82705,-0.80763 -4.07507,-1.61395 -1.40486,-1.1726 -1.60966,-2.60218 0.0444,-3.67331 0.91117,-1.1096 2.10737,-2.0413 3.2945,-2.82772 1.07822,-0.91127 2.49771,-1.53607 3.43017,-2.70392 1.36878,-0.83759 2.49275,-1.85456 3.41577,-3.17152 0.758,-1.32114 1.7767,-2.41526 2.75902,-3.55613 0.70745,-1.32808 1.50435,-2.57035 2.39377,-3.77481 1.37305,-1.44855 -0.37817,0.30772 1.08966,-0.89102 0.76922,-0.62821 0.9435,-1.77276 1.98333,-2.11891 1.25986,-1.22687 -0.23045,0.13201 1.14199,-0.84717 0.80101,-0.57149 1.07343,-1.66697 2.14479,-1.89623 1.09355,-0.88208 1.98219,-2.06929 2.77476,-3.21475 0.94656,-1.08054 1.56844,-2.41536 2.81762,-3.23747 1.01861,-1.36302 2.26842,-2.53889 2.98807,-4.12876 1.18057,-2.66303 2.79895,-5.14065 3.52702,-7.99418 0,0 13.58664,-6.31951 13.58664,-6.31951 z"
       inkscape:connector-curvature="0" />
    <path
       style="opacity:0.98000004;fill:#000000;fill-opacity:1;stroke:#dbd4eb;stroke-width:0.2;stroke-miterlimit:4;stroke-dasharray:none;stroke-opacity:1"
       id="path4180"
       d="m 298.83677,605.04714 c 2.00463,-1.87362 4.15415,-3.57359 6.29949,-5.28089 1.25919,-1.16685 2.79189,-1.96329 4.13019,-3.02425 26.45922,-15.40338 9.94304,-5.76273 1.24775,-0.79608 -0.21385,0.12215 0.40441,-0.28139 0.61188,-0.41408 0.62992,-0.40285 1.2121,-0.83964 1.82072,-1.27617 0.74743,-0.38901 1.18352,-1.19789 1.9017,-1.61974 4.50916,-2.64865 9.09355,-5.16783 13.60193,-7.81779 4.03279,-2.37042 -16.24501,9.28516 -12.17508,6.9791 4.53581,-2.57002 9.04847,-5.18067 13.57271,-7.77101 4.53632,-2.49982 10.50697,-5.87543 -10.57241,6.11784 -1.78271,1.01429 1.64307,-1.075 2.02054,-1.36748 26.31621,-15.36651 10.13821,-5.88913 1.30168,-0.84319 -0.22082,0.12609 0.41553,-0.29341 0.62816,-0.43287 0.40324,-0.26449 0.76652,-0.58926 1.18162,-0.83471 4.47783,-2.64773 8.98991,-5.2371 13.48487,-7.85565 1.74246,-0.52454 3.5803,-0.54323 5.3846,-0.5833 1.64954,0.28355 3.04539,1.32016 4.44954,2.1741 1.31662,0.6816 2.59358,1.42491 3.90907,2.11785 1.44025,0.53452 2.9503,0.96961 4.30152,1.71193 1.58122,0.59855 3.06282,1.3657 4.55317,2.15593 1.453,0.66571 2.84282,1.45062 4.26265,2.18774 1.17646,0.96224 2.57154,1.54505 3.73424,2.52724 1.1609,0.88406 2.27334,1.87105 3.25761,2.95321 1.02123,0.99986 2.08548,1.96829 3.03663,3.03811 1.02056,0.97649 2.3363,1.50967 3.49632,2.27526 1.33284,0.62942 2.2607,1.82058 3.55673,2.49987 1.2287,0.82441 1.92465,2.19725 3.1665,2.99359 1.18694,0.95409 2.41776,1.79736 3.31545,3.04713 0.9338,0.99027 1.95477,1.93854 3.02993,2.78232 1.0682,1.0704 2.24035,1.99992 3.08411,3.26837 0.78753,1.18567 1.74675,2.22717 2.63627,3.33173 0,0 -12.89684,7.72917 -12.89684,7.72917 l 0,0 c -0.93895,-1.12252 -1.87928,-2.23817 -2.70433,-3.44949 -0.78245,-1.12158 -1.90381,-1.94258 -2.86519,-2.90418 -1.12148,-0.97327 -2.28594,-1.93098 -3.21763,-3.09194 -0.84185,-1.08492 -2.04625,-1.79396 -3.08629,-2.67296 -1.08803,-0.90286 -1.8912,-2.10271 -3.08754,-2.8742 -1.20183,-0.81423 -2.25404,-1.84244 -3.56021,-2.50504 -1.32703,-0.74296 -2.6448,-1.53951 -3.72147,-2.62886 -0.98205,-1.03239 -2.01096,-2.02042 -3.0258,-3.02008 -0.97808,-0.99262 -2.01369,-1.93846 -3.13873,-2.76254 -1.15989,-0.82639 -2.42226,-1.4915 -3.58718,-2.31082 -1.39728,-0.76891 -2.83055,-1.47181 -4.25033,-2.19758 -1.46906,-0.79652 -3.0215,-1.38917 -4.53344,-2.09581 -1.44676,-0.59297 -2.92644,-1.11032 -4.34231,-1.77103 -1.31296,-0.73964 -2.65548,-1.42214 -3.95504,-2.18643 -1.19603,-0.75288 -2.44369,-1.55355 -3.91116,-1.45788 -1.71667,0.10745 -3.48747,0.22341 -4.98316,1.16436 10.75618,-6.28968 16.01796,-9.94351 11.03898,-6.1881 -7.16152,5.40158 -28.17326,15.70602 -1.97515,1.17699 -0.88375,0.60321 -0.46057,0.26392 -1.26406,1.02464 -4.85957,3.62882 -10.53709,6.19856 -15.86327,9.16518 31.79141,-18.37197 -0.62272,0.37452 -1.40954,0.76558 -4.1808,2.07793 8.06822,-4.70019 12.09635,-7.0605 0.25327,-0.14841 -1.98573,1.16184 -1.91541,1.57232 -0.59258,0.45454 -1.16864,0.96069 -1.7592,1.40103 -7.17784,5.35206 -28.17544,15.66124 -1.90629,1.09748 -1.43171,0.944 -2.73091,2.08035 -4.23243,2.93607 -2.01938,1.84442 -4.43589,3.22792 -6.26484,5.28656 0,0 -13.90858,5.61395 -13.90858,5.61395 z"
       inkscape:connector-curvature="0" />
    <g
       id="g4184">
      <rect
         ry="40.406101"
         y="176.55995"
         x="88.893425"
         height="527.29962"
         width="554.57373"
         id="rect4182"
         style="opacity:0.98000004;fill:none;fill-opacity:1;stroke:#dbd4eb;stroke-width:0.2;stroke-miterlimit:4;stroke-dasharray:none;stroke-opacity:1" />
    </g>
  </g>
</svg>
