<?xml version="1.0" encoding="UTF-8" standalone="no"?>
<!-- Created with Inkscape (http://www.inkscape.org/) -->

<svg
   xmlns:dc="http://purl.org/dc/elements/1.1/"
   xmlns:cc="http://creativecommons.org/ns#"
   xmlns:rdf="http://www.w3.org/1999/02/22-rdf-syntax-ns#"
   xmlns:svg="http://www.w3.org/2000/svg"
   xmlns="http://www.w3.org/2000/svg"
   xmlns:sodipodi="http://sodipodi.sourceforge.net/DTD/sodipodi-0.dtd"
   xmlns:inkscape="http://www.inkscape.org/namespaces/inkscape"
   width="188.14839mm"
   height="183.58296mm"
   viewBox="0 0 666.66753 650.49081"
   id="svg2"
   version="1.1"
   inkscape:version="0.91 r13725"
   sodipodi:docname="menutrigger.svg">
  <defs
     id="defs4" />
  <sodipodi:namedview
     id="base"
     pagecolor="#ffffff"
     bordercolor="#666666"
     borderopacity="1.0"
     inkscape:pageopacity="0.0"
     inkscape:pageshadow="2"
     inkscape:zoom="0.98994949"
     inkscape:cx="74.206618"
     inkscape:cy="338.04158"
     inkscape:document-units="px"
     inkscape:current-layer="layer1"
     showgrid="false"
     fit-margin-top="0"
     fit-margin-left="0"
     fit-margin-right="0"
     fit-margin-bottom="0"
     inkscape:window-width="1920"
     inkscape:window-height="1056"
     inkscape:window-x="0"
     inkscape:window-y="24"
     inkscape:window-maximized="1" />
  <metadata
     id="metadata7">
    <rdf:RDF>
      <cc:Work
         rdf:about="">
        <dc:format>image/svg+xml</dc:format>
        <dc:type
           rdf:resource="http://purl.org/dc/dcmitype/StillImage" />
        <dc:title></dc:title>
      </cc:Work>
    </rdf:RDF>
  </metadata>
  <g
     inkscape:label="Layer 1"
     inkscape:groupmode="layer"
     id="layer1"
     transform="translate(-76.028244,-207.39424)">
    <g
       id="g4153">
      <path
         inkscape:connector-curvature="0"
         d="m 347.58601,452.20089 c -1.45937,-2.23474 -3.22592,-4.29773 -5.13176,-6.16739 -1.28285,-1.07888 -2.69304,-1.92752 -4.16591,-2.71335 -1.16311,-0.95732 -2.55227,-1.51991 -3.70846,-2.48885 -1.16299,-0.87784 -2.27487,-1.86347 -3.25822,-2.94365 -0.81154,-1.28349 -1.84453,-2.39748 -2.58929,-3.72142 -0.70116,-1.22947 -1.64963,-2.26227 -2.52755,-3.35882 -1.11077,-0.95187 -1.93864,-2.11969 -2.8304,-3.26096 -0.9401,-1.05348 -1.46664,-2.46671 -2.52032,-3.40679 -0.9309,-1.12685 -1.87395,-2.25068 -2.77262,-3.40586 -0.74912,-1.21459 -1.5161,-2.44535 -2.51255,-3.47428 -0.93307,-1.15234 -2.07753,-2.07874 -2.89342,-3.32565 -0.91085,-1.21069 -1.67637,-2.55924 -2.29446,-3.94406 -0.73994,-1.41113 -1.55473,-2.76899 -2.3996,-4.11733 -0.64872,-1.45583 -1.71275,-2.6497 -2.47572,-4.03517 -0.8003,-1.28621 -1.77057,-2.44485 -2.57024,-3.73337 -1.03436,-1.22772 -1.64969,-2.72741 -2.6426,-3.98246 -0.9071,-1.22737 -1.55279,-2.61362 -2.33462,-3.91568 -0.67041,-1.28231 -1.6697,-2.33956 -2.56067,-3.46957 -1.0014,-1.35432 -1.90541,-2.76223 -2.7689,-4.20931 -1.04845,-1.16789 -1.589,-2.64432 -2.24204,-4.04543 -0.77896,-1.25852 -1.56915,-2.52484 -2.19294,-3.86938 -0.74206,-1.21867 -1.46481,-2.45158 -2.26463,-3.63346 -0.73072,-1.1735 -1.60045,-2.29353 -2.6125,-3.23959 -0.97994,-1.02067 -1.92443,-2.09583 -2.99408,-3.02632 -0.92985,-1.15912 -1.8143,-2.36225 -2.69393,-3.56347 -1.05359,-0.99407 -1.65359,-2.33598 -2.58338,-3.43175 -0.41038,-0.89395 -1.31666,-1.2175 -1.96432,-1.87199 -0.68191,-0.80571 -0.33973,-0.43831 -1.01694,-1.11106 -0.93182,-1.07006 -1.83339,-2.18915 -2.88453,-3.14687 -0.99039,-1.01728 -1.93212,-2.09956 -3.00312,-3.03533 -1.00913,-1.02704 -1.53157,-2.44501 -2.71834,-3.29168 -1.14375,-0.98175 -2.36397,-1.81674 -3.25235,-3.0539 -0.99633,-1.09092 -1.50184,-2.50221 -2.39571,-3.66652 -0.73339,-1.27315 -1.56263,-2.46851 -2.41163,-3.66522 -1.01843,-1.08565 -1.87214,-2.36024 -2.53506,-3.69333 -0.77145,-1.20851 -1.49176,-2.44835 -2.29358,-3.63647 -0.83023,-1.21274 -1.64404,-2.42994 -2.40968,-3.68943 -1.04511,-1.13152 -1.57295,-2.58614 -2.21554,-3.95898 -0.78156,-1.25841 -1.57228,-2.52619 -2.19672,-3.87185 -0.64072,-1.46136 -1.08424,-2.99258 -1.6397,-4.48364 -0.52016,-1.51948 -1.04732,-3.03365 -1.55542,-4.55836 -0.57744,-1.38877 -1.30554,-2.70418 -1.89282,-4.08684 -0.48568,-1.46017 -1.07581,-2.88306 -1.73913,-4.27079 -0.9338,-1.19753 -1.45092,-2.62641 -2.0834,-3.99022 -0.56368,-1.39981 -1.22715,-2.75805 -1.91821,-4.09982 -0.62312,-1.36923 -1.30829,-2.70905 -2.01041,-4.04061 -0.88357,-1.11513 -1.43889,-2.43544 -2.34072,-3.53602 -0.71914,-1.24102 -1.52022,-2.30815 -2.65667,-3.19359 -1.20943,-1.12306 -2.07121,-2.54193 -3.19012,-3.74422 -0.95706,-1.11423 -1.9184,-2.25388 -3.0178,-3.23299 -1.00462,-1.00921 -1.95015,-2.09229 -3.02545,-3.02903 -0.80753,-1.26163 -1.982,-2.18945 -2.85721,-3.39023 -0.95496,-1.26027 -2.10228,-2.26231 -3.27251,-3.29987 -1.20567,-0.91245 -2.39738,-1.87822 -3.44022,-2.97798 -1.24481,-0.80005 -2.28892,-1.78196 -3.21771,-2.9405 -1.0562,-0.87793 -2.12488,-1.76926 -3.23905,-2.58316 -1.10039,-0.94539 -2.06534,-2.03637 -3.16303,-2.98275 -1.01642,-1.00353 -1.95938,-2.0928 -3.03558,-3.03446 -1.01192,-1.10836 -2.16886,-2.04307 -2.99875,-3.30525 -0.88572,-1.01587 -1.9066,-1.95786 -2.97059,-2.79395 -1.06543,-0.96734 -2.0251,-2.05107 -3.11485,-2.99123 -1.21252,-1.16824 -2.41424,-2.35527 -3.63907,-3.51414 -1.30975,-1.00047 -2.66628,-1.96332 -3.84062,-3.12427 -1.13119,-0.85244 -1.93493,-2.06268 -3.1767,-2.7641 -1.22804,-0.80493 -2.27896,-1.82294 -3.42806,-2.72763 -1.2567,-0.72889 -2.46708,-1.59161 -3.51055,-2.6085 -1.12853,-0.84003 -1.9264,-2.03982 -3.15855,-2.73813 -1.14705,-0.84517 -2.41399,-1.61982 -3.75511,-2.12369 -1.25753,-1.04005 -2.88738,-1.06667 -4.33462,-1.62659 -1.58148,-0.62856 -3.27883,-0.75346 -4.95946,-0.84717 -1.96999,-0.0783 -3.94212,-0.068 -5.91326,-0.066 -2.02285,0.004 -4.0457,0.008 -6.06855,0.01 -1.93423,0.0499 -3.87845,-0.32521 -5.63567,0.61294 -1.07634,0.68297 -2.36485,0.73219 -3.54114,1.09222 -0.54066,0.16547 -1.04031,0.4446 -1.57109,0.63944 -1.65212,0.32476 -3.10966,1.08215 -4.76877,1.40009 -0.63988,0.49616 -1.48443,0.53852 -2.19398,0.84894 -0.72319,0.31639 -1.29932,0.71635 -2.07202,0.96499 -0.27219,0.0593 -0.55483,0.0824 -0.81658,0.17779 -0.47919,0.17453 -1.82451,0.90956 -1.38297,0.65436 3.86381,-2.23319 15.527,-8.80743 11.65017,-6.59691 -4.52019,2.57734 -9.04591,5.14498 -13.56886,7.71747 40.62812,-23.32737 -31.942379,18.65826 9.19589,-5.04669 -46.016413,26.30937 29.04262,-16.55669 -15.44283,8.90888 -4.09181,2.34235 8.15629,-4.73233 12.25558,-7.06156 0.21238,-0.12067 -0.39385,0.28906 -0.59078,0.43359 -40.984458,24.80668 4.29802,-3.82283 -1.82237,1.13368 -0.56894,0.46074 -1.03321,0.99485 -1.63189,1.4291 -7.74337,5.19149 -27.621004,16.01802 -1.81276,1.26979 0.21569,-0.12326 -0.41174,0.2783 -0.62272,0.40946 -1.0271,0.6385 -0.19668,0.042 -1.18676,0.79827 -26.610135,15.42961 -9.82591,5.67882 -1.25329,0.7773 0.19433,-0.11111 -0.38735,0.22785 -0.56103,0.36907 -0.54353,0.44197 -1.03686,1.00356 -1.49123,1.53299 -1.01535,1.03302 -1.87326,2.21021 -3.07131,3.04229 -4.65125,3.7089 -10.117902,5.86918 -15.202278,9.18132 -3.94718,2.57134 8.151308,-4.72496 12.241588,-7.06197 0.21511,-0.12291 -0.40944,0.27904 -0.61416,0.41856 -1.20936,0.7437 -2.32449,1.65462 -3.32878,2.65776 -1.017457,0.96395 -2.057878,1.91743 -2.998079,2.95895 -0.905093,1.16957 -1.591761,2.47046 -2.332648,3.7452 -0.937066,1.15568 -1.468453,2.55449 -2.05806,3.90453 -0.502175,1.51973 -1.067773,3.0083 -1.516944,4.54539 -0.690423,1.52972 -1.004718,3.14501 -1.178368,4.80231 -0.01118,2.02349 -0.39304,4.00056 -0.710812,5.98995 -0.30585,1.97966 -0.376789,3.98316 -0.421894,5.98242 -0.03154,2.01653 -0.02511,4.03341 -0.02301,6.05011 0.0028,2.02049 0.0043,4.04097 0.0052,6.06146 6.71e-4,2.02037 6.67e-4,4.04074 6.87e-4,6.06112 0.150934,1.77437 -0.346273,3.69309 0.29127,5.39278 0.764828,1.37135 1.152358,2.89102 1.722238,4.34389 0.476197,1.60003 0.880782,3.21404 1.341066,4.82112 0.70807,1.48627 1.157927,3.06704 1.671648,4.62605 0.462724,1.6988 0.870615,3.4265 1.578069,5.04505 0.61038,1.48442 1.185468,2.98804 1.717721,4.5041 0.344845,1.64815 0.911443,3.23461 1.293864,4.87343 0.239053,1.55687 0.741336,3.05359 1.371782,4.49088 0.53627,1.56419 0.97201,3.16006 1.44551,4.74701 0.44813,1.58116 0.95241,3.14657 1.42895,4.72205 0.47794,1.78439 1.00548,3.54362 1.54852,5.30904 0.36961,1.59743 0.69484,3.21677 1.33278,4.73457 0.72029,1.54379 1.21819,3.18205 1.91042,4.73508 0.65,1.46203 1.23827,2.96278 2.00497,4.36908 0.70038,1.39799 1.38601,2.79634 2.03702,4.21934 0.69726,1.67699 1.73916,3.17061 2.48224,4.82785 0.77001,1.39189 1.55681,2.78246 2.43341,4.11008 0.79568,1.29482 1.38842,2.70215 2.13815,4.02061 0.81198,1.35973 1.7292,2.65776 2.56749,4.0079 1.14833,1.36237 2.09893,2.8731 3.09322,4.34928 0.91171,1.69196 2.0113,3.27637 2.87594,4.99167 0.8074,1.38331 1.60797,2.78742 2.25157,4.25634 0.57551,1.29139 1.50055,2.32842 2.36266,3.42363 1.09588,0.95233 1.71731,2.29203 2.65713,3.37897 0.99679,1.27835 1.79084,2.69866 2.86306,3.91687 1.05843,1.11956 1.8595,2.43001 2.85567,3.6015 0.97362,1.33753 2.12875,2.51908 3.17217,3.80222 0.88666,1.60234 2.42162,2.61433 3.5495,4.01202 1.22793,1.20313 2.4283,2.38568 3.60479,3.63956 0.94909,1.13744 1.87753,2.31854 2.96933,3.32466 0.98603,1.01879 1.92724,2.09955 2.99729,3.03359 0.92703,1.15983 1.80999,2.36225 2.68857,3.56273 1.0533,0.99417 1.65326,2.3359 2.58299,3.43156 0.85899,1.09546 1.7746,2.18024 2.81563,3.11025 1.00118,1.00936 1.94686,2.08958 3.02084,3.0245 1.01266,1.00429 1.95732,2.08982 3.03323,3.02883 1.34947,0.69292 2.36195,1.82413 3.53422,2.75439 1.19991,1.05233 2.28153,2.23591 3.49124,3.27531 1.13543,1.03273 2.04415,2.23021 2.88372,3.51143 0.9455,0.94895 2.0059,1.82994 3.08956,2.63033 1.09547,0.9468 2.06151,2.03356 3.1585,2.97693 1.24561,0.74927 2.37215,1.67362 3.52548,2.56129 1.10038,1.23733 2.58422,1.99621 3.8103,3.08798 1.09437,0.9547 2.2345,1.81215 3.47826,2.56805 1.10018,1.0067 2.47622,1.57879 3.61346,2.5409 1.16203,0.8826 2.27667,1.86698 3.26227,2.94799 1.02261,0.99899 2.08733,1.96767 3.03885,3.0377 0.95455,1.02363 2.03181,1.85128 3.22061,2.58749 1.18345,0.87386 2.18556,1.95021 3.31007,2.89063 0.89819,1.14009 2.07394,1.91942 3.18463,2.80918 1.21012,0.81847 2.3662,1.76317 3.37586,2.82417 1.04489,0.98274 2.11533,1.95605 3.0715,3.02907 1.13343,0.81113 2.2256,1.68927 3.36622,2.49844 1.11448,0.93659 2.08156,2.03102 3.18246,2.98024 1.01623,1.00389 1.95876,2.09367 3.03481,3.03566 1.09138,1.32309 2.19373,2.63857 3.24332,3.99681 1.2306,1.10804 2.42442,2.2231 3.45585,3.53264 0.93943,1.08753 1.98675,2.07426 2.92803,3.15908 0.94281,1.0279 2.01688,1.84902 3.20158,2.58124 1.18871,0.97728 2.4021,1.88338 3.28176,3.16242 0.92835,1.10207 2.11686,1.89161 2.9657,3.07042 0.83774,1.15406 1.8118,2.19025 2.71106,3.2933 0.96956,1.03295 2.02626,1.98331 2.96865,3.04197 1.03908,0.98663 2.01875,2.01698 3.10265,2.95968 1.47226,0.85758 2.61298,2.12467 3.9174,3.19253 0.6531,0.94078 1.76429,1.30972 2.57446,2.05786 0.39461,0.36439 0.73655,0.78274 1.12585,1.1528 1.2429,1.04049 2.45161,2.13565 3.73134,3.13422 1.11339,1.25521 2.40982,2.32113 3.55613,3.54126 1.08458,1.04039 1.98745,2.20321 3.04022,3.2781 0.8933,1.12453 1.72708,2.31546 2.75729,3.32092 0.95542,1.03691 1.89105,2.11587 2.95359,3.0475 1.01177,1.10749 2.16947,2.03982 2.99993,3.30082 0.7833,1.18729 1.74311,2.22655 2.63237,3.32967 0.96481,1.03556 2.02133,1.98346 2.96308,3.04063 1.01475,1.00176 2.08109,1.96149 3.03243,3.02644 1.0151,1.00227 2.0806,1.96399 3.03164,3.03004 1.00865,1.02031 1.86194,2.12727 2.86496,3.15762 0.79633,1.23221 2.08057,1.84383 2.61561,3.24607 0.34805,1.62343 -0.92057,2.09408 -1.83741,3.09297 -1.09342,0.95869 -2.25201,1.85571 -3.4078,2.74362 -5.54877,3.73732 -11.20138,6.55097 -17.05592,9.30171 -0.2524,0.0807 -0.51874,0.12647 -0.75719,0.24205 -2.01033,0.97443 0.83199,-0.1088 -1.28448,0.75121 -0.77059,0.31312 -1.49121,0.38849 -2.22773,0.79196 -1.50401,0.52868 -2.8083,1.31607 -4.38374,1.65724 -5.31179,2.1892 -13.33826,7.23763 8.7939,-5.41943 -8.42273,5.09996 -27.30808,15.64548 -1.88465,1.15146 0.21502,-0.12259 -0.40673,0.28335 -0.62165,0.40612 -4.51939,2.58165 -8.9836,5.26473 -13.58009,7.70646 -4.15664,2.20807 8.17329,-4.67012 12.25994,-7.00518 -4.50486,2.59343 -8.98565,5.22914 -13.51459,7.78028 -0.59955,0.33772 -0.91987,0.19774 -1.55568,0.43369 -0.23622,0.0877 -0.43454,0.25649 -0.66201,0.36485 -0.23284,0.11092 -0.93983,0.421 -0.71658,0.29186 4.07586,-2.35773 8.18693,-4.65406 12.2804,-6.98109 -1.44927,0.82851 -2.82864,1.76136 -4.21339,2.68981 -1.46542,0.88493 -2.80729,1.93674 -4.17675,2.95608 -5.02604,3.30949 -10.43217,5.99874 -15.56273,9.15072 -3.97325,2.44099 8.06975,-4.67567 12.1226,-6.9821 0.24502,-0.13944 -0.46439,0.31979 -0.69659,0.47969 -1.23681,0.90825 -2.48986,1.78023 -3.79338,2.59346 -1.11944,0.94214 -2.29103,1.78893 -3.46999,2.6497 -36.6463,20.99267 -0.87501,0.47059 -1.29722,0.73177 -4.42044,2.73447 -8.98016,5.23781 -13.50698,7.79233 -0.2282,0.12877 -0.51109,0.13249 -0.74516,0.25025 -0.21876,0.11005 -0.39912,0.28387 -0.59868,0.42581 -0.22421,0.11111 -0.44841,0.22222 -0.67262,0.33334 22.42076,-12.97766 13.54765,-8.14638 8.89823,-4.73098 -28.02769,16.20771 -8.78655,5.06647 -1.39736,0.84721 0.22951,-0.13106 -0.44173,0.29042 -0.66628,0.42981 -0.62553,0.3883 -1.20371,0.81199 -1.80582,1.23605 -1.05765,1.01649 -2.20225,1.89301 -3.36859,2.77319 -1.23521,0.75324 -2.20001,1.84831 -3.42808,2.60675 -4.66544,3.34154 -10.14132,5.83759 -14.86555,8.76634 -3.96474,2.45791 8.07161,-4.67897 12.12574,-6.98645 0.27404,-0.15598 -0.5984,0.41668 -1.34883,0.91181 -1.16826,1.00299 -2.39695,1.90316 -3.62753,2.82218 -1.23452,1.09516 -2.58006,2.02454 -3.92183,2.97498 -35.75646,20.45199 -1.79828,1.0108 -1.35023,0.75541 0.23533,-0.13415 -0.46715,0.27499 -0.69209,0.42593 -0.6984,0.46866 -1.37511,0.97491 -2.02615,1.50638 -1.15396,1.01216 -2.37194,1.92205 -3.65915,2.75917 -1.10719,0.95892 -2.28043,1.80429 -3.4603,2.66521 -1.24533,0.73752 -2.21108,1.83335 -3.43899,2.59096 -1.08669,0.92042 -2.11216,1.90016 -3.26884,2.748 -1.14478,1.03089 -2.36032,1.98417 -3.44642,3.07937 -1.06361,1.15999 -2.26401,2.14005 -3.55702,3.03185 -7.68514,5.23907 -27.6429,16.05986 -1.81113,1.29756 0.21553,-0.12317 -0.40574,0.28634 -0.61409,0.4213 -1.03291,0.66907 -0.17435,0.0306 -1.17185,0.81567 -1.1357,0.84533 -2.20041,1.80351 -3.17723,2.82974 -1.01878,0.99812 -2.06235,1.9772 -3.03097,3.02549 -1.00984,1.00943 -2.05732,1.98525 -3.02818,3.03328 -1.06945,0.97236 -1.96378,2.11957 -3.1721,2.92701 -1.10261,0.88052 -2.04106,1.9767 -2.94891,3.05677 -1.07008,0.99695 -1.73389,2.31664 -2.66496,3.43155 -1.06539,0.96279 -2.23637,1.79675 -3.27772,2.78529 -0.97207,1.06247 -2.27059,1.73579 -3.25118,2.7749 -1.06361,0.95879 -2.18353,1.86598 -3.30908,2.75501 -1.03625,1.01798 -1.69719,2.32128 -2.82538,3.25221 -1.06304,1.02186 -2.28845,1.81167 -3.49197,2.6461 -1.20572,0.75005 -2.32213,1.65849 -3.32753,2.66121 -1.03859,0.97441 -2.08161,1.95371 -3.04974,3.00003 -1.14649,1.09628 -2.26496,2.22434 -3.44128,3.29006 -1.38391,0.98959 -2.49316,2.29367 -3.74544,3.4417 -1.29556,1.10826 -2.6269,2.18076 -3.8464,3.37336 -1.10299,0.96568 -2.43538,1.59522 -3.38739,2.72549 -1.12865,1.16825 -2.11506,2.46123 -3.22969,3.6413 -1.01624,1.34397 -2.08135,2.5989 -3.25623,3.80268 -0.86165,1.24847 -2.13317,2.08889 -3.23516,3.09829 -1.19185,0.83733 -2.06045,1.95049 -2.95888,3.069 -1.21004,1.05192 -2.20888,2.31137 -3.20052,3.5635 -1.1408,1.23303 -2.08807,2.6263 -3.07305,3.98285 -1.00676,1.11416 -1.89018,2.30253 -2.7726,3.51185 -0.81182,1.19892 -1.73329,2.33515 -2.76044,3.35686 -0.98237,1.03652 -1.95825,2.08851 -3.0098,3.05669 -0.80357,1.19495 -1.91593,2.12418 -2.78168,3.26499 -0.96545,1.09791 -1.85295,2.18745 -2.4417,3.53133 -0.6772,1.32379 -1.40105,2.63001 -2.18466,3.89432 -0.9309,1.17858 -1.52993,2.50641 -2.18778,3.84228 -0.76578,1.59824 -1.31237,3.27012 -1.80408,4.96741 -0.45277,1.57403 -1.19379,3.03668 -1.73348,4.5762 -0.61731,1.50802 -1.07945,3.03728 -1.446568,4.62345 -0.369394,1.54631 -1.073682,2.96978 -1.58693,4.46431 -0.593858,1.47813 -1.009979,3.02251 -1.582614,4.5075 -0.507842,1.48177 -1.248319,2.84656 -1.644997,4.36548 -0.270031,1.64671 -0.655815,3.28406 -1.292175,4.8293 -0.609823,1.48802 -0.938268,3.06418 -1.428483,4.59444 -0.524723,1.71962 -0.615738,3.52106 -0.687387,5.305 -0.0557,2.00277 -0.04612,4.00662 -0.04355,6.00995 -0.237347,1.69623 0.66194,2.97909 1.238513,4.48329 0.545475,1.49923 0.974356,3.04437 1.517835,4.54313 0.49122,1.51173 1.241349,2.90547 1.709737,4.42487 0.524143,1.32975 1.203995,2.61019 1.968105,3.81843 0.769923,1.29582 1.360257,2.69063 2.105214,3.99855 0.71681,1.3251 1.29135,2.72716 2.02663,4.04157 0.70951,1.32751 1.28436,2.72807 2.01938,4.04133 0.64548,1.43665 1.45339,2.7872 2.1859,4.18059 0.94522,1.28461 1.54341,2.77678 2.52636,4.03329 0.96553,1.31053 1.76763,2.73525 2.84617,3.95853 0.93065,1.12471 1.89324,2.25547 2.98809,3.2265 0.87597,1.15163 2.05209,1.91886 3.15928,2.80103 1.2124,0.81458 2.36942,1.75839 3.37947,2.81861 1.08236,1.05165 2.1089,2.06481 3.50113,2.69572 1.39437,0.79021 2.80769,1.6215 4.31817,2.17492 1.34444,0.69579 2.65831,1.49652 4.08321,2.02038 1.39114,0.83756 2.90139,1.50676 4.45593,1.98078 1.55163,0.63692 3.01406,1.48114 4.59125,2.04898 1.50553,0.55185 2.93803,1.1164 4.54391,1.34694 1.5579,0.68265 3.20961,0.94571 4.8893,1.09155 1.93774,0.12544 3.88087,0.11872 5.82173,0.12083 2.02142,-0.002 4.04284,-0.007 6.06427,-0.009 1.63157,-0.26559 2.90481,-1.23632 4.50241,-1.63517 1.83541,-0.49109 3.64593,-0.97454 5.54622,-1.20222 1.5873,-0.30779 3.66177,-0.57751 5.12569,-1.25651 0.24716,-0.093 0.5028,-0.16594 0.74149,-0.2789 1.40278,-0.66388 0.0201,-0.19556 1.54088,-0.76956 0.88228,-0.333 1.73229,-0.466 2.58118,-0.8878 0.26379,-0.105 0.54385,-0.17591 0.79136,-0.31501 0.22839,-0.12836 0.40481,-0.33409 0.62262,-0.47969 0.93904,-0.62768 1.98358,-0.84551 3.07706,-1.03315 1.52305,-0.72381 3.19291,-1.00646 4.61896,-1.92978 0.46032,-0.38782 1.07509,-0.43256 1.58924,-0.69788 0.23887,-0.12327 0.89585,-0.59308 0.66219,-0.46021 -4.05287,2.30449 -8.0677,4.67551 -12.12249,6.97661 -0.25818,0.14651 0.47299,-0.36135 0.72935,-0.511 4.52731,-2.64294 9.07925,-5.24345 13.61888,-7.86518 -4.04052,2.32267 -8.07052,4.66371 -12.12154,6.968 -0.52708,0.29981 0.96209,-0.74352 1.48437,-1.05161 4.52146,-2.66716 9.1628,-5.13369 13.616,-7.91332 3.94686,-2.46358 -8.05581,4.65752 -12.09612,6.96463 -0.24681,0.14093 0.47627,-0.31026 0.7144,-0.4654 45.23705,-25.63518 -30.0857,17.08144 14.98493,-8.5627 4.08899,-2.32653 -8.14083,4.71801 -12.23145,7.04169 -0.21625,0.12284 0.38994,-0.31164 0.6047,-0.43708 4.49341,-2.62459 9.01108,-5.20743 13.51663,-7.81115 -4.08177,2.34764 -8.15547,4.70937 -12.2453,7.04293 -0.21525,0.12281 0.40508,-0.28697 0.62024,-0.40996 4.51861,-2.58285 8.98458,-5.2625 13.57964,-7.70675 4.15568,-2.21052 -16.27105,9.47006 -12.26093,7.0053 4.4282,-2.72174 8.99748,-5.20719 13.51578,-7.77657 4.09888,-2.33088 -8.17165,4.70734 -12.25748,7.06102 8.25551,-5.17955 27.34564,-15.74555 1.84954,-1.19772 -0.21495,0.12265 0.40937,-0.27837 0.61868,-0.4104 0.98784,-0.62307 0.22711,-0.0667 1.17529,-0.80852 26.85406,-15.62012 9.57651,-5.54637 1.24345,-0.7884 -0.21496,0.12274 0.40638,-0.28294 0.61464,-0.41673 0.63346,-0.40696 1.2189,-0.84866 1.83079,-1.28941 1.54457,-0.95774 2.93229,-2.13894 4.45983,-3.1193 1.28878,-0.81263 2.4213,-1.81899 3.58997,-2.78591 0.98938,-1.08938 2.12405,-1.97515 3.28498,-2.86317 1.17395,-0.79665 2.28294,-1.70636 3.28516,-2.71191 1.00936,-1.04761 2.13939,-1.92077 3.35307,-2.71946 1.26132,-0.74776 1.99511,-2.01324 3.06377,-2.9623 1.12536,-1.18183 2.60163,-1.90078 3.73806,-3.06454 4.6036,-4.98677 9.39919,-6.46447 16.26832,-10.4434 -29.99811,17.24852 -1.67827,0.98486 1.24952,-0.78436 4.03543,-2.43855 -8.15131,4.7417 -12.24967,7.07295 -0.21237,0.1208 0.38848,-0.29654 0.58702,-0.43894 0.91444,-0.65584 0.24161,-0.10102 1.1151,-0.8729 1.20869,-0.98745 2.3251,-2.07981 3.45143,-3.15999 1.08424,-1.25798 2.49887,-2.15444 3.84583,-3.10249 4.95613,-3.76023 10.60092,-6.21561 15.90686,-9.5966 3.93257,-2.50587 -8.07078,4.67348 -12.12004,6.98605 -0.23858,0.13626 0.45765,-0.30414 0.68647,-0.45621 1.24505,-0.77002 2.40284,-1.6929 3.44051,-2.72519 1.03639,-0.97284 2.0765,-1.95143 3.04193,-2.99661 1.00675,-1.15568 2.27988,-1.97879 3.44382,-2.95794 1.33089,-1.16462 2.80568,-2.14405 4.1924,-3.23593 1.30772,-1.19467 2.74388,-2.2077 4.16168,-3.25786 1.4289,-1.07994 2.75648,-2.28308 4.05341,-3.51712 1.30904,-1.2477 2.67279,-2.43113 4.11317,-3.52659 1.26701,-1.1241 2.63995,-2.09131 4.00023,-3.0902 7.96135,-5.3085 27.64829,-16.06565 2.129,-1.4852 -0.49795,0.28451 0.9568,-0.63377 1.45295,-0.92138 4.5399,-2.63166 9.08626,-5.25217 13.62938,-7.87826 -20.7543,14.92457 -13.67813,7.55601 -8.78231,4.68371 4.841,-3.47323 10.15892,-5.83682 15.29334,-9.126 3.77856,-2.42059 -15.41078,9.18621 -11.68519,6.68485 0.97716,-1.07566 2.21681,-1.84377 3.29238,-2.8081 0.99968,-1.03077 2.30235,-1.69455 3.28695,-2.72834 1.06679,-0.95515 2.1858,-1.86255 3.31115,-2.7517 1.07096,-0.94067 2.04506,-1.98228 3.09785,-2.94161 1.02875,-1.02313 2.01295,-2.09524 3.08532,-3.07369 1.24735,-0.70386 2.08357,-1.8726 3.05879,-2.88295 1.11311,-1.34593 2.34075,-2.57433 3.39255,-3.97196 1.0624,-1.34646 2.17532,-2.64517 3.14721,-4.06044 0.87077,-1.29974 1.94357,-2.43585 2.92953,-3.64219 0.92198,-1.38398 1.85442,-2.75703 2.79392,-4.12926 0.81997,-1.24616 1.76343,-2.42085 2.81957,-3.47497 0.9803,-1.05603 2.1286,-1.8768 3.1525,-2.89424 1.02137,-1.03559 1.81868,-2.22818 2.60766,-3.44377 0.92021,-1.33292 2.08106,-2.46595 3.01433,-3.78516 0.86298,-1.24799 1.87527,-2.37096 2.85201,-3.52664 1.09388,-1.08325 2.15183,-2.1853 3.05406,-3.4364 1.077,-1.12978 2.14182,-2.25195 3.10045,-3.49024 1.01317,-1.04389 1.6612,-2.35885 2.56004,-3.49368 1.03189,-1.20411 1.95743,-2.4899 2.92231,-3.74839 0.98553,-1.19603 1.84257,-2.47554 2.68761,-3.77349 0.90319,-1.14222 1.68352,-2.39186 2.32962,-3.69687 0.6465,-1.31862 1.59967,-2.4194 2.4937,-3.56626 0.78443,-1.30906 1.75151,-2.48823 2.64632,-3.72088 0.84643,-1.37485 1.95617,-2.55409 2.80034,-3.92728 0.75212,-1.25445 1.72697,-2.33616 2.63515,-3.47206 0.78429,-1.22638 1.61349,-2.43244 2.60065,-3.5052 0.9079,-1.15305 1.56157,-2.46685 2.69803,-3.42143 0.91667,-1.09133 2.10775,-1.91408 3.01846,-3.00493 1.14502,-1.15387 2.15486,-2.42996 3.28223,-3.59934 1.08491,-1.21666 2.21575,-2.38874 3.34317,-3.56637 1.16624,-0.97959 1.92223,-2.31872 2.88782,-3.47623 0.89671,-1.12659 1.85657,-2.21651 2.90181,-3.20887 0.90256,-1.1216 1.74088,-2.29881 2.61082,-3.4498 1.01426,-1.01367 1.86547,-2.13358 2.71731,-3.27881 0.90538,-1.39898 1.85859,-2.76928 2.65219,-4.23568 1.0049,-1.24371 1.92123,-2.57181 2.95597,-3.79711 0.87814,-1.28476 1.81399,-2.52813 2.71764,-3.79436 0.70585,-1.30312 1.68725,-2.41838 2.42351,-3.69956 0.71969,-1.25886 1.68469,-2.33079 2.58281,-3.45674 0.92475,-1.31827 1.73633,-2.71359 2.64646,-4.0413 0.73347,-1.37353 1.60381,-2.65303 2.47081,-3.94183 0.7964,-1.26867 1.4898,-2.59162 2.23635,-3.89007 0.93505,-1.31886 1.8769,-2.63651 2.75274,-3.99503 0.87291,-1.44599 1.70552,-2.92403 2.64546,-4.32834 0.81155,-1.38736 1.42125,-2.89563 2.0194,-4.38751 0.60977,-1.38304 1.36518,-2.7035 1.90459,-4.11542 0.62427,-1.45942 1.03399,-2.99674 1.60294,-4.4754 0.55969,-1.53049 0.86436,-3.12972 1.34252,-4.68756 0.30972,-1.63539 0.80388,-3.22014 1.2126,-4.83106 0.21055,-1.7041 0.65147,-3.3529 1.03371,-5.02226 0.18401,-1.71719 0.6255,-3.37431 1.00848,-5.05236 0.37398,-1.82335 0.42645,-3.68909 0.47109,-5.54345 -0.12605,-1.88253 0.21582,-3.70193 0.562,-5.53777 0.33241,-1.84129 0.39557,-3.71419 0.44226,-5.58005 0.0349,-2.0096 0.0287,-4.01963 0.0268,-6.02945 -0.003,-2.02207 -0.004,-4.04413 -0.005,-6.06619 -0.0617,-1.94663 0.11781,-3.90757 -0.0831,-5.84678 -0.64291,-1.7293 -1.24234,-3.44412 -1.58524,-5.26218 -0.56458,-1.60138 -0.79767,-3.28659 -1.22833,-4.91943 -0.56676,-1.671 -0.81318,-3.41807 -1.24368,-5.12443 -0.27467,-1.73593 -0.76989,-3.34059 -1.59379,-4.88492 -0.53093,-1.43886 -1.1832,-2.78069 -1.98566,-4.08327 -0.68167,-1.47334 -1.38249,-2.94358 -1.83576,-4.50738 -0.4931,-1.41229 -1.27405,-2.6877 -1.94656,-4.02062 -0.73387,-1.50797 -1.55763,-2.97148 -2.37017,-4.44011 -1.08503,-0.98746 -1.92099,-2.21897 -2.93716,-3.28209 -1.27941,-1.1618 -2.07992,-2.56488 -2.91003,-4.05045 -0.6042,-1.36326 -1.67442,-2.41241 -2.42042,-3.68696 -0.72731,-1.21129 -1.68534,-2.23468 -2.56778,-3.32616 -0.91331,-1.04841 -1.98184,-1.86128 -3.1612,-2.58971 -1.05045,-1.02704 -2.29119,-1.77818 -3.44411,-2.66266 -0.92286,-1.15684 -2.22311,-1.87617 -3.28633,-2.88288 -1.22522,-0.73542 -2.34236,-1.61903 -3.51467,-2.43643 -1.33236,-0.58285 -2.32691,-1.67896 -3.63093,-2.30517 -1.29678,-0.75386 -2.36893,-1.7864 -3.54021,-2.70544 -1.25721,-0.73034 -2.46726,-1.59582 -3.51054,-2.61451 -1.08749,-0.92984 -2.4181,-1.47584 -3.60001,-2.25323 -1.24129,-0.77972 -2.44726,-1.59891 -3.72336,-2.33151 -1.08146,-1.00773 -2.32543,-1.77453 -3.48541,-2.66919 -1.34222,-0.61461 -2.51286,-1.48021 -3.73563,-2.2945 -1.04565,-0.94537 -2.23476,-1.82102 -3.54375,-2.3653 -1.56976,-0.70299 -3.13683,-1.46183 -4.77177,-2.01154 -1.36333,-0.7847 -2.77509,-1.51592 -4.05978,-2.42204 -1.20306,-0.81837 -2.38686,-1.64438 -3.64861,-2.38015 -1.49739,-0.39502 -2.77661,-1.1732 -4.09487,-1.95071 -1.32274,-0.66819 -2.59935,-1.4134 -3.91414,-2.10625 0,0 12.58617,-8.21741 12.58617,-8.21741 l 0,0 c 1.30659,0.73522 2.64283,1.41394 3.94687,2.15422 1.3124,0.79117 2.74442,1.27384 4.10489,1.96537 1.23658,0.79148 2.45835,1.5953 3.67292,2.418 1.26631,0.75494 2.4863,1.60087 3.85982,2.15475 1.63827,0.66997 3.27734,1.34824 4.86767,2.125 1.30271,0.72315 2.53343,1.57818 3.66658,2.5462 1.21082,0.8542 2.51559,1.53318 3.76001,2.33169 1.17709,0.80647 2.25217,1.72508 3.41069,2.55655 1.24458,0.77926 2.48299,1.56299 3.72823,2.33872 1.31935,0.73013 2.62618,1.50592 3.76325,2.50534 1.08509,0.93808 2.27589,1.73105 3.46097,2.53581 1.07281,0.90759 2.16229,1.79231 3.39321,2.48297 1.26425,0.78531 2.42604,1.72855 3.73094,2.4548 1.18156,0.88662 2.44833,1.6481 3.60029,2.57044 1.07507,0.90919 2.23448,1.71986 3.20193,2.75074 1.187,0.80969 2.27426,1.72556 3.40772,2.60733 1.24418,0.87297 2.43081,1.78269 3.39875,2.96925 0.95269,1.13551 1.90868,2.2627 2.68479,3.53161 0.75377,1.27685 1.85082,2.33615 2.43317,3.72194 0.76502,1.38604 1.52253,2.66395 2.71984,3.74687 1.0605,1.18398 2.10779,2.38239 3.12736,3.59122 0.81385,1.48364 1.63087,2.96507 2.38401,4.47887 0.74447,1.41128 1.55553,2.78887 2.10128,4.29207 0.37286,1.44367 1.04382,2.76956 1.63886,4.12854 0.82031,1.32905 1.5131,2.6925 2.02699,4.17056 0.87431,1.6512 1.48333,3.34733 1.74101,5.21049 0.44184,1.69218 0.71756,3.41206 1.24629,5.08052 0.49893,1.66613 0.63524,3.43219 1.28274,5.06584 0.29574,1.85083 0.89083,3.58369 1.62019,5.30823 0.32253,1.99142 0.0912,4.02315 0.15972,6.03457 6.2e-4,2.02177 0.002,4.04353 0.005,6.06529 0.003,2.01861 0.009,4.03728 -0.01,6.05583 -0.0282,1.92821 -0.0609,3.86246 -0.32346,5.77606 -0.28485,1.78549 -0.86251,3.50897 -0.68174,5.34031 -0.0256,1.92822 -0.0515,3.86407 -0.33152,5.77579 -0.30056,1.7047 -0.93997,3.31112 -1.00832,5.05265 -0.29992,1.7032 -0.93816,3.30678 -1.02107,5.04483 -0.31426,1.66971 -0.98595,3.21433 -1.17075,4.90751 -0.41545,1.61684 -0.97668,3.1664 -1.27588,4.81474 -0.18252,0.46798 -0.44346,0.90485 -0.60186,1.38154 -0.33345,1.00352 -0.39933,2.10877 -1.04983,2.99982 -0.38391,1.56124 -1.1681,2.87388 -1.79529,4.33634 -0.86589,1.39307 -1.25299,3.06126 -1.96794,4.5357 -0.86582,1.42729 -1.78304,2.82358 -2.68716,4.22922 -0.68966,1.5169 -1.79079,2.75467 -2.65299,4.17541 -1.03296,1.09131 -1.38092,2.55533 -2.32144,3.71165 -0.65342,1.46173 -1.86219,2.53949 -2.43832,4.04749 -0.8316,1.36335 -1.71047,2.71139 -2.64314,4.006 -0.65112,1.34841 -1.83406,2.21659 -2.55624,3.5145 -0.90902,1.13199 -1.47284,2.51777 -2.47484,3.59774 -0.68328,1.48045 -1.92469,2.54001 -2.63912,4.00721 -2.25315,3.02153 1.17962,-1.50525 -1.09395,1.25041 -0.65967,0.79956 -0.92782,1.8831 -1.92152,2.39235 -0.97972,1.34296 -1.61406,2.92743 -2.62902,4.25919 -0.74439,1.2807 -1.60717,2.437 -2.61641,3.50816 -1.08179,0.93556 -1.90495,2.20769 -2.61759,3.43352 -0.88,1.12111 -2.00936,2.02435 -2.95836,3.08446 -0.87478,1.28517 -1.93734,2.43529 -2.79392,3.73827 -1.26889,1.00779 -2.23133,2.29954 -3.40569,3.39809 -0.99371,1.28738 -2.21479,2.3905 -3.25189,3.64259 -1.27745,1.24917 0.28192,-0.35244 -0.91315,1.14922 -0.61113,0.76792 -1.70743,0.95918 -2.05247,1.98359 -1.43608,1.38719 0.40229,-0.29979 -1.12475,0.83361 -0.75814,0.56271 -1.18694,1.60137 -1.65972,2.3813 -0.84662,1.14815 -1.92556,2.09753 -2.6835,3.32112 -0.66,1.36584 -1.86079,2.24663 -2.60226,3.55739 -1.00625,1.23723 -1.6942,2.72013 -2.8446,3.86405 -0.74106,1.34036 -1.73889,2.46986 -2.63914,3.68953 -0.64645,1.3464 -1.8314,2.22411 -2.50034,3.55182 -0.86841,1.21118 -1.3372,2.6873 -2.24641,3.88664 -1.10043,1.1078 -1.57101,2.6452 -2.73819,3.69716 -0.85568,1.31595 -1.77937,2.65854 -2.89841,3.75856 -0.8174,1.2314 -1.81498,2.32331 -2.49508,3.65214 -1.15161,1.05513 -1.7891,2.57701 -3.15244,3.40949 -0.7257,0.80446 -1.1966,1.79938 -1.9656,2.57203 -0.1635,0.16426 -0.38485,0.26341 -0.54771,0.42831 -0.1744,0.1766 -0.30422,0.39225 -0.45633,0.58837 -1.1496,0.92846 -2.07153,2.17353 -2.93794,3.35794 -1.17882,1.33912 0.13038,-0.2275 -0.96051,1.35845 -0.6047,0.87913 -1.59475,1.41652 -2.03643,2.4307 -1.04235,1.04493 -1.45968,2.51468 -2.59736,3.46715 -0.84684,1.2296 -1.8407,2.20221 -3.1355,2.9356 -0.89638,1.15532 -2.04663,2.0847 -2.92504,3.26333 -0.84393,1.44196 -1.82246,2.77604 -2.78526,4.13018 -0.72992,1.45547 -2.03784,2.39923 -2.89273,3.77367 -1.12528,1.29489 -1.96093,2.84807 -3.13284,4.10946 -1.33013,1.46155 0.1238,-0.21115 -1.11603,1.47179 -0.5213,0.7076 -1.15284,1.23939 -1.75275,1.85829 -0.18638,0.19228 -0.3294,0.42229 -0.4941,0.63343 -0.85045,1.18076 -1.92112,2.21336 -2.89754,3.28254 -1.34196,0.61816 -2.08812,1.84383 -3.21503,2.7478 -0.88522,1.12283 -2.02304,2.05167 -3.06716,3.01526 -0.92401,1.08553 -2.13487,1.96621 -3.31381,2.74521 -1.56732,1.4335 0.55843,-0.58132 -0.96351,1.11488 -0.65904,0.7345 -1.78612,0.8113 -2.26417,1.76093 -1.17251,0.81411 -2.16094,1.86357 -3.35612,2.64968 -3.49105,4.86935 -0.0339,0.22871 -13.90016,8.51215 -4.03932,2.413 8.11638,-4.76228 12.18519,-7.12521 1.11204,-0.64582 -2.75762,2.05101 -1.8014,1.30219 -1.24572,1.01105 0.0706,0.0281 -1.32099,0.81442 -1.07275,0.60614 -0.26065,0.27208 -1.26576,1.03799 -4.39361,3.34802 -15.80134,-3.66076 -14.28953,8.39205 4.01055,-2.3292 8.01102,-4.67586 12.03166,-6.98761 0.49347,-0.28373 -0.96591,0.60283 -1.4574,0.88997 -4.51193,2.63593 -9.03271,5.25698 -13.52514,7.926 -3.75771,2.23251 16.92176,-10.1792 11.34007,-6.58355 -1.25541,1.16433 -2.75872,1.93017 -4.02167,3.08971 -1.32326,1.21327 -2.93602,2.11934 -4.10821,3.50123 -1.41933,1.10345 -2.55743,2.52851 -4.04077,3.54583 -1.3134,1.2046 -2.87627,2.01792 -4.18581,3.23115 -1.30341,1.23397 -2.86107,2.07002 -4.13691,3.32944 -0.67059,0.44044 -1.16791,1.06584 -1.83009,1.49639 -0.62442,0.406 -1.29607,0.55512 -1.65326,1.30835 -1.12508,0.87621 -2.02305,2.03111 -3.02717,3.03452 -1.18894,0.90725 -2.13172,2.09943 -3.36083,2.97129 -5.04249,2.80094 -5.08977,2.81999 -14.23986,8.32512 -3.97878,2.39383 8.00885,-4.70146 12.0278,-7.02722 0.26504,-0.15338 -0.52143,0.32313 -0.76462,0.50922 -1.57825,1.20759 0.14169,0.11497 -1.56689,1.13453 -1.277,1.01199 -2.65664,1.84279 -3.93599,2.83032 -0.99984,1.24918 -2.25272,2.22401 -3.34525,3.37424 -1.99058,1.42634 0.8685,-0.68449 -1.07781,0.9702 -4.13927,3.51907 -9.58318,5.1786 -14.01344,8.32346 -0.0479,0.034 34.7724,-20.19391 -1.2773,0.74647 27.14049,-15.85825 12.08641,-8.30009 9.32848,-4.70879 -2.06428,1.92783 0.97564,-0.97324 -1.11106,1.2428 -0.73425,0.77976 -1.81395,1.10892 -2.61437,1.81508 -1.41358,1.52268 0.42642,-0.36856 -1.07601,0.90255 -0.76107,0.64389 -0.9099,1.80024 -1.94054,2.17681 -1.03112,1.04736 -2.47535,1.49882 -3.36888,2.67961 -1.14976,0.873 -2.06579,2.01704 -3.21197,2.90059 -1.26191,0.71488 -2.37391,1.56223 -3.39974,2.57699 -0.97672,1.18533 -2.25925,2.15815 -3.51902,3.0203 -1.47192,1.19831 0.14867,-0.0457 -1.48161,0.9742 -1.03948,0.65029 -1.77657,1.70806 -2.97658,2.12583 -0.59679,0.45846 -1.17542,0.96756 -1.7696,1.41277 -7.14204,5.35145 -28.21579,15.68008 -1.89733,1.09977 -2.6357,1.73187 1.48882,-1.0349 -1.1328,0.92259 -4.35754,3.25366 -9.41651,5.44329 -14.10399,8.20046 -4.05558,2.38548 8.12542,-4.74667 12.19579,-7.10682 0.20772,-0.12044 -0.40486,0.25825 -0.60729,0.38738 -4.47384,2.63793 -9.17779,4.91967 -13.42151,7.91378 -3.84269,2.71117 16.37099,-9.26091 12.21398,-7.06182 -4.59436,2.43044 -8.92434,5.34141 -13.52687,7.75635 -4.16224,2.18392 8.14014,-4.70247 12.20497,-7.06275 0.21093,-0.12248 -0.42868,0.23279 -0.64303,0.34919 -4.48895,2.61691 -8.9779,5.23382 -13.46686,7.85073 32.13788,-18.72056 -1.45349,0.92088 -1.87723,1.21463 -3.85152,2.67003 16.30402,-9.24774 12.17181,-7.03683 -2.25707,1.20762 -31.82428,18.36124 -1.45181,0.76407 -5.16271,2.86087 -3.38307,1.86726 -14.2953,8.33561 -3.98868,2.36434 8.00163,-4.68751 12.01378,-7.01179 0.26238,-0.15201 -0.52139,0.31201 -0.76361,0.49443 -0.24423,0.18392 -0.42954,0.44524 -0.69211,0.60185 -4.49092,2.67873 -9.0368,5.26422 -13.5552,7.89633 4.01568,-2.33787 8.02609,-4.68483 12.04705,-7.01361 0.25302,-0.14654 -0.4911,0.31778 -0.74277,0.46663 -4.5048,2.66425 -9.00244,5.34082 -13.52635,7.97249 -0.72387,0.4211 -1.57477,0.64246 -2.28168,1.10352 -1.58766,0.61561 -3.19152,1.20855 -4.83044,1.66894 -1.52924,0.5216 -2.8313,1.46552 -4.36414,1.98355 -1.68696,0.52696 -3.25372,1.31297 -4.92838,1.86976 -1.74772,0.37442 -3.46643,0.8851 -5.25483,1.03726 -1.84164,0.34158 -3.62985,0.88541 -5.42472,1.41318 -1.55027,0.62232 -3.02095,1.36476 -4.75485,1.24245 -2.02325,0.003 -4.04652,0.01 -6.06977,0.003 -1.97845,-0.014 -3.96249,-0.0225 -5.93083,-0.24649 -1.69437,-0.24051 -3.31637,-0.69925 -4.95624,-1.17359 -1.63256,-0.37123 -3.15126,-1.02206 -4.72208,-1.58876 -1.50537,-0.67216 -2.98593,-1.39988 -4.52709,-1.99121 -1.55652,-0.58448 -3.06779,-1.27279 -4.53563,-2.0532 -1.37292,-0.64484 -2.71199,-1.36057 -4.078,-2.02005 -1.49203,-0.69587 -2.95541,-1.46165 -4.37846,-2.28903 -1.42161,-0.83077 -2.61161,-1.90647 -3.76917,-3.07007 -1.01592,-0.96867 -2.10949,-1.85561 -3.27059,-2.64528 -1.18789,-0.86321 -2.25793,-1.83524 -3.23981,-2.93081 -1.08468,-1.06655 -2.126494,-2.18573 -3.066889,-3.38159 -1.048148,-1.2841 -1.919956,-2.69194 -2.897397,-4.0288 -0.983779,-1.35299 -1.675067,-2.87407 -2.629408,-4.24715 -0.73499,-1.37971 -1.561026,-2.7085 -2.188073,-4.14253 -0.729658,-1.31687 -1.320911,-2.70807 -2.019523,-4.04159 -0.728203,-1.31478 -1.317388,-2.70421 -2.021483,-4.03214 -0.727986,-1.29396 -1.324047,-2.66068 -2.074731,-3.94334 -0.820324,-1.3349 -1.577942,-2.72113 -2.156361,-4.17886 -0.417367,-1.49974 -1.197735,-2.84131 -1.660797,-4.32621 -0.574365,-1.48554 -0.959055,-3.05408 -1.518949,-4.54565 -0.599726,-1.65295 -1.697229,-3.115 -1.457221,-4.97225 -0.0038,-2.01729 -0.01353,-4.03476 0.01641,-6.05191 0.04375,-1.88445 0.09131,-3.78357 0.497292,-5.63215 0.42142,-1.59973 0.999837,-3.13082 1.34689,-4.75202 0.639761,-1.46496 1.279104,-2.95855 1.428335,-4.57204 0.298816,-1.80104 0.830928,-2.95005 1.529437,-4.58199 0.183184,-0.4675 0.44488,-0.90373 0.603774,-1.38004 0.334582,-1.00295 0.402749,-2.10812 1.043501,-3.00372 0.36977,-1.57742 1.148293,-2.93498 1.573498,-4.48922 0.591538,-1.49527 0.514537,-3.22379 1.457629,-4.60626 0.392483,-1.64099 1.214111,-3.05395 1.706128,-4.65864 0.703796,-1.63774 0.922957,-3.47593 1.724749,-5.08965 0.200341,-0.45292 0.483343,-0.86664 0.678192,-1.32195 0.405329,-0.94716 0.554353,-1.97537 1.45226,-2.63938 0.704485,-1.3034 1.525391,-2.52536 2.217605,-3.82526 0.417698,-0.69608 0.552614,-1.44628 0.954446,-2.14803 0.622638,-1.08736 0.185731,-0.16998 0.934907,-1.07194 0.16033,-0.19303 0.270027,-0.42302 0.40504,-0.63453 1.131605,-1.15674 -0.148134,0.23249 0.878805,-1.17031 0.581686,-0.79459 1.638954,-1.06941 1.882094,-2.14335 0.88323,-1.11651 2.01696,-2.02657 3.02413,-3.02265 0.86774,-1.12463 1.98095,-2.03038 2.84957,-3.15917 0.77624,-1.33755 1.68678,-2.54333 2.70664,-3.69552 1.20474,-1.19451 1.97745,-2.72094 3.05068,-4.03168 1.18422,-1.10915 1.97251,-2.54206 3.13755,-3.678 0.75664,-0.4883 0.92085,-0.86815 1.39958,-1.60384 0.56938,-0.87498 0.31769,-0.32036 1.03681,-0.99293 0.18176,-0.17001 0.32357,-0.37824 0.48536,-0.56736 1.19781,-0.82869 2.2327,-1.88917 3.3783,-2.78254 0.50953,-0.79572 0.99806,-1.15121 1.67807,-1.76732 0.69116,-0.6262 0.48765,-0.64443 1.02156,-1.42258 0.16059,-0.23406 0.35562,-0.44254 0.53343,-0.66381 0.98551,-1.29197 2.19396,-2.40357 3.2013,-3.67995 1.35258,-1.39863 -0.39684,0.48651 0.89824,-1.18634 0.5932,-0.76623 1.61875,-1.23247 2.42809,-1.71133 1.36227,-1.04624 2.50381,-2.36798 3.85573,-3.43703 1.41092,-0.99111 2.52092,-2.27566 3.6951,-3.5063 1.36471,-0.76351 2.39695,-2.02705 3.49054,-3.11689 1.12702,-0.87771 2.02771,-2.03334 3.0347,-3.03735 1.15366,-0.87711 2.06985,-2.02731 3.2379,-2.8952 1.28106,-0.69395 2.44578,-1.50839 3.58828,-2.39547 1.39834,-1.35586 -0.36685,0.26619 1.12663,-0.83733 0.76606,-0.56603 1.19978,-1.59542 1.72164,-2.35865 0.92413,-1.08513 2.13505,-1.96492 3.31353,-2.74421 1.53958,-1.41114 -0.52959,0.55639 0.96083,-1.11577 0.6551,-0.73498 1.77952,-0.81807 2.24308,-1.77608 1.16106,-0.84184 2.11725,-1.93558 3.28049,-2.77832 1.3372,-0.73576 1.84925,-2.12286 2.71348,-3.31184 1.10809,-0.92033 1.95342,-2.14509 2.87508,-3.24107 1.22614,-1.06628 -0.14391,0.0339 1.20196,-0.78026 0.8045,-0.48666 1.35651,-1.37855 2.02026,-2.02028 1.12621,-0.87347 2.03164,-2.02344 3.02888,-3.03154 1.12577,-0.87534 2.02866,-2.02811 3.02614,-3.03727 1.13684,-0.88163 2.03512,-2.0403 3.11474,-2.98895 2.5796,-1.68456 -1.42828,0.98946 1.13373,-0.91898 4.36129,-3.24872 9.41412,-5.44817 14.08202,-8.23847 4.03775,-2.41363 -8.10976,4.76953 -12.17626,7.1344 -0.20925,0.12169 0.40222,-0.26943 0.60333,-0.40415 1.1102,-1.1235 2.66107,-1.66906 3.59712,-2.97453 1.17491,-0.99201 2.16703,-2.19612 3.42106,-3.08995 0.99318,-1.07915 2.41977,-1.62676 3.21246,-2.89139 1.07495,-0.91542 2.46907,-1.53222 3.40746,-2.67455 1.2762,-0.71511 2.41512,-1.56723 3.52347,-2.50625 1.1084,-1.11004 2.63469,-1.60731 3.65333,-2.81704 0.90962,-0.63646 1.69605,-1.51209 2.65012,-2.07385 0.44424,-0.26157 33.47724,-19.28796 1.36575,-0.72571 1.42901,-0.8076 2.72541,-1.76538 4.00156,-2.78691 1.13277,-1.07793 2.48258,-1.77772 3.61485,-2.85163 0.76961,-0.74833 0.39021,-0.46809 1.31562,-1.01345 4.50396,-2.65426 9.12202,-5.12322 13.51558,-7.95647 3.91537,-2.52488 -8.04155,4.70701 -12.07968,7.03051 -0.44278,0.25477 1.59405,-1.09315 1.29684,-0.81659 1.0862,-0.92421 2.4653,-1.52545 3.40225,-2.675 1.26909,-0.71993 2.39024,-1.57802 3.45132,-2.56641 0.68455,-0.75992 1.51548,-1.37512 2.39636,-1.8863 3.40496,-1.97591 30.6895,-17.88076 1.41514,-0.81814 5.5591,-3.49623 9.99152,-8.19942 16.79592,-10.17093 1.58548,-0.89662 -0.3092,0.14625 1.33851,-0.66986 0.2249,-0.11139 0.87572,-0.49079 0.65866,-0.3648 -4.06775,2.36104 -16.33483,9.3314 -12.21084,7.07002 2.56676,-1.40747 31.59285,-18.28466 1.31002,-0.69687 1.27643,-0.71671 2.41466,-1.57211 3.52613,-2.50865 1.12666,-1.11429 2.65488,-1.59389 3.75435,-2.74032 8.48926,-5.10581 27.30588,-15.82199 2.16584,-1.36373 -1.66535,0.95775 3.69809,-2.1152 1.94449,-1.33248 1.575,-0.72107 2.664,-2.1135 4.23219,-2.86077 1.35544,-0.98247 2.7165,-1.91419 4.15256,-2.77181 4.51333,-2.5806 9.01312,-5.18502 13.53999,-7.7418 0.68092,-0.38459 1.47281,-0.51575 2.17624,-0.85659 0.22622,-0.10962 0.87878,-0.4885 0.66134,-0.36238 -4.06773,2.35935 -8.14158,4.70812 -12.21237,7.06218 22.56948,-12.94642 13.53499,-7.78623 1.32145,-0.69772 -0.21089,0.1224 0.43113,-0.22816 0.64206,-0.35047 4.49469,-2.60643 8.99257,-5.20747 13.47458,-7.83564 3.84805,-2.25642 -17.0255,10.07175 -11.5832,6.70222 5.35401,-3.10993 10.93145,-7.30296 17.09729,-9.23779 1.44677,-0.55358 2.82561,-1.26571 4.28373,-1.79664 1.47677,-0.46668 2.81026,-1.22404 4.22192,-1.84868 5.07395,-2.57244 14.41798,-5.51742 -8.71867,5.47174 1.35777,-0.5747 2.22946,-1.74565 3.5296,-2.40705 0.46534,-0.39615 0.78541,-1.14163 1.339,-1.40052 0.27733,-0.12971 0.62544,-0.031 0.90527,-0.15525 0.0757,-0.0336 0.1242,-0.10954 0.1863,-0.1643 0.28298,-0.19721 -1.90468,-2.00982 -2.12512,-2.50121 -1.03608,-1.02458 -1.84005,-2.20338 -2.89393,-3.20532 -0.98646,-1.03293 -2.02164,-2.0189 -3.03106,-3.02909 -0.9878,-1.03259 -2.025,-2.01736 -3.03397,-3.02899 -0.99418,-1.04509 -2.03769,-2.04198 -3.0058,-3.11234 -0.94058,-1.12327 -1.88307,-2.23926 -2.70478,-3.4551 -0.78183,-1.13644 -1.90471,-1.97536 -2.82101,-2.99945 -1.03489,-1.00234 -2.0344,-2.04434 -2.99617,-3.11641 -0.975,-1.05108 -1.84931,-2.18643 -2.74551,-3.30424 -1.07882,-1.06234 -1.92402,-2.28908 -3.04266,-3.30821 -1.13386,-1.14861 -2.32419,-2.24101 -3.46298,-3.38438 -1.27161,-1.07663 -2.57009,-2.12401 -3.80473,-3.24168 -1.1467,-1.13354 -2.48235,-2.00118 -3.62902,-3.13693 -1.27505,-1.116 -2.53294,-2.24327 -3.93811,-3.20038 -1.12409,-0.97501 -2.13678,-2.06183 -3.20382,-3.09734 -0.99265,-1.04422 -2.03411,-2.04078 -3.00624,-3.10499 -0.93949,-1.10526 -1.8858,-2.2006 -2.75277,-3.36475 -0.88177,-1.13895 -2.16899,-1.89737 -2.98383,-3.10195 -0.79641,-1.08939 -1.93645,-1.85894 -2.98808,-2.68589 -1.23495,-0.86467 -2.41523,-1.76573 -3.40922,-2.91056 -0.98852,-1.07601 -2.01323,-2.11741 -2.96186,-3.22994 -1.05525,-1.28927 -2.29629,-2.35927 -3.4407,-3.55962 -1.02226,-1.28002 -2.05061,-2.55933 -3.14777,-3.77327 -1.02695,-0.98988 -2.01489,-2.0195 -3.02746,-3.02389 -1.02244,-0.96526 -2.01054,-1.96747 -3.10324,-2.85589 -1.17719,-0.90699 -2.4424,-1.7121 -3.51731,-2.73987 -0.97998,-1.02629 -2.00757,-2.00853 -3.04153,-2.97973 -1.01585,-0.97028 -2.10891,-1.85959 -3.26848,-2.65331 -1.17763,-0.86036 -2.23467,-1.82978 -3.23687,-2.89117 -1.03553,-0.94373 -2.05344,-1.90911 -3.20033,-2.72078 -1.23317,-0.86424 -2.41166,-1.76571 -3.41651,-2.89729 -0.98206,-1.03213 -2.01107,-2.01985 -3.02703,-3.01812 -0.98071,-0.99227 -2.02,-1.93586 -3.14591,-2.76132 -1.16197,-0.83403 -2.43292,-1.50508 -3.53569,-2.42277 -1.24802,-0.84824 -2.45367,-1.72982 -3.57898,-2.73726 -1.25415,-1.00506 -2.6151,-1.87707 -3.75779,-3.01714 -1.20483,-0.88736 -2.39059,-1.79882 -3.60952,-2.66721 -1.0271,-0.96817 -2.02208,-1.96996 -3.09955,-2.88385 -1.16636,-0.95052 -2.41623,-1.85183 -3.34184,-3.04874 -0.78098,-1.16882 -1.62315,-2.25519 -2.6845,-3.18718 -1.14684,-1.07678 -2.2615,-2.18685 -3.44382,-3.22583 -1.16283,-0.98867 -2.33309,-1.94948 -3.5945,-2.81397 -1.02975,-0.98977 -2.02271,-2.01746 -3.03235,-3.02742 -1.03348,-0.99145 -2.03269,-2.01913 -3.03279,-3.04372 -1.03845,-1.02949 -2.03723,-2.11038 -2.91733,-3.27872 -0.8999,-1.14642 -1.59021,-2.44389 -2.61694,-3.4898 -0.83642,-1.11415 -1.62667,-2.27366 -2.5425,-3.31888 -1.03363,-0.99546 -2.03224,-2.02852 -3.01852,-3.0703 -1.05906,-1.08053 -2.04804,-2.22974 -2.99994,-3.40492 -1.16399,-1.29633 -2.47648,-2.41277 -3.63733,-3.71179 -1.15542,-1.36308 -2.65424,-2.42389 -3.55231,-4.00913 -1.05821,-1.26039 -2.18223,-2.46506 -3.16884,-3.7837 -0.98937,-1.17459 -1.80955,-2.47305 -2.85713,-3.60197 -1.02815,-1.25963 -1.87846,-2.64444 -2.88291,-3.92234 -0.90211,-1.12835 -1.61053,-2.40527 -2.67112,-3.40232 -0.96193,-1.18795 -1.90715,-2.37861 -2.55567,-3.77665 -0.60996,-1.45326 -1.42512,-2.82042 -2.19358,-4.1935 -0.81378,-1.66436 -1.88298,-3.1916 -2.77574,-4.81452 -1.01592,-1.48222 -1.96435,-3.01091 -3.11114,-4.39778 -0.87037,-1.35765 -1.8273,-2.66081 -2.63269,-4.05482 -0.72825,-1.29654 -1.32167,-2.66793 -2.09052,-3.94341 -0.89726,-1.40946 -1.74418,-2.85367 -2.52469,-4.33183 -0.71925,-1.65519 -1.801147,-3.11453 -2.478821,-4.78946 -0.666615,-1.38268 -1.316825,-2.76757 -2.00713,-4.13753 -0.778498,-1.44329 -1.394911,-2.97182 -2.043826,-4.47619 -0.702644,-1.55645 -1.213707,-3.19662 -1.937147,-4.74711 -0.682273,-1.55889 -1.079331,-3.22703 -1.402539,-4.89266 -0.515647,-1.76444 -1.079087,-3.50307 -1.529839,-5.28578 -0.531079,-1.56697 -0.977022,-3.17388 -1.460812,-4.75173 -0.435359,-1.53247 -0.913677,-3.04533 -1.357407,-4.57188 -0.66974,-1.52157 -1.257854,-3.10241 -1.501902,-4.75428 -0.33531,-1.59751 -0.944695,-3.11187 -1.220892,-4.72228 -0.495118,-1.48417 -1.087906,-2.93534 -1.653616,-4.39139 -0.74,-1.65657 -1.192215,-3.42702 -1.630579,-5.1825 -0.524678,-1.57905 -0.994469,-3.17602 -1.721043,-4.67834 -0.428423,-1.56618 -0.890611,-3.10991 -1.273911,-4.68574 -0.56937,-1.45262 -0.957355,-2.96503 -1.718704,-4.33697 -0.780871,-1.89308 -0.49411,-3.90144 -0.525563,-5.91213 10e-7,-2.02021 3.6e-5,-4.04043 -4.43e-4,-6.06064 -6.31e-4,-2.02013 -0.0017,-4.04026 -0.0046,-6.06039 -0.0026,-2.02552 -0.0092,-4.05111 0.0098,-6.07658 0.03013,-2.05584 0.07468,-4.11607 0.335872,-6.1582 0.277535,-1.9674 0.795877,-3.89745 0.741357,-5.89667 0.114794,-1.7538 0.262384,-3.53454 0.9767,-5.16445 0.364187,-0.75908 0.456446,-1.51646 0.725121,-2.30997 0.08336,-0.24619 0.189637,-0.48401 0.284455,-0.72602 0.107464,-0.21803 0.244262,-0.42391 0.322392,-0.65409 0.09322,-0.27462 0.125315,-0.56631 0.187973,-0.84947 0.466551,-1.4831 1.156177,-2.91601 1.877591,-4.28165 1.028312,-1.09211 1.373146,-2.5654 2.360494,-3.68349 0.683465,-1.35968 1.879058,-2.18221 2.84264,-3.32217 1.153423,-0.87818 2.068307,-2.03013 3.236571,-2.89872 5.118646,-2.77138 2.350301,-1.26312 14.083388,-8.22806 4.04774,-2.40279 -8.117411,4.76851 -12.186282,7.13535 -0.205148,0.11933 0.411307,-0.24101 0.594172,-0.39229 1.197386,-0.9906 -0.180877,-0.13161 1.14637,-0.88641 1.251498,-1.10439 -0.177352,0.0656 1.190117,-0.78698 0.793833,-0.4949 1.330276,-1.40789 1.952191,-2.07895 0.435431,-0.38139 1.688326,-2.0336 1.939815,-2.18708 0.281822,-0.17199 33.560067,-19.59014 1.265657,-0.74437 2.80763,-1.80404 -1.653154,1.11775 1.14535,-0.91023 4.40397,-3.1914 9.3804,-5.50788 14.11058,-8.19214 4.09322,-2.3228 -8.12115,4.75882 -12.1873,7.12869 -0.20475,0.11933 0.40188,-0.25129 0.60282,-0.37693 1.22197,-1.19468 -0.19358,0.0959 1.14633,-0.85246 0.40323,-0.28539 0.56265,-0.85065 0.98446,-1.10779 0.31608,-0.19268 33.53804,-19.55109 1.26819,-0.74556 4.5818,-2.9219 9.58925,-5.17079 14.02878,-8.30463 3.8418,-2.71189 -16.35916,9.28031 -12.21189,7.06356 45.72418,-24.43995 -8.971348,3.40593 1.95872,-1.04628 30.97817,-18.13378 5.73342,-3.34991 1.25753,-0.75319 -0.20707,0.12013 0.41417,-0.24376 0.60004,-0.39464 1.37634,-1.11722 -0.33038,-0.005 1.18608,-0.87667 4.50534,-2.59071 9.00342,-5.19401 13.50513,-7.79101 -4.06918,2.3529 -8.1377,4.70693 -12.20753,7.05869 -0.21252,0.12281 0.42249,-0.24997 0.63557,-0.37179 4.51366,-2.58041 9.01467,-5.18314 13.54461,-7.73486 0.69287,-0.3903 1.50836,-0.45447 2.21546,-0.81047 1.41454,-0.65918 2.86321,-1.26186 4.37657,-1.65631 1.56567,-0.48834 3.10119,-1.05855 4.67668,-1.51687 1.69839,-0.59223 3.46664,-0.9777 5.12,-1.70932 1.95065,-0.36015 3.94037,-0.15696 5.91541,-0.20848 2.02344,-0.003 4.04689,-0.008 6.07034,-0.008 1.99709,0.005 3.9971,0.002 5.98974,0.15284 1.77206,0.17496 3.51728,0.4791 5.18466,1.13053 1.55073,0.40961 3.04335,0.88959 4.41867,1.74196 1.35971,0.67157 2.69203,1.42424 3.90348,2.33961 1.18225,0.88275 2.1473,2.00208 3.28708,2.9382 1.08693,0.93723 2.28032,1.72761 3.46447,2.53514 1.07594,0.91824 2.16715,1.81291 3.34523,2.59998 1.19607,0.89272 2.17214,2.02476 3.31191,2.98658 1.22465,1.1091 2.55868,2.08609 3.82093,3.15123 1.19508,1.17776 2.45377,2.27527 3.64566,3.45481 1.02977,0.97555 2.02684,1.98467 3.07993,2.93581 1.12736,0.98253 2.30113,1.95645 3.19291,3.16439 0.78033,1.1367 1.90086,1.97751 2.8176,3.00024 1.02728,0.98972 2.01584,2.0189 3.02859,3.02327 1.02464,0.96807 2.01542,1.9718 3.09686,2.87851 1.16146,0.92841 2.40176,1.78441 3.41833,2.87341 0.93539,1.09373 2.03415,1.93035 3.14818,2.82754 1.06331,1.02911 2.20583,1.97368 3.36887,2.88746 1.26672,1.08158 2.40088,2.26691 3.44874,3.5641 0.85041,1.09325 1.90649,2.02283 2.71435,3.15217 1.03354,0.99242 2.03204,2.02165 3.03395,3.04549 1.07896,1.06374 2.11095,2.18037 3.07389,3.34976 1.02856,1.18922 1.90492,2.51551 3.09264,3.55892 1.12782,1.01767 2.06002,2.13771 2.81602,3.45556 0.91181,1.20397 1.58007,2.55465 2.4732,3.77188 0.70368,1.33629 1.3948,2.67918 2.01733,4.05348 0.69969,1.36087 1.3806,2.73571 1.94798,4.15582 0.62817,1.36301 1.15728,2.7675 2.07462,3.97359 0.67299,1.41018 1.29843,2.84909 1.77415,4.33777 0.58321,1.42727 1.35454,2.76928 1.94734,4.19482 0.47862,1.50771 1.03924,2.9822 1.52013,4.48793 0.57212,1.44969 0.95664,2.97468 1.59716,4.40133 0.60625,1.34991 1.43578,2.59255 2.19145,3.86181 0.61828,1.33059 1.13904,2.70393 2.13576,3.81155 0.76011,1.24036 1.56385,2.44082 2.38226,3.64046 0.8187,1.25429 1.60793,2.52478 2.38628,3.80551 0.61691,1.27251 1.48272,2.4205 2.41582,3.47761 0.85447,1.18383 1.65118,2.39348 2.39999,3.64499 0.85473,1.1914 1.4297,2.55334 2.39475,3.66485 0.84788,1.09422 2.06306,1.80848 3.06725,2.74833 1.07834,1.00006 1.77601,2.27239 2.75764,3.35416 1.03255,0.99478 2.02921,2.02758 3.02032,3.06307 1.01277,1.0198 1.96662,2.0973 2.90699,3.18345 1.01025,1.05319 2.21103,1.90082 3.05364,3.10387 0.89988,1.1464 1.59015,2.44392 2.61709,3.48961 0.83706,1.11428 1.62819,2.27418 2.54656,3.31788 1.03743,0.9957 2.04271,2.02701 3.02507,3.07642 1.03038,1.07347 2.00013,2.22423 2.76728,3.50232 0.82453,1.26062 1.62294,2.53718 2.37804,3.84138 0.60598,1.34958 1.43554,2.59157 2.18858,3.86196 0.62928,1.36195 1.16195,2.76558 2.16175,3.91332 0.82598,1.38834 1.67779,2.74738 2.6609,4.0311 0.95295,1.16779 1.97498,2.30122 2.67665,3.64531 0.7421,1.25981 1.37498,2.58692 2.24563,3.76969 0.97382,1.32336 1.67013,2.81762 2.69632,4.10508 0.83032,1.30056 1.8475,2.46856 2.62816,3.80295 0.7431,1.3595 1.80222,2.53094 2.42054,3.96697 0.88328,1.41018 1.7427,2.82899 2.51961,4.30223 0.5642,1.31567 1.31889,2.56586 2.16945,3.71387 0.78814,1.15644 1.92609,2.015 2.77687,3.12587 0.96701,1.10491 1.80927,2.31085 2.56773,3.56729 0.8832,1.09548 1.74868,2.21066 2.68459,3.25875 1.0032,1.09228 1.68398,2.42312 2.62031,3.5744 0.8621,1.146 1.77458,2.22004 2.80796,3.22258 0.95082,1.14742 1.89982,2.2897 2.65407,3.58185 0.68257,1.21273 1.6513,2.2344 2.4061,3.40323 0.9761,0.98901 2.01,1.9313 3.13632,2.74716 1.16403,0.81815 2.43427,1.46704 3.5833,2.30842 1.53759,0.91457 3.05669,1.83538 4.34178,3.10189 1.92184,2.03744 3.72395,4.20325 5.34842,6.48421 0,0 -12.98842,7.49116 -12.98842,7.49116 z"
         id="path4136"
         style="opacity:0.98000004;fill:#000000;fill-opacity:1;stroke:#dbd4eb;stroke-width:0.2;stroke-miterlimit:4;stroke-dasharray:none;stroke-opacity:1" />
      <path
         inkscape:connector-curvature="0"
         d="m 650.13116,451.18887 c -1.45937,-2.23474 -3.22592,-4.29773 -5.13176,-6.16739 -1.28285,-1.07888 -2.69304,-1.92752 -4.16591,-2.71335 -1.16311,-0.95732 -2.55227,-1.51991 -3.70846,-2.48885 -1.16299,-0.87784 -2.27487,-1.86347 -3.25822,-2.94365 -0.81154,-1.28349 -1.84453,-2.39748 -2.58929,-3.72142 -0.70116,-1.22947 -1.64963,-2.26227 -2.52755,-3.35882 -1.11077,-0.95187 -1.93864,-2.11969 -2.8304,-3.26096 -0.9401,-1.05348 -1.46664,-2.46671 -2.52032,-3.40679 -0.9309,-1.12685 -1.87395,-2.25068 -2.77262,-3.40586 -0.74912,-1.21459 -1.5161,-2.44535 -2.51255,-3.47428 -0.93307,-1.15234 -2.07753,-2.07874 -2.89342,-3.32565 -0.91085,-1.21069 -1.67637,-2.55924 -2.29446,-3.94406 -0.73994,-1.41113 -1.55473,-2.76899 -2.3996,-4.11733 -0.64872,-1.45583 -1.71275,-2.6497 -2.47572,-4.03517 -0.8003,-1.28621 -1.77057,-2.44485 -2.57024,-3.73337 -1.03436,-1.22772 -1.64969,-2.72741 -2.6426,-3.98246 -0.9071,-1.22737 -1.55279,-2.61362 -2.33462,-3.91568 -0.67041,-1.28231 -1.6697,-2.33956 -2.56067,-3.46957 -1.0014,-1.35432 -1.90541,-2.76223 -2.7689,-4.20931 -1.04845,-1.16789 -1.589,-2.64432 -2.24204,-4.04543 -0.77896,-1.25852 -1.56915,-2.52484 -2.19294,-3.86938 -0.74206,-1.21867 -1.46481,-2.45158 -2.26463,-3.63346 -0.73072,-1.1735 -1.60045,-2.29353 -2.6125,-3.23959 -0.97994,-1.02067 -1.92443,-2.09583 -2.99408,-3.02632 -0.92985,-1.15912 -1.8143,-2.36225 -2.69393,-3.56347 -1.05359,-0.99407 -1.65359,-2.33598 -2.58338,-3.43175 -0.41038,-0.89395 -1.31666,-1.2175 -1.96432,-1.87199 -0.68191,-0.80571 -0.33973,-0.43831 -1.01694,-1.11106 -0.93182,-1.07006 -1.83339,-2.18915 -2.88453,-3.14687 -0.99039,-1.01728 -1.93212,-2.09956 -3.00312,-3.03533 -1.00913,-1.02704 -1.53157,-2.44501 -2.71834,-3.29168 -1.14375,-0.98175 -2.36397,-1.81674 -3.25235,-3.0539 -0.99633,-1.09092 -1.50184,-2.50221 -2.39571,-3.66652 -0.73339,-1.27315 -1.56263,-2.46851 -2.41163,-3.66522 -1.01843,-1.08565 -1.87214,-2.36024 -2.53506,-3.69333 -0.77145,-1.20851 -1.49176,-2.44835 -2.29358,-3.63647 -0.83023,-1.21274 -1.64404,-2.42994 -2.40968,-3.68943 -1.04511,-1.13152 -1.57295,-2.58614 -2.21554,-3.95898 -0.78156,-1.25841 -1.57228,-2.52619 -2.19672,-3.87185 -0.64072,-1.46136 -1.08424,-2.99258 -1.6397,-4.48364 -0.52016,-1.51948 -1.04732,-3.03365 -1.55542,-4.55835 -0.57744,-1.38877 -1.30554,-2.70418 -1.89282,-4.08684 -0.48568,-1.46017 -1.07581,-2.88306 -1.73913,-4.27079 -0.9338,-1.19753 -1.45092,-2.62641 -2.0834,-3.99022 -0.56368,-1.39981 -1.22715,-2.75805 -1.91821,-4.09982 -0.62312,-1.36923 -1.30829,-2.70905 -2.01041,-4.04061 -0.88357,-1.11513 -1.43889,-2.43544 -2.34072,-3.53602 -0.71914,-1.24102 -1.52022,-2.30815 -2.65667,-3.19359 -1.20943,-1.12306 -2.07121,-2.54193 -3.19012,-3.74422 -0.95706,-1.11423 -1.9184,-2.25388 -3.0178,-3.23299 -1.00462,-1.00921 -1.95015,-2.09229 -3.02545,-3.02903 -0.80753,-1.26163 -1.982,-2.18945 -2.85721,-3.39023 -0.95496,-1.26027 -2.10228,-2.26231 -3.27251,-3.29987 -1.20567,-0.91245 -2.39738,-1.87822 -3.44022,-2.97798 -1.24481,-0.80005 -2.28892,-1.78196 -3.21771,-2.9405 -1.0562,-0.87793 -2.12488,-1.76926 -3.23905,-2.58316 -1.10039,-0.94539 -2.06534,-2.03637 -3.16303,-2.98275 -1.01642,-1.00353 -1.95938,-2.0928 -3.03558,-3.03446 -1.01192,-1.10836 -2.16886,-2.04307 -2.99875,-3.30525 -0.88572,-1.01587 -1.9066,-1.95786 -2.97059,-2.79395 -1.06543,-0.96734 -2.0251,-2.05107 -3.11485,-2.99123 -1.21252,-1.16824 -2.41424,-2.35527 -3.63907,-3.51414 -1.30975,-1.00047 -2.66628,-1.96332 -3.84062,-3.12427 -1.13119,-0.85244 -1.93494,-2.06268 -3.17671,-2.7641 -1.22804,-0.80493 -2.27896,-1.82294 -3.42806,-2.72763 -1.2567,-0.72889 -2.46708,-1.59161 -3.51055,-2.6085 -1.12853,-0.84003 -1.9264,-2.03982 -3.15855,-2.73813 -1.14705,-0.84517 -2.41399,-1.61982 -3.75511,-2.12369 -1.25753,-1.04005 -2.88738,-1.06667 -4.33462,-1.62659 -1.58148,-0.62856 -3.27883,-0.75346 -4.95946,-0.84717 -1.96999,-0.0783 -3.94212,-0.068 -5.91326,-0.066 -2.02285,0.004 -4.0457,0.008 -6.06855,0.01 -1.93423,0.0499 -3.87845,-0.32521 -5.63567,0.61294 -1.07634,0.68297 -2.36485,0.73219 -3.54114,1.09222 -0.54066,0.16547 -1.04031,0.4446 -1.57109,0.63944 -1.65212,0.32476 -3.10966,1.08215 -4.76877,1.40009 -0.63988,0.49616 -1.48443,0.53852 -2.19398,0.84894 -0.72319,0.31639 -1.29932,0.71635 -2.07202,0.96499 -0.27219,0.0593 -0.55483,0.0824 -0.81658,0.17779 -0.47919,0.17453 -1.82451,0.90956 -1.38297,0.65436 3.86381,-2.23319 15.527,-8.80743 11.65017,-6.59691 -4.52019,2.57734 -9.04591,5.14498 -13.56886,7.71747 40.62812,-23.32737 -31.94238,18.65826 9.19589,-5.04669 -46.01641,26.30937 29.04262,-16.55669 -15.44283,8.90888 -4.09181,2.34235 8.15629,-4.73233 12.25558,-7.06156 0.21238,-0.12067 -0.39385,0.28906 -0.59078,0.43359 -40.98446,24.80668 4.29802,-3.82283 -1.82237,1.13368 -0.56894,0.46074 -1.03321,0.99485 -1.63189,1.4291 -7.74337,5.19149 -27.621,16.01802 -1.81276,1.26979 0.21569,-0.12326 -0.41174,0.2783 -0.62272,0.40946 -1.0271,0.6385 -0.19668,0.042 -1.18676,0.79827 -26.61013,15.42961 -9.82591,5.67882 -1.25329,0.7773 0.19433,-0.11111 -0.38735,0.22785 -0.56103,0.36907 -0.54353,0.44197 -1.03686,1.00356 -1.49123,1.53299 -1.01535,1.03302 -1.87326,2.21021 -3.07131,3.04229 -4.65125,3.7089 -10.1179,5.86918 -15.20228,9.18132 -3.94718,2.57134 8.15131,-4.72496 12.24159,-7.06197 0.21511,-0.12291 -0.40944,0.27904 -0.61416,0.41856 -1.20936,0.7437 -2.32449,1.65462 -3.32878,2.65776 -1.01745,0.96395 -2.05788,1.91743 -2.99808,2.95895 -0.90509,1.16957 -1.59176,2.47046 -2.33264,3.7452 -0.93707,1.15568 -1.46846,2.55449 -2.05806,3.90453 -0.50218,1.51973 -1.06778,3.0083 -1.51695,4.54539 -0.69042,1.52972 -1.00472,3.14501 -1.17837,4.80231 -0.0112,2.02349 -0.39304,4.00056 -0.71081,5.98995 -0.30585,1.97966 -0.37679,3.98316 -0.42189,5.98242 -0.0315,2.01653 -0.0251,4.03341 -0.023,6.05011 0.003,2.02049 0.004,4.04097 0.005,6.06146 6.7e-4,2.02037 6.6e-4,4.04074 6.8e-4,6.06112 0.15094,1.77437 -0.34627,3.69309 0.29127,5.39278 0.76483,1.37135 1.15236,2.89102 1.72224,4.34389 0.4762,1.60003 0.88078,3.21404 1.34107,4.82112 0.70807,1.48627 1.15793,3.06704 1.67165,4.62605 0.46272,1.69879 0.87061,3.42649 1.57807,5.04504 0.61038,1.48442 1.18546,2.98804 1.71772,4.5041 0.34484,1.64815 0.91144,3.23461 1.29386,4.87343 0.23905,1.55687 0.74134,3.05359 1.37178,4.49088 0.53627,1.56419 0.97201,3.16006 1.44551,4.74701 0.44813,1.58116 0.95241,3.14657 1.42895,4.72205 0.47794,1.78439 1.00548,3.54362 1.54852,5.30904 0.36961,1.59743 0.69484,3.21677 1.33278,4.73457 0.72029,1.54379 1.21819,3.18205 1.91042,4.73508 0.65,1.46203 1.23827,2.96278 2.00497,4.36908 0.70038,1.39799 1.38601,2.79634 2.03702,4.21934 0.69726,1.67699 1.73916,3.17061 2.48224,4.82785 0.77001,1.39189 1.55681,2.78246 2.43341,4.11008 0.79568,1.29482 1.38842,2.70215 2.13815,4.02061 0.81198,1.35973 1.7292,2.65776 2.56749,4.0079 1.14833,1.36237 2.09893,2.8731 3.09322,4.34928 0.91171,1.69196 2.0113,3.27637 2.87594,4.99167 0.8074,1.38331 1.60797,2.78742 2.25157,4.25634 0.57551,1.29139 1.50055,2.32842 2.36266,3.42363 1.09588,0.95233 1.71731,2.29203 2.65713,3.37897 0.99679,1.27835 1.79084,2.69866 2.86306,3.91687 1.05843,1.11956 1.8595,2.43001 2.85567,3.6015 0.97362,1.33753 2.12875,2.51908 3.17217,3.80222 0.88666,1.60234 2.42162,2.61433 3.5495,4.01202 1.22793,1.20313 2.4283,2.38568 3.60479,3.63956 0.94909,1.13744 1.87753,2.31854 2.96933,3.32466 0.98603,1.01879 1.92724,2.09955 2.99729,3.03359 0.92703,1.15983 1.80999,2.36225 2.68857,3.56273 1.0533,0.99417 1.65326,2.3359 2.58299,3.43156 0.85899,1.09546 1.7746,2.18024 2.81563,3.11025 1.00118,1.00936 1.94686,2.08958 3.02084,3.0245 1.01266,1.00429 1.95732,2.08982 3.03323,3.02883 1.34947,0.69292 2.36195,1.82413 3.53422,2.75439 1.19991,1.05233 2.28154,2.23591 3.49125,3.27531 1.13543,1.03273 2.04415,2.23021 2.88372,3.51143 0.9455,0.94895 2.0059,1.82994 3.08956,2.63033 1.09547,0.9468 2.06151,2.03356 3.1585,2.97693 1.24561,0.74927 2.37215,1.67362 3.52548,2.56129 1.10038,1.23733 2.58422,1.99621 3.8103,3.08798 1.09437,0.9547 2.2345,1.81215 3.47826,2.56805 1.10018,1.0067 2.47622,1.57879 3.61346,2.5409 1.16203,0.8826 2.27667,1.86698 3.26227,2.94799 1.02261,0.99899 2.08733,1.96767 3.03885,3.0377 0.95455,1.02363 2.03181,1.85128 3.22061,2.58749 1.18345,0.87386 2.18556,1.95021 3.31007,2.89063 0.89819,1.14009 2.07394,1.91942 3.18463,2.80918 1.21012,0.81847 2.3662,1.76317 3.37586,2.82417 1.04489,0.98274 2.11533,1.95605 3.0715,3.02907 1.13343,0.81113 2.2256,1.68927 3.36622,2.49844 1.11448,0.93659 2.08156,2.03102 3.18246,2.98024 1.01623,1.00389 1.95876,2.09367 3.03481,3.03566 1.09138,1.32309 2.19373,2.63857 3.24332,3.99681 1.2306,1.10804 2.42442,2.2231 3.45585,3.53264 0.93943,1.08753 1.98675,2.07426 2.92803,3.15908 0.94281,1.0279 2.01688,1.84902 3.20158,2.58124 1.18871,0.97728 2.4021,1.88338 3.28176,3.16242 0.92835,1.10207 2.11686,1.89161 2.9657,3.07042 0.83774,1.15406 1.8118,2.19025 2.71106,3.2933 0.96956,1.03295 2.02626,1.98331 2.96865,3.04197 1.03908,0.98663 2.01875,2.01698 3.10265,2.95968 1.47226,0.85758 2.61298,2.12467 3.9174,3.19253 0.6531,0.94078 1.76429,1.30972 2.57446,2.05786 0.39461,0.36439 0.73655,0.78274 1.12585,1.1528 1.2429,1.04049 2.45161,2.13565 3.73134,3.13422 1.11339,1.25521 2.40982,2.32113 3.55613,3.54126 1.08458,1.04039 1.98745,2.20321 3.04022,3.2781 0.8933,1.12453 1.72708,2.31546 2.75729,3.32092 0.95542,1.03691 1.89105,2.11587 2.95359,3.0475 1.01177,1.10749 2.16947,2.03982 2.99993,3.30082 0.7833,1.18729 1.74311,2.22655 2.63237,3.32967 0.96481,1.03556 2.02133,1.98346 2.96308,3.04063 1.01475,1.00176 2.08109,1.96149 3.03243,3.02644 1.0151,1.00227 2.0806,1.96399 3.03164,3.03004 1.00865,1.02031 1.86194,2.12727 2.86496,3.15762 0.79633,1.23221 2.08057,1.84383 2.61561,3.24607 0.34805,1.62343 -0.92057,2.09408 -1.83741,3.09297 -1.09342,0.95869 -2.25201,1.85571 -3.4078,2.74362 -5.54877,3.73732 -11.20138,6.55097 -17.05592,9.30171 -0.2524,0.0807 -0.51874,0.12647 -0.75719,0.24205 -2.01033,0.97443 0.83199,-0.1088 -1.28448,0.75121 -0.77059,0.31312 -1.49121,0.38849 -2.22773,0.79196 -1.50401,0.52868 -2.8083,1.31607 -4.38374,1.65724 -5.31179,2.1892 -13.33826,7.23763 8.7939,-5.41943 -8.42273,5.09996 -27.30808,15.64548 -1.88465,1.15146 0.21502,-0.12259 -0.40673,0.28335 -0.62165,0.40612 -4.51939,2.58165 -8.9836,5.26473 -13.58009,7.70646 -4.15664,2.20807 8.17329,-4.67012 12.25994,-7.00518 -4.50486,2.59343 -8.98565,5.22914 -13.51459,7.78028 -0.59955,0.33772 -0.91987,0.19774 -1.55568,0.43369 -0.23622,0.0877 -0.43454,0.25649 -0.66201,0.36485 -0.23284,0.11092 -0.93983,0.421 -0.71658,0.29186 4.07586,-2.35773 8.18693,-4.65406 12.2804,-6.98109 -1.44927,0.82851 -2.82864,1.76136 -4.21339,2.68981 -1.46542,0.88493 -2.80729,1.93674 -4.17675,2.95608 -5.02604,3.30949 -10.43217,5.99874 -15.56273,9.15072 -3.97325,2.44099 8.06975,-4.67567 12.1226,-6.9821 0.24502,-0.13944 -0.46439,0.31979 -0.69659,0.47969 -1.23681,0.90825 -2.48986,1.78023 -3.79338,2.59346 -1.11944,0.94214 -2.29103,1.78893 -3.46999,2.6497 -36.6463,20.99267 -0.87501,0.47059 -1.29722,0.73177 -4.42044,2.73447 -8.98016,5.23781 -13.50698,7.79233 -0.2282,0.12877 -0.51109,0.13249 -0.74516,0.25025 -0.21876,0.11005 -0.39912,0.28387 -0.59868,0.42581 -0.22421,0.11111 -0.44841,0.22222 -0.67262,0.33334 22.42076,-12.97766 13.54765,-8.14638 8.89823,-4.73098 -28.02769,16.20771 -8.78655,5.06647 -1.39736,0.84721 0.22951,-0.13106 -0.44173,0.29042 -0.66628,0.42981 -0.62553,0.3883 -1.20371,0.81199 -1.80582,1.23605 -1.05765,1.01649 -2.20225,1.89301 -3.36859,2.77319 -1.23521,0.75324 -2.20001,1.84831 -3.42808,2.60675 -4.66544,3.34154 -10.14132,5.83759 -14.86555,8.76634 -3.96474,2.45791 8.07161,-4.67897 12.12574,-6.98645 0.27404,-0.15598 -0.5984,0.41668 -1.34883,0.91181 -1.16826,1.00299 -2.39695,1.90316 -3.62753,2.82218 -1.23452,1.09516 -2.58006,2.02454 -3.92183,2.97498 -35.75646,20.45199 -1.79828,1.0108 -1.35023,0.75541 0.23533,-0.13415 -0.46715,0.27499 -0.69209,0.42593 -0.6984,0.46866 -1.37511,0.97491 -2.02615,1.50638 -1.15396,1.01216 -2.37194,1.92205 -3.65915,2.75917 -1.10719,0.95892 -2.28043,1.80429 -3.4603,2.66521 -1.24533,0.73752 -2.21108,1.83335 -3.43899,2.59096 -1.08669,0.92042 -2.11216,1.90016 -3.26884,2.748 -1.14478,1.03089 -2.36032,1.98417 -3.44642,3.07937 -1.06361,1.15999 -2.26401,2.14005 -3.55702,3.03185 -7.68514,5.23907 -27.64291,16.05986 -1.81113,1.29756 0.21553,-0.12317 -0.40574,0.28634 -0.61409,0.4213 -1.03291,0.66907 -0.17435,0.0306 -1.17185,0.81567 -1.1357,0.84533 -2.20041,1.80351 -3.17723,2.82974 -1.01878,0.99812 -2.06235,1.9772 -3.03097,3.02549 -1.00984,1.00943 -2.05732,1.98525 -3.02818,3.03328 -1.06945,0.97236 -1.96378,2.11957 -3.1721,2.92701 -1.10261,0.88052 -2.04106,1.9767 -2.94891,3.05677 -1.07008,0.99695 -1.73389,2.31664 -2.66496,3.43155 -1.06539,0.96279 -2.23637,1.79675 -3.27773,2.78529 -0.97207,1.06247 -2.27059,1.73579 -3.25118,2.7749 -1.06361,0.95879 -2.18353,1.86598 -3.30908,2.75501 -1.03625,1.01798 -1.69719,2.32128 -2.82538,3.25221 -1.06304,1.02186 -2.28845,1.81167 -3.49197,2.6461 -1.20572,0.75005 -2.32213,1.65849 -3.32753,2.66121 -1.03859,0.97441 -2.08161,1.95371 -3.04974,3.00003 -1.14649,1.09628 -2.26496,2.22434 -3.44128,3.29006 -1.38391,0.98959 -2.49316,2.29367 -3.74544,3.4417 -1.29556,1.10826 -2.6269,2.18076 -3.8464,3.37336 -1.10299,0.96568 -2.43538,1.59522 -3.38739,2.72549 -1.12865,1.16825 -2.11506,2.46123 -3.22969,3.6413 -1.01624,1.34397 -2.08135,2.5989 -3.25623,3.80268 -0.86165,1.24847 -2.13317,2.08889 -3.23516,3.09829 -1.19185,0.83733 -2.06045,1.95049 -2.95888,3.069 -1.21004,1.05192 -2.20888,2.31137 -3.20052,3.5635 -1.1408,1.23303 -2.08807,2.6263 -3.07305,3.98285 -1.00676,1.11416 -1.89018,2.30253 -2.7726,3.51185 -0.81182,1.19892 -1.73329,2.33515 -2.76044,3.35686 -0.98237,1.03652 -1.95825,2.08851 -3.0098,3.05669 -0.80357,1.19495 -1.91593,2.12418 -2.78168,3.26499 -0.96545,1.09791 -1.85295,2.18745 -2.4417,3.53133 -0.6772,1.32379 -1.40105,2.63001 -2.18466,3.89432 -0.9309,1.17858 -1.52993,2.50641 -2.18778,3.84228 -0.76578,1.59824 -1.31237,3.27012 -1.80408,4.96741 -0.45277,1.57403 -1.19379,3.03668 -1.73348,4.5762 -0.61731,1.50802 -1.07945,3.03728 -1.44657,4.62345 -0.36939,1.54631 -1.07368,2.96978 -1.58693,4.46431 -0.59385,1.47813 -1.00997,3.02251 -1.58261,4.5075 -0.50784,1.48177 -1.24832,2.84656 -1.645,4.36548 -0.27003,1.64671 -0.65581,3.28406 -1.29217,4.8293 -0.60982,1.48802 -0.93827,3.06418 -1.42848,4.59444 -0.52473,1.71962 -0.61574,3.52106 -0.68739,5.305 -0.0557,2.00277 -0.0461,4.00662 -0.0435,6.00995 -0.23735,1.69623 0.66194,2.97909 1.23851,4.48329 0.54548,1.49923 0.97436,3.04437 1.51784,4.54313 0.49122,1.51173 1.24135,2.90547 1.70973,4.42487 0.52415,1.32975 1.204,2.61019 1.96811,3.81843 0.76992,1.29582 1.36026,2.69063 2.10521,3.99855 0.71681,1.3251 1.29135,2.72716 2.02663,4.04157 0.70951,1.32751 1.28436,2.72807 2.01938,4.04133 0.64548,1.43665 1.45339,2.7872 2.1859,4.18059 0.94522,1.28461 1.54341,2.77678 2.52636,4.03329 0.96553,1.31053 1.76763,2.73525 2.84617,3.95853 0.93065,1.12471 1.89324,2.25547 2.98809,3.2265 0.87597,1.15163 2.05209,1.91886 3.15928,2.80103 1.2124,0.81458 2.36942,1.75839 3.37947,2.81861 1.08236,1.05165 2.1089,2.06481 3.50113,2.69572 1.39437,0.79021 2.80769,1.6215 4.31817,2.17492 1.34444,0.69579 2.65831,1.49652 4.08321,2.02038 1.39114,0.83756 2.90139,1.50676 4.45593,1.98078 1.55163,0.63692 3.01406,1.48114 4.59125,2.04898 1.50553,0.55185 2.93803,1.1164 4.54391,1.34694 1.5579,0.68265 3.20961,0.94571 4.8893,1.09155 1.93774,0.12544 3.88087,0.11872 5.82173,0.12083 2.02142,-0.002 4.04284,-0.007 6.06427,-0.009 1.63157,-0.26559 2.90481,-1.23632 4.50241,-1.63517 1.83541,-0.49109 3.64593,-0.97454 5.54622,-1.20222 1.5873,-0.30779 3.66178,-0.57751 5.1257,-1.25651 0.24716,-0.093 0.5028,-0.16594 0.74149,-0.2789 1.40278,-0.66388 0.0201,-0.19556 1.54088,-0.76956 0.88228,-0.333 1.73229,-0.466 2.58118,-0.8878 0.26379,-0.105 0.54385,-0.17591 0.79136,-0.31501 0.22839,-0.12836 0.40481,-0.33409 0.62262,-0.47969 0.93904,-0.62768 1.98358,-0.84551 3.07706,-1.03315 1.52305,-0.72381 3.19291,-1.00646 4.61896,-1.92978 0.46032,-0.38782 1.07509,-0.43256 1.58924,-0.69788 0.23887,-0.12327 0.89585,-0.59308 0.66219,-0.46021 -4.05287,2.30449 -8.0677,4.67551 -12.12249,6.97661 -0.25818,0.14651 0.47299,-0.36135 0.72935,-0.511 4.52731,-2.64294 9.07925,-5.24345 13.61888,-7.86518 -4.04052,2.32267 -8.07052,4.66371 -12.12154,6.968 -0.52708,0.29981 0.96209,-0.74352 1.48437,-1.05161 4.52146,-2.66716 9.1628,-5.13369 13.616,-7.91332 3.94686,-2.46358 -8.05581,4.65752 -12.09612,6.96463 -0.24681,0.14093 0.47627,-0.31026 0.7144,-0.4654 45.23705,-25.63518 -30.08571,17.08144 14.98493,-8.5627 4.08899,-2.32653 -8.14083,4.71801 -12.23145,7.04169 -0.21625,0.12284 0.38994,-0.31164 0.6047,-0.43708 4.49341,-2.62459 9.01108,-5.20743 13.51663,-7.81115 -4.08177,2.34764 -8.15547,4.70937 -12.2453,7.04293 -0.21525,0.12281 0.40508,-0.28697 0.62024,-0.40996 4.51861,-2.58285 8.98458,-5.2625 13.57964,-7.70675 4.15568,-2.21052 -16.27105,9.47006 -12.26093,7.0053 4.4282,-2.72174 8.99748,-5.20719 13.51578,-7.77657 4.09888,-2.33088 -8.17165,4.70734 -12.25748,7.06102 8.25551,-5.17955 27.34564,-15.74555 1.84954,-1.19772 -0.21495,0.12265 0.40937,-0.27837 0.61868,-0.4104 0.98784,-0.62307 0.22711,-0.0667 1.17529,-0.80852 26.85406,-15.62012 9.57651,-5.54637 1.24345,-0.7884 -0.21496,0.12274 0.40638,-0.28294 0.61464,-0.41673 0.63346,-0.40696 1.2189,-0.84866 1.83079,-1.28941 1.54457,-0.95774 2.93229,-2.13894 4.45983,-3.1193 1.28878,-0.81263 2.4213,-1.81899 3.58997,-2.78591 0.98938,-1.08938 2.12405,-1.97515 3.28498,-2.86317 1.17395,-0.79665 2.28294,-1.70636 3.28516,-2.71191 1.00936,-1.04761 2.13939,-1.92077 3.35307,-2.71946 1.26132,-0.74776 1.99511,-2.01324 3.06377,-2.9623 1.12536,-1.18183 2.60163,-1.90078 3.73806,-3.06454 4.6036,-4.98677 9.39919,-6.46447 16.26832,-10.4434 -29.99811,17.24852 -1.67827,0.98486 1.24952,-0.78436 4.03543,-2.43855 -8.15131,4.7417 -12.24967,7.07295 -0.21237,0.1208 0.38848,-0.29654 0.58702,-0.43894 0.91444,-0.65584 0.24161,-0.10102 1.1151,-0.8729 1.20869,-0.98745 2.3251,-2.07981 3.45143,-3.15999 1.08424,-1.25798 2.49887,-2.15444 3.84583,-3.10249 4.95613,-3.76023 10.60092,-6.21561 15.90686,-9.5966 3.93257,-2.50587 -8.07078,4.67348 -12.12004,6.98605 -0.23858,0.13626 0.45765,-0.30414 0.68647,-0.45621 1.24505,-0.77002 2.40284,-1.6929 3.44051,-2.72519 1.03639,-0.97284 2.0765,-1.95143 3.04193,-2.99661 1.00675,-1.15568 2.27988,-1.97879 3.44382,-2.95794 1.33089,-1.16462 2.80568,-2.14405 4.1924,-3.23593 1.30772,-1.19467 2.74388,-2.2077 4.16168,-3.25786 1.4289,-1.07994 2.75648,-2.28308 4.05341,-3.51712 1.30904,-1.2477 2.67279,-2.43113 4.11317,-3.52659 1.26701,-1.1241 2.63995,-2.09131 4.00023,-3.0902 7.96135,-5.3085 27.64829,-16.06565 2.129,-1.4852 -0.49795,0.28451 0.9568,-0.63377 1.45295,-0.92138 4.5399,-2.63166 9.08626,-5.25217 13.62938,-7.87826 -20.7543,14.92457 -13.67813,7.55601 -8.78231,4.68371 4.841,-3.47323 10.15892,-5.83682 15.29334,-9.126 3.77856,-2.42059 -15.41078,9.18621 -11.68519,6.68485 0.97716,-1.07566 2.21681,-1.84377 3.29238,-2.8081 0.99968,-1.03077 2.30235,-1.69455 3.28695,-2.72834 1.06679,-0.95515 2.1858,-1.86255 3.31115,-2.7517 1.07096,-0.94067 2.04506,-1.98228 3.09785,-2.94161 1.02875,-1.02313 2.01295,-2.09524 3.08532,-3.07369 1.24735,-0.70386 2.08357,-1.8726 3.05879,-2.88295 1.11311,-1.34593 2.34075,-2.57433 3.39255,-3.97196 1.0624,-1.34646 2.17532,-2.64517 3.14721,-4.06044 0.87077,-1.29974 1.94357,-2.43585 2.92953,-3.64219 0.92198,-1.38398 1.85442,-2.75703 2.79392,-4.12926 0.81997,-1.24616 1.76343,-2.42085 2.81957,-3.47497 0.9803,-1.05603 2.1286,-1.8768 3.1525,-2.89424 1.02137,-1.03559 1.81868,-2.22818 2.60766,-3.44377 0.92021,-1.33292 2.08106,-2.46595 3.01433,-3.78516 0.86298,-1.24799 1.87527,-2.37096 2.85201,-3.52664 1.09388,-1.08325 2.15183,-2.1853 3.05406,-3.4364 1.077,-1.12978 2.14182,-2.25195 3.10045,-3.49024 1.01317,-1.04389 1.6612,-2.35885 2.56004,-3.49368 1.03189,-1.20411 1.95743,-2.4899 2.92231,-3.74839 0.98553,-1.19603 1.84257,-2.47554 2.68761,-3.77349 0.90319,-1.14222 1.68352,-2.39186 2.32962,-3.69687 0.6465,-1.31862 1.59967,-2.4194 2.4937,-3.56626 0.78443,-1.30906 1.75151,-2.48823 2.64632,-3.72088 0.84643,-1.37485 1.95617,-2.55409 2.80034,-3.92728 0.75212,-1.25445 1.72697,-2.33616 2.63515,-3.47206 0.78429,-1.22638 1.61349,-2.43244 2.60065,-3.5052 0.9079,-1.15305 1.56157,-2.46685 2.69803,-3.42143 0.91667,-1.09133 2.10775,-1.91408 3.01846,-3.00493 1.14502,-1.15387 2.15486,-2.42996 3.28223,-3.59934 1.08491,-1.21666 2.21575,-2.38874 3.34317,-3.56637 1.16624,-0.97959 1.92223,-2.31872 2.88782,-3.47623 0.89671,-1.12659 1.85657,-2.21651 2.90181,-3.20887 0.90256,-1.1216 1.74088,-2.29881 2.61082,-3.4498 1.01426,-1.01367 1.86547,-2.13358 2.71731,-3.27881 0.90538,-1.39898 1.85859,-2.76928 2.65219,-4.23568 1.0049,-1.24371 1.92123,-2.57181 2.95597,-3.79711 0.87814,-1.28476 1.81399,-2.52813 2.71764,-3.79436 0.70585,-1.30312 1.68725,-2.41838 2.42351,-3.69956 0.71969,-1.25886 1.68469,-2.33079 2.58281,-3.45674 0.92475,-1.31827 1.73633,-2.71359 2.64646,-4.0413 0.73347,-1.37353 1.60381,-2.65303 2.47081,-3.94183 0.7964,-1.26867 1.4898,-2.59162 2.23635,-3.89007 0.93505,-1.31886 1.8769,-2.63651 2.75274,-3.99503 0.87291,-1.44599 1.70552,-2.92403 2.64546,-4.32834 0.81155,-1.38736 1.42125,-2.89563 2.0194,-4.38751 0.60977,-1.38304 1.36518,-2.7035 1.90459,-4.11542 0.62427,-1.45942 1.03399,-2.99674 1.60294,-4.4754 0.55969,-1.53049 0.86436,-3.12972 1.34252,-4.68756 0.30972,-1.63539 0.80388,-3.22014 1.2126,-4.83106 0.21055,-1.7041 0.65147,-3.3529 1.03371,-5.02226 0.18401,-1.71719 0.6255,-3.37431 1.00848,-5.05236 0.37398,-1.82335 0.42645,-3.68909 0.47109,-5.54345 -0.12605,-1.88253 0.21582,-3.70193 0.562,-5.53777 0.33241,-1.84129 0.39557,-3.71419 0.44226,-5.58005 0.0349,-2.0096 0.0287,-4.01963 0.0268,-6.02945 -0.003,-2.02207 -0.004,-4.04413 -0.005,-6.06619 -0.0617,-1.94663 0.11781,-3.90757 -0.0831,-5.84678 -0.64291,-1.7293 -1.24234,-3.44412 -1.58524,-5.26218 -0.56458,-1.60138 -0.79767,-3.28659 -1.22833,-4.91943 -0.56676,-1.671 -0.81318,-3.41807 -1.24368,-5.12443 -0.27467,-1.73593 -0.76989,-3.34059 -1.59379,-4.88492 -0.53093,-1.43886 -1.1832,-2.78069 -1.98566,-4.08327 -0.68167,-1.47334 -1.38249,-2.94358 -1.83576,-4.50738 -0.4931,-1.41229 -1.27405,-2.6877 -1.94656,-4.02062 -0.73387,-1.50797 -1.55763,-2.97148 -2.37017,-4.44011 -1.08503,-0.98746 -1.92099,-2.21897 -2.93716,-3.28209 -1.27941,-1.1618 -2.07992,-2.56488 -2.91003,-4.05045 -0.6042,-1.36326 -1.67442,-2.41241 -2.42042,-3.68696 -0.72731,-1.21129 -1.68534,-2.23468 -2.56778,-3.32616 -0.91331,-1.04841 -1.98184,-1.86128 -3.1612,-2.58971 -1.05045,-1.02704 -2.29119,-1.77818 -3.44411,-2.66266 -0.92286,-1.15684 -2.22311,-1.87617 -3.28633,-2.88288 -1.22522,-0.73542 -2.34236,-1.61903 -3.51467,-2.43643 -1.33236,-0.58285 -2.32691,-1.67896 -3.63093,-2.30517 -1.29678,-0.75386 -2.36893,-1.7864 -3.54021,-2.70544 -1.25721,-0.73034 -2.46726,-1.59582 -3.51054,-2.61451 -1.08749,-0.92984 -2.4181,-1.47584 -3.60001,-2.25323 -1.24129,-0.77972 -2.44726,-1.59891 -3.72336,-2.33151 -1.08146,-1.00773 -2.32543,-1.77453 -3.48541,-2.66919 -1.34222,-0.61461 -2.51286,-1.48021 -3.73563,-2.2945 -1.04565,-0.94537 -2.23476,-1.82102 -3.54375,-2.3653 -1.56976,-0.70299 -3.13683,-1.46183 -4.77177,-2.01154 -1.36333,-0.7847 -2.77509,-1.51592 -4.05978,-2.42204 -1.20306,-0.81837 -2.38686,-1.64438 -3.64861,-2.38015 -1.49739,-0.39502 -2.77661,-1.1732 -4.09487,-1.95071 -1.32274,-0.66819 -2.59935,-1.4134 -3.91414,-2.10625 0,0 12.58617,-8.21741 12.58617,-8.21741 l 0,0 c 1.30659,0.73522 2.64283,1.41394 3.94687,2.15422 1.3124,0.79117 2.74442,1.27384 4.10489,1.96537 1.23658,0.79148 2.45835,1.5953 3.67292,2.418 1.26631,0.75494 2.4863,1.60087 3.85982,2.15475 1.63827,0.66997 3.27734,1.34824 4.86767,2.125 1.30271,0.72315 2.53343,1.57818 3.66658,2.5462 1.21082,0.8542 2.51559,1.53318 3.76001,2.33169 1.17709,0.80647 2.25217,1.72508 3.41069,2.55655 1.24458,0.77926 2.48299,1.56299 3.72823,2.33872 1.31935,0.73013 2.62618,1.50592 3.76325,2.50534 1.08509,0.93808 2.27589,1.73105 3.46097,2.53581 1.07281,0.90759 2.16229,1.79231 3.39321,2.48297 1.26425,0.78531 2.42604,1.72855 3.73094,2.4548 1.18156,0.88662 2.44833,1.6481 3.60029,2.57044 1.07507,0.90919 2.23448,1.71986 3.20193,2.75074 1.187,0.80969 2.27426,1.72556 3.40772,2.60733 1.24418,0.87297 2.43081,1.78269 3.39875,2.96925 0.95269,1.13551 1.90868,2.2627 2.68479,3.53161 0.75377,1.27685 1.85082,2.33615 2.43317,3.72194 0.76502,1.38604 1.52253,2.66395 2.71984,3.74687 1.0605,1.18398 2.10779,2.38239 3.12736,3.59122 0.81385,1.48364 1.63087,2.96507 2.38401,4.47887 0.74447,1.41128 1.55553,2.78887 2.10128,4.29207 0.37286,1.44367 1.04382,2.76956 1.63886,4.12854 0.82031,1.32905 1.5131,2.6925 2.02699,4.17056 0.87431,1.6512 1.48333,3.34733 1.74101,5.21049 0.44184,1.69218 0.71756,3.41206 1.24629,5.08052 0.49893,1.66613 0.63524,3.43219 1.28274,5.06584 0.29574,1.85083 0.89083,3.58369 1.62019,5.30823 0.32253,1.99142 0.0912,4.02315 0.15972,6.03457 6.2e-4,2.02177 0.002,4.04353 0.005,6.06529 0.003,2.01861 0.009,4.03728 -0.01,6.05583 -0.0282,1.92821 -0.0609,3.86246 -0.32346,5.77606 -0.28485,1.78549 -0.86251,3.50897 -0.68174,5.34031 -0.0256,1.92822 -0.0515,3.86407 -0.33152,5.77579 -0.30056,1.7047 -0.93997,3.31112 -1.00832,5.05265 -0.29992,1.7032 -0.93816,3.30678 -1.02107,5.04483 -0.31426,1.66971 -0.98595,3.21433 -1.17075,4.90751 -0.41545,1.61684 -0.97668,3.1664 -1.27588,4.81474 -0.18252,0.46798 -0.44346,0.90485 -0.60186,1.38154 -0.33345,1.00352 -0.39933,2.10877 -1.04983,2.99982 -0.38391,1.56124 -1.1681,2.87388 -1.79529,4.33634 -0.86589,1.39307 -1.25299,3.06126 -1.96794,4.5357 -0.86582,1.42729 -1.78304,2.82358 -2.68716,4.22922 -0.68966,1.5169 -1.79079,2.75467 -2.65299,4.17541 -1.03296,1.09131 -1.38092,2.55533 -2.32144,3.71165 -0.65342,1.46173 -1.86219,2.53949 -2.43832,4.04749 -0.8316,1.36335 -1.71047,2.71139 -2.64314,4.006 -0.65112,1.34841 -1.83406,2.21659 -2.55624,3.5145 -0.90902,1.13199 -1.47284,2.51777 -2.47484,3.59774 -0.68328,1.48045 -1.92469,2.54001 -2.63912,4.00721 -2.25315,3.02153 1.17962,-1.50525 -1.09395,1.25041 -0.65967,0.79956 -0.92782,1.8831 -1.92152,2.39235 -0.97972,1.34296 -1.61406,2.92743 -2.62902,4.25919 -0.74439,1.2807 -1.60717,2.437 -2.61641,3.50816 -1.08179,0.93556 -1.90495,2.20769 -2.61759,3.43352 -0.88,1.12111 -2.00936,2.02435 -2.95836,3.08446 -0.87478,1.28517 -1.93734,2.43529 -2.79392,3.73827 -1.26889,1.00779 -2.23133,2.29954 -3.40569,3.39809 -0.99371,1.28738 -2.21479,2.3905 -3.25189,3.64259 -1.27745,1.24917 0.28192,-0.35244 -0.91315,1.14922 -0.61113,0.76792 -1.70743,0.95918 -2.05247,1.98359 -1.43608,1.38719 0.40229,-0.29979 -1.12475,0.83361 -0.75814,0.56271 -1.18694,1.60137 -1.65972,2.3813 -0.84662,1.14815 -1.92556,2.09753 -2.6835,3.32112 -0.66,1.36584 -1.86079,2.24663 -2.60226,3.55739 -1.00625,1.23723 -1.6942,2.72013 -2.8446,3.86405 -0.74106,1.34036 -1.73889,2.46986 -2.63914,3.68953 -0.64645,1.3464 -1.8314,2.22411 -2.50034,3.55182 -0.86841,1.21118 -1.3372,2.6873 -2.24641,3.88664 -1.10043,1.1078 -1.57101,2.6452 -2.73819,3.69716 -0.85568,1.31595 -1.77937,2.65854 -2.89841,3.75856 -0.8174,1.2314 -1.81498,2.32331 -2.49508,3.65214 -1.15161,1.05513 -1.7891,2.57701 -3.15244,3.40949 -0.7257,0.80446 -1.1966,1.79938 -1.9656,2.57203 -0.1635,0.16426 -0.38485,0.26341 -0.54771,0.42831 -0.1744,0.1766 -0.30422,0.39225 -0.45633,0.58837 -1.1496,0.92846 -2.07153,2.17353 -2.93794,3.35794 -1.17882,1.33912 0.13038,-0.2275 -0.96051,1.35845 -0.6047,0.87913 -1.59475,1.41652 -2.03643,2.4307 -1.04235,1.04493 -1.45968,2.51468 -2.59736,3.46715 -0.84684,1.2296 -1.8407,2.20221 -3.1355,2.9356 -0.89638,1.15532 -2.04663,2.0847 -2.92504,3.26333 -0.84393,1.44196 -1.82246,2.77604 -2.78526,4.13018 -0.72992,1.45547 -2.03784,2.39923 -2.89273,3.77367 -1.12528,1.29489 -1.96093,2.84807 -3.13284,4.10946 -1.33013,1.46155 0.1238,-0.21115 -1.11603,1.47179 -0.5213,0.7076 -1.15284,1.23939 -1.75275,1.85829 -0.18638,0.19228 -0.3294,0.42229 -0.4941,0.63343 -0.85045,1.18076 -1.92112,2.21336 -2.89754,3.28254 -1.34196,0.61816 -2.08812,1.84383 -3.21503,2.7478 -0.88522,1.12283 -2.02304,2.05167 -3.06716,3.01526 -0.92401,1.08553 -2.13487,1.96621 -3.31381,2.74521 -1.56732,1.4335 0.55843,-0.58132 -0.96351,1.11488 -0.65904,0.7345 -1.78612,0.8113 -2.26417,1.76093 -1.17251,0.81411 -2.16094,1.86357 -3.35612,2.64968 -3.49105,4.86935 -0.0339,0.22871 -13.90016,8.51215 -4.03932,2.413 8.11638,-4.76228 12.18519,-7.12521 1.11204,-0.64582 -2.75762,2.05101 -1.8014,1.30219 -1.24572,1.01105 0.0706,0.0281 -1.32099,0.81442 -1.07275,0.60614 -0.26065,0.27208 -1.26576,1.03799 -4.39361,3.34802 -15.80134,-3.66076 -14.28953,8.39205 4.01055,-2.3292 8.01102,-4.67586 12.03166,-6.98761 0.49347,-0.28373 -0.96591,0.60283 -1.4574,0.88997 -4.51193,2.63593 -9.03271,5.25698 -13.52514,7.926 -3.75771,2.23251 16.92176,-10.1792 11.34007,-6.58355 -1.25541,1.16433 -2.75872,1.93017 -4.02167,3.08971 -1.32326,1.21327 -2.93602,2.11934 -4.10821,3.50123 -1.41933,1.10345 -2.55743,2.52851 -4.04077,3.54583 -1.3134,1.2046 -2.87627,2.01792 -4.18581,3.23115 -1.30341,1.23397 -2.86107,2.07002 -4.13691,3.32944 -0.67059,0.44044 -1.16791,1.06584 -1.83009,1.49639 -0.62442,0.406 -1.29607,0.55512 -1.65326,1.30835 -1.12508,0.87621 -2.02305,2.03111 -3.02717,3.03452 -1.18894,0.90725 -2.13172,2.09943 -3.36083,2.97129 -5.04249,2.80094 -5.08977,2.81999 -14.23986,8.32512 -3.97878,2.39383 8.00885,-4.70146 12.0278,-7.02722 0.26504,-0.15338 -0.52143,0.32313 -0.76462,0.50922 -1.57825,1.20759 0.14169,0.11497 -1.56689,1.13453 -1.277,1.01199 -2.65664,1.84279 -3.93599,2.83032 -0.99984,1.24918 -2.25272,2.22401 -3.34525,3.37424 -1.99058,1.42634 0.8685,-0.68449 -1.07781,0.9702 -4.13927,3.51907 -9.58318,5.1786 -14.01344,8.32346 -0.0479,0.034 34.7724,-20.19391 -1.2773,0.74647 27.14049,-15.85825 12.08641,-8.30009 9.32848,-4.70879 -2.06428,1.92783 0.97564,-0.97324 -1.11106,1.2428 -0.73425,0.77976 -1.81395,1.10892 -2.61437,1.81508 -1.41358,1.52268 0.42642,-0.36856 -1.07601,0.90255 -0.76107,0.64389 -0.9099,1.80024 -1.94054,2.17681 -1.03112,1.04736 -2.47535,1.49882 -3.36888,2.67961 -1.14976,0.873 -2.06579,2.01704 -3.21197,2.90059 -1.26191,0.71488 -2.37391,1.56223 -3.39974,2.57699 -0.97672,1.18533 -2.25925,2.15815 -3.51902,3.0203 -1.47192,1.19831 0.14867,-0.0457 -1.48161,0.9742 -1.03948,0.65029 -1.77657,1.70806 -2.97658,2.12583 -0.59679,0.45846 -1.17542,0.96756 -1.7696,1.41277 -7.14204,5.35145 -28.21579,15.68008 -1.89733,1.09977 -2.6357,1.73187 1.48882,-1.0349 -1.1328,0.92259 -4.35754,3.25366 -9.41651,5.44329 -14.10399,8.20046 -4.05558,2.38548 8.12542,-4.74667 12.19579,-7.10682 0.20772,-0.12044 -0.40486,0.25825 -0.60729,0.38738 -4.47384,2.63793 -9.17779,4.91967 -13.42151,7.91378 -3.84269,2.71117 16.37099,-9.26091 12.21398,-7.06182 -4.59436,2.43044 -8.92434,5.34141 -13.52687,7.75635 -4.16224,2.18392 8.14014,-4.70247 12.20497,-7.06275 0.21093,-0.12248 -0.42868,0.23279 -0.64303,0.34919 -4.48895,2.61691 -8.9779,5.23382 -13.46686,7.85073 32.13788,-18.72056 -1.45349,0.92088 -1.87723,1.21463 -3.85152,2.67003 16.30402,-9.24774 12.17181,-7.03683 -2.25707,1.20762 -31.82429,18.36124 -1.45181,0.76407 -5.16271,2.86087 -3.38307,1.86726 -14.2953,8.33561 -3.98868,2.36434 8.00163,-4.68751 12.01378,-7.01179 0.26238,-0.15201 -0.52139,0.31201 -0.76361,0.49443 -0.24423,0.18392 -0.42954,0.44524 -0.69211,0.60185 -4.49092,2.67873 -9.0368,5.26422 -13.5552,7.89633 4.01568,-2.33787 8.02609,-4.68483 12.04705,-7.01361 0.25302,-0.14654 -0.4911,0.31778 -0.74277,0.46663 -4.5048,2.66425 -9.00244,5.34082 -13.52635,7.97249 -0.72387,0.4211 -1.57477,0.64246 -2.28168,1.10352 -1.58766,0.61561 -3.19152,1.20855 -4.83044,1.66894 -1.52925,0.5216 -2.83131,1.46552 -4.36415,1.98355 -1.68696,0.52696 -3.25372,1.31297 -4.92838,1.86976 -1.74772,0.37442 -3.46643,0.8851 -5.25483,1.03726 -1.84164,0.34158 -3.62985,0.88541 -5.42472,1.41318 -1.55027,0.62232 -3.02095,1.36476 -4.75485,1.24245 -2.02325,0.003 -4.04652,0.01 -6.06977,0.003 -1.97845,-0.014 -3.96249,-0.0225 -5.93083,-0.24649 -1.69437,-0.24051 -3.31637,-0.69925 -4.95624,-1.17359 -1.63256,-0.37123 -3.15126,-1.02206 -4.72208,-1.58876 -1.50537,-0.67216 -2.98593,-1.39988 -4.52709,-1.99121 -1.55652,-0.58448 -3.06779,-1.27279 -4.53563,-2.0532 -1.37292,-0.64484 -2.71199,-1.36057 -4.078,-2.02005 -1.49203,-0.69587 -2.95541,-1.46165 -4.37846,-2.28903 -1.42161,-0.83077 -2.61161,-1.90647 -3.76917,-3.07007 -1.01592,-0.96867 -2.10949,-1.85561 -3.27059,-2.64528 -1.18789,-0.86321 -2.25793,-1.83524 -3.23981,-2.93081 -1.08468,-1.06655 -2.12649,-2.18573 -3.06689,-3.38159 -1.04814,-1.2841 -1.91995,-2.69194 -2.89739,-4.0288 -0.98378,-1.35299 -1.67507,-2.87407 -2.62941,-4.24715 -0.73499,-1.37971 -1.56103,-2.7085 -2.18807,-4.14253 -0.72966,-1.31687 -1.32092,-2.70807 -2.01953,-4.04159 -0.7282,-1.31478 -1.31739,-2.70421 -2.02148,-4.03214 -0.72799,-1.29396 -1.32405,-2.66068 -2.07473,-3.94334 -0.82033,-1.3349 -1.57794,-2.72113 -2.15636,-4.17886 -0.41737,-1.49974 -1.19774,-2.84131 -1.6608,-4.32621 -0.57436,-1.48554 -0.95905,-3.05408 -1.51895,-4.54565 -0.59972,-1.65295 -1.69723,-3.115 -1.45722,-4.97225 -0.004,-2.01729 -0.0135,-4.03476 0.0164,-6.05191 0.0438,-1.88445 0.0913,-3.78357 0.49729,-5.63215 0.42142,-1.59973 0.99984,-3.13082 1.34689,-4.75202 0.63976,-1.46496 1.27911,-2.95855 1.42834,-4.57204 0.29881,-1.80104 0.83093,-2.95005 1.52943,-4.58199 0.18319,-0.4675 0.44488,-0.90373 0.60378,-1.38004 0.33458,-1.00295 0.40275,-2.10812 1.0435,-3.00372 0.36977,-1.57742 1.14829,-2.93498 1.5735,-4.48922 0.59154,-1.49527 0.51453,-3.22379 1.45763,-4.60626 0.39248,-1.64099 1.21411,-3.05395 1.70612,-4.65864 0.7038,-1.63774 0.92296,-3.47593 1.72475,-5.08965 0.20034,-0.45292 0.48335,-0.86664 0.6782,-1.32195 0.40532,-0.94716 0.55435,-1.97537 1.45226,-2.63938 0.70448,-1.3034 1.52539,-2.52536 2.2176,-3.82526 0.4177,-0.69608 0.55261,-1.44628 0.95445,-2.14803 0.62263,-1.08736 0.18573,-0.16998 0.9349,-1.07194 0.16033,-0.19303 0.27003,-0.42302 0.40504,-0.63453 1.13161,-1.15674 -0.14813,0.23249 0.87881,-1.17031 0.58168,-0.79459 1.63895,-1.06941 1.88209,-2.14335 0.88323,-1.11651 2.01696,-2.02657 3.02413,-3.02265 0.86774,-1.12463 1.98095,-2.03038 2.84957,-3.15917 0.77624,-1.33755 1.68678,-2.54333 2.70664,-3.69552 1.20474,-1.19451 1.97745,-2.72094 3.05068,-4.03168 1.18422,-1.10915 1.97251,-2.54206 3.13755,-3.678 0.75664,-0.4883 0.92085,-0.86815 1.39958,-1.60384 0.56938,-0.87498 0.31769,-0.32036 1.03681,-0.99293 0.18176,-0.17001 0.32357,-0.37824 0.48536,-0.56736 1.19781,-0.82869 2.2327,-1.88917 3.3783,-2.78254 0.50953,-0.79572 0.99806,-1.15121 1.67807,-1.76732 0.69116,-0.6262 0.48765,-0.64443 1.02156,-1.42258 0.16059,-0.23406 0.35562,-0.44254 0.53343,-0.66381 0.98551,-1.29197 2.19396,-2.40357 3.2013,-3.67995 1.35258,-1.39863 -0.39684,0.48651 0.89824,-1.18634 0.5932,-0.76623 1.61875,-1.23247 2.42809,-1.71133 1.36227,-1.04624 2.50381,-2.36798 3.85573,-3.43703 1.41092,-0.99111 2.52092,-2.27566 3.6951,-3.5063 1.36471,-0.76351 2.39695,-2.02705 3.49054,-3.11689 1.12702,-0.87771 2.02771,-2.03334 3.0347,-3.03735 1.15366,-0.87711 2.06985,-2.02731 3.2379,-2.8952 1.28106,-0.69395 2.44578,-1.50839 3.58828,-2.39547 1.39834,-1.35586 -0.36685,0.26619 1.12663,-0.83733 0.76606,-0.56603 1.19978,-1.59542 1.72164,-2.35865 0.92413,-1.08513 2.13505,-1.96492 3.31353,-2.74421 1.53958,-1.41114 -0.52959,0.55639 0.96083,-1.11577 0.6551,-0.73498 1.77952,-0.81807 2.24308,-1.77608 1.16106,-0.84184 2.11725,-1.93558 3.28049,-2.77832 1.3372,-0.73576 1.84925,-2.12286 2.71348,-3.31184 1.10809,-0.92033 1.95342,-2.14509 2.87508,-3.24107 1.22614,-1.06628 -0.14391,0.0339 1.20196,-0.78026 0.8045,-0.48666 1.35651,-1.37855 2.02026,-2.02028 1.12621,-0.87347 2.03164,-2.02344 3.02889,-3.03154 1.12577,-0.87534 2.02866,-2.02811 3.02614,-3.03727 1.13684,-0.88163 2.03512,-2.0403 3.11474,-2.98895 2.5796,-1.68456 -1.42828,0.98946 1.13373,-0.91898 4.36129,-3.24872 9.41412,-5.44817 14.08202,-8.23847 4.03775,-2.41363 -8.10976,4.76953 -12.17626,7.1344 -0.20925,0.12169 0.40222,-0.26943 0.60333,-0.40415 1.1102,-1.1235 2.66107,-1.66906 3.59712,-2.97453 1.17491,-0.99201 2.16703,-2.19612 3.42106,-3.08995 0.99318,-1.07915 2.41977,-1.62676 3.21246,-2.89139 1.07495,-0.91542 2.46907,-1.53222 3.40746,-2.67455 1.2762,-0.71511 2.41512,-1.56723 3.52347,-2.50625 1.1084,-1.11004 2.63469,-1.60731 3.65333,-2.81704 0.90962,-0.63646 1.69605,-1.51209 2.65012,-2.07385 0.44424,-0.26157 33.47724,-19.28796 1.36575,-0.72571 1.42901,-0.8076 2.72541,-1.76538 4.00156,-2.78691 1.13277,-1.07793 2.48258,-1.77772 3.61485,-2.85163 0.76961,-0.74833 0.39021,-0.46809 1.31562,-1.01345 4.50396,-2.65426 9.12202,-5.12322 13.51558,-7.95647 3.91537,-2.52488 -8.04155,4.70701 -12.07968,7.03051 -0.44278,0.25477 1.59405,-1.09315 1.29684,-0.81659 1.0862,-0.92421 2.4653,-1.52545 3.40225,-2.675 1.26909,-0.71993 2.39024,-1.57802 3.45132,-2.56641 0.68455,-0.75992 1.51548,-1.37512 2.39636,-1.8863 3.40496,-1.97591 30.6895,-17.88076 1.41514,-0.81814 5.5591,-3.49623 9.99152,-8.19942 16.79592,-10.17093 1.58548,-0.89662 -0.3092,0.14625 1.33851,-0.66986 0.2249,-0.11139 0.87572,-0.49079 0.65866,-0.3648 -4.06775,2.36104 -16.33483,9.3314 -12.21084,7.07002 2.56676,-1.40747 31.59285,-18.28466 1.31002,-0.69687 1.27643,-0.71671 2.41466,-1.57211 3.52613,-2.50865 1.12666,-1.11429 2.65488,-1.59389 3.75435,-2.74032 8.48926,-5.10581 27.30588,-15.82199 2.16584,-1.36373 -1.66535,0.95775 3.69809,-2.1152 1.94449,-1.33248 1.575,-0.72107 2.664,-2.1135 4.23219,-2.86077 1.35544,-0.98247 2.7165,-1.91419 4.15256,-2.77181 4.51333,-2.5806 9.01312,-5.18502 13.53999,-7.7418 0.68092,-0.38459 1.47281,-0.51575 2.17624,-0.85659 0.22622,-0.10962 0.87878,-0.4885 0.66134,-0.36238 -4.06773,2.35935 -8.14158,4.70812 -12.21237,7.06218 22.56948,-12.94642 13.53499,-7.78623 1.32145,-0.69772 -0.21089,0.1224 0.43113,-0.22816 0.64206,-0.35047 4.49469,-2.60643 8.99257,-5.20747 13.47458,-7.83564 3.84805,-2.25642 -17.0255,10.07175 -11.5832,6.70222 5.35401,-3.10993 10.93145,-7.30296 17.09729,-9.23779 1.44677,-0.55358 2.82561,-1.26571 4.28373,-1.79664 1.47677,-0.46668 2.81026,-1.22404 4.22192,-1.84868 5.07395,-2.57244 14.41798,-5.51742 -8.71867,5.47174 1.35777,-0.5747 2.22946,-1.74565 3.5296,-2.40705 0.46534,-0.39615 0.78541,-1.14163 1.339,-1.40052 0.27733,-0.12971 0.62544,-0.031 0.90527,-0.15525 0.0757,-0.0336 0.1242,-0.10954 0.1863,-0.1643 0.28298,-0.19721 -1.90468,-2.00982 -2.12512,-2.50121 -1.03608,-1.02458 -1.84005,-2.20338 -2.89393,-3.20532 -0.98646,-1.03293 -2.02164,-2.0189 -3.03106,-3.02909 -0.9878,-1.03259 -2.025,-2.01736 -3.03397,-3.02899 -0.99418,-1.04509 -2.03769,-2.04198 -3.0058,-3.11234 -0.94058,-1.12327 -1.88307,-2.23926 -2.70478,-3.4551 -0.78183,-1.13644 -1.90471,-1.97536 -2.82101,-2.99945 -1.03489,-1.00234 -2.0344,-2.04434 -2.99617,-3.11641 -0.975,-1.05108 -1.84931,-2.18643 -2.74551,-3.30424 -1.07882,-1.06234 -1.92402,-2.28908 -3.04266,-3.30821 -1.13386,-1.14861 -2.32419,-2.24101 -3.46298,-3.38438 -1.27161,-1.07663 -2.57009,-2.12401 -3.80473,-3.24168 -1.1467,-1.13354 -2.48235,-2.00118 -3.62902,-3.13693 -1.27505,-1.116 -2.53294,-2.24327 -3.93811,-3.20038 -1.12409,-0.97501 -2.13678,-2.06183 -3.20382,-3.09734 -0.99265,-1.04422 -2.03411,-2.04078 -3.00624,-3.10499 -0.93949,-1.10526 -1.8858,-2.2006 -2.75277,-3.36475 -0.88177,-1.13895 -2.16899,-1.89737 -2.98383,-3.10195 -0.79641,-1.08939 -1.93645,-1.85894 -2.98808,-2.68589 -1.23495,-0.86467 -2.41523,-1.76573 -3.40922,-2.91056 -0.98852,-1.07601 -2.01323,-2.11741 -2.96186,-3.22994 -1.05525,-1.28927 -2.29629,-2.35927 -3.4407,-3.55962 -1.02226,-1.28002 -2.05061,-2.55933 -3.14777,-3.77327 -1.02695,-0.98988 -2.01489,-2.0195 -3.02746,-3.02389 -1.02244,-0.96526 -2.01054,-1.96747 -3.10324,-2.85589 -1.17719,-0.90699 -2.4424,-1.7121 -3.51731,-2.73987 -0.97998,-1.02629 -2.00757,-2.00853 -3.04153,-2.97973 -1.01585,-0.97028 -2.10891,-1.85959 -3.26848,-2.65331 -1.17763,-0.86036 -2.23467,-1.82978 -3.23687,-2.89117 -1.03553,-0.94373 -2.05344,-1.90911 -3.20033,-2.72078 -1.23317,-0.86424 -2.41166,-1.76571 -3.41651,-2.89729 -0.98206,-1.03213 -2.01107,-2.01985 -3.02703,-3.01812 -0.98071,-0.99227 -2.02,-1.93586 -3.14591,-2.76132 -1.16197,-0.83403 -2.43292,-1.50508 -3.53569,-2.42277 -1.24802,-0.84824 -2.45367,-1.72982 -3.57898,-2.73726 -1.25415,-1.00506 -2.6151,-1.87707 -3.75779,-3.01714 -1.20483,-0.88736 -2.3906,-1.79882 -3.60953,-2.66721 -1.0271,-0.96817 -2.02208,-1.96996 -3.09955,-2.88385 -1.16636,-0.95052 -2.41623,-1.85183 -3.34184,-3.04874 -0.78098,-1.16882 -1.62315,-2.25519 -2.6845,-3.18718 -1.14684,-1.07678 -2.2615,-2.18685 -3.44382,-3.22583 -1.16283,-0.98867 -2.33309,-1.94948 -3.5945,-2.81397 -1.02975,-0.98977 -2.02271,-2.01746 -3.03235,-3.02742 -1.03348,-0.99145 -2.03269,-2.01913 -3.03279,-3.04372 -1.03845,-1.02949 -2.03723,-2.11038 -2.91733,-3.27872 -0.8999,-1.14642 -1.59021,-2.44389 -2.61694,-3.4898 -0.83642,-1.11415 -1.62667,-2.27366 -2.5425,-3.31888 -1.03363,-0.99546 -2.03224,-2.02852 -3.01852,-3.0703 -1.05906,-1.08053 -2.04804,-2.22974 -2.99994,-3.40492 -1.16399,-1.29633 -2.47648,-2.41277 -3.63733,-3.71179 -1.15542,-1.36308 -2.65424,-2.42389 -3.55231,-4.00913 -1.05821,-1.26039 -2.18223,-2.46506 -3.16884,-3.7837 -0.98937,-1.17459 -1.80955,-2.47305 -2.85713,-3.60197 -1.02815,-1.25963 -1.87846,-2.64444 -2.88291,-3.92234 -0.90211,-1.12835 -1.61053,-2.40527 -2.67112,-3.40232 -0.96193,-1.18795 -1.90715,-2.37861 -2.55567,-3.77665 -0.60996,-1.45326 -1.42512,-2.82042 -2.19358,-4.1935 -0.81378,-1.66436 -1.88298,-3.1916 -2.77574,-4.81452 -1.01592,-1.48222 -1.96435,-3.01091 -3.11114,-4.39778 -0.87037,-1.35765 -1.8273,-2.66081 -2.63269,-4.05482 -0.72825,-1.29654 -1.32167,-2.66793 -2.09052,-3.94341 -0.89726,-1.40946 -1.74418,-2.85367 -2.52469,-4.33183 -0.71925,-1.65519 -1.80114,-3.11453 -2.47882,-4.78946 -0.66661,-1.38268 -1.31682,-2.76757 -2.00713,-4.13753 -0.7785,-1.44329 -1.39491,-2.97182 -2.04382,-4.47619 -0.70265,-1.55645 -1.21371,-3.19662 -1.93715,-4.74711 -0.68227,-1.55889 -1.07933,-3.22703 -1.40254,-4.89266 -0.51565,-1.76444 -1.07909,-3.50307 -1.52984,-5.28578 -0.53108,-1.56697 -0.97702,-3.17388 -1.46081,-4.75173 -0.43536,-1.53247 -0.91368,-3.04533 -1.35741,-4.57188 -0.66974,-1.52157 -1.25785,-3.10241 -1.5019,-4.75428 -0.33531,-1.59751 -0.9447,-3.11187 -1.22089,-4.72228 -0.49512,-1.48417 -1.08791,-2.93534 -1.65362,-4.39139 -0.74,-1.65657 -1.19221,-3.42702 -1.63058,-5.1825 -0.52468,-1.57905 -0.99447,-3.17602 -1.72104,-4.67834 -0.42842,-1.56617 -0.89061,-3.1099 -1.27391,-4.68573 -0.56937,-1.45262 -0.95736,-2.96503 -1.71871,-4.33697 -0.78087,-1.89308 -0.49411,-3.90144 -0.52556,-5.91213 0,-2.02021 4e-5,-4.04043 -4.4e-4,-6.06064 -6.3e-4,-2.02013 -0.002,-4.04026 -0.005,-6.06039 -0.003,-2.02552 -0.009,-4.05111 0.01,-6.07658 0.0301,-2.05584 0.0747,-4.11607 0.33587,-6.1582 0.27754,-1.9674 0.79588,-3.89745 0.74136,-5.89667 0.11479,-1.7538 0.26238,-3.53454 0.9767,-5.16445 0.36418,-0.75908 0.45644,-1.51646 0.72512,-2.30997 0.0834,-0.24619 0.18964,-0.48401 0.28445,-0.72602 0.10747,-0.21803 0.24427,-0.42391 0.3224,-0.65409 0.0932,-0.27462 0.12531,-0.56631 0.18797,-0.84947 0.46655,-1.4831 1.15618,-2.91601 1.87759,-4.28165 1.02831,-1.09211 1.37315,-2.5654 2.36049,-3.68349 0.68347,-1.35968 1.87906,-2.18221 2.84264,-3.32217 1.15343,-0.87818 2.06831,-2.03013 3.23657,-2.89872 5.11865,-2.77138 2.35031,-1.26312 14.08339,-8.22806 4.04774,-2.40279 -8.11741,4.76851 -12.18628,7.13535 -0.20515,0.11933 0.41131,-0.24101 0.59417,-0.39229 1.19739,-0.9906 -0.18087,-0.13161 1.14637,-0.88641 1.2515,-1.10439 -0.17735,0.0656 1.19012,-0.78698 0.79383,-0.4949 1.33028,-1.40789 1.95219,-2.07895 0.43543,-0.38139 1.68833,-2.0336 1.93982,-2.18708 0.28182,-0.17199 33.56006,-19.59014 1.26565,-0.74437 2.80763,-1.80404 -1.65315,1.11775 1.14535,-0.91023 4.40397,-3.1914 9.3804,-5.50788 14.11058,-8.19214 4.09322,-2.3228 -8.12115,4.75882 -12.1873,7.12869 -0.20475,0.11933 0.40188,-0.25129 0.60282,-0.37693 1.22197,-1.19468 -0.19358,0.0959 1.14633,-0.85246 0.40323,-0.28539 0.56265,-0.85065 0.98446,-1.10779 0.31608,-0.19268 33.53804,-19.55109 1.26819,-0.74556 4.5818,-2.9219 9.58925,-5.17079 14.02878,-8.30463 3.8418,-2.71189 -16.35916,9.28031 -12.21189,7.06356 45.72418,-24.43995 -8.97135,3.40593 1.95872,-1.04628 30.97817,-18.13378 5.73342,-3.34991 1.25753,-0.75319 -0.20707,0.12013 0.41417,-0.24376 0.60004,-0.39464 1.37634,-1.11722 -0.33038,-0.005 1.18608,-0.87667 4.50534,-2.59071 9.00342,-5.19401 13.50513,-7.79101 -4.06918,2.3529 -8.1377,4.70693 -12.20753,7.05869 -0.21252,0.12281 0.42249,-0.24997 0.63557,-0.37179 4.51366,-2.58041 9.01467,-5.18314 13.54461,-7.73486 0.69287,-0.3903 1.50836,-0.45447 2.21546,-0.81047 1.41454,-0.65918 2.86321,-1.26186 4.37657,-1.65631 1.56567,-0.48834 3.10119,-1.05855 4.67668,-1.51687 1.69839,-0.59223 3.46664,-0.9777 5.12,-1.70932 1.95065,-0.36015 3.94037,-0.15696 5.91541,-0.20848 2.02344,-0.003 4.04689,-0.008 6.07034,-0.008 1.99709,0.005 3.9971,0.002 5.98974,0.15284 1.77206,0.17496 3.51728,0.4791 5.18466,1.13053 1.55073,0.40961 3.04335,0.88959 4.41867,1.74196 1.35971,0.67157 2.69204,1.42424 3.90349,2.33961 1.18225,0.88275 2.1473,2.00208 3.28708,2.9382 1.08693,0.93723 2.28032,1.72761 3.46447,2.53514 1.07594,0.91824 2.16715,1.81291 3.34523,2.59998 1.19607,0.89272 2.17214,2.02476 3.31191,2.98658 1.22465,1.1091 2.55868,2.08609 3.82093,3.15123 1.19508,1.17776 2.45377,2.27527 3.64566,3.45481 1.02977,0.97555 2.02684,1.98467 3.07993,2.93581 1.12736,0.98253 2.30113,1.95645 3.19291,3.16439 0.78033,1.1367 1.90086,1.97751 2.8176,3.00024 1.02728,0.98972 2.01584,2.0189 3.02859,3.02327 1.02464,0.96807 2.01542,1.9718 3.09686,2.87851 1.16146,0.92841 2.40176,1.78441 3.41833,2.87341 0.93539,1.09373 2.03415,1.93035 3.14818,2.82754 1.06331,1.02911 2.20583,1.97368 3.36887,2.88746 1.26672,1.08158 2.40088,2.26691 3.44874,3.5641 0.85041,1.09325 1.90649,2.02283 2.71435,3.15217 1.03354,0.99242 2.03204,2.02165 3.03395,3.04549 1.07896,1.06374 2.11095,2.18037 3.07389,3.34976 1.02856,1.18922 1.90492,2.51551 3.09264,3.55892 1.12782,1.01767 2.06002,2.13771 2.81602,3.45556 0.91181,1.20397 1.58007,2.55465 2.4732,3.77188 0.70368,1.33629 1.3948,2.67918 2.01733,4.05348 0.69969,1.36087 1.3806,2.73571 1.94798,4.15582 0.62817,1.36301 1.15728,2.7675 2.07462,3.97359 0.67299,1.41018 1.29843,2.84909 1.77415,4.33777 0.58321,1.42727 1.35454,2.76928 1.94734,4.19482 0.47862,1.50771 1.03924,2.9822 1.52013,4.48793 0.57212,1.44969 0.95664,2.97468 1.59716,4.40132 0.60625,1.34991 1.43578,2.59255 2.19145,3.86181 0.61828,1.33059 1.13904,2.70393 2.13576,3.81155 0.76011,1.24036 1.56385,2.44082 2.38226,3.64046 0.8187,1.25429 1.60793,2.52478 2.38628,3.80551 0.61691,1.27251 1.48272,2.4205 2.41582,3.47761 0.85447,1.18383 1.65118,2.39348 2.39999,3.64499 0.85473,1.1914 1.4297,2.55334 2.39475,3.66485 0.84788,1.09422 2.06306,1.80848 3.06725,2.74833 1.07834,1.00006 1.77601,2.27239 2.75764,3.35416 1.03255,0.99478 2.02921,2.02758 3.02032,3.06307 1.01277,1.0198 1.96662,2.0973 2.90699,3.18345 1.01025,1.05319 2.21103,1.90082 3.05364,3.10387 0.89988,1.1464 1.59015,2.44392 2.61709,3.48961 0.83706,1.11428 1.62819,2.27418 2.54656,3.31788 1.03743,0.9957 2.04271,2.02701 3.02507,3.07642 1.03038,1.07347 2.00013,2.22423 2.76728,3.50232 0.82453,1.26062 1.62294,2.53718 2.37804,3.84138 0.60598,1.34958 1.43554,2.59157 2.18858,3.86196 0.62928,1.36195 1.16195,2.76558 2.16175,3.91332 0.82598,1.38834 1.67779,2.74738 2.6609,4.0311 0.95295,1.16779 1.97498,2.30122 2.67665,3.64531 0.7421,1.25981 1.37498,2.58692 2.24563,3.76969 0.97382,1.32336 1.67013,2.81762 2.69632,4.10508 0.83032,1.30056 1.8475,2.46856 2.62816,3.80295 0.7431,1.3595 1.80222,2.53094 2.42054,3.96697 0.88328,1.41018 1.7427,2.82899 2.51961,4.30223 0.5642,1.31567 1.31889,2.56586 2.16945,3.71387 0.78814,1.15644 1.92609,2.015 2.77687,3.12587 0.96701,1.10491 1.80927,2.31085 2.56773,3.56729 0.8832,1.09548 1.74868,2.21066 2.68459,3.25875 1.0032,1.09228 1.68398,2.42312 2.62031,3.5744 0.8621,1.146 1.77458,2.22004 2.80796,3.22258 0.95082,1.14742 1.89982,2.2897 2.65407,3.58185 0.68257,1.21273 1.6513,2.2344 2.4061,3.40323 0.9761,0.98901 2.01,1.9313 3.13632,2.74716 1.16403,0.81815 2.43427,1.46704 3.5833,2.30842 1.53759,0.91457 3.05669,1.83538 4.34178,3.10189 1.92184,2.03744 3.72395,4.20325 5.34842,6.48421 0,0 -12.98842,7.49116 -12.98842,7.49116 z"
         id="path4136-3"
         style="opacity:0.98000004;fill:#000000;fill-opacity:1;stroke:#dbd4eb;stroke-width:0.2;stroke-miterlimit:4;stroke-dasharray:none;stroke-opacity:1" />
    </g>
  </g>
</svg>
