<?xml version="1.0" encoding="UTF-8" standalone="no"?>
<!-- Created with Inkscape (http://www.inkscape.org/) -->

<svg
   xmlns:dc="http://purl.org/dc/elements/1.1/"
   xmlns:cc="http://creativecommons.org/ns#"
   xmlns:rdf="http://www.w3.org/1999/02/22-rdf-syntax-ns#"
   xmlns:svg="http://www.w3.org/2000/svg"
   xmlns="http://www.w3.org/2000/svg"
   xmlns:xlink="http://www.w3.org/1999/xlink"
   xmlns:sodipodi="http://sodipodi.sourceforge.net/DTD/sodipodi-0.dtd"
   xmlns:inkscape="http://www.inkscape.org/namespaces/inkscape"
   width="186.54889mm"
   height="114.3mm"
   viewBox="0 0 661 405.00001"
   id="svg2"
   version="1.1"
   inkscape:version="0.91 r13725"
   sodipodi:docname="rectanglesClipped.svg">
  <defs
     id="defs4">
    <linearGradient
       inkscape:collect="always"
       id="linearGradient4154">
      <stop
         style="stop-color:#ff3fc2;stop-opacity:1;"
         offset="0"
         id="stop4156" />
      <stop
         style="stop-color:#703fff;stop-opacity:1"
         offset="1"
         id="stop4158" />
    </linearGradient>
    <radialGradient
       inkscape:collect="always"
       xlink:href="#linearGradient4154"
       id="radialGradient4317"
       cx="392.28571"
       cy="339.36963"
       fx="392.28571"
       fy="339.36963"
       r="380.10001"
       gradientTransform="matrix(1,0,0,0.83876431,0,-22.003158)"
       gradientUnits="userSpaceOnUse" />
    <filter
       inkscape:collect="always"
       style="color-interpolation-filters:sRGB"
       id="filter4573"
       x="-0.22706158"
       width="1.4541233"
       y="-0.3152917"
       height="1.6305834">
      <feGaussianBlur
         inkscape:collect="always"
         stdDeviation="36.436066"
         id="feGaussianBlur4575" />
    </filter>
    <filter
       inkscape:collect="always"
       style="color-interpolation-filters:sRGB"
       id="filter4723"
       x="-0.37756541"
       width="1.7551308"
       y="-0.50477469"
       height="2.0095494">
      <feGaussianBlur
         inkscape:collect="always"
         stdDeviation="36.832276"
         id="feGaussianBlur4725" />
    </filter>
  </defs>
  <sodipodi:namedview
     id="base"
     pagecolor="#ffffff"
     bordercolor="#666666"
     borderopacity="1.0"
     inkscape:pageopacity="0.0"
     inkscape:pageshadow="2"
     inkscape:zoom="0.99999999"
     inkscape:cx="235.89373"
     inkscape:cy="259.8767"
     inkscape:document-units="px"
     inkscape:current-layer="layer1"
     showgrid="false"
     inkscape:window-width="1920"
     inkscape:window-height="1056"
     inkscape:window-x="0"
     inkscape:window-y="24"
     inkscape:window-maximized="1"
     fit-margin-top="0"
     fit-margin-left="0"
     fit-margin-right="0"
     fit-margin-bottom="0" />
  <metadata
     id="metadata7">
    <rdf:RDF>
      <cc:Work
         rdf:about="">
        <dc:format>image/svg+xml</dc:format>
        <dc:type
           rdf:resource="http://purl.org/dc/dcmitype/StillImage" />
        <dc:title></dc:title>
      </cc:Work>
    </rdf:RDF>
  </metadata>
  <g
     inkscape:label="Layer 1"
     inkscape:groupmode="layer"
     id="layer1"
     style="display:inline"
     transform="translate(-86,-48.362198)">
    <rect
       style="opacity:1;fill:url(#radialGradient4317);fill-opacity:1;fill-rule:evenodd;stroke:#000000;stroke-width:0.2;stroke-miterlimit:4;stroke-dasharray:none;stroke-opacity:1"
       id="rect4136"
       width="760"
       height="1071.4286"
       x="-5.7142859"
       y="-9.0663671" />
    <path
       style="fill:#0006ff;fill-opacity:1;fill-rule:evenodd;stroke:none;stroke-width:1px;stroke-linecap:butt;stroke-linejoin:miter;stroke-opacity:1;filter:url(#filter4573)"
       d="m 337,120.3622 c -1.66666,-1 -3.33333,-2 -5,-3 -0.33333,0 -0.70185,0.14907 -1,0 -0.42163,-0.21082 -0.57836,-0.78918 -1,-1 -0.39649,-0.19825 -2.79556,0.20443 -3,0 -0.2357,-0.2357 0.2357,-0.7643 0,-1 -0.27362,-0.27362 -3.45751,0.27124 -4,0 -2.4714,-1.23571 0.34518,-1 -2,-1 -1.66666,0 -3.33333,0 -5,0 -0.33333,0 -0.7643,0.2357 -1,0 -0.2357,-0.23571 0.2357,-0.7643 0,-1 -0.2357,-0.23571 -0.66666,0 -1,0 -0.33333,0 -0.66666,0 -1,0 -3,0 -6,0 -9,0 -2,0 -4,0 -6,0 -1,0 -2.16795,-0.5547 -3,0 -1.38675,0.9245 -1.61325,3.0755 -3,4 -8.875,5.91666 0.47222,-4.94445 -3,2 -0.14907,0.29814 -0.66666,0 -1,0 -0.33333,0 -0.66666,0 -1,0 -0.33333,0 -0.66666,0 -1,0 -0.33333,0 -0.7643,-0.2357 -1,0 -0.2357,0.2357 0.2357,0.7643 0,1 -0.5,0.5 -2.5,-0.5 -3,0 -0.2357,0.2357 0.2357,0.7643 0,1 -0.66436,0.66436 -1.33564,-0.66436 -2,0 -0.2357,0.2357 0.2357,0.7643 0,1 -0.2357,0.2357 -0.70186,-0.14907 -1,0 -0.42163,0.21082 -0.57836,0.78918 -1,1 -0.59628,0.29814 -1.52859,-0.47141 -2,0 -0.2357,0.2357 0.2357,0.7643 0,1 -0.2357,0.2357 -0.70186,-0.14907 -1,0 -0.42163,0.21082 -0.57836,0.78918 -1,1 -0.29814,0.14907 -0.7643,-0.2357 -1,0 -0.2357,0.2357 0.2357,0.7643 0,1 -0.2357,0.2357 -0.70186,-0.14907 -1,0 -0.42163,0.21082 -0.57836,0.78918 -1,1 -0.29814,0.14907 -0.7643,-0.2357 -1,0 -0.2357,0.2357 0.2357,0.7643 0,1 -0.2357,0.2357 -0.70186,-0.14907 -1,0 -2.14076,1.07038 0.14077,0.92961 -2,2 -0.29814,0.14907 -0.7643,-0.2357 -1,0 -0.2357,0.2357 0.2357,0.7643 0,1 -0.2357,0.2357 -0.7643,-0.2357 -1,0 -0.27362,0.27362 0.27125,3.45751 0,4 -0.21082,0.42163 -0.78918,0.57836 -1,1 -0.13147,0.26294 0,3.47708 0,4 0,0.33333 -0.2357,0.7643 0,1 0.2357,0.2357 0.7643,-0.2357 1,0 0.2357,0.2357 -0.2357,0.7643 0,1 0.2357,0.2357 0.7643,-0.2357 1,0 0.5,0.5 -0.5,2.5 0,3 0.2357,0.2357 0.7643,-0.2357 1,0 0.47141,0.4714 -0.4714,1.52859 0,2 0.2357,0.2357 0.7643,-0.2357 1,0 0.47141,0.4714 -0.4714,1.52859 0,2 0.2357,0.2357 0.7643,-0.2357 1,0 0.47141,0.4714 -0.4714,1.52859 0,2 0.2357,0.2357 0.7643,-0.2357 1,0 0.66667,0.66666 -0.66666,1.33333 0,2 0.2357,0.2357 0.7643,-0.2357 1,0 0.47141,0.4714 -0.4714,1.52859 0,2 0.2357,0.2357 0.7643,-0.2357 1,0 0.2357,0.2357 -0.2357,0.7643 0,1 0.2357,0.2357 0.7643,-0.2357 1,0 0.47141,0.4714 -0.4714,1.52859 0,2 0.2357,0.2357 0.7643,-0.2357 1,0 0.2357,0.2357 -0.14907,0.70186 0,1 0.21082,0.42163 0.78918,0.57836 1,1 0.14907,0.29814 -0.2357,0.7643 0,1 0.2357,0.2357 0.7643,-0.2357 1,0 0.2357,0.2357 -0.2357,0.7643 0,1 0.2357,0.2357 0.7643,-0.2357 1,0 0.2357,0.2357 -0.2357,0.7643 0,1 0.2357,0.2357 0.7643,-0.2357 1,0 2.06904,2.06903 -3.16176,-0.0809 1,2 0.29814,0.14907 0.7643,-0.2357 1,0 0.2357,0.2357 -0.2357,0.7643 0,1 0.47141,0.4714 1.5286,-0.47141 2,0 0.2357,0.2357 -0.2357,0.7643 0,1 0.2357,0.2357 0.70186,-0.14907 1,0 0.42164,0.21082 0.66667,0.66666 1,1 0.33334,0.33333 0.78918,0.57836 1,1 0.14907,0.29814 -0.2357,0.7643 0,1 0.47141,0.4714 1.5286,-0.47141 2,0 0.2357,0.2357 -0.2357,0.7643 0,1 0.66436,0.66436 1.33564,-0.66436 2,0 0.2357,0.2357 -0.2357,0.7643 0,1 0.47141,0.4714 1.5286,-0.47141 2,0 0.2357,0.2357 -0.2357,0.7643 0,1 0.66436,0.66436 1.33564,-0.66436 2,0 0.2357,0.2357 -0.2357,0.7643 0,1 0.47141,0.4714 1.40372,-0.29814 2,0 0.42164,0.21082 0.57837,0.78918 1,1 0.59629,0.29814 1.5286,-0.47141 2,0 0.2357,0.2357 -0.2357,0.7643 0,1 0.47141,0.4714 1.5286,-0.47141 2,0 0.2357,0.2357 -0.2357,0.7643 0,1 0.2357,0.2357 0.70186,-0.14907 1,0 0.42164,0.21082 0.57837,0.78918 1,1 0.59629,0.29814 1.5286,-0.47141 2,0 0.2357,0.2357 -0.2357,0.7643 0,1 0.2357,0.2357 0.7643,-0.2357 1,0 0.2357,0.2357 -0.2357,0.7643 0,1 0.47141,0.4714 1.5286,-0.47141 2,0 0.2357,0.2357 -0.2357,0.7643 0,1 0.66436,0.66436 1.33564,-0.66436 2,0 0.2357,0.2357 -0.2357,0.7643 0,1 0.47141,0.4714 1.5286,-0.47141 2,0 0.2357,0.2357 -0.2357,0.7643 0,1 0.5,0.5 2.5,-0.5 3,0 0.2357,0.2357 -0.2357,0.7643 0,1 0.5,0.5 2.5,-0.5 3,0 0.2357,0.2357 -0.2357,0.7643 0,1 0.5,0.5 2.5,-0.5 3,0 0.2357,0.2357 -0.2357,0.7643 0,1 0.2357,0.2357 0.70186,-0.14907 1,0 0.42164,0.21082 0.57837,0.78918 1,1 0.30434,0.15216 2.54964,0 3,0 2.33334,0 4.66667,0 7,0 1.66667,0 3.33334,0 5,0 0.33334,0 0.66667,0 1,0 0.33334,0 0.70186,0.14907 1,0 0.42164,-0.21082 0.57837,-0.78918 1,-1 0.29815,-0.14907 0.7643,0.2357 1,0 0.2357,-0.2357 -0.2357,-0.7643 0,-1 0.5,-0.5 2.5,0.5 3,0 0.2357,-0.2357 -0.2357,-0.7643 0,-1 0.30965,-0.30965 4.69036,0.30964 5,0 0.23571,-0.2357 -0.2357,-0.7643 0,-1 0.47141,-0.47141 1.5286,0.4714 2,0 0.23571,-0.2357 -0.2357,-0.7643 0,-1 0.23571,-0.2357 0.66667,0 1,0 0.4715,0 4.95468,0.0453 5,0 0.23571,-0.2357 -0.2357,-0.7643 0,-1 0.0322,-0.0322 2.75748,0 3,0 3.66667,0 7.33334,0 11,0 0.33334,0 0.66667,0 1,0 0.33334,0 0.7643,-0.2357 1,0 0.47141,0.4714 -0.4714,1.52859 0,2 0.5,0.5 2.5,-0.5 3,0 0.23571,0.2357 -0.2357,0.7643 0,1 0.27363,0.27362 3.45752,-0.27125 4,0 0.42164,0.21082 0.57837,0.78918 1,1 0.59629,0.29814 1.5286,-0.47141 2,0 0.23571,0.2357 -0.2357,0.7643 0,1 0.47141,0.4714 1.5286,-0.47141 2,0 0.23571,0.2357 -0.2357,0.7643 0,1 0.47141,0.4714 1.40372,-0.29814 2,0 0.42164,0.21082 0.57837,0.78918 1,1 0.29815,0.14907 0.70186,-0.14907 1,0 0.84328,0.42163 1.15673,1.57836 2,2 0.29815,0.14907 0.7643,-0.2357 1,0 0.66667,0.66666 -0.66666,1.33333 0,2 0.23571,0.2357 0.7643,-0.2357 1,0 0.47141,0.4714 -0.4714,1.52859 0,2 0.23571,0.2357 0.7643,-0.2357 1,0 0.23571,0.2357 -0.14907,0.70186 0,1 0.21082,0.42163 0.78918,0.57836 1,1 0.29815,0.59628 -0.4714,1.52859 0,2 0.23571,0.2357 0.7643,-0.2357 1,0 0.0453,0.0453 0,4.5285 0,5 0,0.33333 0,1.33333 0,1 0,-0.66667 0,-2.66667 0,-2 0,4.6023 0,3.18613 0,8 0,0.36723 -0.0402,3.95976 0,4 0.23571,0.2357 0.7643,-0.2357 1,0 0.47141,0.4714 -0.29814,1.40371 0,2 0.21082,0.42164 0.78918,0.57836 1,1 0.14907,0.29814 -0.2357,0.7643 0,1 0.23571,0.2357 0.7643,-0.2357 1,0 0.23571,0.2357 -0.2357,0.7643 0,1 0.23571,0.2357 0.7643,-0.2357 1,0 0.23571,0.2357 -0.14907,0.70186 0,1 0.21082,0.42164 0.78918,0.57836 1,1 0.14907,0.29814 -0.2357,0.7643 0,1 0.23571,0.2357 0.7643,-0.2357 1,0 0.23571,0.2357 -0.2357,0.7643 0,1 0.23571,0.2357 0.7643,-0.2357 1,0 0.23571,0.2357 -0.2357,0.7643 0,1 0.23571,0.2357 0.7643,-0.2357 1,0 0.23571,0.2357 -0.2357,0.7643 0,1 0.23571,0.2357 0.7643,-0.2357 1,0 0.23571,0.2357 -0.2357,0.7643 0,1 0.23571,0.2357 0.70186,-0.14907 1,0 0.42164,0.21082 0.57837,0.78918 1,1 0.29815,0.14907 0.7643,-0.2357 1,0 0.23571,0.2357 -0.2357,0.7643 0,1 0.23571,0.2357 0.7643,-0.2357 1,0 0.23571,0.2357 -0.2357,0.7643 0,1 0.23571,0.2357 0.7643,-0.2357 1,0 0.23571,0.2357 -0.2357,0.7643 0,1 0.47141,0.4714 1.5286,-0.47141 2,0 0.23571,0.2357 -0.2357,0.7643 0,1 0.23571,0.2357 0.7643,-0.2357 1,0 0.23571,0.2357 -0.2357,0.7643 0,1 0.23571,0.2357 0.70186,-0.14907 1,0 0.42164,0.21082 0.57837,0.78918 1,1 0.29815,0.14907 0.7643,-0.2357 1,0 0.23571,0.2357 -0.2357,0.7643 0,1 0.23571,0.2357 0.7643,-0.2357 1,0 0.23571,0.2357 -0.2357,0.7643 0,1 0.5,0.5 2.5,-0.5 3,0 0.23571,0.2357 -0.2357,0.7643 0,1 0.23571,0.2357 0.70186,-0.14907 1,0 0.84328,0.42164 1.15673,1.57836 2,2 0.59629,0.29814 1.5286,-0.47141 2,0 0.23571,0.2357 -0.2357,0.7643 0,1 0.47141,0.4714 1.5286,-0.47141 2,0 0.23571,0.2357 -0.2357,0.7643 0,1 0.66436,0.66436 1.33564,-0.66436 2,0 0.23571,0.2357 -0.2357,0.7643 0,1 0.47141,0.4714 1.40372,-0.29814 2,0 0.42164,0.21082 0.57837,0.78918 1,1 0.29815,0.14907 0.70186,-0.14907 1,0 0.42164,0.21082 0.57837,0.78918 1,1 0.29815,0.14907 0.70186,-0.14907 1,0 0.42164,0.21082 0.57837,0.78918 1,1 0.29815,0.14907 0.70186,-0.14907 1,0 0.42164,0.21082 0.57837,0.78918 1,1 0.3965,0.19824 2.79557,-0.20444 3,0 0.23571,0.2357 -0.2357,0.7643 0,1 0.47141,0.4714 1.5286,-0.47141 2,0 0.23571,0.2357 -0.2357,0.7643 0,1 0.47141,0.4714 1.40372,-0.29814 2,0 0.42164,0.21082 0.57837,0.78918 1,1 0.59629,0.29814 1.5286,-0.47141 2,0 0.23571,0.2357 -0.2357,0.7643 0,1 0.47141,0.4714 1.5286,-0.47141 2,0 0.23571,0.2357 -0.2357,0.7643 0,1 0.23571,0.2357 0.70186,-0.14907 1,0 0.42164,0.21082 0.57837,0.78918 1,1 0.29815,0.14907 0.7643,-0.2357 1,0 0.23571,0.2357 -0.2357,0.7643 0,1 0.47141,0.4714 1.5286,-0.47141 2,0 0.23571,0.2357 -0.2357,0.7643 0,1 0.23571,0.2357 0.70186,-0.14907 1,0 0.42164,0.21082 0.57837,0.78918 1,1 0.29815,0.14907 0.7643,-0.2357 1,0 0.23571,0.2357 -0.2357,0.7643 0,1 0.20444,0.20443 2.60351,-0.19825 3,0 0.42164,0.21082 0.57837,0.78918 1,1 0.59629,0.29814 1.5286,-0.47141 2,0 0.23571,0.2357 -0.2357,0.7643 0,1 0.66436,0.66436 1.33564,-0.66436 2,0 0.23571,0.2357 -0.2357,0.7643 0,1 0.23571,0.2357 0.70186,-0.14907 1,0 0.42164,0.21082 0.57837,0.78918 1,1 1.07039,0.53519 0.92962,-0.53519 2,0 0.42164,0.21082 0.57837,0.78918 1,1 0.29815,0.14907 0.70186,-0.14907 1,0 0.42164,0.21082 0.57837,0.78918 1,1 0.29815,0.14907 0.70186,-0.14907 1,0 0.42164,0.21082 0.57837,0.78918 1,1 0.29815,0.14907 0.66667,0 1,0 0.33334,0.33333 0.57837,0.78918 1,1 0.29815,0.14907 0.7643,-0.2357 1,0 0.23571,0.2357 -0.2357,0.7643 0,1 0.23571,0.2357 0.70186,-0.14907 1,0 1.26491,0.63245 1.73509,2.36754 3,3 0.59629,0.29814 1.4453,-0.3698 2,0 0.62018,0.41345 0.37983,1.58655 1,2 0.5547,0.3698 1.40372,-0.29814 2,0 0.29815,0.14907 -0.2357,0.7643 0,1 0.23571,0.2357 0.72265,-0.1849 1,0 0.78447,0.52297 1.15673,1.57836 2,2 0.59629,0.29814 1.40372,-0.29814 2,0 0.29815,0.14907 -0.2357,0.7643 0,1 0.23571,0.2357 0.7643,-0.2357 1,0 0.23571,0.2357 -0.2357,0.7643 0,1 0.23571,0.2357 0.7643,-0.2357 1,0 0.23571,0.2357 -0.2357,0.7643 0,1 0.47141,0.4714 1.5286,-0.47141 2,0 0.23571,0.2357 -0.2357,0.7643 0,1 0.47141,0.4714 1.40372,-0.29814 2,0 0.42164,0.21082 0.57837,0.78918 1,1 0.29815,0.14907 0.7643,-0.2357 1,0 0.23571,0.2357 -0.2357,0.7643 0,1 0.47141,0.4714 1.5286,-0.47141 2,0 0.23571,0.2357 -0.2357,0.7643 0,1 0.23571,0.2357 0.70186,-0.14907 1,0 0.42164,0.21082 0.57837,0.78918 1,1 0.59629,0.29814 1.40372,-0.29814 2,0 0.42164,0.21082 0.57837,0.78918 1,1 0.29815,0.14907 0.70186,-0.14907 1,0 0.42164,0.21082 0.57837,0.78918 1,1 0.29815,0.14907 0.70186,-0.14907 1,0 0.42164,0.21082 0.57837,0.78918 1,1 0.8,0.4 2.2,-0.4 3,0 0.42164,0.21082 0.55279,0.85093 1,1 0.63246,0.21082 1.4453,-0.3698 2,0 0.62018,0.41345 0.37983,1.58655 1,2 0.5547,0.3698 1.36755,-0.21082 2,0 0.44722,0.14907 0.55279,0.85093 1,1 0.58619,0.19539 3.68376,-0.21083 4,0 0.62018,0.41345 0.37983,1.58655 1,2 0.5547,0.3698 1.40372,-0.29814 2,0 0.84328,0.42164 1.21554,1.47702 2,2 0.27735,0.1849 0.68378,-0.10541 1,0 0.70711,0.2357 1.2769,0.81922 2,1 0.64677,0.16169 1.4453,-0.3698 2,0 0.62018,0.41345 0.37983,1.58655 1,2 0.6641,1.1094 2.16795,-0.5547 3,0 0.78447,0.52298 1.24576,1.43431 2,2 0.35657,2.45651 2.12295,0.41529 3,1 0.78447,0.52298 1.15673,1.57836 2,2 0.59629,0.29814 1.5286,-0.47141 2,0 0.47141,0.4714 -0.29814,1.40371 0,2 0.14908,0.29814 0.7643,-0.2357 1,0 0.23571,0.2357 0,0.66667 0,1 0.66667,0 1.40372,-0.29814 2,0 0.29815,0.14907 -0.2357,0.7643 0,1 0.23571,0.2357 0.7643,-0.2357 1,0 0,2.66667 -0.33333,-0.33333 1,1 0.47141,0.4714 -0.4714,1.52859 0,2 0.23571,0.2357 0.7643,-0.2357 1,0 0.23571,0.2357 -0.14907,0.70186 0,1 0.21082,0.42164 0.78919,0.57836 1,1 0.29815,0.59628 -0.4714,1.52859 0,2 0.23571,0.2357 0.7643,-0.2357 1,0 0.23571,0.2357 -0.2357,0.7643 0,1 0.23571,0.2357 0.7643,-0.2357 1,0 0.47141,0.4714 -0.29814,1.40371 0,2 0.42164,0.84327 1.57837,1.15672 2,2 0.14908,0.29814 -0.2357,0.7643 0,1 0.23571,0.2357 0.7643,-0.2357 1,0 0.23571,0.2357 -0.2357,0.7643 0,1 0.23571,0.2357 0.7643,-0.2357 1,0 0.23571,0.2357 -0.2357,0.7643 0,1 0.23571,0.2357 0.7643,-0.2357 1,0 0.23571,0.2357 -0.2357,0.7643 0,1 0.23571,0.2357 0.7643,-0.2357 1,0 0.23571,0.2357 -0.14907,0.70186 0,1 0.21082,0.42164 0.78919,0.57836 1,1 0.14908,0.29814 -0.2357,0.7643 0,1 0.23571,0.2357 0.7643,-0.2357 1,0 0.23571,0.2357 -0.2357,0.7643 0,1 0.23571,0.2357 0.7643,-0.2357 1,0 0.23571,0.2357 -0.14907,0.70186 0,1 0.21082,0.42164 0.78919,0.57836 1,1 0.14908,0.29814 -0.2357,0.7643 0,1 0.23571,0.2357 0.7643,-0.2357 1,0 0.23571,0.2357 -0.14907,0.70186 0,1 0.21082,0.42164 0.78919,0.57836 1,1 0.14908,0.29814 -0.2357,0.7643 0,1 0.23571,0.2357 0.7643,-0.2357 1,0 0.47141,0.4714 -0.4714,1.52859 0,2 0.23571,0.2357 0.7643,-0.2357 1,0 0.20444,0.20444 -0.19824,2.60351 0,3 0.21082,0.42164 0.78919,0.57836 1,1 0.14908,0.29814 -0.2357,0.7643 0,1 0.23571,0.2357 0.7643,-0.2357 1,0 0.47141,0.4714 -0.29814,1.40371 0,2 0.21082,0.42164 0.78919,0.57836 1,1 0.29815,0.59628 -0.4714,1.52859 0,2 0.23571,0.2357 0.7643,-0.2357 1,0 0.5,0.5 -0.5,2.5 0,3 0.23571,0.2357 0.7643,-0.2357 1,0 0.0403,0.0402 0,3.63276 0,4 0,0.33333 0,0.66667 0,1 0,0.33333 -0.2357,0.7643 0,1 0.23571,0.2357 0.7643,-0.2357 1,0 0.5,0.5 -0.5,2.5 0,3 0.23571,0.2357 0.7643,-0.2357 1,0 0.5,0.5 -0.5,2.5 0,3 0.23571,0.2357 0.70186,-0.14907 1,0 4.16177,2.08088 -1.06903,-0.069 1,2 0.66667,0.66667 1.33334,-0.66667 2,0 0.23571,0.2357 -0.2357,0.7643 0,1 0.23571,0.2357 0.70186,-0.14907 1,0 0.42164,0.21082 0.57837,0.78918 1,1 0.59629,0.29814 1.5286,-0.47141 2,0 0.23571,0.2357 -0.2357,0.7643 0,1 0.24064,0.24063 3.75937,-0.24063 4,0 0.23571,0.2357 -0.2357,0.7643 0,1 0.23571,0.2357 0.66667,0 1,0 1.66667,0 3.33334,0 5,0 0.33334,0 0.7643,-0.2357 1,0 0.23571,0.2357 -0.2357,0.7643 0,1 0.23571,0.2357 0.66667,0 1,0 0.69554,0 4.63837,-0.18082 5,0 0.42164,0.21082 0.57837,0.78918 1,1 0.30434,0.15217 2.54965,0 3,0 2,0 4,0 6,0 0.33334,0 0.66667,0 1,0 0.33334,0 0.7643,-0.2357 1,0 0.23571,0.2357 -0.2357,0.7643 0,1 0.0322,0.0322 2.75748,0 3,0 5.33334,0 10.66667,0 16.00001,0 0.24252,0 2.96784,-0.0322 3,0 0.2357,0.2357 -0.23571,0.7643 0,1 0.5,0.5 2.5,-0.5 3,0 0.2357,0.2357 0,0.66667 0,1 0.33333,0 0.70185,-0.14907 1,0 0.42163,0.21082 0.57836,0.78918 1,1 0.59628,0.29814 1.52859,-0.47141 2,0 0.2357,0.2357 -0.23571,0.7643 0,1 0.4714,0.4714 1.52859,-0.47141 2,0 0.2357,0.2357 -0.23571,0.7643 0,1 0.2357,0.2357 0.76429,-0.2357 1,0 0.2357,0.2357 -0.23571,0.7643 0,1 0.2357,0.2357 0.76429,-0.2357 1,0 0.5,0.5 -0.5,2.5 0,3 0.2357,0.2357 0.76429,-0.2357 1,0 0.0402,0.0402 0,3.63276 0,4 0,0.24253 0.0322,2.96784 0,3 -0.47141,0.4714 -1.5286,-0.47141 -2,0 -0.23571,0.2357 0.2357,0.7643 0,1 -0.23571,0.2357 -0.7643,-0.2357 -1,0 -0.23571,0.2357 0.2357,0.7643 0,1 -0.23571,0.2357 -0.7643,-0.2357 -1,0 -0.23571,0.2357 0.2357,0.7643 0,1 -0.23571,0.2357 -0.70186,-0.14907 -1,0 -0.42164,0.21082 -0.57837,0.78918 -1,1 -0.29815,0.14907 -0.7643,-0.2357 -1,0 -0.23571,0.2357 0.2357,0.7643 0,1 -0.23571,0.2357 -0.7643,-0.2357 -1,0 -0.23571,0.2357 0.2357,0.7643 0,1 -0.47141,0.4714 -1.5286,-0.47141 -2,0 -0.23571,0.2357 0.2357,0.7643 0,1 -0.47141,0.4714 -1.5286,-0.47141 -2,0 -0.23571,0.2357 0.2357,0.7643 0,1 -0.5,0.5 -2.5,-0.5 -3,0 -0.23571,0.2357 0.2357,0.7643 0,1 -0.23571,0.2357 -0.66667,0 -1,0 -2.33334,0 -4.66667,0 -7.00001,0 -1.66666,0 -3.33333,0 -5,0 -0.33333,0 -0.76429,0.2357 -1,0 -0.2357,-0.2357 0.23571,-0.7643 0,-1 -0.2357,-0.2357 -0.76429,0.2357 -1,0 -0.2357,-0.2357 0.23571,-0.7643 0,-1 -0.4714,-0.47141 -1.40371,0.29814 -2,0 -3.31658,-3.31658 0.94281,0.4714 -2,-1 -0.42163,-0.21082 -0.57836,-0.78918 -1,-1 -0.29814,-0.14907 -0.76429,0.2357 -1,0 -0.2357,-0.2357 0.23571,-0.7643 0,-1 -0.2357,-0.2357 -0.70185,0.14907 -1,0 -0.42163,-0.21082 -0.57836,-0.78918 -1,-1 -0.59628,-0.29814 -1.52859,0.4714 -2,0 -0.2357,-0.2357 0.23571,-0.7643 0,-1 -0.4714,-0.47141 -1.52859,0.4714 -2,0 -0.2357,-0.2357 0.23571,-0.7643 0,-1 -0.2357,-0.2357 -0.70185,0.14907 -1,0 -0.42163,-0.21082 -0.57836,-0.78918 -1,-1 -0.29814,-0.14907 -0.70185,0.14907 -1,0 -0.42163,-0.21082 -0.57836,-0.78918 -1,-1 -0.29814,-0.14907 -0.76429,0.2357 -1,0 -0.2357,-0.2357 0.23571,-0.7643 0,-1 -0.2357,-0.2357 -0.70185,0.14907 -1,0 -0.84327,-0.42164 -1.15672,-1.57836 -2,-2 -0.29814,-0.14907 -0.76429,0.2357 -1,0 -0.2357,-0.2357 0.23571,-0.7643 0,-1 -0.2357,-0.2357 -0.76429,0.2357 -1,0 -0.2357,-0.2357 0.23571,-0.7643 0,-1 -0.66666,-0.66667 -1.33333,0.66667 -2,0 -0.2357,-0.2357 0.23571,-0.7643 0,-1 -0.2357,-0.2357 -0.70185,0.14907 -1,0 -0.42163,-0.21082 -0.57836,-0.78918 -1,-1 -0.29814,-0.14907 -0.76429,0.2357 -1,0 -0.2357,-0.2357 0.23571,-0.7643 0,-1 -0.2357,-0.2357 -0.76429,0.2357 -1,0 -0.2357,-0.2357 0.23571,-0.7643 0,-1 -0.4714,-0.47141 -1.52859,0.4714 -2,0 -0.2357,-0.2357 0.23571,-0.7643 0,-1 -0.4714,-0.47141 -1.52859,0.4714 -2,0 -0.2357,-0.2357 0.23571,-0.7643 0,-1 -0.4714,-0.47141 -1.52859,0.4714 -2,0 -0.2357,-0.2357 0.23571,-0.7643 0,-1 -0.5,-0.5 -2.5,0.5 -3,0 -0.2357,-0.2357 0.23571,-0.7643 0,-1 -0.4714,-0.47141 -1.40371,0.29814 -2,0 -0.42163,-0.21082 -0.57836,-0.78918 -1,-1 -0.29814,-0.14907 -0.76429,0.2357 -1,0 -0.2357,-0.2357 0.23571,-0.7643 0,-1 -0.4714,-0.47141 -1.52859,0.4714 -2,0 -0.2357,-0.2357 0.23571,-0.7643 0,-1 -0.4714,-0.47141 -1.52859,0.4714 -2,0 -0.2357,-0.2357 0.23571,-0.7643 0,-1 -0.2357,-0.2357 -0.76429,0.2357 -1,0 -0.2357,-0.2357 0.23571,-0.7643 0,-1 -0.2357,-0.2357 -0.76429,0.2357 -1,0 -0.2357,-0.2357 0.23571,-0.7643 0,-1 -0.2357,-0.2357 -0.70185,0.14907 -1,0 -2.14076,-1.07038 0.14077,-0.92962 -2,-2 -0.29814,-0.14907 -0.76429,0.2357 -1,0 -0.2357,-0.2357 0.23571,-0.7643 0,-1 -0.2357,-0.2357 -0.76429,0.2357 -1,0 -0.2357,-0.2357 0.23571,-0.7643 0,-1 -0.2357,-0.2357 -0.70185,0.14907 -1,0 -0.84327,-0.42164 -1.15672,-1.57836 -2,-2 -0.29814,-0.14907 -0.76429,0.2357 -1,0 -0.2357,-0.2357 0.23571,-0.7643 0,-1 -0.2357,-0.2357 -0.70185,0.14907 -1,0 -0.84327,-0.42164 -1.15672,-1.57836 -2,-2 -0.29814,-0.14907 -0.76429,0.2357 -1,0 -0.2357,-0.2357 0.23571,-0.7643 0,-1 -0.2357,-0.2357 -0.70185,0.14907 -1,0 -0.84327,-0.42164 -1.15672,-1.57836 -2,-2 -0.29814,-0.14907 -0.76429,0.2357 -1,0 -0.2357,-0.2357 0.23571,-0.7643 0,-1 -0.2357,-0.2357 -0.76429,0.2357 -1,0 -0.2357,-0.2357 0.23571,-0.7643 0,-1 -0.4714,-0.47141 -1.52859,0.4714 -2,0 -0.2357,-0.2357 0.23571,-0.7643 0,-1 -0.2357,-0.2357 -0.76429,0.2357 -1,0 -0.4714,-0.47141 0.47141,-1.5286 0,-2 -0.2357,-0.2357 -0.76429,0.2357 -1,0 -0.2357,-0.2357 0.23571,-0.7643 0,-1 -0.2357,-0.2357 -0.76429,0.2357 -1,0 -0.4714,-0.47141 0.47141,-1.5286 0,-2 -0.2357,-0.2357 -0.76429,0.2357 -1,0 -0.66666,-0.66667 0.66667,-1.33333 0,-2 -0.2357,-0.2357 -0.76429,0.2357 -1,0 -0.5,-0.5 0.5,-2.5 0,-3 -0.2357,-0.2357 -0.76429,0.2357 -1,0 -0.4714,-0.47141 0.47141,-1.5286 0,-2 -0.2357,-0.2357 -0.76429,0.2357 -1,0 -0.2357,-0.2357 0.14908,-0.70186 0,-1 -0.21081,-0.42164 -0.78918,-0.57836 -1,-1 -0.14907,-0.29814 0.23571,-0.7643 0,-1 -0.2357,-0.2357 -0.76429,0.2357 -1,0 -0.2357,-0.2357 0.23571,-0.7643 0,-1 -0.2357,-0.2357 -0.76429,0.2357 -1,0 -0.5,-0.5 0.5,-2.5 0,-3 -0.2357,-0.2357 -0.76429,0.2357 -1,0 -0.24063,-0.24063 0.24064,-3.75937 0,-4 -0.2357,-0.2357 -0.76429,0.2357 -1,0 -0.2357,-0.2357 0,-0.66667 0,-1 0,-0.4715 0.0453,-4.95468 0,-5 -0.2357,-0.2357 -0.76429,0.2357 -1,0 -0.2357,-0.2357 0,-0.66667 0,-1 0,-0.69554 0.18082,-4.63837 0,-5 -0.21081,-0.42164 -0.78918,-0.57836 -1,-1 -0.27124,-0.54249 0.27363,-3.72638 0,-4 -0.2357,-0.2357 -0.76429,0.2357 -1,0 -0.2357,-0.2357 0,-0.66667 0,-1 0,-0.4715 0.0453,-4.95468 0,-5 -0.2357,-0.2357 -0.76429,0.2357 -1,0 -0.5,-0.5 0.5,-2.5 0,-3 -0.2357,-0.2357 -0.76429,0.2357 -1,0 -0.66666,-0.66667 0.66667,-1.33333 0,-2 -0.2357,-0.2357 -0.76429,0.2357 -1,0 -0.4714,-0.47141 0.47141,-1.5286 0,-2 -0.2357,-0.2357 -0.76429,0.2357 -1,0 -0.4714,-0.47141 0.47141,-1.5286 0,-2 -0.2357,-0.2357 -0.76429,0.2357 -1,0 -0.2357,-0.2357 0.23571,-0.7643 0,-1 -0.2357,-0.2357 -0.76429,0.2357 -1,0 -0.2357,-0.2357 0.23571,-0.7643 0,-1 -0.2357,-0.2357 -0.76429,0.2357 -1,0 -0.2357,-0.2357 0.23571,-0.7643 0,-1 -0.2357,-0.2357 -0.76429,0.2357 -1,0 -0.2357,-0.2357 0.23571,-0.7643 0,-1 -0.2357,-0.2357 -0.76429,0.2357 -1,0 -0.2357,-0.2357 0.23571,-0.7643 0,-1 -0.2357,-0.2357 -0.70185,0.14907 -1,0 -0.42163,-0.21082 -0.57836,-0.78918 -1,-1 -0.29814,-0.14907 -0.76429,0.2357 -1,0 -0.2357,-0.2357 0.23571,-0.7643 0,-1 -2.66666,0 0.33334,0.33333 -1,-1 -0.4714,-0.47141 -1.52859,0.4714 -2,0 -0.2357,-0.2357 0.23571,-0.7643 0,-1 -0.5,-0.5 -2.5,0.5 -3,0 -0.2357,-0.2357 0.23571,-0.7643 0,-1 -0.2357,-0.2357 -0.76429,0.2357 -1,0 -0.2357,-0.2357 0.23571,-0.7643 0,-1 -0.5,-0.5 -2.5,0.5 -3,0 -0.2357,-0.2357 0.23571,-0.7643 0,-1 -0.4714,-0.47141 -1.52859,0.4714 -2,0 -0.2357,-0.2357 0.23571,-0.7643 0,-1 -0.4714,-0.47141 -1.52859,0.4714 -2,0 -0.2357,-0.2357 0.23571,-0.7643 0,-1 -0.4714,-0.47141 -1.52859,0.4714 -2,0 -0.2357,-0.2357 0.23571,-0.7643 0,-1 -0.2357,-0.2357 -0.70185,0.14907 -1,0 -0.42163,-0.21082 -0.57836,-0.78918 -1,-1 -0.29814,-0.14907 -0.76429,0.2357 -1,0 -0.2357,-0.2357 0.23571,-0.7643 0,-1 -0.2357,-0.2357 -0.76429,0.2357 -1,0 -0.2357,-0.2357 0.23571,-0.7643 0,-1 -0.4714,-0.47141 -1.40371,0.29814 -2,0 -0.42163,-0.21082 -0.57836,-0.78918 -1,-1 -0.59628,-0.29814 -1.52859,0.4714 -2,0 -0.2357,-0.2357 0.23571,-0.7643 0,-1 -0.20443,-0.20444 -2.6035,0.19824 -3,0 -0.42163,-0.21082 -0.57836,-0.78918 -1,-1 -0.54248,-0.27125 -3.72637,0.27362 -4,0 -0.2357,-0.2357 0.23571,-0.7643 0,-1 -0.35102,-0.35102 -4.30926,0.34537 -5,0 -0.42163,-0.21082 -0.57836,-0.78918 -1,-1 -0.39649,-0.19825 -2.79556,0.20443 -3,0 -0.2357,-0.2357 0.23571,-0.7643 0,-1 -0.30964,-0.30965 -4.69035,0.30965 -5,0 -0.2357,-0.2357 0.23571,-0.7643 0,-1 -0.2357,-0.2357 -0.66666,0 -1,0 -2.66666,0 -5.33333,0 -8,0 -3.66666,0 -7.33333,0 -11,0 -0.33333,0 -0.66666,0 -1,0 -0.33333,0 -0.76429,0.2357 -1,0 -0.2357,-0.2357 0.23571,-0.7643 0,-1 -0.2357,-0.2357 -0.66666,0 -1,0 -2,0 -4,0 -6,0 -0.33333,0 -0.76429,0.2357 -1,0 -0.2357,-0.2357 0.23571,-0.7643 0,-1 -0.2357,-0.2357 -0.66666,0 -1,0 -0.33333,0 -0.66666,0 -1,0 -2,0 -4,0 -6,0 -0.33333,0 -0.66666,0 -1,0 -0.33333,0 -0.70185,0.14907 -1,0 -0.42163,-0.21082 -0.57836,-0.78918 -1,-1 -0.39649,-0.19825 -2.79556,0.20443 -3,0 -0.2357,-0.2357 0.23571,-0.7643 0,-1 -0.66436,-0.66436 -1.33564,0.66436 -2,0 -0.2357,-0.2357 0.23571,-0.7643 0,-1 -0.4714,-0.47141 -1.52859,0.4714 -2,0 -0.2357,-0.2357 0.23571,-0.7643 0,-1 -0.66436,-0.66436 -1.33564,0.66436 -2,0 -0.2357,-0.2357 0.23571,-0.7643 0,-1 -0.4714,-0.47141 -1.52859,0.4714 -2,0 -0.2357,-0.2357 0.23571,-0.7643 0,-1 -0.4714,-0.47141 -1.52859,0.4714 -2,0 -0.2357,-0.2357 0.23571,-0.7643 0,-1 -0.27362,-0.27362 -3.45751,0.27124 -4,0 -0.42163,-0.21082 -0.57836,-0.78918 -1,-1 -0.39649,-0.19825 -2.79556,0.20443 -3,0 -0.2357,-0.2357 0.23571,-0.7643 0,-1 -0.4714,-0.47141 -1.52859,0.4714 -2,0 -0.2357,-0.2357 0.23571,-0.7643 0,-1 -0.5,-0.5 -2.5,0.5 -3,0 -0.2357,-0.2357 0.23571,-0.7643 0,-1 -0.2357,-0.2357 -0.70185,0.14907 -1,0 -0.42163,-0.21082 -0.57836,-0.78918 -1,-1 -0.39649,-0.19825 -2.79556,0.20443 -3,0 -0.2357,-0.2357 0.23571,-0.7643 0,-1 -0.66436,-0.66436 -1.33564,0.66436 -2,0 -0.2357,-0.2357 0.23571,-0.7643 0,-1 -0.5,-0.5 -2.5,0.5 -3,0 -0.2357,-0.2357 0.23571,-0.7643 0,-1 -0.4714,-0.47141 -1.40371,0.29814 -2,0 -0.42163,-0.21082 -0.57836,-0.78918 -1,-1 -0.29814,-0.14907 -0.76429,0.2357 -1,0 -0.2357,-0.2357 0.23571,-0.7643 0,-1 -0.24063,-0.24063 -3.75937,0.24063 -4,0 -0.2357,-0.2357 0.23571,-0.7643 0,-1 -0.66436,-0.66436 -1.33564,0.66436 -2,0 -0.2357,-0.2357 0.23571,-0.7643 0,-1 -0.4714,-0.47141 -1.52859,0.4714 -2,0 -0.2357,-0.2357 0.23571,-0.7643 0,-1 -0.4714,-0.47141 -1.40371,0.29814 -2,0 -0.42163,-0.21082 -0.57836,-0.78918 -1,-1 -0.59628,-0.29814 -1.52859,0.4714 -2,0 -0.2357,-0.2357 0.23571,-0.7643 0,-1 -0.4714,-0.47141 -1.40371,0.29814 -2,0 -0.42163,-0.21082 -0.57836,-0.78918 -1,-1 -0.29814,-0.14907 -0.76429,0.2357 -1,0 -0.2357,-0.2357 0.23571,-0.7643 0,-1 -0.2357,-0.2357 -0.76429,0.2357 -1,0 -0.2357,-0.2357 0.23571,-0.7643 0,-1 -0.2357,-0.2357 -0.70185,0.14907 -1,0 -0.42163,-0.21082 -0.57836,-0.78918 -1,-1 -0.29814,-0.14907 -0.76429,0.2357 -1,0 -0.2357,-0.2357 0.23571,-0.7643 0,-1 -0.2357,-0.2357 -0.70185,0.14907 -1,0 -1.2,-0.6 -1.8,-2.4 -3,-3 -0.29814,-0.14907 -0.76429,0.2357 -1,0 -0.4714,-0.47141 0.47141,-1.5286 0,-2 -0.2357,-0.2357 -0.70185,0.14907 -1,0 -4.16176,-2.08088 1.06904,0.069 -1,-2 -0.2357,-0.2357 -0.76429,0.2357 -1,0 -0.2357,-0.2357 0.23571,-0.7643 0,-1 -0.2357,-0.2357 -0.76429,0.2357 -1,0 -0.4714,-0.47141 0.47141,-1.5286 0,-2 -0.2357,-0.2357 -0.76429,0.2357 -1,0 -0.2357,-0.2357 0.23571,-0.7643 0,-1 -0.2357,-0.2357 -0.76429,0.2357 -1,0 -0.2357,-0.2357 0.14907,-0.70186 0,-1 -0.21082,-0.42164 -0.78918,-0.57836 -1,-1 -0.14907,-0.29814 0.14907,-0.70186 0,-1 -0.21082,-0.42164 -0.78918,-0.57836 -1,-1 -0.29814,-0.59629 0.47141,-1.5286 0,-2 -0.2357,-0.2357 -0.76429,0.2357 -1,0 -0.4714,-0.47141 0.47141,-1.5286 0,-2 -0.2357,-0.2357 -0.76429,0.2357 -1,0 -0.4714,-0.47141 0.47141,-1.5286 0,-2 -0.2357,-0.2357 -0.76429,0.2357 -1,0 -0.2357,-0.2357 0.14907,-0.70186 0,-1 -0.21082,-0.42164 -0.78918,-0.57836 -1,-1 -0.29814,-0.59629 0.47141,-1.5286 0,-2 -0.2357,-0.2357 -0.76429,0.2357 -1,0 -0.4714,-0.47141 0.29815,-1.40372 0,-2 -0.21082,-0.42164 -0.78918,-0.57836 -1,-1 -0.14907,-0.29814 0.23571,-0.7643 0,-1 -0.2357,-0.2357 -0.76429,0.2357 -1,0 -0.4714,-0.47141 0.47141,-1.5286 0,-2 -0.2357,-0.2357 -0.76429,0.2357 -1,0 -0.4714,-0.47141 0.29815,-1.40372 0,-2 -0.21082,-0.42164 -0.78918,-0.57837 -1,-1 -0.14907,-0.29814 0.23571,-0.7643 0,-1 -0.2357,-0.2357 -0.76429,0.2357 -1,0 -0.5,-0.5 0.5,-2.5 0,-3 -0.2357,-0.2357 -0.76429,0.2357 -1,0 -0.4714,-0.47141 0.47141,-1.5286 0,-2 -0.2357,-0.2357 -0.76429,0.2357 -1,0 -0.5,-0.5 0.5,-2.5 0,-3 -0.2357,-0.2357 -0.76429,0.2357 -1,0 -0.4714,-0.47141 0.47141,-1.5286 0,-2 -0.2357,-0.2357 -0.76429,0.2357 -1,0 -0.5,-0.5 0.5,-2.5 0,-3 -0.2357,-0.2357 -0.76429,0.2357 -1,0 -0.2357,-0.2357 0.23571,-0.7643 0,-1 -0.2357,-0.2357 -0.76429,0.2357 -1,0 -0.2357,-0.2357 0.23571,-0.7643 0,-1 -0.2357,-0.2357 -0.76429,0.2357 -1,0 -0.4714,-0.47141 0.47141,-1.5286 0,-2 -0.66436,-0.66436 -1.33564,0.66436 -2,0 -0.66666,-0.66667 0.66667,-1.33334 0,-2 -0.4714,-0.47141 -1.52859,0.4714 -2,0 -0.2357,-0.2357 0.2357,-0.7643 0,-1 -0.2357,-0.2357 -0.7643,0.2357 -1,0 -0.2357,-0.2357 0.2357,-0.7643 0,-1 -0.66436,-0.66436 -1.33564,0.66436 -2,0 -0.2357,-0.2357 0.2357,-0.7643 0,-1 -0.2357,-0.2357 -0.7643,0.2357 -1,0 -0.2357,-0.2357 0.2357,-0.7643 0,-1 -0.2357,-0.2357 -0.70185,0.14907 -1,0 -0.26551,-0.13276 -2.86724,-2.73449 -3,-3 -0.14907,-0.29814 0.2357,-0.7643 0,-1 -0.2357,-0.2357 -0.7643,0.2357 -1,0 -0.2357,-0.2357 0.2357,-0.7643 0,-1 -0.2357,-0.2357 -0.7643,0.2357 -1,0 -0.2357,-0.2357 0.2357,-0.7643 0,-1 -0.2357,-0.2357 -0.7643,0.2357 -1,0 -0.4714,-0.47141 0.47141,-1.5286 0,-2 -0.2357,-0.2357 -0.7643,0.2357 -1,0 -0.5,-0.5 0.5,-2.5 0,-3 -0.2357,-0.2357 -0.7643,0.2357 -1,0 -0.5,-0.5 0.5,-2.5 0,-3 -0.2357,-0.2357 -0.7643,0.2357 -1,0 -0.4714,-0.47141 0.47141,-1.5286 0,-2 -0.2357,-0.2357 -0.7643,0.2357 -1,0 -0.2357,-0.2357 0.2357,-0.7643 0,-1 -0.2357,-0.2357 -0.7643,0.2357 -1,0 -0.2357,-0.2357 0.2357,-0.7643 0,-1 -0.2357,-0.2357 -0.7643,0.2357 -1,0 -0.4714,-0.47141 0.47141,-1.5286 0,-2 -0.2357,-0.2357 -0.70186,0.14907 -1,0 -2.14825,-1.07413 0.14825,-0.92588 -2,-2 -0.29814,-0.14907 -0.7643,0.2357 -1,0 -0.2357,-0.2357 0.2357,-0.7643 0,-1 -0.2357,-0.2357 -0.70186,0.14907 -1,0 -1.07038,-0.53519 -0.92961,-1.46481 -2,-2 -0.59628,-0.29814 -1.52859,0.4714 -2,0 -0.4714,-0.47141 0.47141,-1.5286 0,-2 -0.4714,-0.47141 -1.52859,0.4714 -2,0 -0.2357,-0.2357 0.2357,-0.7643 0,-1 -0.2357,-0.2357 -0.7643,0.2357 -1,0 -0.4714,-0.47141 0.47141,-1.5286 0,-2 -0.2357,-0.2357 -0.7643,0.2357 -1,0 -0.4714,-0.47141 0.47141,-1.5286 0,-2 -1.33333,-1.33334 -1,1.66666 -1,-1 0,-0.33334 0,-0.66667 0,-1 0,-0.33334 0.2357,-0.7643 0,-1 -0.2357,-0.2357 -0.7643,0.2357 -1,0 -0.2357,-0.2357 0,-0.66667 0,-1 0,-0.24253 -0.0322,-2.96784 0,-3 0.47141,-0.47141 1.5286,0.4714 2,0 2.06904,-2.06904 -3.16176,0.0809 1,-2 0.59629,-0.29814 1.5286,0.4714 2,0 0.2357,-0.2357 -0.2357,-0.7643 0,-1 0.24063,-0.24063 3.75937,0.24063 4,0 0.2357,-0.2357 -0.2357,-0.7643 0,-1 0.0453,-0.0453 4.5285,0 5,0 0.33334,0 0.7643,0.2357 1,0 0.2357,-0.2357 -0.2357,-0.7643 0,-1 0.47141,-0.47141 1.40372,0.29814 2,0 0.42164,-0.21082 0.57837,-0.78918 1,-1 0.59629,-0.29814 1.5286,0.4714 2,0 0.2357,-0.2357 -0.2357,-0.7643 0,-1 0.47141,-0.47141 1.5286,0.4714 2,0 0.2357,-0.2357 -0.2357,-0.7643 0,-1 0.2357,-0.2357 0.7643,0.2357 1,0 0.2357,-0.2357 -0.2357,-0.7643 0,-1 0.2357,-0.2357 0.7643,0.2357 1,0 0.47141,-0.47141 -0.29814,-1.40372 0,-2 0.21082,-0.42164 0.78918,-0.57837 1,-1 0.32519,-0.65039 -0.30042,-3.24894 0,-4 0.55364,-1.38409 1.33334,-2.66667 2,-4 z"
       id="path4351"
       inkscape:connector-curvature="0" />
    <path
       style="fill:#ffb500;fill-opacity:1;fill-rule:evenodd;stroke:none;stroke-width:1px;stroke-linecap:butt;stroke-linejoin:miter;stroke-opacity:1;filter:url(#filter4723)"
       d="m 453,195.3622 c -2,0 -4,0 -6,0 -0.33333,0 -0.76429,-0.2357 -1,0 -0.2357,0.2357 0.14907,0.70186 0,1 -0.21081,0.42163 -0.78918,0.57836 -1,1 -0.29814,0.59628 0.47141,1.52859 0,2 -0.2357,0.2357 -0.76429,-0.2357 -1,0 -0.4714,0.4714 0.29815,1.40371 0,2 -0.21081,0.42163 -0.78918,0.57836 -1,1 -0.14907,0.29814 0.23571,0.7643 0,1 -0.2357,0.2357 -0.76429,-0.2357 -1,0 -0.2357,0.2357 0.14907,0.70186 0,1 -0.21081,0.42164 -0.78918,0.57836 -1,1 -0.14907,0.29814 0.23571,0.7643 0,1 -0.2357,0.2357 -0.76429,-0.2357 -1,0 -0.2357,0.2357 0.14907,0.70186 0,1 -0.21082,0.42164 -0.78918,0.57836 -1,1 -0.14907,0.29814 0.23571,0.7643 0,1 -0.2357,0.2357 -0.76429,-0.2357 -1,0 -0.4714,0.4714 0.47141,1.52859 0,2 -0.2357,0.2357 -0.76429,-0.2357 -1,0 -0.4714,0.4714 0.47141,1.52859 0,2 -0.2357,0.2357 -0.76429,-0.2357 -1,0 -0.2357,0.2357 0.14907,0.70186 0,1 -0.21082,0.42164 -0.78918,0.57836 -1,1 -0.19824,0.39649 0.20444,2.79556 0,3 -0.2357,0.2357 -0.76429,-0.2357 -1,0 -0.2357,0.2357 0.23571,0.7643 0,1 -0.2357,0.2357 -0.76429,-0.2357 -1,0 -0.2357,0.2357 0.23571,0.7643 0,1 -0.2357,0.2357 -0.76429,-0.2357 -1,0 -0.2357,0.2357 0.23571,0.7643 0,1 -0.2357,0.2357 -0.76429,-0.2357 -1,0 -0.2357,0.2357 0.23571,0.7643 0,1 -0.4714,0.4714 -1.52859,-0.47141 -2,0 -0.2357,0.2357 0.23571,0.7643 0,1 -0.66436,0.66436 -1.33564,-0.66436 -2,0 -0.2357,0.2357 0.23571,0.7643 0,1 -0.4714,0.4714 -1.52859,-0.47141 -2,0 -0.2357,0.2357 0.23571,0.7643 0,1 -0.66436,0.66436 -1.33564,-0.66436 -2,0 -0.2357,0.2357 0.23571,0.7643 0,1 -0.2357,0.2357 -0.66666,0 -1,0 -1.66666,0 -3.33333,0 -5,0 -6.33333,0 -12.66666,0 -19,0 -0.24252,0 -2.96784,0.0322 -3,0 -0.2357,-0.2357 0.23571,-0.7643 0,-1 -0.2357,-0.2357 -0.70185,0.14907 -1,0 -0.42163,-0.21082 -0.57836,-0.78918 -1,-1 -0.69073,-0.34537 -4.64898,0.35102 -5,0 -0.2357,-0.2357 0.23571,-0.7643 0,-1 -0.2357,-0.2357 -0.66666,0 -1,0 -2.33333,0 -4.66666,0 -7,0 -7,0 -14,0 -21,0 -0.24252,0 -2.96784,-0.0322 -3,0 -0.2357,0.2357 0.23571,0.7643 0,1 -0.2357,0.2357 -0.76429,-0.2357 -1,0 -0.2357,0.2357 0.23571,0.7643 0,1 -0.2357,0.2357 -0.66666,0 -1,0 -0.7088,0 -5.74145,-0.12928 -6,0 -0.42163,0.21082 -0.57836,0.78918 -1,1 -0.69073,0.34536 -4.64898,-0.35102 -5,0 -0.2357,0.2357 0.2357,0.7643 0,1 -0.2357,0.2357 -0.66666,0 -1,0 -2,0 -4,0 -6,0 -0.33333,0 -0.7643,-0.2357 -1,0 -0.2357,0.2357 0.2357,0.7643 0,1 -0.66436,0.66436 -1.33564,-0.66436 -2,0 -0.2357,0.2357 0.2357,0.7643 0,1 -0.24063,0.24063 -3.75937,-0.24063 -4,0 -0.4714,0.4714 0.47141,1.52859 0,2 -0.4714,0.4714 -1.52859,-0.47141 -2,0 -0.2357,0.2357 0.2357,0.7643 0,1 -0.2357,0.2357 -0.7643,-0.2357 -1,0 -0.2357,0.2357 0.2357,0.7643 0,1 -0.66436,0.66436 -1.33564,-0.66436 -2,0 -0.2357,0.2357 0.2357,0.7643 0,1 -0.2357,0.2357 -0.7643,-0.2357 -1,0 -0.2357,0.2357 0.2357,0.7643 0,1 -0.2357,0.2357 -0.7643,-0.2357 -1,0 -0.2357,0.2357 0.2357,0.7643 0,1 -0.2357,0.2357 -0.7643,-0.2357 -1,0 -0.2357,0.2357 0.2357,0.7643 0,1 -0.2357,0.2357 -0.7643,-0.2357 -1,0 -0.2357,0.2357 0.2357,0.7643 0,1 -0.2357,0.2357 -0.7643,-0.2357 -1,0 -0.2357,0.2357 0.2357,0.7643 0,1 -0.2357,0.2357 -0.7643,-0.2357 -1,0 -0.0402,0.0402 0,3.63276 0,4 0,2 0,4 0,6 0,0.33333 -0.2357,0.7643 0,1 0.47141,0.4714 1.5286,-0.47141 2,0 0.2357,0.2357 -0.2357,0.7643 0,1 0.2357,0.2357 0.7643,-0.2357 1,0 0.5,0.5 -0.5,2.5 0,3 2.06904,2.06903 -0.0809,-3.16176 2,1 0,2.66667 -0.33333,-0.33333 1,1 0.2357,0.2357 -0.2357,0.7643 0,1 0.2357,0.2357 0.7643,-0.2357 1,0 0.2357,0.2357 -0.14907,0.70186 0,1 0.21082,0.42164 0.78918,0.57836 1,1 0.14907,0.29814 -0.2357,0.7643 0,1 0.2357,0.2357 0.7643,-0.2357 1,0 0.2357,0.2357 -0.2357,0.7643 0,1 0.2357,0.2357 0.7643,-0.2357 1,0 0.47141,0.4714 -0.4714,1.52859 0,2 0.2357,0.2357 0.7643,-0.2357 1,0 0.47141,0.4714 -0.4714,1.52859 0,2 0.2357,0.2357 0.7643,-0.2357 1,0 0.2357,0.2357 -0.14907,0.70186 0,1 0.42164,0.84327 1.57837,1.15672 2,2 0.14907,0.29814 -0.2357,0.7643 0,1 0.2357,0.2357 0.7643,-0.2357 1,0 0.2357,0.2357 -0.14907,0.70186 0,1 0.21082,0.42164 0.78918,0.57836 1,1 0.14907,0.29814 -0.2357,0.7643 0,1 1.33334,1.33333 1,-1.66667 1,1 0,2.66667 -0.33333,-0.33333 1,1 0.66667,0.66667 -0.66666,1.33333 0,2 0.2357,0.2357 0.7643,-0.2357 1,0 0.5,0.5 -0.5,2.5 0,3 0.2357,0.2357 0.7643,-0.2357 1,0 0.2357,0.2357 0,0.66667 0,1 0,1.66667 0,3.33333 0,5 0,0.24253 0.0322,2.96784 0,3 -0.2357,0.2357 -0.7643,-0.2357 -1,0 -0.2357,0.2357 0.2357,0.7643 0,1 -0.2357,0.2357 -0.7643,-0.2357 -1,0 -0.4714,0.4714 0.47141,1.52859 0,2 -0.2357,0.2357 -0.7643,-0.2357 -1,0 -0.2357,0.2357 0.2357,0.7643 0,1 -0.2357,0.2357 -0.7643,-0.2357 -1,0 -0.2357,0.2357 0.2357,0.7643 0,1 -0.2357,0.2357 -0.7643,-0.2357 -1,0 -0.2357,0.2357 0.2357,0.7643 0,1 -0.2357,0.2357 -0.7643,-0.2357 -1,0 -0.2357,0.2357 0.2357,0.7643 0,1 -0.2357,0.2357 -0.7643,-0.2357 -1,0 -0.2357,0.2357 0.2357,0.7643 0,1 -0.2357,0.2357 -0.70185,-0.14907 -1,0 -0.42163,0.21082 -0.57836,0.78918 -1,1 -0.29814,0.14907 -0.7643,-0.2357 -1,0 -0.2357,0.2357 0.2357,0.7643 0,1 -0.2357,0.2357 -0.7643,-0.2357 -1,0 -0.2357,0.2357 0.2357,0.7643 0,1 -0.4714,0.4714 -1.52859,-0.47141 -2,0 -0.2357,0.2357 0.2357,0.7643 0,1 -0.2357,0.2357 -0.70186,-0.14907 -1,0 -0.42163,0.21082 -0.57836,0.78918 -1,1 -0.59628,0.29814 -1.52859,-0.47141 -2,0 -0.2357,0.2357 0.2357,0.7643 0,1 -0.4714,0.4714 -1.40371,-0.29814 -2,0 -0.42163,0.21082 -0.57836,0.78918 -1,1 -0.29814,0.14907 -0.7643,-0.2357 -1,0 -0.2357,0.2357 0.2357,0.7643 0,1 -0.2357,0.2357 -0.70186,-0.14907 -1,0 -0.84327,0.42164 -1.15672,1.57836 -2,2 -0.59628,0.29814 -1.52859,-0.47141 -2,0 -0.2357,0.2357 0.2357,0.7643 0,1 -0.4714,0.4714 -1.52859,-0.47141 -2,0 -0.2357,0.2357 0.2357,0.7643 0,1 -0.66436,0.66436 -1.33564,-0.66436 -2,0 -0.2357,0.2357 0.2357,0.7643 0,1 -0.2357,0.2357 -0.70186,-0.14907 -1,0 -0.42163,0.21082 -0.57836,0.78918 -1,1 -0.29814,0.14907 -0.7643,-0.2357 -1,0 -0.2357,0.2357 0.2357,0.7643 0,1 -0.2357,0.2357 -0.7643,-0.2357 -1,0 -0.2357,0.2357 0.2357,0.7643 0,1 -0.2357,0.2357 -0.70186,-0.14907 -1,0 -0.98403,0.49201 -3.01597,3.50798 -4,4 -0.29814,0.14907 -0.7643,-0.2357 -1,0 -0.2357,0.2357 0.2357,0.7643 0,1 -0.2357,0.2357 -0.7643,-0.2357 -1,0 -0.2357,0.2357 0.14907,0.70186 0,1 -0.42163,0.84327 -1.57836,1.15672 -2,2 -0.14907,0.29814 0.2357,0.7643 0,1 -0.2357,0.2357 -0.7643,-0.2357 -1,0 -0.2357,0.2357 0.2357,0.7643 0,1 -0.2357,0.2357 -0.7643,-0.2357 -1,0 -0.2357,0.2357 0.14907,0.70186 0,1 -0.21082,0.42164 -0.78918,0.57836 -1,1 -0.14907,0.29814 0.2357,0.7643 0,1 -0.2357,0.2357 -0.7643,-0.2357 -1,0 -0.2357,0.2357 0.2357,0.7643 0,1 -0.2357,0.2357 -0.7643,-0.2357 -1,0 -0.2357,0.2357 0.14907,0.70186 0,1 -0.21082,0.42164 -0.78918,0.57836 -1,1 -0.14907,0.29814 0.2357,0.7643 0,1 -0.2357,0.2357 -0.7643,-0.2357 -1,0 -0.2357,0.2357 0.14907,0.70186 0,1 -0.6,1.2 -2.4,1.8 -3,3 -0.14907,0.29814 0.2357,0.7643 0,1 -0.2357,0.2357 -0.7643,-0.2357 -1,0 -0.4714,0.4714 0.47141,1.52859 0,2 -0.2357,0.2357 -0.7643,-0.2357 -1,0 -0.4714,0.4714 0.47141,1.52859 0,2 -0.2357,0.2357 -0.7643,-0.2357 -1,0 -0.0453,0.0453 0,4.5285 0,5 0,0.24253 -0.0322,2.96784 0,3 0.2357,0.2357 0.7643,-0.2357 1,0 0.2357,0.2357 -0.2357,0.7643 0,1 0.47141,0.4714 1.5286,-0.47141 2,0 0.2357,0.2357 -0.2357,0.7643 0,1 0.2357,0.2357 0.7643,-0.2357 1,0 0.2357,0.2357 -0.2357,0.7643 0,1 0.47141,0.4714 1.5286,-0.47141 2,0 0.2357,0.2357 -0.2357,0.7643 0,1 0.2357,0.2357 0.7643,-0.2357 1,0 0.2357,0.2357 -0.2357,0.7643 0,1 0.24063,0.24063 3.75937,-0.24063 4,0 0.2357,0.2357 -0.2357,0.7643 0,1 0.0402,0.0402 3.63277,0 4,0 0.24253,0 2.96784,0.0322 3,0 0.2357,-0.2357 -0.2357,-0.7643 0,-1 0.2357,-0.2357 0.7643,0.2357 1,0 0.2357,-0.2357 -0.2357,-0.7643 0,-1 0.2357,-0.2357 0.70186,0.14907 1,0 0.42164,-0.21082 0.57837,-0.78918 1,-1 0.29814,-0.14907 0.7643,0.2357 1,0 0.2357,-0.2357 -0.2357,-0.7643 0,-1 0.5,-0.5 2.5,0.5 3,0 0.2357,-0.2357 -0.2357,-0.7643 0,-1 0.2357,-0.2357 0.7643,0.2357 1,0 0.2357,-0.2357 -0.2357,-0.7643 0,-1 0.30965,-0.30965 4.69036,0.30965 5,0 0.2357,-0.2357 -0.2357,-0.7643 0,-1 0.2357,-0.2357 0.7643,0.2357 1,0 0.2357,-0.2357 -0.2357,-0.7643 0,-1 0.47141,-0.47141 1.5286,0.4714 2,0 0.2357,-0.2357 -0.2357,-0.7643 0,-1 0.2357,-0.2357 0.7643,0.2357 1,0 0.2357,-0.2357 -0.2357,-0.7643 0,-1 0.66436,-0.66436 1.33564,0.66436 2,0 0.2357,-0.2357 -0.2357,-0.7643 0,-1 2.06904,-2.06904 -0.0809,3.16176 2,-1 0.14907,-0.29814 -0.2357,-0.7643 0,-1 0.5,-0.5 2.5,0.5 3,0 0.2357,-0.2357 -0.2357,-0.7643 0,-1 0.2357,-0.2357 0.7643,0.2357 1,0 0.2357,-0.2357 -0.2357,-0.7643 0,-1 0.66436,-0.66436 1.33564,0.66436 2,0 0.2357,-0.2357 -0.2357,-0.7643 0,-1 0.2357,-0.2357 0.7643,0.2357 1,0 0.2357,-0.2357 -0.2357,-0.7643 0,-1 0.2357,-0.2357 0.7643,0.2357 1,0 0.2357,-0.2357 -0.2357,-0.7643 0,-1 0.2357,-0.2357 0.7643,0.2357 1,0 0.2357,-0.2357 -0.2357,-0.7643 0,-1 0.2357,-0.2357 0.7643,0.2357 1,0 0.47141,-0.47141 -0.4714,-1.5286 0,-2 0.2357,-0.2357 0.7643,0.2357 1,0 0.2357,-0.2357 -0.2357,-0.7643 0,-1 0.2357,-0.2357 0.7643,0.2357 1,0 0.47141,-0.47141 -0.4714,-1.5286 0,-2 0.2357,-0.2357 0.7643,0.2357 1,0 0.2357,-0.2357 -0.2357,-0.7643 0,-1 0.2357,-0.2357 0.7643,0.2357 1,0 0.2357,-0.2357 -0.14907,-0.70186 0,-1 0.21082,-0.42164 0.78918,-0.57836 1,-1 0.14907,-0.29814 -0.2357,-0.7643 0,-1 0.2357,-0.2357 0.7643,0.2357 1,0 0.2357,-0.2357 -0.2357,-0.7643 0,-1 0.2357,-0.2357 0.7643,0.2357 1,0 0.47141,-0.47141 -0.4714,-1.5286 0,-2 0.2357,-0.2357 0.7643,0.2357 1,0 0.47141,-0.47141 -0.4714,-1.5286 0,-2 0.2357,-0.2357 0.7643,0.2357 1,0 0.47141,-0.47141 -0.4714,-1.5286 0,-2 0.2357,-0.2357 0.7643,0.2357 1,0 0.5,-0.5 -0.5,-2.5 0,-3 0.2357,-0.2357 0.7643,0.2357 1,0 0.5,-0.5 -0.5,-2.5 0,-3 0.2357,-0.2357 0.7643,0.2357 1,0 0.2357,-0.2357 -0.2357,-0.7643 0,-1 0.2357,-0.2357 0.7643,0.2357 1,0 0.47141,-0.47141 -0.4714,-1.5286 0,-2 0.2357,-0.2357 0.70186,0.14907 1,0 4.16176,-2.08088 -1.06903,0.069 1,-2 0.23571,-0.2357 0.7643,0.2357 1,0 0.47141,-0.47141 -0.4714,-1.5286 0,-2 0.23571,-0.2357 0.7643,0.2357 1,0 0.66667,-0.66667 -0.66666,-1.33333 0,-2 0.66436,-0.66436 1.33564,0.66436 2,0 2.06904,-2.06904 -3.16176,0.0809 1,-2 0.59629,-0.29814 1.5286,0.4714 2,0 0.23571,-0.2357 -0.2357,-0.7643 0,-1 0.23571,-0.2357 0.70186,0.14907 1,0 0.42164,-0.21082 0.57837,-0.78918 1,-1 0.54249,-0.27125 3.72638,0.27362 4,0 0.23571,-0.2357 -0.2357,-0.7643 0,-1 0.47141,-0.47141 1.5286,0.4714 2,0 0.23571,-0.2357 -0.2357,-0.7643 0,-1 0.30965,-0.30965 4.69036,0.30965 5,0 0.23571,-0.2357 -0.2357,-0.7643 0,-1 0.47141,-0.47141 1.40372,0.29814 2,0 0.42164,-0.21082 0.57837,-0.78918 1,-1 0.25855,-0.12928 5.2912,0 6,0 0.33334,0 0.7643,0.2357 1,0 0.23571,-0.2357 -0.2357,-0.7643 0,-1 0.23571,-0.2357 0.66667,0 1,0 2,0 4,0 6,0 0.33334,0 0.66667,0 1,0 0.33334,0 0.7643,0.2357 1,0 0.23571,-0.2357 -0.2357,-0.7643 0,-1 0.23571,-0.2357 0.66667,0 1,0 0.70881,0 5.74145,0.12927 6,0 0.42164,-0.21082 0.57837,-0.78918 1,-1 0.29815,-0.14907 0.66667,0 1,0 0.33334,0 0.66667,0 1,0 2,0 4,0 6,0 0.33334,0 0.66667,0 1,0 0.33334,0 0.7643,0.2357 1,0 0.23571,-0.2357 -0.2357,-0.7643 0,-1 0.0453,-0.0453 4.52851,0 5,0 7,0 14,0 21,0 0.36724,0 3.95976,0.0402 4,0 0.52705,-0.52705 0.37983,-1.58655 1,-2 0.5547,-0.3698 1.33334,0 2,0 2.33334,0 4.66667,0 7,0 0.66667,0 1.4453,0.3698 2,0 0.62018,-0.41345 0.37983,-1.58655 1,-2 0.71773,-0.47849 3.9486,0.35047 5,0 0.70711,-0.2357 1.2769,-0.81923 2,-1 0.8618,-0.21545 5.57911,0.28059 6,0 0.62018,-0.41345 0.37983,-1.58655 1,-2 0.54315,-0.3621 5.45686,0.36209 6,0 0.62018,-0.41345 0.37983,-1.58655 1,-2 0.5547,-0.3698 1.33334,0 2,0 0.55816,0 4.54224,0.15259 5,0 0.44722,-0.14907 0.55279,-0.85093 1,-1 0.83346,-0.27782 3.67756,0.32244 4,0 0.47141,-0.47141 -0.29814,-1.40372 0,-2 0.29815,-0.59629 1.5286,0.4714 2,0 0.23571,-0.2357 -0.2357,-0.7643 0,-1 0.66436,-0.66436 1.33564,0.66436 2,0 0.23571,-0.2357 -0.2357,-0.7643 0,-1 0.47141,-0.47141 1.5286,0.4714 2,0 0.23571,-0.2357 -0.2357,-0.7643 0,-1 0.23571,-0.2357 0.70186,0.14907 1,0 0.42164,-0.21082 0.57837,-0.78918 1,-1 0.29815,-0.14907 0.7643,0.2357 1,0 0.47141,-0.47141 -0.4714,-1.5286 0,-2 0.23571,-0.2357 0.7643,0.2357 1,0 0.23571,-0.2357 -0.2357,-0.7643 0,-1 0.23571,-0.2357 0.7643,0.2357 1,0 0.23571,-0.2357 -0.14907,-0.70186 0,-1 0.21082,-0.42164 0.78919,-0.57836 1,-1 0.14908,-0.29814 -0.2357,-0.7643 0,-1 0.23571,-0.2357 0.7643,0.2357 1,0 0.47141,-0.47141 -0.29814,-1.40372 0,-2 0.21082,-0.42164 0.78919,-0.57836 1,-1 0.14908,-0.29814 -0.2357,-0.7643 0,-1 0.23571,-0.2357 0.7643,0.2357 1,0 0.47141,-0.47141 -0.4714,-1.5286 0,-2 0.23571,-0.2357 0.7643,0.2357 1,0 0.47141,-0.47141 -0.4714,-1.5286 0,-2 0.23571,-0.2357 0.7643,0.2357 1,0 0.47141,-0.47141 -0.4714,-1.5286 0,-2 0.23571,-0.2357 0.7643,0.2357 1,0 0.0403,-0.0402 0,-3.63277 0,-4 0,-0.33333 0.23571,-0.7643 0,-1 -2.06903,-2.06904 0.0809,3.16176 -2,-1 0,-2.66667 0.33334,0.33333 -1,-1 -0.5,-0.5 0.5,-2.5 0,-3 -0.2357,-0.2357 -0.76429,0.2357 -1,0 -0.4714,-0.47141 0.47141,-1.5286 0,-2 -0.2357,-0.2357 -0.76429,0.2357 -1,0 -0.5,-0.5 0.5,-2.5 0,-3 -0.2357,-0.2357 -0.76429,0.2357 -1,0 -0.2357,-0.2357 0,-0.66667 0,-1 0,-1.66667 0,-3.33334 0,-5 0,-0.33334 -0.2357,-0.7643 0,-1 0.47141,-0.47141 1.5286,0.4714 2,0 0.24063,-0.24063 -0.24063,-3.75937 0,-4 0.23571,-0.2357 0.7643,0.2357 1,0 0.66667,-0.66667 -0.66666,-1.33334 0,-2 0.23571,-0.2357 0.7643,0.2357 1,0 0.5,-0.5 -0.5,-2.5 0,-3 0.23571,-0.2357 0.7643,0.2357 1,0 0.47141,-0.47141 -0.4714,-1.5286 0,-2 0.23571,-0.2357 0.7643,0.2357 1,0 0.66667,-0.66667 -0.66666,-1.33334 0,-2 0.23571,-0.2357 0.7643,0.2357 1,0 0.23571,-0.2357 -0.2357,-0.7643 0,-1 0.23571,-0.2357 0.7643,0.2357 1,0 0.20444,-0.20444 -0.19824,-2.60351 0,-3 0.21082,-0.42164 0.78919,-0.57836 1,-1 0.14908,-0.29814 -0.2357,-0.7643 0,-1 0.23571,-0.2357 0.7643,0.2357 1,0 0.5,-0.5 -0.5,-2.5 0,-3 0.23571,-0.2357 0.7643,0.2357 1,0 0.23571,-0.2357 -0.2357,-0.7643 0,-1 0.23571,-0.2357 0.7643,0.2357 1,0 0.5,-0.5 -0.5,-2.5 0,-3 0.23571,-0.2357 0.7643,0.2357 1,0 0.47141,-0.47141 -0.4714,-1.5286 0,-2 0.23571,-0.2357 0.7643,0.2357 1,0 0.47141,-0.47141 -0.4714,-1.5286 0,-2 0.23571,-0.2357 0.7643,0.2357 1,0 0.23571,-0.2357 -0.14907,-0.70186 0,-1 0.21082,-0.42164 0.78919,-0.57836 1,-1 0.14908,-0.29814 -0.2357,-0.7643 0,-1 0.23571,-0.2357 0.7643,0.2357 1,0 0.47141,-0.47141 -0.4714,-1.5286 0,-2 0.23571,-0.2357 0.7643,0.2357 1,0 0.66667,-0.66667 -0.66666,-1.33334 0,-2 0.23571,-0.2357 0.7643,0.2357 1,0 0.5,-0.5 -0.5,-2.5 0,-3 0.23571,-0.2357 0.7643,0.2357 1,0 0.23571,-0.2357 -0.2357,-0.7643 0,-1 0.23571,-0.2357 0.7643,0.2357 1,0 0.23571,-0.2357 -0.2357,-0.7643 0,-1 0.23571,-0.2357 0.7643,0.2357 1,0 0.5,-0.5 -0.5,-2.5 0,-3 0.23571,-0.2357 0.7643,0.2357 1,0 0.23571,-0.2357 -0.2357,-0.7643 0,-1 0.23571,-0.2357 0.7643,0.2357 1,0 0.5,-0.5 -0.5,-2.5 0,-3 0.23571,-0.2357 0.7643,0.2357 1,0 0.23571,-0.2357 0,-0.66667 0,-1 0,-0.33334 0,-0.66667 0,-1 0,-1.66667 0,-3.33334 0,-5 0,-0.33334 0.23571,-0.7643 0,-1 -0.4714,-0.47141 -1.52859,0.4714 -2,0 -0.2357,-0.2357 0.23571,-0.7643 0,-1 -0.5,-0.5 -2.5,0.5 -3,0 -0.2357,-0.2357 0.23571,-0.7643 0,-1 -0.2357,-0.2357 -0.66666,0 -1,0 -0.33333,0 -0.66666,0 -1,0 -3.66666,0 -7.33333,0 -11,0 -0.36723,0 -3.95975,-0.0402 -4,0 -0.4714,0.4714 0.47141,1.52859 0,2 -0.4714,0.4714 -1.52859,-0.47141 -2,0 -0.2357,0.2357 0.23571,0.7643 0,1 -0.2357,0.2357 -0.76429,-0.2357 -1,0 -0.2357,0.2357 0.23571,0.7643 0,1 -0.2357,0.2357 -0.76429,-0.2357 -1,0 -0.2357,0.2357 0.23571,0.7643 0,1 -0.2357,0.2357 -0.76429,-0.2357 -1,0 -0.2357,0.2357 0.23571,0.7643 0,1 -0.2357,0.2357 -0.76429,-0.2357 -1,0 -0.66666,0.66666 0.66667,1.33333 0,2 -0.2357,0.2357 -0.76429,-0.2357 -1,0 -0.2357,0.2357 0.23571,0.7643 0,1 -0.2357,0.2357 -0.76429,-0.2357 -1,0 -0.5,0.5 0.5,2.5 0,3 -0.2357,0.2357 -0.76429,-0.2357 -1,0 -0.4714,0.4714 0.47141,1.52859 0,2 -0.2357,0.2357 -0.76429,-0.2357 -1,0 -0.5,0.5 0.5,2.5 0,3 -0.2357,0.2357 -0.76429,-0.2357 -1,0 -0.4714,0.4714 0.47141,1.52859 0,2 -0.2357,0.2357 -0.76429,-0.2357 -1,0 -0.2357,0.2357 0.23571,0.7643 0,1 -0.66436,0.66436 -1.33564,-0.66436 -2,0 -0.4714,0.4714 0.47141,1.52859 0,2 -0.4714,0.4714 -1.52859,-0.47141 -2,0 -0.4714,0.4714 0.47141,1.52859 0,2 -0.2357,0.2357 -0.76429,-0.2357 -1,0 -0.2357,0.2357 0.23571,0.7643 0,1 -0.2357,0.2357 -0.76429,-0.2357 -1,0 -0.2357,0.2357 0.23571,0.7643 0,1 -0.2357,0.2357 -0.76429,-0.2357 -1,0 -0.2357,0.2357 0.23571,0.7643 0,1 -0.66436,0.66436 -1.33564,-0.66436 -2,0 -0.2357,0.2357 0.23571,0.7643 0,1 -0.4714,0.4714 -1.52859,-0.47141 -2,0 -0.2357,0.2357 0.23571,0.7643 0,1 -0.35102,0.35102 -4.30926,-0.34537 -5,0 -0.42163,0.21082 -0.57836,0.78918 -1,1 -0.36163,0.18081 -4.30446,0 -5,0 -0.33333,0 -0.76429,0.2357 -1,0 -0.4714,-0.47141 0.47141,-1.5286 0,-2 -0.2357,-0.2357 -0.76429,0.2357 -1,0 -0.66666,-0.66667 0.66667,-1.33334 0,-2 -0.2357,-0.2357 -0.76429,0.2357 -1,0 -0.2357,-0.2357 0.23571,-0.7643 0,-1 -0.2357,-0.2357 -0.76429,0.2357 -1,0 -0.5,-0.5 0.5,-2.5 0,-3 -0.2357,-0.2357 -0.66666,0 -1,0 -0.33333,-1.33334 -0.12015,-2.94418 -1,-4 -0.95433,-1.1452 -2.80743,-1.10557 -4,-2 -0.26666,-0.2 0.23571,-0.7643 0,-1 -0.2357,-0.2357 -0.76429,0.2357 -1,0 -1.33333,-1.33334 1.66667,-1 -1,-1"
       id="path4577"
       inkscape:connector-curvature="0" />
    <rect
       style="opacity:1;fill:none;fill-opacity:1;fill-rule:evenodd;stroke:none;stroke-width:1;stroke-linecap:round;stroke-linejoin:miter;stroke-miterlimit:0;stroke-dasharray:none;stroke-opacity:1"
       id="rect4729"
       width="85"
       height="58"
       x="654"
       y="-235.6378" />
    <rect
       style="opacity:1;fill:none;fill-opacity:1;fill-rule:evenodd;stroke:none;stroke-width:1;stroke-linecap:round;stroke-linejoin:miter;stroke-miterlimit:0;stroke-dasharray:none;stroke-opacity:1"
       id="rect4731"
       width="683"
       height="467"
       x="71"
       y="4.3621964" />
    <rect
       style="opacity:1;fill:none;fill-opacity:1;fill-rule:evenodd;stroke:none;stroke-width:1;stroke-linecap:round;stroke-linejoin:miter;stroke-miterlimit:0;stroke-dasharray:none;stroke-opacity:1"
       id="rect4733"
       width="661"
       height="405"
       x="86"
       y="48.362198" />
  </g>
  <g
     inkscape:groupmode="layer"
     id="layer2"
     inkscape:label="Squares"
     style="display:inline"
     transform="translate(-86,-48.362198)">
    <circle
       style="opacity:0.98000004;fill:#000000;fill-opacity:1;stroke:#703fff;stroke-width:0.01241689;stroke-miterlimit:4;stroke-dasharray:none;stroke-opacity:1"
       id="path4163"
       cx="394.50574"
       cy="263.12039"
       r="1.5678685" />
    <g
       id="g4232"
       style="stroke:#000000;stroke-opacity:1">
      <g
         style="stroke:#000000;stroke-opacity:1"
         id="g4248">
        <path
           style="fill:none;fill-rule:evenodd;stroke:#000000;stroke-width:1px;stroke-linecap:butt;stroke-linejoin:miter;stroke-opacity:1"
           d="m 538.46181,231.58801 0,7.07107 16.61701,0"
           id="path4166"
           inkscape:connector-curvature="0" />
        <path
           style="fill:none;fill-rule:evenodd;stroke:#000000;stroke-width:1.00995541px;stroke-linecap:butt;stroke-linejoin:miter;stroke-opacity:1"
           d="M 538.07151,232.07697 643.79803,208.65645"
           id="path4168"
           inkscape:connector-curvature="0" />
        <path
           style="fill:none;fill-rule:evenodd;stroke:#000000;stroke-width:1.00885141px;stroke-linecap:butt;stroke-linejoin:miter;stroke-opacity:1"
           d="M 682.35614,221.34301 554.88926,238.66175"
           id="path4170"
           inkscape:connector-curvature="0" />
        <path
           style="fill:none;fill-rule:evenodd;stroke:#000000;stroke-width:1px;stroke-linecap:butt;stroke-linejoin:miter;stroke-opacity:1"
           d="M 643.86491,221.29077 538.32923,238.26133"
           id="path4172"
           inkscape:connector-curvature="0" />
        <path
           style="fill:none;fill-rule:evenodd;stroke:#000000;stroke-width:1px;stroke-linecap:butt;stroke-linejoin:miter;stroke-opacity:1"
           d="m 643.8125,208.67471 0,12.625 38.125,0 0,-12.625 -38.3125,0"
           id="path4174"
           inkscape:connector-curvature="0" />
        <g
           style="stroke:#000000;stroke-opacity:1"
           id="g4216">
          <g
             transform="translate(0,-222)"
             style="stroke:#000000;stroke-opacity:1"
             id="g4256">
            <g
               style="stroke:#000000;stroke-opacity:1"
               id="g4197">
              <path
                 inkscape:connector-curvature="0"
                 id="path4175"
                 d="m 483.65788,420.95373 29.24708,0"
                 style="fill:none;fill-rule:evenodd;stroke:#000000;stroke-width:1.02029955px;stroke-linecap:butt;stroke-linejoin:miter;stroke-opacity:1" />
              <path
                 inkscape:connector-curvature="0"
                 id="path4177"
                 d="m 483.67367,407.94801 29.54696,0"
                 style="fill:none;fill-rule:evenodd;stroke:#000000;stroke-width:1px;stroke-linecap:butt;stroke-linejoin:miter;stroke-opacity:1" />
              <path
                 inkscape:connector-curvature="0"
                 id="path4179"
                 d="m 484.17874,408.20055 0,12.87945"
                 style="fill:none;fill-rule:evenodd;stroke:#000000;stroke-width:1px;stroke-linecap:butt;stroke-linejoin:miter;stroke-opacity:1" />
              <path
                 inkscape:connector-curvature="0"
                 id="path4181"
                 d="m 513.3469,407.44961 0,13.88293"
                 style="fill:none;fill-rule:evenodd;stroke:#000000;stroke-width:1.01605487px;stroke-linecap:butt;stroke-linejoin:miter;stroke-opacity:1" />
              <path
                 inkscape:connector-curvature="0"
                 id="path4183"
                 d="m 442.49416,450.69009 c 0.31084,0 15.23121,0 15.23121,0"
                 style="fill:none;fill-rule:evenodd;stroke:#000000;stroke-width:0.99231744px;stroke-linecap:butt;stroke-linejoin:miter;stroke-opacity:1" />
              <path
                 inkscape:connector-curvature="0"
                 id="path4185"
                 d="m 443.01503,441.55926 0,8.80727"
                 style="fill:none;fill-rule:evenodd;stroke:#000000;stroke-width:1.04805779px;stroke-linecap:butt;stroke-linejoin:miter;stroke-opacity:1" />
              <path
                 inkscape:connector-curvature="0"
                 id="path4189"
                 d="m 442.82849,441.97406 41.23689,-34.13305"
                 style="fill:none;fill-rule:evenodd;stroke:#000000;stroke-width:1.00864017px;stroke-linecap:butt;stroke-linejoin:miter;stroke-opacity:1" />
              <path
                 inkscape:connector-curvature="0"
                 id="path4191"
                 d="m 484.4643,420.76225 -41.54542,29.89046"
                 style="fill:none;fill-rule:evenodd;stroke:#000000;stroke-width:0.99417055px;stroke-linecap:butt;stroke-linejoin:miter;stroke-opacity:1" />
              <path
                 inkscape:connector-curvature="0"
                 id="path4195"
                 d="m 513.60995,420.88474 -56.00988,29.80354"
                 style="fill:none;fill-rule:evenodd;stroke:#000000;stroke-width:1.00397813px;stroke-linecap:butt;stroke-linejoin:miter;stroke-opacity:1" />
            </g>
            <g
               style="stroke:#000000;stroke-opacity:1"
               id="g4247">
              <path
                 inkscape:connector-curvature="0"
                 id="path4212"
                 d="m 301.20669,436.73698 0,7.57924 -24.65512,0"
                 style="fill:none;fill-rule:evenodd;stroke:#000000;stroke-width:0.99778044px;stroke-linecap:butt;stroke-linejoin:miter;stroke-opacity:1" />
              <path
                 inkscape:connector-curvature="0"
                 id="path4216"
                 d="m 301.73658,436.55863 -25.20024,0"
                 style="fill:none;fill-rule:evenodd;stroke:#000000;stroke-width:1.01308286px;stroke-linecap:butt;stroke-linejoin:miter;stroke-opacity:1" />
              <path
                 inkscape:connector-curvature="0"
                 id="path4218"
                 d="m 351.91964,462.80863 0,3.66072 -12.8125,0"
                 style="fill:none;fill-rule:evenodd;stroke:#000000;stroke-width:1px;stroke-linecap:butt;stroke-linejoin:miter;stroke-opacity:1" />
              <path
                 inkscape:connector-curvature="0"
                 id="path4220"
                 d="m 277.03433,444.56604 0,-8.0023"
                 style="fill:none;fill-rule:evenodd;stroke:#000000;stroke-width:1px;stroke-linecap:butt;stroke-linejoin:miter;stroke-opacity:1" />
              <path
                 inkscape:connector-curvature="0"
                 id="path4222"
                 d="M 339.29189,466.49503 276.72754,444.33955"
                 style="fill:none;fill-rule:evenodd;stroke:#000000;stroke-width:1.00371039px;stroke-linecap:butt;stroke-linejoin:miter;stroke-opacity:1" />
              <path
                 inkscape:connector-curvature="0"
                 id="path4224"
                 d="m 301.1875,444.36221 50.75,21.875"
                 style="fill:none;fill-rule:evenodd;stroke:#000000;stroke-width:1px;stroke-linecap:butt;stroke-linejoin:miter;stroke-opacity:1" />
              <path
                 inkscape:connector-curvature="0"
                 id="path4226"
                 d="m 301.46308,436.49884 50.71914,26.76802"
                 style="fill:none;fill-rule:evenodd;stroke:#000000;stroke-width:1.00716674px;stroke-linecap:butt;stroke-linejoin:miter;stroke-opacity:1" />
            </g>
          </g>
          <g
             style="stroke:#000000;stroke-opacity:1"
             id="g4204">
            <path
               style="fill:none;fill-rule:evenodd;stroke:#000000;stroke-width:1px;stroke-linecap:butt;stroke-linejoin:miter;stroke-opacity:1"
               d="m 436.1875,266.92471 10.625,0 0,3.6875 -10.5,0 0,-3.75"
               id="path4180"
               inkscape:connector-curvature="0" />
            <path
               style="fill:none;fill-rule:evenodd;stroke:#000000;stroke-width:1.35554433px;stroke-linecap:butt;stroke-linejoin:miter;stroke-opacity:1"
               d="m 410.0625,263.80362 0,2.29687"
               id="path4182"
               inkscape:connector-curvature="0" />
            <path
               style="fill:none;fill-rule:evenodd;stroke:#000000;stroke-width:1.0114007px;stroke-linecap:butt;stroke-linejoin:miter;stroke-opacity:1"
               d="m 435.91923,270.60274 -26.26034,-4.99669"
               id="path4184"
               inkscape:connector-curvature="0" />
            <path
               style="fill:none;fill-rule:evenodd;stroke:#000000;stroke-width:1px;stroke-linecap:butt;stroke-linejoin:miter;stroke-opacity:1"
               d="m 409.8125,264.48721 26.5,2.375"
               id="path4186"
               inkscape:connector-curvature="0" />
            <path
               style="fill:none;fill-rule:evenodd;stroke:#000000;stroke-width:1.00747347px;stroke-linecap:butt;stroke-linejoin:miter;stroke-opacity:1"
               d="m 410.69785,264.31613 36.59649,2.64295"
               id="path4188"
               inkscape:connector-curvature="0" />
            <path
               style="fill:none;fill-rule:evenodd;stroke:#000000;stroke-width:1px;stroke-linecap:butt;stroke-linejoin:miter;stroke-opacity:1"
               d="m 363.45289,339.42179 0,20.68288 -58.07115,0 0,-20.24093 58.15953,0"
               id="path4194"
               inkscape:connector-curvature="0" />
            <path
               style="fill:none;fill-rule:evenodd;stroke:#000000;stroke-width:1px;stroke-linecap:butt;stroke-linejoin:miter;stroke-opacity:1"
               d="m 383.51704,300.61931 0,-12.81631 -20.41771,0"
               id="path4196"
               inkscape:connector-curvature="0" />
            <path
               style="fill:none;fill-rule:evenodd;stroke:#000000;stroke-width:1.00789046px;stroke-linecap:butt;stroke-linejoin:miter;stroke-opacity:1"
               d="m 383.53438,300.46646 -20.05465,60.01203"
               id="path4198"
               inkscape:connector-curvature="0" />
            <path
               style="fill:none;fill-rule:evenodd;stroke:#000000;stroke-width:1px;stroke-linecap:butt;stroke-linejoin:miter;stroke-opacity:1"
               d="M 383.34026,287.97978 363.3645,340.04051"
               id="path4200"
               inkscape:connector-curvature="0" />
            <path
               style="fill:none;fill-rule:evenodd;stroke:#000000;stroke-width:1.00068879px;stroke-linecap:butt;stroke-linejoin:miter;stroke-opacity:1"
               d="M 363.49696,287.67057 305.22719,339.731"
               id="path4202"
               inkscape:connector-curvature="0" />
          </g>
        </g>
      </g>
      <g
         id="g4225"
         style="stroke:#000000;stroke-opacity:1">
        <path
           style="fill:none;fill-rule:evenodd;stroke:#000000;stroke-width:1px;stroke-linecap:butt;stroke-linejoin:miter;stroke-opacity:1"
           d="m 590.00001,369.7372 0,13.25 20.125,0 0,-13.25 z"
           id="path4190"
           inkscape:connector-curvature="0" />
        <path
           style="fill:none;fill-rule:evenodd;stroke:#000000;stroke-width:1px;stroke-linecap:butt;stroke-linejoin:miter;stroke-opacity:1"
           d="m 545.88644,355.86202 0,-10.96016 16.26346,0"
           id="path4201"
           inkscape:connector-curvature="0" />
        <path
           style="fill:none;fill-rule:evenodd;stroke:#000000;stroke-width:1.02571011px;stroke-linecap:butt;stroke-linejoin:miter;stroke-opacity:1"
           d="m 545.71767,355.38858 44.17817,27.68436"
           id="path4203"
           inkscape:connector-curvature="0" />
        <path
           style="fill:none;fill-rule:evenodd;stroke:#000000;stroke-width:1.00960398px;stroke-linecap:butt;stroke-linejoin:miter;stroke-opacity:1"
           d="m 546.12757,344.99168 44.05424,24.8004"
           id="path4205"
           inkscape:connector-curvature="0" />
        <path
           style="fill:none;fill-rule:evenodd;stroke:#000000;stroke-width:1.00522637px;stroke-linecap:butt;stroke-linejoin:miter;stroke-opacity:1"
           d="m 561.80329,344.82836 48.58539,24.96543"
           id="path4207"
           inkscape:connector-curvature="0" />
      </g>
    </g>
  </g>
</svg>
