<?xml version="1.0" encoding="UTF-8" standalone="no"?>
<!-- Created with Inkscape (http://www.inkscape.org/) -->

<svg
   xmlns:dc="http://purl.org/dc/elements/1.1/"
   xmlns:cc="http://creativecommons.org/ns#"
   xmlns:rdf="http://www.w3.org/1999/02/22-rdf-syntax-ns#"
   xmlns:svg="http://www.w3.org/2000/svg"
   xmlns="http://www.w3.org/2000/svg"
   xmlns:xlink="http://www.w3.org/1999/xlink"
   xmlns:sodipodi="http://sodipodi.sourceforge.net/DTD/sodipodi-0.dtd"
   xmlns:inkscape="http://www.inkscape.org/namespaces/inkscape"
   width="213.43111mm"
   height="222.83899mm"
   viewBox="0 0 756.25195 789.58697"
   id="svg5220"
   version="1.1"
   inkscape:version="0.91 r13725"
   sodipodi:docname="binarysketchB.svg">
  <defs
     id="defs5222">
    <linearGradient
       inkscape:collect="always"
       id="linearGradient6263">
      <stop
         style="stop-color:#ffffff;stop-opacity:1;"
         offset="0"
         id="stop6265" />
      <stop
         style="stop-color:#ffffff;stop-opacity:0;"
         offset="1"
         id="stop6267" />
    </linearGradient>
    <filter
       inkscape:collect="always"
       style="color-interpolation-filters:sRGB"
       id="filter6210"
       x="-0.26016948"
       width="1.520339"
       y="-0.2938818"
       height="1.5877635">
      <feGaussianBlur
         inkscape:collect="always"
         stdDeviation="22.481746"
         id="feGaussianBlur6212" />
    </filter>
    <filter
       inkscape:collect="always"
       style="color-interpolation-filters:sRGB"
       id="filter6210-6"
       x="-0.26016948"
       width="1.520339"
       y="-0.2938818"
       height="1.5877635">
      <feGaussianBlur
         inkscape:collect="always"
         stdDeviation="22.481746"
         id="feGaussianBlur6212-7" />
    </filter>
    <radialGradient
       inkscape:collect="always"
       xlink:href="#linearGradient6263"
       id="radialGradient6269"
       cx="551.54327"
       cy="280.60565"
       fx="551.54327"
       fy="280.60565"
       r="79.391899"
       gradientUnits="userSpaceOnUse"
       gradientTransform="matrix(2.8623615,-0.33752076,0.24143203,2.0474759,-1094.9201,-107.77035)" />
    <radialGradient
       inkscape:collect="always"
       xlink:href="#linearGradient6263"
       id="radialGradient6277"
       cx="153.0381"
       cy="410.91531"
       fx="153.0381"
       fy="410.91531"
       r="79.841904"
       gradientUnits="userSpaceOnUse"
       gradientTransform="matrix(5.0437055,-0.62623766,0.22022038,1.7736505,-709.33293,-222.0666)" />
    <filter
       inkscape:collect="always"
       style="color-interpolation-filters:sRGB"
       id="filter6676"
       x="-0.30299115"
       width="1.6059823"
       y="-0.25342438"
       height="1.5068487">
      <feGaussianBlur
         inkscape:collect="always"
         stdDeviation="7.9067372"
         id="feGaussianBlur6678" />
    </filter>
    <filter
       inkscape:collect="always"
       style="color-interpolation-filters:sRGB"
       id="filter6875"
       x="-0.59330475"
       width="2.1866095"
       y="-0.49624512"
       height="1.9924903">
      <feGaussianBlur
         inkscape:collect="always"
         stdDeviation="15.482646"
         id="feGaussianBlur6877" />
    </filter>
    <filter
       inkscape:collect="always"
       style="color-interpolation-filters:sRGB"
       id="filter4325"
       x="-0.35135294"
       width="1.7027059"
       y="-0.45364557"
       height="1.9072911">
      <feGaussianBlur
         inkscape:collect="always"
         stdDeviation="15.084103"
         id="feGaussianBlur4327" />
    </filter>
  </defs>
  <sodipodi:namedview
     id="base"
     pagecolor="#ffffff"
     bordercolor="#666666"
     borderopacity="1.0"
     inkscape:pageopacity="0.0"
     inkscape:pageshadow="2"
     inkscape:zoom="0.98994949"
     inkscape:cx="517.47593"
     inkscape:cy="433.69947"
     inkscape:document-units="px"
     inkscape:current-layer="layer4"
     showgrid="false"
     inkscape:window-width="1920"
     inkscape:window-height="1056"
     inkscape:window-x="0"
     inkscape:window-y="24"
     inkscape:window-maximized="1"
     fit-margin-top="0"
     fit-margin-left="0"
     fit-margin-right="0"
     fit-margin-bottom="0" />
  <metadata
     id="metadata5225">
    <rdf:RDF>
      <cc:Work
         rdf:about="">
        <dc:format>image/svg+xml</dc:format>
        <dc:type
           rdf:resource="http://purl.org/dc/dcmitype/StillImage" />
        <dc:title />
      </cc:Work>
    </rdf:RDF>
  </metadata>
  <g
     inkscape:groupmode="layer"
     id="layer5"
     inkscape:label="background"
     transform="translate(8.4101527,9.6370528)"
     sodipodi:insensitive="true">
    <rect
       style="opacity:1;fill:#000000;fill-opacity:1;fill-rule:evenodd;stroke:#000000;stroke-width:14.80000019;stroke-linecap:round;stroke-linejoin:miter;stroke-miterlimit:4;stroke-dasharray:none;stroke-opacity:1"
       id="rect6954"
       width="741.45197"
       height="774.78699"
       x="-1.0101526"
       y="-2.2370527" />
  </g>
  <g
     inkscape:groupmode="layer"
     id="layer3"
     inkscape:label="winds"
     sodipodi:insensitive="true"
     transform="translate(8.4101527,9.6370528)">
    <path
       style="fill:none;fill-rule:evenodd;stroke:#00ffec;stroke-width:8.19999981;stroke-linecap:butt;stroke-linejoin:miter;stroke-miterlimit:4;stroke-dasharray:none;stroke-opacity:1;filter:url(#filter6210)"
       d="m 555,270.21935 c 15.3374,-21.14736 39.65194,-43.9994 34.31936,-72.37529 -29.18367,-29.69428 -26.84683,24.51963 -35.13973,42.28563 -7.13192,37.13478 2.16726,-21.81352 -17.77479,-27.70907 -15.54387,-21.85083 -73.98809,-11.39676 -44.02049,17.18225 19.16757,6.92945 44.77834,5.64262 57.91615,23.53449 -29.09007,-17.88245 -77.59467,-34.40769 -105.63097,-10.48906 -0.54818,29.97069 40.13009,21.17229 59.86984,19.42202 12.05038,0.26651 54.8019,-6.21024 22.05322,-8.16155 -30.58463,-2.48169 -64.4812,19.3493 -69.19458,50.22828 7.70807,43.19332 44.86065,-12.68808 67.18093,-15.06475 10.91236,-2.09979 53.76581,-28.98443 24.67242,-28.78965 -28.68459,6.75211 -32.68072,37.57346 -40.80977,61.06813 -15.58608,25.23534 19.86601,58.86181 36.99233,28.69311 2.8899,-19.10289 24.44064,-64.03644 5.7206,-66.82592 -18.58021,27.54801 -14.29276,70.47335 18.33776,85.15575 31.96546,18.15748 51.70259,-24.84509 38.20062,-50.20745 -11.66453,-25.30134 -22.60913,-54.20478 -46.79076,-70.22805 -16.34718,0.10398 20.31722,23.96267 23.25998,33.37624 11.93695,28.00986 80.87706,42.53585 65.72622,-2.61303 -19.28252,-20.631 -53.58588,-14.29827 -79.89079,-18.43213 -20.46337,-0.95234 23.35351,3.02778 32.05114,4.57593 26.33398,8.38587 61.16965,-28.35656 28.69439,-44.88185 -23.98211,-1.97875 -61.01216,6.37823 -70.91951,30.22672 17.36042,-14.38134 62.26314,-7.72637 59.3107,-37.06872 -9.90685,-22.33509 -52.72991,-32.58367 -60.2549,-2.69006 -7.53783,10.99677 -7.29987,50.22536 -5.18351,18.00981 0.0163,-32.07868 -34.87054,-30.36705 -57.72106,-29.19311 -31.98908,-0.9265 -30.42998,48.42845 -0.29107,50.73987 10.78673,7.04403 58.9016,1.98461 22.82013,-0.17686 -26.69036,-5.43331 -71.77619,14.14037 -54.62443,46.8076 4.91901,27.31292 34.6052,39.17899 56.13394,20.79436 23.8482,-13.0124 46.05245,-35.89328 49.7771,-63.44771 -19.60689,-23.63285 -48.09691,15.23114 -56.11024,34.23548 -19.81661,21.12913 -25.86177,77.79387 16.36514,72.30058 30.70412,-8.52655 33.58731,-46.10714 37.88542,-72.56709 11.02749,-20.03651 -14.1551,-49.62991 -23.3824,-18.5804 -13.89774,24.39652 -12.25649,55.70999 9.7714,74.8411 16.53975,25.52151 51.46208,26.60987 69.16184,1.88774 18.42801,-27.93136 -11.79197,-63.20471 -33.44734,-80.28786 -25.22965,-15.94239 -54.14594,3.3071 -78.19932,12.9099 -29.25341,11.07886 -57.68979,77.40465 -9.76456,77.38919 37.80593,-2.74606 65.4107,-41.3257 59.91712,-77.81258 l -2.52424,-4.79415 -4.46329,-3.26784 0,0 z"
       id="path6099"
       inkscape:connector-curvature="0" />
    <path
       style="fill:none;fill-rule:evenodd;stroke:#f5d50f;stroke-width:8.19999981;stroke-linecap:butt;stroke-linejoin:miter;stroke-miterlimit:4;stroke-dasharray:none;stroke-opacity:1;filter:url(#filter6210-6)"
       d="m 165.92735,403.80292 c 15.3374,-21.14736 39.65194,-43.9994 34.31936,-72.37529 -29.18367,-29.69428 -26.84683,24.51963 -35.13973,42.28563 -7.13192,37.13478 2.16726,-21.81352 -17.77479,-27.70907 -15.54387,-21.85083 -73.988081,-11.39676 -44.02049,17.18225 19.16757,6.92945 44.77834,5.64262 57.91615,23.53449 -29.09007,-17.88245 -77.594661,-34.40769 -105.630961,-10.48906 -0.54818,29.97069 40.13009,21.17229 59.869831,19.42202 12.05038,0.26651 54.8019,-6.21024 22.05322,-8.16155 -30.58463,-2.48169 -64.481191,19.3493 -69.194571,50.22828 7.70807,43.19332 44.860641,-12.68808 67.180921,-15.06475 10.91236,-2.09979 53.76581,-28.98443 24.67242,-28.78965 -28.68459,6.75211 -32.68072,37.57346 -40.80977,61.06813 -15.58608,25.23534 19.86601,58.86181 36.99233,28.69311 2.8899,-19.10289 24.44064,-64.03644 5.7206,-66.82592 -18.58021,27.54801 -14.29276,70.47335 18.33776,85.15575 31.96546,18.15748 51.70259,-24.84509 38.20062,-50.20745 -11.66453,-25.30134 -22.60913,-54.20478 -46.79076,-70.22805 -16.34718,0.10398 20.31722,23.96267 23.25998,33.37624 11.93695,28.00986 80.87706,42.53585 65.72622,-2.61303 -19.28252,-20.631 -53.58588,-14.29827 -79.89079,-18.43213 -20.46337,-0.95234 23.35351,3.02778 32.05114,4.57593 26.33398,8.38587 61.16965,-28.35656 28.69439,-44.88185 -23.98211,-1.97875 -61.01216,6.37823 -70.91951,30.22672 17.36042,-14.38134 62.26314,-7.72637 59.3107,-37.06872 -9.90685,-22.33509 -52.72991,-32.58367 -60.2549,-2.69006 -7.53783,10.99677 -7.29987,50.22536 -5.18351,18.00981 0.0163,-32.07868 -34.87054,-30.36705 -57.72106,-29.19311 -31.989071,-0.9265 -30.429971,48.42845 -0.29107,50.73987 10.78673,7.04403 58.9016,1.98461 22.82013,-0.17686 -26.69036,-5.43331 -71.776181,14.14037 -54.624421,46.8076 4.91901,27.31292 34.605191,39.17899 56.133931,20.79436 23.8482,-13.0124 46.05245,-35.89328 49.7771,-63.44771 -19.60689,-23.63285 -48.09691,15.23114 -56.11024,34.23548 -19.81661,21.12913 -25.861761,77.79387 16.36514,72.30058 30.70412,-8.52655 33.58731,-46.10714 37.88542,-72.56709 11.02749,-20.03651 -14.1551,-49.62991 -23.3824,-18.5804 -13.89774,24.39652 -12.25649,55.70999 9.7714,74.8411 16.53975,25.52151 51.46208,26.60987 69.16184,1.88774 18.42801,-27.93136 -11.79197,-63.20471 -33.44734,-80.28786 -25.22965,-15.94239 -54.14594,3.3071 -78.19932,12.9099 -29.253401,11.07886 -57.689781,77.40465 -9.76456,77.38919 37.80593,-2.74606 65.4107,-41.3257 59.91712,-77.81258 l -2.52424,-4.79415 -4.46329,-3.26784 0,0 z"
       id="path6099-5"
       inkscape:connector-curvature="0" />
  </g>
  <g
     inkscape:label="Layer 1"
     inkscape:groupmode="layer"
     id="layer1"
     sodipodi:insensitive="true"
     transform="translate(8.4101527,9.6370528)">
    <circle
       style="opacity:1;fill:url(#radialGradient6269);fill-opacity:1;fill-rule:evenodd;stroke:#000000;stroke-width:2;stroke-linecap:round;stroke-linejoin:miter;stroke-miterlimit:4;stroke-dasharray:none;stroke-opacity:1"
       id="path5768"
       cx="551.54327"
       cy="280.60565"
       r="78.791901" />
    <circle
       style="opacity:1;fill:url(#radialGradient6277);fill-opacity:1;fill-rule:evenodd;stroke:#000000;stroke-width:2;stroke-linecap:round;stroke-linejoin:miter;stroke-miterlimit:4;stroke-dasharray:none;stroke-opacity:1"
       id="path5768-3"
       cx="153.0381"
       cy="410.91531"
       r="78.791901" />
  </g>
  <g
     inkscape:groupmode="layer"
     id="layer4"
     inkscape:label="orbit"
     transform="translate(8.4101527,9.6370528)">
    <g
       id="g6680"
       transform="matrix(1.4954931,0,0,1.0276696,-230.67325,-12.465334)"
       style="stroke-width:11.93830776;stroke-miterlimit:4;stroke-dasharray:none;filter:url(#filter6875)">
      <path
         inkscape:connector-curvature="0"
         id="path6566"
         d="m 452.54834,243.23002 c -0.33672,-0.67344 -0.67343,-1.34687 -1.01015,-2.02031 -0.16836,0 -0.38603,0.11905 -0.50508,0 -0.11905,-0.11905 0.11905,-0.38603 0,-0.50508 -0.11905,-0.11904 -0.38603,0.11905 -0.50507,0 -0.11905,-0.11904 0.11904,-0.38602 0,-0.50507 -0.11905,-0.11905 -0.38603,0.11905 -0.50508,0 -0.11905,-0.11905 0.11905,-0.38603 0,-0.50508 -0.11905,-0.11905 -0.35449,0.0753 -0.50508,0 -0.21296,-0.10648 -0.29211,-0.3986 -0.50507,-0.50507 -0.15059,-0.0753 -0.38603,0.11904 -0.50508,0 -0.11905,-0.11905 0.11905,-0.38603 0,-0.50508 -0.11905,-0.11905 -0.38603,0.11905 -0.50508,0 -0.11904,-0.11905 0.11905,-0.38603 0,-0.50508 -0.23809,-0.23809 -0.77205,0.2381 -1.01015,0 -0.11905,-0.11904 0.11905,-0.38603 0,-0.50507 -0.11905,-0.11905 -0.38603,0.11904 -0.50507,0 -0.11905,-0.11905 0.11904,-0.38603 0,-0.50508 -0.11905,-0.11905 -0.38603,0.11905 -0.50508,0 -0.11905,-0.11905 0.11905,-0.38603 0,-0.50508 -0.11905,-0.11904 -0.35449,0.0753 -0.50508,0 -0.21296,-0.10648 -0.29211,-0.39859 -0.50507,-0.50507 -0.30117,-0.15059 -0.77206,0.23809 -1.01016,0 -0.11904,-0.11905 0.11905,-0.38603 0,-0.50508 -0.23809,-0.23809 -0.77205,0.2381 -1.01015,0 -0.11905,-0.11905 0.11905,-0.38603 0,-0.50507 -0.25254,-0.25254 -1.26269,0.25253 -1.51523,0 -0.11905,-0.11905 0.11905,-0.38603 0,-0.50508 -0.10325,-0.10326 -1.31497,0.10013 -1.51523,0 -0.21296,-0.10648 -0.29211,-0.3986 -0.50507,-0.50508 -0.31745,-0.15872 -1.70286,0.15873 -2.02031,0 -0.21296,-0.10648 -0.29212,-0.39859 -0.50507,-0.50507 -0.31746,-0.15873 -1.70286,0.15872 -2.02031,0 -0.21296,-0.10648 -0.29212,-0.3986 -0.50508,-0.50508 -0.30116,-0.15058 -0.70898,0.15058 -1.01015,0 -0.21296,-0.10648 -0.29212,-0.3986 -0.50507,-0.50508 -0.18266,-0.0913 -2.17408,0 -2.52539,0 -0.16835,0 -0.38602,0.11905 -0.50507,0 -0.11905,-0.11904 0.11905,-0.38602 0,-0.50507 -0.1382,-0.1382 -1.74631,0.137 -2.02031,0 -0.21296,-0.10648 -0.29211,-0.3986 -0.50507,-0.50508 -0.15371,-0.0769 -1.28777,0 -1.51523,0 -1.01015,0 -2.02031,0 -3.03046,0 -0.3513,0 -2.34273,0.0913 -2.52538,0 -0.21296,-0.10648 -0.29212,-0.3986 -0.50508,-0.50508 -0.1328,-0.0664 -1.75619,0 -2.0203,0 -1.85195,0 -3.70389,0 -5.55584,0 -1.17851,0 -2.35702,0 -3.53554,0 -0.16835,0 -0.38602,0.11905 -0.50507,0 -0.11905,-0.11904 0.11905,-0.38602 0,-0.50507 -0.11905,-0.11905 -0.33672,0 -0.50508,0 -0.16836,0 -0.33672,0 -0.50507,0 -2.52539,0 -5.05077,0 -7.57615,0 -1.51523,0 -3.03046,0 -4.54568,0 -0.33672,0 -0.67344,0 -1.01016,0 -0.16836,0 -0.50507,0.16836 -0.50507,0 0,-0.16836 0.33671,0 0.50507,0 m 62.12438,29.29442 c -1.85194,0 -3.70389,0 -5.55583,0 -0.16836,0 -0.33672,0 -0.50508,0 -0.16836,0 -0.38603,0.11905 -0.50508,0 -0.11904,-0.11905 0.11905,-0.38603 0,-0.50507 -0.17729,-0.1773 -2.17651,0.17443 -2.52538,0 -0.21296,-0.10648 -0.29212,-0.3986 -0.50507,-0.50508 -0.31864,-0.15932 -2.20675,0.15932 -2.52539,0 -0.21295,-0.10648 -0.29211,-0.3986 -0.50507,-0.50508 -0.274,-0.137 -1.88211,0.1382 -2.02031,0 -0.11905,-0.11904 0.11905,-0.38602 0,-0.50507 -0.10325,-0.10326 -1.31497,0.10013 -1.51523,0 -0.21296,-0.10648 -0.29211,-0.3986 -0.50507,-0.50508 -0.40406,-0.20203 -1.11117,0.20203 -1.51523,0 -0.21296,-0.10648 -0.29212,-0.3986 -0.50508,-0.50508 -0.20026,-0.10012 -1.41197,0.10326 -1.51523,0 -0.11904,-0.11904 0.11905,-0.38602 0,-0.50507 -0.15639,-0.1564 -2.36898,0.15639 -2.52538,0 -0.11905,-0.11905 0.11905,-0.38603 0,-0.50508 -0.15639,-0.15639 -2.36898,0.1564 -2.52538,0 -0.11905,-0.11905 0.11905,-0.38603 0,-0.50507 -0.15639,-0.1564 -2.36899,0.15639 -2.52538,0 -0.11905,-0.11905 0.11905,-0.38603 0,-0.50508 -0.12154,-0.12154 -1.89877,0.12154 -2.02031,0 -0.11904,-0.11905 0.11905,-0.38603 0,-0.50508 -0.0229,-0.0229 -2.28723,0 -2.52538,0 -2.52538,0 -5.05076,0 -7.57614,0 -0.1225,0 -1.49899,-0.0162 -1.51523,0 -0.2381,0.2381 0.2381,0.77206 0,1.01016 -0.0162,0.0162 -1.39273,0 -1.51523,0 m 35.86042,38.89087 c -2.18364,-0.54591 -1.32615,-0.50508 -2.52538,-0.50508 -0.16836,0 -0.38603,0.11905 -0.50508,0 -0.11905,-0.11904 0.11905,-0.38603 0,-0.50507 -0.25254,-0.25254 -1.26269,0.25253 -1.51523,0 -0.11905,-0.11905 0.11905,-0.38603 0,-0.50508 -0.25254,-0.25254 -1.26269,0.25254 -1.51523,0 -0.11905,-0.11905 0.11905,-0.38603 0,-0.50508 -0.25254,-0.25253 -1.26269,0.25254 -1.51523,0 -0.11905,-0.11904 0.11905,-0.38602 0,-0.50507 -0.25254,-0.25254 -1.26269,0.25254 -1.51523,0 -0.11904,-0.11905 0.11905,-0.38603 0,-0.50508 -0.23809,-0.23809 -0.70898,0.15059 -1.01015,0 -0.21296,-0.10648 -0.29212,-0.3986 -0.50508,-0.50507 -0.13058,-0.0653 -2.67245,0 -3.03045,0 -0.16836,0 -0.33672,0 -0.50508,0 -0.16836,0 -0.38603,0.11904 -0.50508,0 -0.11904,-0.11905 0.11905,-0.38603 0,-0.50508 -0.11904,-0.11905 -0.33671,0 -0.50507,0 -1.01015,0 -2.02031,0 -3.03046,0 -0.16836,0 -0.38603,0.11905 -0.50508,0 -0.11904,-0.11905 0.11905,-0.38603 0,-0.50508 -0.0162,-0.0162 -1.39273,0 -1.51522,0 -0.8418,0 -1.68359,0 -2.52539,0 -0.16835,0 -0.38602,0.11905 -0.50507,0 -0.11905,-0.11905 0.11905,-0.38603 0,-0.50507 -0.25254,-0.25254 -1.26269,0.25253 -1.51523,0 -0.11905,-0.11905 0.11905,-0.38603 0,-0.50508 -0.2381,-0.2381 -0.77206,0.2381 -1.01015,0 -0.11905,-0.11905 0.11904,-0.38603 0,-0.50508 -0.2381,-0.23809 -0.77206,0.2381 -1.01016,0 -0.11904,-0.11904 0.11905,-0.38602 0,-0.50507 -0.23809,-0.2381 -0.77205,0.23809 -1.01015,0 -0.11905,-0.11905 0.11905,-0.38603 0,-0.50508 -0.11905,-0.11905 -0.38603,0.11905 -0.50507,0 -0.11905,-0.11905 0.11904,-0.38603 0,-0.50508 -0.2381,-0.23809 -0.77206,0.2381 -1.01016,0 -0.11904,-0.11904 0.11905,-0.38602 0,-0.50507 -0.11904,-0.11905 -0.35449,0.0753 -0.50507,0 -0.21296,-0.10648 -0.29212,-0.3986 -0.50508,-0.50508 -0.15058,-0.0753 -0.38603,0.11905 -0.50508,0 -0.11904,-0.11905 0.11905,-0.38603 0,-0.50507 -0.33684,-0.33685 -0.67331,0.33684 -1.01015,0 -0.11905,-0.11905 0.11905,-0.38603 0,-0.50508 -0.23809,-0.2381 -0.77206,0.2381 -1.01015,0 -0.67344,-0.67344 0.84179,-0.50508 -0.50508,-0.50508 m 34.85027,21.21321 c -4.20897,0 -8.41794,0 -12.62691,0 -3.87225,0 -7.7445,0 -11.61676,0 -1.68358,0 -3.36717,0 -5.05076,0 -0.16836,0 -0.33672,0 -0.50507,0 -0.16836,0 -0.38603,0.11904 -0.50508,0 -0.11905,-0.11905 0.11905,-0.38603 0,-0.50508 -0.1564,-0.15639 -2.36899,0.1564 -2.52538,0 -0.11905,-0.11905 0.11905,-0.38603 0,-0.50508 -0.25254,-0.25253 -1.26269,0.25254 -1.51523,0 -0.11905,-0.11904 0.11905,-0.38602 0,-0.50507 -0.25254,-0.25254 -1.26269,0.25254 -1.51523,0 -0.11905,-0.11905 0.11905,-0.38603 0,-0.50508 -0.2381,-0.23809 -0.77206,0.2381 -1.01015,0 -0.11905,-0.11905 0,-0.33672 0,-0.50507 -0.16836,0 -0.38603,0.11904 -0.50508,0 -0.11905,-0.11905 0.11905,-0.38603 0,-0.50508 -0.23809,-0.2381 -0.77206,0.23809 -1.01015,0 -0.11905,-0.11905 0.11905,-0.38603 0,-0.50508 -0.2381,-0.23809 -0.77206,0.2381 -1.01015,0 -0.11905,-0.11904 0.11904,-0.38603 0,-0.50507 -0.25254,-0.25254 -1.26269,0.25253 -1.51523,0 -0.11905,-0.11905 0.11904,-0.38603 0,-0.50508 -0.11905,-0.11905 -0.38603,0.11905 -0.50508,0 -0.11905,-0.11905 0.11905,-0.38603 0,-0.50508 -0.23809,-0.23809 -0.77206,0.2381 -1.01015,0 -0.11905,-0.11904 0.11905,-0.38602 0,-0.50507 -0.2381,-0.2381 -0.77206,0.23809 -1.01015,0 -0.11905,-0.11905 0.11904,-0.38603 0,-0.50508 -0.2381,-0.23809 -0.77206,0.2381 -1.01016,0 -0.11904,-0.11905 0.11905,-0.38603 0,-0.50507 -0.11904,-0.11905 -0.38603,0.11904 -0.50507,0 -0.11905,-0.11905 0.11904,-0.38603 0,-0.50508 -0.2381,-0.2381 -0.77206,0.23809 -1.01016,0 -0.11904,-0.11905 0.11905,-0.38603 0,-0.50508 -0.23809,-0.23809 -0.77205,0.2381 -1.01015,0 -0.11905,-0.11904 0.11905,-0.38603 0,-0.50507 -0.11905,-0.11905 -0.35449,0.0753 -0.50507,0 -0.21296,-0.10648 -0.29212,-0.3986 -0.50508,-0.50508 -0.15059,-0.0753 -0.38603,0.11905 -0.50508,0 -0.11904,-0.11905 0.11905,-0.38603 0,-0.50508 -0.23809,-0.23809 -0.77205,0.2381 -1.01015,0 -0.11905,-0.11904 0.11905,-0.38602 0,-0.50507 -0.11905,-0.11905 -0.50508,0.16836 -0.50508,0 0,-0.16836 0.33672,0 0.50508,0"
         style="fill:none;fill-rule:evenodd;stroke:#00ffeb;stroke-width:11.93830776;stroke-linecap:butt;stroke-linejoin:miter;stroke-miterlimit:4;stroke-dasharray:none;stroke-opacity:0.35686275;filter:url(#filter6676)" />
    </g>
    <path
       style="fill:none;fill-rule:evenodd;stroke:#9b9b9b;stroke-width:2.00400209;stroke-linecap:butt;stroke-linejoin:miter;stroke-miterlimit:4;stroke-dasharray:none;stroke-opacity:1"
       d="M 472.5,272.71935 C 460,273.43363 351.07143,259.8622 225.35714,280.57649 99.642857,301.29077 76.428572,340.93363 76.428572,340.93363 c 0,0 -11.428572,15 -3.571429,30 7.857143,15 7.955061,8.66698 7.955061,8.66698"
       id="path6095"
       inkscape:connector-curvature="0" />
    <path
       style="fill:none;fill-rule:evenodd;stroke:#9b9b9b;stroke-width:2.00400209;stroke-linecap:butt;stroke-linejoin:miter;stroke-miterlimit:4;stroke-dasharray:none;stroke-opacity:1"
       d="m 579.64286,288.79077 c 0,0 92.14286,20.71429 110.35714,57.85715 18.21429,37.14286 -54.28571,63.92857 -54.28571,63.92857 0,0 -87.85715,36.78571 -243.92858,38.57143 -156.07142,1.78571 -241.07142,-30.35714 -239.64285,-30.35714"
       id="path6097"
       inkscape:connector-curvature="0" />
    <path
       style="fill:#9b9b9b;fill-opacity:1;fill-rule:evenodd;stroke:#9b9b9b;stroke-width:2.202;stroke-linecap:butt;stroke-linejoin:miter;stroke-opacity:1;stroke-miterlimit:4;stroke-dasharray:none"
       d="m 492.85714,433.79078 -26.78571,11.78571 45.71429,1.42857 z"
       id="path6911"
       inkscape:connector-curvature="0" />
    <path
       style="fill:#9b9b9b;fill-opacity:1;fill-rule:evenodd;stroke:#9b9b9b;stroke-width:2.202;stroke-linecap:butt;stroke-linejoin:miter;stroke-opacity:1;stroke-miterlimit:4;stroke-dasharray:none"
       d="m 242.32214,286.21191 26.78571,-11.78571 -45.71429,-1.42856 z"
       id="path6911-2"
       inkscape:connector-curvature="0" />
    <path
       style="fill:none;fill-rule:evenodd;stroke:#5b4f06;stroke-width:20.7;stroke-linecap:butt;stroke-linejoin:miter;stroke-opacity:1;stroke-miterlimit:4;stroke-dasharray:none;filter:url(#filter4325)"
       d="m 248.1686,427.40668 c 12.0866,15.64027 33.56774,12.57111 50.97049,13.34541 3.95815,-0.0445 8.13599,-0.17995 11.65897,-2.23373 m -88.89343,39.39595 c 3.9861,12.0156 16.01707,19.36333 26.60927,24.96403 9.59295,3.5381 19.98738,2.86339 29.95927,4.33039 m -39.39595,-44.44671 c 15.95938,7.93946 32.67907,16.0963 50.59467,17.9195 11.74125,0.89548 23.51585,-0.16336 35.2683,0.26324"
       id="path4186"
       inkscape:connector-curvature="0" />
  </g>
</svg>
